<?xml version="1.0" standalone="no"?>
<!DOCTYPE svg PUBLIC "-//W3C//DTD SVG 20010904//EN"
 "http://www.w3.org/TR/2001/REC-SVG-20010904/DTD/svg10.dtd">
<svg version="1.0" xmlns="http://www.w3.org/2000/svg"
 width="512.000000pt" height="512.000000pt" viewBox="0 0 512.000000 512.000000"
 preserveAspectRatio="xMidYMid meet">

<g transform="translate(0.000000,512.000000) scale(0.100000,-0.100000)"
fill="#000000" stroke="none">
<path d="M3675 4626 c-147 -29 -291 -93 -403 -180 -31 -24 -204 -192 -384
-373 -352 -353 -350 -351 -334 -439 9 -47 73 -111 120 -120 88 -16 84 -19 456
350 321 318 350 345 420 378 102 50 181 68 292 68 111 0 186 -17 288 -67 65
-31 96 -57 236 -197 131 -132 167 -174 197 -233 100 -193 100 -392 1 -586 -34
-66 -84 -119 -598 -633 -511 -511 -567 -564 -631 -596 -124 -63 -167 -73 -300
-72 -106 0 -129 4 -195 28 -114 43 -192 101 -345 258 -156 159 -200 228 -235
364 -23 88 -25 155 -9 254 11 66 11 72 -12 117 -59 115 -202 122 -275 15 -49
-72 -56 -316 -14 -477 27 -103 95 -242 158 -325 68 -89 344 -357 415 -404 80
-52 193 -103 285 -128 116 -32 345 -32 461 0 98 27 206 74 288 128 84 54 1168
1137 1234 1232 116 166 163 322 163 532 0 201 -45 356 -150 517 -47 71 -315
347 -404 415 -83 64 -223 132 -325 159 -103 27 -301 34 -400 15z"/>
<path d="M1915 3506 c-146 -28 -293 -94 -404 -181 -95 -74 -1154 -1144 -1195
-1208 -54 -83 -101 -189 -127 -287 -33 -122 -33 -337 0 -460 28 -108 95 -247
159 -330 68 -89 344 -357 415 -404 82 -53 189 -101 288 -128 120 -32 336 -32
459 1 108 28 247 95 330 159 36 28 212 198 392 378 352 354 350 352 334 440
-9 47 -73 111 -120 120 -88 16 -85 18 -451 -345 -370 -368 -398 -390 -545
-430 -92 -26 -235 -28 -324 -5 -131 33 -199 77 -354 228 -161 157 -218 235
-259 351 -24 70 -27 95 -27 195 0 100 3 125 27 195 16 43 48 109 72 145 29 43
226 247 587 606 492 489 550 544 613 576 119 60 168 73 290 73 120 0 177 -12
269 -57 90 -43 139 -84 287 -235 118 -120 142 -151 178 -224 65 -133 83 -247
60 -389 -11 -66 -11 -72 12 -117 32 -61 94 -97 158 -90 88 10 133 68 151 194
32 227 -25 461 -159 655 -62 90 -343 370 -430 428 -84 56 -194 106 -289 131
-100 27 -299 34 -397 15z"/>
</g>
</svg>
