<?xml version="1.0" standalone="no"?>
<!DOCTYPE svg PUBLIC "-//W3C//DTD SVG 20010904//EN"
 "http://www.w3.org/TR/2001/REC-SVG-20010904/DTD/svg10.dtd">
<svg version="1.0" xmlns="http://www.w3.org/2000/svg"
 width="512.000000pt" height="512.000000pt" viewBox="0 0 512.000000 512.000000"
 preserveAspectRatio="xMidYMid meet">

<g transform="translate(0.000000,512.000000) scale(0.100000,-0.100000)"
fill="#000000" stroke="none">
<path d="M559 2373 c-224 -227 -268 -284 -324 -421 -122 -300 -80 -641 110
-902 65 -89 326 -347 404 -399 166 -112 333 -164 531 -164 202 0 376 55 538
170 72 50 675 643 718 705 23 33 26 45 22 98 -4 54 -9 65 -40 97 -29 29 -45
37 -87 41 -27 2 -63 1 -78 -3 -19 -4 -143 -120 -368 -344 -191 -190 -360 -350
-385 -364 -25 -14 -81 -38 -125 -53 -69 -24 -96 -28 -195 -27 -100 0 -126 3
-199 28 -120 41 -177 83 -347 256 -163 166 -205 229 -238 356 -21 79 -21 228
0 306 17 65 58 157 96 210 12 18 154 166 317 330 l295 297 -215 0 -215 0 -215
-217z"/>
<path d="M1944 2544 c9 -72 59 -205 107 -291 35 -61 81 -116 219 -257 192
-195 256 -247 382 -305 255 -119 551 -115 803 11 113 57 180 117 565 502 l385
386 -214 0 -214 0 -281 -278 c-255 -252 -288 -282 -361 -319 -105 -54 -187
-75 -299 -74 -212 1 -339 71 -573 314 -110 114 -165 195 -195 288 l-22 69
-154 0 -155 0 7 -46z"/>
<path d="M2866 2563 c5 -16 9 -107 9 -203 0 -153 2 -179 18 -203 44 -67 143
-88 207 -44 48 32 68 65 80 126 11 60 13 234 4 305 l-7 46 -159 0 -160 0 8
-27z"/>
</g>
</svg>
