<svg width="311" height="193" fill="none" xmlns="http://www.w3.org/2000/svg"><path d="M1.683 191.48s-2.27-25.435 14.082-38.607c16.353-13.172 30.435 2.271 41.787-10.901 11.353-13.172 18.11-22.201 34.013-19.931" stroke="#374146" stroke-width="1.316" stroke-miterlimit="10" stroke-linecap="round"/><path d="m286.414 35.093 7.478 11.42 6.404-4.193-7.478-11.42-6.404 4.193Z" stroke="#374146" stroke-width=".985" stroke-miterlimit="10" stroke-linecap="round"/><path d="M116.823 151.715v39.313h95.085v-37.043l-95.085-2.27Z" fill="#BF7E3D"/><path d="M136.019 32.98s-25.08 3.207-32.899 14.842c0 0-7.827 9.426-10.433 21.662C90.08 81.72 82.659 85.73 89.48 102.78c0 0-4.011 24.48 10.027 29.489 0 0-3.41 10.434 8.021 17.051 0 0 8.676 2.809 8.879 8.631l94.838-.406a25.304 25.304 0 0 1 5.062-6.67l5.565-9.78s23.677-13.641 17.457-36.707c-6.219-23.067-15.018-18.853-18.658-36.106-3.64-17.254-20.505-27.688-33.147-31.292a55.506 55.506 0 0 0-24.065-1.21s-23.906-4.612-27.44-2.8Z" fill="#EDC9B4"/><path d="M136.576 33.201s10.601 15.019 25.673 1.608l5.018 34.1-1.767 6.185-3.366-1.652-25.558-40.24Z" fill="#fff"/><path d="M167.877 152.113V112.27" stroke="#fff" stroke-width="1.316" stroke-miterlimit="10" stroke-linecap="round"/><path d="M133.37 126.538s52.361 3.313 43.633-42.405" stroke="#374146" stroke-width="1.316" stroke-miterlimit="10" stroke-linecap="round"/><path d="m162.655 37.779-.6-6.82s6.617-1.608 4.814-7.024c0 0 3.808-1.007.999-4.01 0 0 4.011-8.835-2.606-11.035-6.617-2.2-14.842-1.007-16.45 3.41-1.608 4.417-2.209 12.633-2.209 12.633l-10.027 8.27s13.437 15.804 26.079 4.576Z" fill="#CEA089"/><path d="M101.071 131.052s17.854 7.227 28.27-1.599c10.416-8.825 28.19 0 37.414-15.248 9.223-15.248 3.613-20.46 3.613-20.46l3.207-5.822s-9.974-6.246-14.913-11.185c0 0-1.237.557-4.046 3.764 0 0-15.646 1.201-22.466 9.63-6.82 8.427-19.436 0-31.892 13.039M114.508 148.703h47.944" stroke="#fff" stroke-width="1.316" stroke-miterlimit="10" stroke-linecap="round"/><path d="M210.794 148.703h-37.307" stroke="#231F20" stroke-width="1.316" stroke-miterlimit="10"/><path d="M160.049 77.188s.795-.883.884-4.709c.106-4.284-2.112-4.01.097-10.23 0 0 1.254-.804 1.705 1.599.45 2.403-.053 2.164-.203-.698-.15-2.862.406-3.71.406-3.71s1.405-3.914 6.37-1.767c0 0 4.815-1.962 7.067 1.351l1.352 1.953a2.737 2.737 0 0 1 2.862 3.012s2.103.601 2.553 4.665c.451 4.064 1.962 5.716.884 8.269-1.078 2.553-3.49 5.3-10.407 10.239.044-.07-8.304-4.806-13.57-9.974Z" fill="#CEA089"/><path d="M153.53 26.639s2.907 4.867 8.525 4.32" stroke="#374146" stroke-width=".654" stroke-miterlimit="10" stroke-linecap="round"/><path d="M147.805 25.392a61.4 61.4 0 0 1-4.355-9.479c-1.962-5.415-.46-8.119 3.003-9.62 3.463-1.502 3.914-6.927 10.231-5.725 6.316 1.201 7.827.45 13.092-.45 5.265-.902 7.068 3.612 5.115 6.183a13.45 13.45 0 0 1-10.981 5.416c-5.301-.15-3.914 2.553-5.301 4.055-1.387 1.502-2.862.46-4.214-.751-1.351-1.21-3.763-1.052-4.063 1.51-.301 2.563.15 5.107 1.855 6.609.035-.01-1.97 4.514-4.382 2.252Z" fill="#374146"/><path d="M165.173 168.898h-39.039s-46.328-4.276-59.95 22.97" stroke="#374146" stroke-width="1.316" stroke-miterlimit="10" stroke-linecap="round"/><path d="M174.441 161.143h-7.218a2.862 2.862 0 0 0-2.862 2.862v10.221a2.862 2.862 0 0 0 2.862 2.863h7.218a2.862 2.862 0 0 0 2.862-2.863v-10.221a2.862 2.862 0 0 0-2.862-2.862Z" fill="#F45914"/><path d="M264.552 146.697H174.29a3.163 3.163 0 0 0-3.163 3.163v38.059a3.163 3.163 0 0 0 3.163 3.162h90.262a3.162 3.162 0 0 0 3.162-3.162V149.86a3.163 3.163 0 0 0-3.162-3.163Z" fill="#23A6A6"/><path d="M155.182 21.822s-.884 3.313-3.764.884" stroke="#374146" stroke-width=".654" stroke-miterlimit="10" stroke-linecap="round"/><path d="M200.511 126.687c-.724-.23-17.306 10.84-17.757 15.496-.45 4.655.884 7.376.884 9.779 0 2.403.45 7.377 5.3 4.965 0 0 4.356 4.064 6.317.61 0 0 3.463 3.004 4.965-.76 0 0 3.913 3.764 6.617-.15 0 0-1.052-4.355-.301-7.218.751-2.862 7.828-2.712 10.381-9.93-.053 0-3.817-8.728-16.406-12.792Z" fill="#CEA089"/><path d="M206.784 121.723s8.128.3 14.444 10.84M156.533 82.914a97.486 97.486 0 0 0 10.831 8.42M118.016 93.744V79.901l-17.148-26.477" stroke="#fff" stroke-width="1.316" stroke-miterlimit="10" stroke-linecap="round"/><path d="m203.78 51.613-12.642 22.572a12.586 12.586 0 0 0 3.41 12.139c9.355 9.347 2.208 10.23 6.184 20.655 3.975 10.424 3.012 11.237 3.012 11.237s-3.313 7.474-3.313 8.472c0 0 17.448 7.068 16.397 12.793" stroke="#fff" stroke-width="1.316" stroke-miterlimit="10" stroke-linecap="round"/><path d="M162.249 22.53s-.194 2.703 2.916 2.508l-2.916-2.509ZM166.26 19.014a.397.397 0 1 0 0-.795.397.397 0 0 0 0 .795Z" fill="#374146"/><path d="M164.458 15.807a2.57 2.57 0 0 1 3.41-.504" stroke="#374146" stroke-width=".654" stroke-miterlimit="10" stroke-linecap="round"/><path d="M162.524 63.15s-6.317-24.17 20.76-24.736c0 0 18.358-1.767 23.474 17.448 5.115 19.215 14.135 21.971 22.271 19.86 8.137-2.112 8.119-13.544 19.56-11.432 11.44 2.111 14.744-2.112 18.649-9.029" stroke="#374146" stroke-width="1.316" stroke-miterlimit="10" stroke-linecap="round"/><path d="m274.461 56.328-4.709-7.191a4.603 4.603 0 0 1 1.328-6.372l15.107-9.893 9.593 14.648-15.358 10.057a4.31 4.31 0 0 1-5.968-1.244l.007-.005Z" fill="#F45914"/><path d="m265.548 57.43-.648-.99a2.55 2.55 0 0 1 .774-3.527l9.09-5.954 3.359 5.13-9.223 6.04a2.396 2.396 0 0 1-3.352-.7Z" fill="#F45914"/><path d="M172.127 116.784a.848.848 0 1 0 0-1.697.848.848 0 0 0 0 1.697ZM172.127 134.321a.848.848 0 1 0 0-1.696.848.848 0 0 0 0 1.696Z" fill="#fff"/><path d="M169.326 57.639s4.337 2.915 3.145 9.717M177.745 60.941s1.369 4.727.512 8.128M181.491 64.477s1.369 4.77.177 8.171M188.885 156.929s-2.279-10.354-.751-13.084c1.528-2.73 1.369-2.041 1.369-2.041M195.21 157.538s-3.49-11.644 1.113-14.374M200.166 156.779s-2.65-9.524 1.423-12.422" stroke="#374146" stroke-width=".654" stroke-miterlimit="10" stroke-linecap="round"/><path d="m286.452 23.573-4.258-10.133M299.678 26.223l9.585-5.371M293.591 23.29l1.943-10.813" stroke="#374146" stroke-width="1.484" stroke-miterlimit="10" stroke-linecap="round"/><path d="M263.651 151.962a1.475 1.475 0 1 0 .001-2.949 1.475 1.475 0 0 0-.001 2.949ZM174.741 151.962a1.475 1.475 0 1 0 .001-2.949 1.475 1.475 0 0 0-.001 2.949ZM174.741 188.873a1.475 1.475 0 1 0 0-2.95 1.475 1.475 0 0 0 0 2.95ZM263.651 188.873a1.475 1.475 0 1 0 0-2.95 1.475 1.475 0 0 0 0 2.95Z" fill="#FBFCFC"/><path d="M183.39 162.848h-9.206a2.208 2.208 0 0 0-2.208 2.208v9.206c0 1.22.989 2.208 2.208 2.208h9.206c1.22 0 2.209-.988 2.209-2.208v-9.206c0-1.22-.989-2.208-2.209-2.208Z" stroke="#fff" stroke-width=".866" stroke-miterlimit="10"/><path d="M254.181 165.135h-10.018c-.996 0-1.803.807-1.803 1.802v5.477c0 .996.807 1.803 1.803 1.803h10.018c.995 0 1.802-.807 1.802-1.803v-5.477c0-.995-.807-1.802-1.802-1.802ZM232.871 181.488h-7.323a1.59 1.59 0 0 0-1.59 1.59v5.902c0 .878.711 1.59 1.59 1.59h7.323a1.59 1.59 0 0 0 1.591-1.59v-5.902a1.59 1.59 0 0 0-1.591-1.59Z" stroke="#fff" stroke-width=".742" stroke-miterlimit="10"/></svg>