<?xml version="1.0" standalone="no"?>
<!DOCTYPE svg PUBLIC "-//W3C//DTD SVG 20010904//EN"
 "http://www.w3.org/TR/2001/REC-SVG-20010904/DTD/svg10.dtd">
<svg version="1.0" xmlns="http://www.w3.org/2000/svg"
 width="512.000000pt" height="512.000000pt" viewBox="0 0 512.000000 512.000000"
 preserveAspectRatio="xMidYMid meet">

<g transform="translate(0.000000,512.000000) scale(0.100000,-0.100000)"
fill="#000000" stroke="none">
<path d="M2400 4944 c-103 -28 -204 -83 -279 -153 -27 -26 -31 -33 -21 -51 16
-29 30 -25 97 28 217 175 526 173 734 -5 57 -48 73 -52 89 -22 10 17 5 26 -37
65 -56 52 -181 117 -268 139 -75 19 -242 19 -315 -1z"/>
<path d="M2418 4771 c-67 -22 -130 -57 -176 -100 -28 -26 -31 -34 -22 -51 15
-28 31 -25 76 11 22 18 68 46 104 63 58 27 75 31 160 31 85 0 102 -4 160 -31
36 -17 82 -45 104 -63 45 -36 61 -39 76 -11 9 17 6 25 -17 47 -116 109 -311
153 -465 104z"/>
<path d="M2469 4611 c-92 -30 -163 -109 -114 -127 9 -4 33 6 55 21 102 71 198
71 300 0 22 -15 46 -25 55 -21 38 14 -1 74 -75 112 -39 19 -177 29 -221 15z"/>
<path d="M2469 4411 c-34 -34 -39 -44 -39 -86 0 -79 51 -136 124 -138 81 -2
136 54 136 138 0 42 -5 52 -39 86 -35 35 -44 39 -91 39 -47 0 -56 -4 -91 -39z
m136 -46 c31 -30 32 -62 3 -92 -27 -29 -65 -29 -95 -1 -30 28 -29 63 2 93 31
32 59 32 90 0z"/>
<path d="M445 4070 c-3 -5 -3 -19 0 -31 6 -18 14 -20 78 -17 69 3 72 4 72 28
0 24 -3 25 -72 28 -42 2 -74 -1 -78 -8z"/>
<path d="M724 4065 c-4 -8 -4 -22 0 -30 5 -13 46 -15 285 -15 270 0 280 1 286
20 3 11 3 24 0 30 -4 6 -109 10 -286 10 -239 0 -280 -2 -285 -15z"/>
<path d="M1787 3990 c-49 -9 -87 -37 -112 -83 l-20 -37 -775 -2 c-754 -3 -776
-4 -809 -23 -62 -37 -72 -71 -69 -227 3 -153 12 -177 79 -210 31 -17 91 -18
807 -18 671 0 772 -2 772 -15 0 -22 61 -86 97 -101 48 -20 1558 -20 1606 0 36
15 97 79 97 101 0 13 101 15 773 15 715 0 775 1 806 18 67 33 76 57 79 210 3
156 -7 190 -69 227 -33 19 -55 20 -809 23 l-775 2 -20 37 c-26 47 -62 73 -116
84 -54 10 -1489 10 -1542 -1z m1570 -80 c45 -27 53 -67 53 -280 0 -203 -8
-249 -47 -280 -24 -19 -39 -20 -284 -20 l-257 0 -18 53 c-49 151 -72 167 -244
167 -172 0 -195 -16 -244 -167 l-18 -53 -257 0 c-245 0 -260 1 -284 20 -39 31
-47 77 -47 280 0 213 8 253 53 280 31 19 57 20 797 20 740 0 766 -1 797 -20z
m-1707 -285 l0 -175 -771 2 -771 3 -19 24 c-16 20 -19 40 -19 149 0 115 2 128
22 149 l21 23 769 0 768 0 0 -175z m3377 153 c22 -20 23 -29 23 -149 0 -110
-3 -130 -19 -150 l-19 -24 -771 -3 -771 -2 0 175 0 175 767 0 767 0 23 -22z
m-2354 -299 c14 -6 30 -21 35 -33 17 -33 42 -98 42 -107 0 -5 -85 -9 -190 -9
-104 0 -190 3 -190 8 0 10 33 94 45 113 6 9 19 21 30 27 26 15 197 15 228 1z"/>
<path d="M1895 2921 c-71 -88 -125 -191 -125 -239 1 -137 150 -231 275 -173
98 46 141 149 101 246 -32 76 -155 235 -182 235 -7 0 -38 -31 -69 -69z m119
-74 c21 -28 50 -76 64 -106 22 -47 23 -58 13 -91 -20 -66 -69 -97 -145 -91
-84 7 -129 97 -92 184 16 37 102 157 113 157 5 0 25 -24 47 -53z"/>
<path d="M2519 2958 c-39 -42 -99 -130 -129 -188 -65 -127 15 -268 158 -278
151 -10 252 143 182 278 -48 94 -146 220 -170 220 -6 0 -25 -15 -41 -32z m100
-129 c58 -82 75 -127 67 -173 -7 -39 -51 -83 -94 -95 -102 -30 -195 85 -147
180 26 50 105 159 115 159 5 0 32 -32 59 -71z"/>
<path d="M3114 2958 c-158 -170 -194 -307 -106 -402 98 -104 264 -79 323 49
34 73 20 136 -52 242 -50 74 -110 143 -123 143 -7 0 -26 -15 -42 -32z m85
-110 c80 -108 97 -167 67 -227 -25 -48 -70 -68 -143 -63 -33 3 -81 49 -94 92
-10 33 -9 44 13 91 26 55 97 159 110 159 4 0 25 -24 47 -52z"/>
<path d="M1290 2214 c-31 -13 -40 -38 -40 -108 0 -83 21 -187 49 -250 27 -62
103 -141 165 -171 63 -31 171 -55 249 -55 l57 0 0 -249 0 -249 -362 -5 c-400
-5 -428 -9 -561 -71 -185 -86 -324 -248 -385 -447 -27 -89 -39 -204 -22 -224
11 -13 254 -15 2120 -15 1866 0 2109 2 2120 15 17 20 5 135 -22 224 -61 199
-200 361 -385 447 -133 62 -161 66 -560 71 l-363 5 0 249 0 249 58 0 c77 0
185 24 248 55 62 30 138 109 165 171 45 101 65 298 35 340 -13 17 -26 19 -113
18 -196 -2 -332 -69 -399 -198 l-28 -55 -29 52 c-72 133 -202 199 -398 201
-124 1 -129 -2 -129 -103 0 -210 78 -364 215 -427 67 -31 172 -54 248 -54 l57
0 0 -250 0 -250 -720 0 -720 0 0 249 0 248 88 6 c103 7 202 35 261 76 111 74
171 215 171 401 0 102 -5 105 -129 104 -194 -2 -330 -70 -397 -198 l-28 -55
-29 52 c-50 93 -114 143 -228 178 -60 19 -231 34 -259 23z m254 -89 c147 -51
212 -150 224 -337 l5 -88 -74 0 c-245 1 -378 134 -379 379 l0 74 88 -6 c48 -2
109 -13 136 -22z m750 10 c3 -8 1 -54 -5 -102 -25 -222 -150 -333 -376 -333
l-73 0 0 60 c0 107 29 200 85 275 28 37 112 85 180 101 74 18 181 18 189 -1z
m761 -10 c144 -48 225 -180 225 -367 l0 -61 -98 5 c-214 10 -327 116 -351 326
-14 127 -15 126 88 119 47 -3 109 -13 136 -22z m745 -47 c-1 -243 -135 -377
-377 -378 l-73 0 0 66 c0 244 135 380 383 383 l67 1 0 -72z m305 -1033 c39 -8
108 -33 155 -56 114 -56 238 -178 292 -289 37 -75 68 -180 68 -232 l0 -28
-2061 0 -2062 0 7 56 c15 131 85 270 183 367 96 95 205 156 324 182 98 21
2993 21 3094 0z"/>
<path d="M1304 646 c-15 -12 -17 -18 -8 -33 10 -16 29 -18 200 -18 179 0 189
1 192 19 8 39 -22 46 -198 46 -129 0 -171 -3 -186 -14z"/>
<path d="M1814 646 c-15 -12 -17 -18 -8 -33 8 -14 26 -19 72 -21 52 -2 62 0
71 17 8 15 7 23 -5 35 -20 20 -103 21 -130 2z"/>
<path d="M3360 205 c-7 -8 -10 -22 -6 -30 5 -13 42 -15 288 -13 l283 3 0 25 0
25 -276 3 c-236 2 -278 0 -289 -13z"/>
<path d="M4054 205 c-14 -35 3 -45 76 -45 75 0 96 14 70 45 -18 21 -138 21
-146 0z"/>
</g>
</svg>
