<?xml version="1.0" standalone="no"?>
<!DOCTYPE svg PUBLIC "-//W3C//DTD SVG 20010904//EN"
 "http://www.w3.org/TR/2001/REC-SVG-20010904/DTD/svg10.dtd">
<svg version="1.0" xmlns="http://www.w3.org/2000/svg"
 width="512.000000pt" height="512.000000pt" viewBox="0 0 512.000000 512.000000"
 preserveAspectRatio="xMidYMid meet">

<g transform="translate(0.000000,512.000000) scale(0.100000,-0.100000)"
fill="#000000" stroke="none">
<path d="M2505 5095 c-25 -24 -25 -26 -25 -215 0 -189 0 -191 25 -215 33 -34
77 -33 104 1 20 25 21 40 21 216 0 187 0 189 -25 213 -13 14 -36 25 -50 25
-14 0 -37 -11 -50 -25z"/>
<path d="M1040 4490 c-12 -12 -20 -33 -20 -53 0 -29 16 -49 138 -170 151 -150
170 -160 217 -112 48 47 38 66 -112 217 -121 122 -141 138 -170 138 -20 0 -41
-8 -53 -20z"/>
<path d="M3848 4372 c-151 -151 -161 -170 -113 -217 47 -48 66 -38 217 112
128 128 138 140 138 174 0 44 -27 69 -74 69 -25 0 -52 -22 -168 -138z"/>
<path d="M2400 4449 c-184 -20 -396 -87 -556 -174 -88 -48 -198 -125 -226
-157 -24 -27 -23 -73 2 -98 34 -34 75 -26 149 29 305 223 678 305 1053 230
313 -62 615 -255 805 -513 108 -147 186 -319 230 -509 34 -145 38 -392 10
-526 -62 -289 -177 -503 -376 -701 -109 -108 -190 -168 -327 -242 -43 -23 -84
-49 -91 -57 -8 -11 -12 -57 -13 -133 l0 -118 -130 0 -130 0 0 334 0 333 75 6
c132 10 209 66 242 177 44 150 -69 300 -226 300 -97 0 -162 -37 -214 -120 -16
-26 -23 -57 -27 -120 l-5 -85 -86 -3 -86 -3 -6 76 c-8 89 -26 138 -70 184 -45
47 -101 71 -170 71 -69 0 -120 -19 -165 -63 -116 -110 -98 -292 36 -373 55
-33 97 -44 175 -44 l47 0 0 -335 0 -335 -135 0 -135 0 0 120 c0 137 -3 143
-86 180 -97 42 -248 153 -349 254 -193 193 -319 432 -371 703 -23 117 -23 347
-1 469 34 188 123 398 233 548 41 56 54 83 54 109 0 43 -26 67 -73 67 -35 0
-41 -5 -97 -81 -279 -375 -361 -888 -214 -1333 74 -225 191 -414 364 -587 111
-111 274 -234 358 -268 l32 -13 0 -84 0 -84 -35 -14 c-62 -26 -60 -112 3 -131
l32 -9 0 -474 0 -473 25 -24 c13 -14 31 -25 38 -25 15 0 27 -29 27 -65 0 -38
57 -140 100 -179 23 -21 63 -48 89 -60 44 -20 60 -21 376 -21 317 0 332 1 377
22 100 46 177 148 193 256 5 31 12 47 22 47 7 0 25 11 38 25 l25 24 0 470 0
471 35 14 c69 29 58 116 -17 140 -15 5 -18 18 -18 88 l0 83 75 39 c109 57 228
151 335 263 621 647 539 1675 -177 2212 -295 222 -685 330 -1043 290z m-115
-1991 c23 -20 26 -32 28 -88 l2 -65 -62 0 c-55 0 -66 4 -90 27 -81 82 34 201
122 126z m669 -9 c60 -71 4 -149 -108 -149 l-46 0 0 65 c0 57 3 69 25 90 37
38 95 35 129 -6z m-304 -634 l0 -335 -90 0 -90 0 0 335 0 335 90 0 90 0 0
-335z m410 -535 l0 -50 -505 0 -505 0 0 43 c0 24 3 47 7 50 3 4 231 7 505 7
l498 0 0 -50z m0 -250 l0 -50 -505 0 -505 0 0 50 0 50 505 0 505 0 0 -50z m0
-250 l0 -50 -505 0 -505 0 0 50 0 50 505 0 505 0 0 -50z m0 -250 l0 -50 -505
0 -505 0 0 50 0 50 505 0 505 0 0 -50z m-80 -217 c-1 -27 -34 -96 -56 -115
-50 -44 -80 -48 -369 -48 -225 0 -282 3 -312 15 -63 26 -93 64 -108 133 l-7
32 426 0 c399 0 426 -1 426 -17z"/>
<path d="M435 3025 c-14 -13 -25 -36 -25 -50 0 -14 11 -37 25 -50 24 -25 26
-25 213 -25 176 0 191 1 216 21 34 27 35 71 1 104 -24 25 -26 25 -215 25 -189
0 -191 0 -215 -25z"/>
<path d="M4245 3025 c-14 -13 -25 -36 -25 -50 0 -14 11 -37 25 -50 24 -25 26
-25 213 -25 176 0 191 1 216 21 34 27 35 71 1 104 -24 25 -26 25 -215 25 -189
0 -191 0 -215 -25z"/>
<path d="M1158 1682 c-116 -116 -138 -143 -138 -168 0 -47 25 -74 69 -74 34 0
46 10 174 138 150 151 160 170 112 217 -47 48 -66 38 -217 -113z"/>
<path d="M3735 1795 c-48 -47 -38 -66 112 -217 126 -127 140 -138 173 -138 46
0 70 25 70 71 0 32 -14 48 -138 172 -151 150 -170 160 -217 112z"/>
</g>
</svg>
