<?xml version="1.0" standalone="no"?>
<!DOCTYPE svg PUBLIC "-//W3C//DTD SVG 20010904//EN"
 "http://www.w3.org/TR/2001/REC-SVG-20010904/DTD/svg10.dtd">
<svg version="1.0" xmlns="http://www.w3.org/2000/svg"
 width="512.000000pt" height="512.000000pt" viewBox="0 0 512.000000 512.000000"
 preserveAspectRatio="xMidYMid meet">

<g transform="translate(0.000000,512.000000) scale(0.100000,-0.100000)"
fill="#000000" stroke="none">
<path d="M1855 4786 c-37 -17 -70 -52 -84 -89 -7 -18 -11 -150 -11 -362 l0
-334 -189 -3 c-207 -3 -216 -6 -265 -72 -20 -27 -21 -41 -24 -494 -3 -528 3
-605 64 -790 65 -199 176 -374 330 -522 189 -180 400 -288 666 -340 l57 -11 3
-333 3 -332 37 -76 c45 -91 103 -147 196 -191 l67 -32 388 -5 389 -5 19 -24
c24 -30 24 -72 0 -102 l-19 -24 -890 -5 c-880 -5 -891 -5 -918 -26 -53 -39
-69 -71 -69 -134 0 -63 16 -95 69 -134 27 -21 34 -21 944 -21 l917 0 67 32
c93 44 151 100 196 191 35 72 37 81 37 172 0 91 -2 100 -37 172 -45 91 -103
147 -196 191 l-67 32 -388 5 -389 5 -19 24 c-18 22 -19 43 -19 322 l0 298 38
7 c284 49 531 180 727 385 184 192 302 433 340 696 13 89 15 190 13 575 -3
453 -4 467 -24 494 -49 66 -58 69 -264 72 l-189 3 -3 349 c-3 334 -4 350 -24
376 -39 53 -71 69 -134 69 -63 0 -95 -16 -134 -69 -20 -26 -21 -42 -24 -377
l-3 -349 -479 0 -479 0 -3 349 c-3 335 -4 351 -24 377 -11 15 -32 37 -46 47
-34 25 -113 32 -153 13z m1663 -1503 c-4 -368 -6 -404 -25 -474 -100 -359
-363 -617 -719 -706 -105 -26 -334 -24 -441 4 -352 93 -607 346 -706 702 -19
70 -21 106 -25 474 l-3 397 961 0 961 0 -3 -397z"/>
</g>
</svg>
