<svg width="336" height="284" fill="none" xmlns="http://www.w3.org/2000/svg"><path d="M86.486 142.839s3.258-4.995 1.303-16.722c0 0-11.945-8.253-10.425-13.248 1.52-4.995 11.51-13.031 19.546-12.814 8.036.217 12.708 7.384 11.404 16.016 0 0 5.213.814.486 3.258 0 0 2.764 6.491-3.854 10.401 0 0 3.586 5.374 5.212 6.191 0 0-3.798 15.929-23.672 6.918Z" fill="#C19772"/><path d="M75.086 120.662s5.864.146 8.47-2.298c0 0-.49-6.353 3.91-3.257l.323-5.702 1.737 5.374s5.924-1.627 9.015-3.744c0 0 .162-2.12 2.607-.817 2.444 1.303 10.586-1.955 10.586-4.071 0 0-4.561-8.94-17.102-8.94 0 0-5.528.162-8.797 2.586-3.973 2.962-.976 1.485-5.864 4.253-4.889 2.768-6.196 10.914-4.885 16.616Z" fill="#374146"/><path d="M85.835 137.114s10.586 3.748 15.794 3.748l8.147-9.122s7.328.814 9.934 3.42l34.694 3.258 14.985 78.512-70.524 9.611-7.502-7.984-37.118 12.217s-7.167-32.253-1.141-58.315c0 0 7.005-18.243 26.874-25.41-.007 0 1.785-6.349 5.857-9.935Z" fill="#394247"/><path d="M63.508 227.839s10.587 20.849 13.031 23.941c2.445 3.092 12.38 9.121 26.875 5.05 14.496-4.071 24.269-6.677 34.354-12.217 10.085-5.54 22.314-12.703 26.551-11.057 4.237 1.647 16.289 3.096 21.501 1.955s7.206-2.934 10.938-4.576c3.731-1.643 1.954-3.582 1.954-3.582s6.354-.651 10.591-.49c4.237.162 3.799-7.328-.111-6.677a4.596 4.596 0 0 0 2.283-2.172c.857-1.974.371-4.872-5.106-4.509 0 0 4.888-7.167-9.122-4.885-14.01 2.283-45.931-4.474-45.931-4.474l-14.823 15.882s-28.996 1.303-35.345 4.395c-6.35 3.092-8.147-8.292-8.147-8.292l-29.493 11.708Z" fill="#C19772"/><path d="M176.292 223.102s6.732.272 9.01 3.04c0 0 6.962-1.516 11.021-.434 3.258.868 2.606 3.368 2.606 3.368M183.727 222.313s4.971-3.827.979-9.45M90.395 230.449s2.283-2.851 7.657-5.457" stroke="#374146" stroke-width=".711" stroke-miterlimit="10" stroke-linecap="round"/><path d="m81.602 147.539 18.077 6.678 2.01-12.636 6.626 9.872s9.445-9.612 11.238-14.658M102.451 145.094l21.5 75.582M55.864 176.535c.49 0 21.323 10.267 24.758 12.541M85.672 190.867s-.651 4.395 1.304 8.292c1.954 3.898 5.864 14.172 6.025 16.94" stroke="#fff" stroke-width=".711" stroke-miterlimit="10" stroke-linecap="round"/><path d="M78.26 117.296c.49 0 .163 4.237 4.072 5.528a10.772 10.772 0 0 1 5.552 4.489c.01.019.026.034.045.044.02.009.042.011.063.007a.1.1 0 0 0 .078-.09l.67-5.864s-5.184 1.331-5.294-4.178l-5.185.064Z" fill="#374146"/><path d="M97.468 127.992s3.257 2.717 7.502 1.738" stroke="#374146" stroke-width=".711" stroke-miterlimit="10" stroke-linecap="round"/><path d="M102.885 120.83s1.737 2.5 4.016 1.631" stroke="#374146" stroke-width=".671" stroke-miterlimit="10" stroke-linecap="round"/><path d="M105.926 116.482a.434.434 0 1 0 0-.868.434.434 0 0 0 0 .868Z" fill="#374146"/><path d="M103.426 113.413s1.876-2.199 3.664-.324" stroke="#374146" stroke-width=".671" stroke-miterlimit="10" stroke-linecap="round"/><path d="M107.063 154.705a.708.708 0 1 0-.001-1.415.708.708 0 0 0 .001 1.415ZM109.835 165.023a.707.707 0 1 0 0-1.414.707.707 0 0 0 0 1.414ZM112.907 175.152a.708.708 0 1 0-.001-1.415.708.708 0 0 0 .001 1.415Z" fill="#fff"/><path d="M197.303 209.218s2.661-5.212-4.127-3.853c-6.788 1.358-7.98 5.212-7.98 5.212l12.107-1.359Z" fill="#C19772"/><path d="M209.737 220.076s-3.273 1.003-5.982 0c-3.06.667-6.228.667-9.288 0 0 0-4.11 2.038-8.782.746M206.369 213.506a26.527 26.527 0 0 1-7.819.489s-2.278.897-7.166-.078c0 0-4.233 1.464-5.529.394M187.068 210.248s3.664-.241 5.457-1.22a8.459 8.459 0 0 0 4.738-.395" stroke="#374146" stroke-width=".711" stroke-miterlimit="10" stroke-linecap="round"/><path d="m104.125 195.856 40.052 34.117a5.433 5.433 0 0 0 6.89.126l98.84-77.979a5.333 5.333 0 0 0 .241-8.178l-37.438-33.26a5.014 5.014 0 0 0-6.369-.248l-101.983 77.315a5.217 5.217 0 0 0-1.611 6.259 5.208 5.208 0 0 0 1.378 1.848Z" fill="#23A6A6"/><path d="m137.349 183.487 40.052 34.117a5.436 5.436 0 0 0 6.891.126l98.844-77.991a5.33 5.33 0 0 0 2.03-4.033 5.334 5.334 0 0 0-1.789-4.145l-37.438-33.24a5.014 5.014 0 0 0-6.369-.249l-101.984 77.296a5.211 5.211 0 0 0-1.617 6.268 5.215 5.215 0 0 0 1.38 1.851Z" fill="#fff" stroke="#BF7E3D" stroke-width="1.422" stroke-miterlimit="10"/><path d="m123.02 134.47 40.051 34.116a5.434 5.434 0 0 0 6.891.127l98.84-77.991a5.335 5.335 0 0 0 .241-8.178l-37.438-33.26a5.014 5.014 0 0 0-6.369-.249L123.253 126.36a5.214 5.214 0 0 0-.233 8.111Z" fill="#F45914"/><path d="M156.852 122.444s8.47-14.334 6.843-26.713c-1.627-12.38-11.404-18.306-15.313-14.18-4.194 4.43 9.366 15.657 19.222-3.084 4.885-9.295 2.713-23.846 2.713-23.846" stroke="#23A6A6" stroke-width="1.422" stroke-miterlimit="10" stroke-linecap="round"/><path d="M190.554 89.215c6.477 0 11.728-5.25 11.728-11.728 0-6.477-5.251-11.727-11.728-11.727-6.477 0-11.727 5.25-11.727 11.727 0 6.478 5.25 11.728 11.727 11.728Z" fill="#374146"/><path d="M197.887 56.317a3.096 3.096 0 1 0 0-6.192 3.096 3.096 0 0 0 0 6.192Z" fill="#BF7E3D"/><path d="m227.218 79.597 5.864-15.96 13.358 7.49 9.446-23.455" stroke="#374146" stroke-width="1.422" stroke-miterlimit="10" stroke-linecap="round"/><path d="M189.358 189.581s5.212-19.546 23.779-18.558c18.567.987 15.965 14.333 9.122 14.006-6.844-.328-1.627-17.604 23.131-12.076 0 0 15.961 5.213 18.243 20.85" stroke="#374146" stroke-width="1.066" stroke-miterlimit="10" stroke-linecap="round"/><path d="M188.521 192.941a1.872 1.872 0 1 0-.001-3.743 1.872 1.872 0 0 0 .001 3.743Z" fill="#BF7E3D"/><path d="M263.515 198.707a2.444 2.444 0 1 0 0-4.887 2.444 2.444 0 0 0 0 4.887Z" fill="#23A6A6"/><path d="M156.536 126.121a2.444 2.444 0 1 0 0-4.887 2.444 2.444 0 0 0 0 4.887Z" fill="#374146"/><path d="M228.324 155.606a3.585 3.585 0 1 0 0-7.17 3.585 3.585 0 0 0 0 7.17Z" fill="#F45914"/><path d="M225.481 39.16s1.52-2.37 3.475-.218M220.92 35.467s6.081-6.95 11.727-.651M214.839 30.471s9.99-11.076 22.152-2.172" stroke="#23A6A6" stroke-width="1.422" stroke-miterlimit="10" stroke-linecap="round"/><path d="m200.529 118.122 23.435 3.716s2.259-1.975-.88-6.603c-1.153-1.705 5.046-21.765-6.887-23.325-11.933-1.56-11.66 18.559-12.067 19.381-1.927 3.885-3.072 1.409-3.601 6.831Z" fill="#EDC9B4"/><path d="m210.768 152.442 5.062-31.889 1.425-8.96-7.652-1.208-1.418 8.948-5.453 34.397" stroke="#374146" stroke-width="1.066" stroke-miterlimit="10" stroke-linecap="round"/><path d="M249.023 120.754h-2.587c-.713 0-1.291.578-1.291 1.291v14.034c0 .713.578 1.291 1.291 1.291h2.587c.713 0 1.291-.578 1.291-1.291v-14.034c0-.713-.578-1.291-1.291-1.291ZM186.211 146.562h-2.587c-.713 0-1.291.579-1.291 1.292v14.033c0 .714.578 1.292 1.291 1.292h2.587c.713 0 1.291-.578 1.291-1.292v-14.033c0-.713-.578-1.292-1.291-1.292Z" fill="#23A6A6"/><path d="M239.424 127.771v2.586c0 .713.578 1.291 1.291 1.291h14.034c.713 0 1.291-.578 1.291-1.291v-2.586c0-.713-.578-1.291-1.291-1.291h-14.034c-.713 0-1.291.578-1.291 1.291Z" fill="#23A6A6"/></svg>