<?xml version="1.0" encoding="utf-8"?>
<!-- Generator: Adobe Illustrator 21.1.0, SVG Export Plug-In . SVG Version: 6.00 Build 0)  -->
<svg version="1.1" id="Layer_1" xmlns="http://www.w3.org/2000/svg" xmlns:xlink="http://www.w3.org/1999/xlink" x="0px" y="0px"
	 viewBox="0 0 206.5 206.5" enable-background="new 0 0 206.5 206.5" xml:space="preserve">
<g>
	<circle fill="#77CBC7" cx="103.3" cy="103.2" r="103.2"/>
	<path fill="#62BAB3" d="M103.3,0L103.3,0v206.5l0,0c57,0,103.2-46.2,103.2-103.2C206.5,46.2,160.3,0,103.3,0z"/>
</g>
<g>
	<path fill="#E0B99D" d="M60.4,138c-3.6-6.3-7.1-12.6-10.7-19c-0.7-2.1,0.8-3.3,2-4.6c8.2-8.2,16.1-16.6,24.9-24.1
		c1.2-1,2.3-2.4,4.3-1.5c3.7,3.5,7.7,6.4,13,6.6c0.9,2.3-0.9,3.5-2.1,4.9c-3.9,4.5-8.8,8.1-13,12.4c-3.2,3.3-3.3,6.9-0.2,9.9
		c2.1,2,6.5,1.5,9.2-0.9c2.8-2.6,4.9-5.9,7.7-8.4c1.9-1.7,3.8-2.4,6.2-0.8c2.5,1.7,5.5,2.4,8.2,3.5c1.5,0.8,3.1,0.7,4.7,0.9
		c1.4,0.3,2.3,1.4,3.3,2.3c6.1,6.1,12.1,12.2,18.3,18.2c0.7,0.7,1.3,1.4,1.7,2.3c-0.6,2.3,1.4,3.1,2.6,4.2c2.5,2.5,3.4,5.4,2.1,8.6
		c-1.3,3.1-4,3.9-7.2,3.1c-1.9-0.5-1.5,0.7-1.5,1.8c0,6.3-1.7,7.8-8.2,7.2c-1-0.1-1.7-0.4-2.3,0.9c-3.1,7.8-3.7,8.1-11.4,5.6
		c-0.9,1.1-0.1,2.3-0.3,3.4c-0.7,4.6-6.1,6.9-10.2,4.1c-1.4-1-2.5-2.5-3.8-3.7c-0.8-1.2,0.2-2,0.6-2.9c2.2-4.9,0.7-7.3-4.7-7.5
		c-0.7,0-1.3,0-2-0.3c-0.5-0.3-0.9-0.7-1.2-1.3c-0.4-1.3,0.3-2.3,0.8-3.4c1.7-4.4-0.3-7.2-5-6.8c-0.9,0.1-1.8,0.5-2.8,0
		c-0.6-0.3-1-0.7-1.2-1.2s-0.2-1-0.1-1.6c1.4-6.4-1-8.5-7.3-6.6c-0.4,0.1-0.8,0.2-1.2,0.1c-0.6-0.1-1-0.5-1.4-1
		c-0.9-2.7,0.8-6.4-3-8.1c-1.1-0.7-2.2-0.7-3.3,0C64.3,135.1,63.6,138.7,60.4,138z"/>
	<path fill="#F7D8C3" d="M138,139.6c-1.7,0.2-2.8-0.9-3.8-2c-6.6-6.7-13.2-13.3-19.8-20c-1.6,0.4-3.2,0.5-4.8-0.1
		c-3.2-1.8-7.1-1.7-9.8-4.7c-1.2-1.3-1.9,0.4-2.5,1c-3,2.9-6.1,5.9-9,9c-2.4,2.5-5.3,2.7-8.3,1.9c-3.3-0.9-4.2-4-4.8-7
		c-0.4-2.2,0.6-3.9,2.2-5.4c5.6-5.6,11-11.3,16.6-17c2.2-2,4.7-2.4,7.6-2.2c3.9,0.4,7.9,0.6,11.8,1c3.8,0.4,5.3-2.9,7.8-4.6
		c1.6-0.6,2.6,0.6,3.5,1.6c7.3,7.8,15.8,14.5,23.1,22.3c2.2,2.4,4.5,4.7,4.7,8.3C147.5,127.7,142.8,133.7,138,139.6z"/>
	<path fill="#FEC332" d="M128.5,77.1c-2.9-2.3-2.8-4.3,0-6.9c4.4-4,8.6-8.4,12.7-12.7c1.6-1.7,2.7-2.1,4.6-0.2
		c12.8,13,25.7,25.9,38.7,38.8c1.7,1.7,1.6,2.7-0.1,4.3c-4.6,4.4-9.2,8.9-13.6,13.6c-2.1,2.3-3.6,2.3-5.5,0.1
		c-1.9,0.2-3.1-1-4.2-2.1c-10.3-10.2-20.5-20.4-30.7-30.7C129.3,80.2,128.2,79,128.5,77.1z"/>
	<path fill="#353848" d="M37.4,112.5c-2.1,2.5-3.8,2.2-6-0.3c-4.2-4.7-8.7-9-13.2-13.4c-1.6-1.5-1.9-2.4-0.1-4.2
		c12.6-12.5,25.1-25,37.5-37.6c1.5-1.5,2.4-1.5,3.9,0c4.5,4.7,9,9.5,13.9,13.8c2.4,2.2,2,3.6,0.1,5.5c0.2,2-1.2,3.3-2.4,4.5
		c-9.7,9.7-19.4,19.4-29.1,29.1C40.6,111.3,39.5,112.7,37.4,112.5z"/>
	<path fill="#FEFEFE" d="M128.5,77.1c12.3,12.4,24.6,24.7,36.9,37.1c-2.4,2.5-5,4.7-7,7.4c-2.2,2.9-4,2.4-6.1,0.2
		c-2.7-1.8-3.5-5-5.9-7.1c-7.2-6.6-14.1-13.4-21.1-20.2c-1.5-1.5-2.9-3.2-4.4-4.8c-2.1-1.9-2.2-3.5,0.2-5.5
		C123.8,82.1,126.1,79.5,128.5,77.1z"/>
	<path fill="#FEFEFE" d="M37.4,112.5c12-12,24-24.1,36-36.1c2.3,2.2,4.6,4.6,7.1,6.7c2.3,1.9,2.9,3.6,0.4,5.7
		c-11,9.5-21.2,19.7-31.2,30.2c-2.5,2.9-4.5,2.2-6.7-0.6C41.4,116.3,39.3,114.5,37.4,112.5z"/>
	<path fill="#F7D8C3" d="M74.2,142.9c2.8-2.7,6-2.7,8.8-0.3c2.7,2.4,2.3,5.6,0.3,8.5c-0.5,2.5-2.9,3.6-3.9,5.8
		c-1.3,1.9-2.9,3.4-5.3,4c-3.9,2.7-7,2.6-9.3-0.1c-2.2-2.7-1.9-6,1.1-9.3c0.7-0.8,1.6-1.4,1.5-2.7c0-0.6,0.2-1.2,0.6-1.6
		C70.4,146,71.7,143.6,74.2,142.9z"/>
	<path fill="#F7D8C3" d="M84.2,152c3-1.1,5.8-1.4,8.1,1.3c2.7,3.3,1,6.3-0.8,9.2c-0.4,1.8-1.3,3-3.3,3.2c-0.8,0.7-1.6,1.4-2.3,2.2
		c-2.3,2.7-5,4.1-8.5,2.2c-3.2-1.7-3.7-4.6-2.1-9.2c0.6-2,2.6-2.8,3.6-4.5C80.6,154.8,81.8,152.8,84.2,152z"/>
	<path fill="#F7D8C3" d="M68.6,147.9c-0.3,0.3-0.7,0.6-1,0.9c-2.3,0.4-4.6,1.5-7,0.2c-4.1-2.2-4.2-6.8-0.1-11.1
		c1.9-1.6,3.8-3.3,5.7-4.9c1.4-0.6,2.7-0.6,4.1,0c3.6,2.1,4.2,5.2,3.2,9C72.6,144.6,70.2,145.9,68.6,147.9z"/>
	<path fill="#F7D8C3" d="M92.4,163.4c2.9-0.7,5.8-0.8,7.7,2c2.5,3.7,0.2,6.7-2,9.5c-0.8,0.7-1.7,1.3-2.5,2.1
		c-2.7,2.4-5.5,2.8-8.3,0.4c-2.6-2.2-2.6-5.8-0.3-8.7c0.6-0.7,1.4-1.3,2-1.9C89.6,165,90.7,164,92.4,163.4z"/>
	<path fill="#EAB499" d="M92.4,163.4c-0.9,1.3-1.9,2.5-3.4,3.2c-0.3-0.3-0.5-0.7-0.8-1c1.1-1.1,2.2-2.1,3.3-3.2
		C91.8,162.8,92.1,163.1,92.4,163.4z"/>
	<path fill="#EDB095" d="M68.6,147.9c0.5-2.9,3.1-4.1,4.9-5.8c0.3,0.3,0.5,0.6,0.8,0.9C72.7,144.9,71.3,147.2,68.6,147.9z"/>
	<path fill="#ECB79D" d="M79.5,156.9c-0.3-0.3-0.7-0.5-1-0.8c1.3-2,3-3.6,4.9-5c0.3,0.3,0.6,0.6,0.9,0.9
		C82.6,153.6,81,155.3,79.5,156.9z"/>
	<path fill="#EAAE93" d="M109.6,117.6c1.6,0,3.2,0,4.8,0.1C112.8,118.6,111.2,118.7,109.6,117.6z"/>
	<path fill="#F3B69E" d="M70.2,133.1c-1.4,0-2.7,0-4.1,0C67.5,132,68.8,132,70.2,133.1z"/>
	<path fill="#FEF2EC" d="M82.8,122.7c-2.8-0.1-5.2-2.7-5.2-5.7c0-2.3,3.9-7.3,5.7-7.3c1.1,0,7,5.8,7,7
		C90.4,118.5,85,122.8,82.8,122.7z"/>
	<path fill="#F8F8F8" d="M34.4,92.3c2.6,0.3,4.4,1.7,4.4,4.4c0,2.5-1.5,4.1-4,4.3c-2.7,0.2-4.4-1.4-4.6-4.1
		C30.1,94.2,31.8,92.8,34.4,92.3z"/>
	<path fill="#FEF1EB" d="M83.2,145.9c0.1,2.4-3.3,6.7-4.5,6.2c-2.2-1-4.7-2.8-4.7-5.1c0-2.3,2.4-4.4,4.9-4.5
		C81.3,142.3,82.9,144,83.2,145.9z"/>
	<path fill="#FEF1EB" d="M91.5,156.8c-0.2,2.4-1.3,4.6-3.2,4.3c-2.3-0.4-4-2.9-4.5-5.1c-0.4-1.7,1.6-3.2,3.5-3.1
		C89.9,153,91,154.8,91.5,156.8z"/>
	<path fill="#FEF2EC" d="M71.8,138.6c-0.2,2.2-1.7,4.4-3.5,4.3c-2.2,0-4.3-2.4-4.6-4.5c-0.2-1.9,1.9-3.5,4.1-3.7
		C70.4,134.6,71.3,136.4,71.8,138.6z"/>
	<path fill="#FEF1EB" d="M99.7,168.8c-0.2,2-1.2,3.9-2.7,3.6c-2.5-0.4-3.7-3.1-4.6-5.2c-0.6-1.4,1.3-2.8,2.7-2.7
		C97.6,164.7,98.8,166.7,99.7,168.8z"/>
</g>
</svg>
