<?xml version="1.0" encoding="utf-8"?>
<!-- Generator: Adobe Illustrator 21.1.0, SVG Export Plug-In . SVG Version: 6.00 Build 0)  -->
<svg version="1.1" id="Layer_1" xmlns="http://www.w3.org/2000/svg" xmlns:xlink="http://www.w3.org/1999/xlink" x="0px" y="0px"
	 viewBox="1084 -442.4 210.6 206.8" enable-background="new 1084 -442.4 210.6 206.8" xml:space="preserve">
<g>
	<circle fill="#FF8E82" cx="1191.4" cy="-339.2" r="103.2"/>
	<path fill="#FF8E82" d="M1191.4-442.4L1191.4-442.4V-236l0,0c57,0,103.2-46.2,103.2-103.2C1294.6-396.2,1248.4-442.4,1191.4-442.4z
		"/>
</g>
<g>
	<path fill="#DBDCDE" d="M1138.8-249.9c-0.1-1.1-1-1.4-1.8-1.8c-4.2-2.6-8.2-5.7-12-8.9c-0.2-0.2-0.4-0.5-0.6-0.7
		c0.1-0.2,0.1-0.3,0.2-0.4c1.6-4.5,3.7-8.7,6.1-12.8c1-1.7,1.9-3.4,2.9-5c0.1-0.2,0.2-0.3,0.3-0.4c0.8-0.9,1.7-1.8,1.9-3.1
		c1.4-2.6,3.6-4.6,5.6-6.7c2.9-2.9,6.1-5.4,9.7-7.3c3.8-2.1,7.8-3.4,12.1-3.9c0.4-0.1,0.7,0,1.1,0.2c0.6,0.8,0,1.5-0.3,2.2
		c-2.1,3.8-4.3,7.6-6.5,11.4c-0.7,1.2-0.5,1.9,0.6,2.6c3.6,2.3,7.3,4.4,10.9,6.7c0.9,0.6,1.7,0.4,2.5-0.2c1.3-1.1,2.5-2.3,4-3.2
		c0.4-0.3,0.8-0.6,1.3-0.5c0.3,0.1,0.5,0.3,0.5,0.5c-0.7,1.6-2.3,2.3-3.5,3.4c-0.8,0.7-1.6,1.3-1.8,2.4c-0.2,1-1.1,1.3-1.9,1.6
		c-1.8,0.8-3.4,1.8-4.9,3.1c-0.8,0.7-1.1,1.3,0,1.9c4.9,2.8,9.7,5.9,14.6,8.6c3.4,1.9,6.7,4,10.1,6c0.7,0.4,1.4,0.8,2.1,1.1
		c0.3,0,0.5,0.1,0.7,0.3c0.1,0.1,0.2,0.2,0.3,0.4c0,0.1-0.1,0.1-0.1,0.2c-0.6,0.6-0.3,1.3-0.3,1.9c0,4.3-0.1,8.7,0,13
		c0,1.5-0.4,2.1-1.9,2c-6.1-0.4-12.2-0.9-18.2-2c-8.5-1.6-16.5-4.5-24.3-7.9c-2.4-1.1-4.7-2.5-7.1-3.7
		C1140.3-249.7,1139.6-250,1138.8-249.9z"/>
	<path fill="#F1F1F1" d="M1221.1-300.4c11.9,1.4,20.6,8.2,27.6,17.4c5,6.5,8.9,13.6,11.5,21.4c-0.2,0.5-0.5,0.9-1,1.3
		c-5.4,4.6-11.2,8.5-17.3,11.9c-1.3,0.6-2.2-0.2-3.1-0.9c-4-3.1-7.9-6.2-11.9-9.3c-2.8-2.1-5.5-4.4-8.4-6.4
		c-0.6-0.4-1.2-0.9-1.2-1.7c0.4-1.2,1.5-1.3,2.3-1.9c1-0.7,2.2-1.3,3.5-2.2c-2.6-1.1-5.1-2-7.4-3.1c-0.8-0.4-2.2-0.5-2.3-1.6
		c-0.1-1.1,1.2-1.4,2-1.9c3.9-2.4,7.7-4.9,11.7-7.2c1.8-1.1,1.9-1.3,0.8-3.1c-2.1-3.5-4-7.2-6.1-10.8
		C1221.3-299,1220.8-299.6,1221.1-300.4z"/>
	<path fill="#F1F1F1" d="M1240.5-248.1c-0.9,1.2-2.2,1.6-3.5,2.2c-5.7,2.6-11.5,4.9-17.6,6.5c-5.7,1.5-11.5,2.4-17.3,3.1
		c-2.4,0.3-4.7,0.1-7.1,0.5c-1.4,0.2-2.2-0.3-2.2-2c0.1-4.9,0-9.7,0-14.6c0,0,0,0,0,0c1.2-1.6,3-2.2,4.6-3.2
		c6.2-3.6,12.3-7.4,18.6-10.9c0.2,0,0.4,0,0.5,0C1224.7-260.4,1232.6-254.3,1240.5-248.1z"/>
	<path fill="#EAEAEA" d="M1240.5-248.1c-1.1,0.2-1.4-0.8-2.1-1.2c-5.6-4.3-11.1-8.7-16.7-12.9c-1.7-1.3-3.5-2.6-5-4.2
		c0-0.2,0.2-0.4,0.4-0.5c0.2,0,0.3,0,0.4,0.1c1.9,2.1,4.3,3.5,6.5,5.2c5.3,4.2,10.7,8.3,16,12.4c0.6,0.5,1.2,0.7,2,0.7
		C1241.6-248,1241-248.2,1240.5-248.1z"/>
	<path fill="#FEE8B9" d="M1208.5-303.8c0.1,0.2,0.2,0.5,0.3,0.7c1.4,1.6,3.2,2.2,5.4,2.1c1.3,0,2.7,0.2,3.9,0.6
		c0.7,0.8-0.1,1.5-0.4,2.1c-3.6,7.1-7.5,14.1-11.2,21.2c-0.5,0.5-0.5,1.4-1.4,1.4c-3.6-2.7-7-5.7-10.6-8.3c-0.7-0.5-1.5-1.1-1.9-2
		c-0.3-5.1-0.2-10.3-0.2-15.5c0-1.3,0.8-1.8,1.9-2c2-0.4,4-0.4,5.9-1c2.6-0.8,5.1-1.8,7.5-3.2c0.2-0.1,0.4,0,0.6,0.1
		C1208.6-306.2,1208.4-305,1208.5-303.8z"/>
	<path fill="#FEFEFE" d="M1206.1-277c0.8-2.5,2.3-4.7,3.5-7c2.8-5.4,5.7-10.7,8.5-16.1c0.1-1.2,0.1-2.5,1.8-2.6
		c0.4,0.7,0.8,1.5,1.2,2.2c2.6,4.6,5.2,9.2,7.8,13.8c0.6,1,0.4,1.3-0.5,1.8c-4.2,2.5-8.3,5.1-12.4,7.6c-0.9,0.5-1.7,1.1-2.8,1.8
		c3.6,1.5,7.1,3,10.8,4.6c-2.4,1.5-4.6,2.8-6.7,4.1c-0.1,0-0.2,0-0.4,0c-1.1-0.1-1.8-0.9-2.6-1.6c-2.6-2-5.1-4-7.8-6
		C1205.6-275,1205.2-275.9,1206.1-277z"/>
	<path fill="#7A7571" d="M1231.7-344.9c0.2,6.4,0.2,12.8-0.8,19.1c-0.9,5.7-3.4,10.5-9.4,12.3c-3.6,1.1-7.4,1.5-11.1,1.7
		c-1.3,0.1-2,0.5-1.7,1.9c-0.1,0.8-0.1,1.7-0.2,2.5c-0.1,0-0.1,0.1-0.2,0.1l0-0.1c-0.9-1.6-0.9-3.2,0.1-4.8c1.6-1,3.4-1,5.1-1.2
		c2.1-0.1,4.1-0.6,6.1-0.9c5.6-1,8.4-4.7,9.7-9.9c0.9-3.6,0.9-7.4,1-11.1c0.1-2.2,0.4-4.4,0.1-6.5c-0.1-1.1,0.3-2.1,0.7-3.1
		C1231.4-345,1231.5-345,1231.7-344.9z"/>
	<path fill="#AEB0B1" d="M1219.9-302.6c-1.1,0.5-1.1,1.8-1.8,2.6c-2.1-0.2-4.2-0.3-6.3-0.5c-1.6-0.2-2.7-0.9-3.1-2.5
		c3.2,0,6.3,0.1,9.5,0.1C1218.8-302.9,1219.5-303.2,1219.9-302.6z"/>
	<path fill="#EAD09F" d="M1208.4-307.3c0.1,0,0.1-0.1,0.2-0.1c0,1.2,0,2.4-0.1,3.6C1208.1-305,1208.3-306.1,1208.4-307.3z"/>
	<path fill="#EAD09F" d="M1208.6-312.1c-0.5,1.5,0,3.2-0.3,4.7c-2.6,2.4-6,3.2-9.3,4c-1.5,0.4-3.1,0.6-4.7,0.7
		c-1.3,0.1-1.5,0.6-1.5,1.7c0,5.2,0,10.4,0,15.5c0.5,0.9,0.1,1.9,0.1,2.9c0,8.8,0,17.7,0,26.5c0,0.8,0.1,1.7-0.2,2.5
		c-1.2,0.9-1.4-0.3-1.8-0.9c-1.9-3.1-3.4-6.3-5.1-9.5c-2.8-5.2-5.6-10.4-8.3-15.6c-0.3-0.6-0.6-1.2-0.5-1.9
		c-0.1-0.1-0.2-0.3-0.4-0.4c-1.6-1.6-2.3-3.8-3.4-5.8c-1.9-3.4-3.8-6.8-5.4-10.3c-0.3-0.7-1-1.5-0.3-2.4c0.8-0.6,1.8-0.7,2.7-0.7
		c2.1,0.1,3.9-0.4,5.3-2c1.3-2.4,0.4-5,0.7-7.5c-0.2-2.2-1.5-3.5-3.1-4.8c-7.8-6.5-12.2-15.1-14.8-24.7c-0.3-1.3-0.4-2.7-1.7-3.4
		c-0.5-0.5-0.5-1.2-0.7-1.8c-0.1-0.4-0.2-1-0.8-1.1c-0.6-0.1-0.8,0.5-1,0.9c-0.2,0.4-0.4,0.7-0.8,0.9c-0.3,0.1-0.5,0-0.7-0.3
		c-1.6-1.6-2.2-3.5-2.4-5.7c-0.1-2.6-0.7-5.2-1.1-7.7c-0.2-1.2,0.1-2.3,0.9-3.2c0.2-0.2,0.4-0.3,0.7-0.4c1-0.2,1.8-0.9,2.6-1.4
		c0.2-0.1,0.3-0.1,0.5-0.2c1.9,0.3,1.8-1.3,2.2-2.4c0.7-0.7-0.4-3.3-0.5-3.9c-0.3-1.6-0.3-3.2,0.2-4.7c0.2-0.8,0.7-1.5,1.2-2.2
		c0.3-0.5,0.6-0.9,1.2-1.1c0.3-0.6,0.7-1.2,1.2-1.9c1.1-1.5,2.3-2.5,3.4-3.3c0.3-0.7,1.1-0.9,1.7-1.3c0.9-0.6,1.8-1.1,2.7-1.5
		c1.2-0.5,2.2-1.5,3.7-1.3c1.8,0.8,3.3,2.2,5.3,2.8c4.3,1.5,8.7,1.4,13.1,1.1c1.3-0.1,2.6-0.8,3.8,0.2c0.5,0.9,0.4,1.9,0.4,2.9
		c0,22.8,0,45.5,0,68.3c0,0.2,0,0.5,0,0.7c0,1.7,0.3,2,2.1,1.7c3.5-0.5,6.8-1.2,9.9-3.1c1.1-0.1,2-1,3.2-0.9
		C1209-312.8,1209-312.5,1208.6-312.1z"/>
	<path fill="#E5E6E8" d="M1177.2-281.4c2.5,4.7,5.1,9.4,7.6,14.1c2.5,4.7,5,9.4,7.4,14c0.1,0.1,0.2,0.2,0.1,0.3
		c0,0.1-0.1,0.1-0.1,0.1c-3.5-1.4-6.4-3.7-9.6-5.5c-4.1-2.3-8.1-4.7-12.1-7c-2.1-1.2-4.2-2.5-6.3-3.7c-0.9-0.5-0.9-1.1-0.1-1.7
		c1-0.8,2-1.6,3-2.4c1.7-1.3,3.9-1.5,5-4C1173-278.9,1175.5-280,1177.2-281.4z"/>
	<path fill="#E5E6E8" d="M1167.7-300c1.9,4.5,4.4,8.6,6.6,12.9c0.9,1.8,2,3.4,2.6,5.4c-2,1.1-3.6,2.7-5.4,4.2
		c-0.8,0.6-1.5,0.7-2.3,0.2c-4.1-2.5-8.2-5.1-12.4-7.6c-0.8-0.5-0.6-0.9-0.2-1.6c2.4-4.2,4.8-8.4,7.2-12.6c0.3-0.5,0.4-1,0.7-1.5
		c0.4-0.6,0.8-1.2,1.2-1.9C1167.1-302.4,1167.5-301.3,1167.7-300z"/>
	<path fill="#FEFEFE" d="M1216.4-266.4c-2.1,1.8-4.6,2.9-6.9,4.3c-5.3,3.2-10.6,6.3-16,9.5c-0.1,0.1-0.4,0.1-0.5,0.1
		c0-0.1,0-0.2,0-0.3c-0.1-0.1-0.1-0.2-0.1-0.3c0-0.1,0-0.2,0-0.2c2.6-5.1,5.3-10.3,8.1-15.3c0.7-1.3,1.1-2.7,2.2-3.8
		c0.9-0.7,1.3-1.6,1.7-2.6c0.1-0.1,0.3-0.2,0.4-0.2c3.8,2.5,7.3,5.4,10.8,8.3C1216.2-266.9,1216.3-266.6,1216.4-266.4z"/>
	<path fill="#D5D6D8" d="M1139.9-250.3c-0.2-0.1-0.4-0.1-0.5-0.2c-0.2-0.2-0.1-0.5,0.1-0.6c0.5-0.5,0.9-1,1.4-1.4
		c6.8-5.6,13.5-11.1,20.3-16.7c0.2-0.2,0.4-0.4,0.7-0.6c0.3-0.2,0.6-0.2,0.8,0.1c0.1,0.1-0.1,0.5-0.2,0.6c-2.6,2-5,4.4-7.7,6.3
		c-2.3,1.7-4.4,3.6-6.5,5.5c-2.5,2.3-5.4,4.1-7.8,6.6C1140.4-250.6,1140.1-250.5,1139.9-250.3z"/>
	<path fill="#F8E2B3" d="M1193-253.2c0,0.1,0,0.2,0,0.4c-0.2,0-0.5,0-0.7,0c0-0.1,0-0.3,0-0.4c0.6-0.6,0.3-1.4,0.3-2.1
		c0-9,0-18,0-27c0-1,0.1-2.1,0.4-3.1c2.1,1.1,3.9,2.8,5.8,4.3c1.8,1.4,3.4,2.9,5.3,4.1c0.5,0.3,1,0.8,1,1.5
		c-0.1,0.1-0.2,0.1-0.3,0.2c-1.1,0.1-1.8-0.6-2.5-1.2c-2.7-2.2-5.5-4.2-8.3-6.3c-0.6,0.6-0.4,1.3-0.4,1.9c0,8.1,0,16.3,0,24.4
		C1193.5-255.4,1193.5-254.3,1193-253.2z"/>
	<path fill="#CADBE7" d="M1124.5-261.4c2.5-6.6,5.4-12.9,9.6-18.6c0.3,1-0.7,1.5-1,2.2c-2.8,5.1-5.9,10.1-7.7,15.7
		C1125.1-261.6,1125-261.3,1124.5-261.4z"/>
	<path fill="#E5E6E8" d="M1161.5-270.8c1.1-0.6,1.9-1.2,3-1.2C1163.7-271.4,1163.2-270.1,1161.5-270.8z"/>
	<path fill="#CADBE7" d="M1134-280c0.5-1.1,1.3-2.1,2.2-3C1136-281.6,1135.3-280.6,1134-280z"/>
	<path fill="#F8F8F6" d="M1216.4-266.4c-3.8-2.9-7.6-5.8-11.3-8.8c-0.1-0.1-0.1-0.2-0.1-0.2c0-0.1,0.1-0.1,0.1-0.1c0,0,0,0,0,0
		c0.5-0.4,0.4-1.2,1.1-1.5c-0.5,1.3,0.2,1.9,1.2,2.6c3.4,2.4,6.7,4.9,9.8,7.6c-0.1,0.1-0.2,0.2-0.4,0.4
		C1216.6-266.4,1216.5-266.4,1216.4-266.4z"/>
	<path fill="#FEE8B9" d="M1206.1-312.1c-3.4,2.6-7.6,3.1-11.7,3.6c-1.2,0.2-1.9-0.2-1.6-1.6c0.1-0.6,0-1.3,0-2c0-23.6,0-47.3,0-70.9
		c0.4-0.7,1.1-0.8,1.7-0.9c2.2-0.5,4.3-1.2,6.3-2.2c0.6-0.3,1.3-0.8,1.8-0.1c0.5,0.6,0,1.3-0.2,1.9c-0.2,0.6-0.8,0.9-1,1.5
		c2.3,0.9,4.7,0,7,0.2c4.6,3.4,9.1,6.8,13.6,10.4c1.4,1.1,2.8,2.2,4.2,3.2c1.8,1.3,3.3,2.6,3.2,5c0.5,0.7,1.3,0.5,2,0.6
		c0.9,0.1,1.6,0.3,2.1,1.1c1.8,1.7,1.8,3.8,1.3,5.9c-0.4,2.3-0.9,4.5-1,6.8c0,1.8-0.9,3.4-2.2,4.7c0-0.1,0-0.2,0-0.2
		c-2.2-1.2-2.2-1.2-3,1.3c0,0.2-0.2,0.3-0.3,0.5c-0.9,0.7-1,1.8-1.3,2.8c-1.9,7-4.7,13.7-9.2,19.5c-0.6,0.8-1.2,1.5-2.1,2
		c-2.7,1.4-4.9,3.6-7.4,5.4C1207.7-313.1,1207-312.6,1206.1-312.1z"/>
	<path fill="#E5E6E8" d="M1169.1-421.5c7.4-5.4,15.6-8.5,24.9-8.3c0.4,0,0.8,0.2,1.2,0.3c-1.9,0.8-2.1,2.2-2,4.1
		c0.2,5.1,0.1,10.2,0.1,15.3c0,2.9-0.1,5.9-0.1,8.9c0,0.6-0.1,1.2-0.5,1.7c-0.1,0.1-0.3,0.2-0.5,0.3c-1-0.4-0.7-1.4-0.8-2.2
		c-0.1-0.5-0.2-0.9-0.8-1c-0.5,0-0.9,0.2-0.9,0.7c0,1.6-1,2.2-2.4,2.4c-0.2,0-0.3,0.3-0.5,0.5c-0.2,0.2-0.4,0.4-0.6,0.5
		c-4.6,0.9-9.3,1.8-13.7,3.7c-5.3,2.2-10.1,5.1-13.7,9.7c-0.3,0.3-0.6,0.6-1,0.8c-0.5,0.1-0.8-0.1-1.1-0.4c-1.5-1.8-2.9-3.7-3.3-6.2
		c-1.3-3.4-2.6-6.8-3.4-10.4c-0.2-0.7-0.2-1.3,0.3-2c5.3-6.9,11.4-12.9,18.6-17.9C1168.7-421.4,1168.9-421.5,1169.1-421.5
		c0.3,0.4-0.1,0.9,0.5,1.3c4.8,3.5,9.3,7.3,12,9.3c-2.6-1.8-6.9-5.7-11.5-9C1169.5-420.3,1169.4-421,1169.1-421.5z"/>
	<path fill="#FEFEFE" d="M1192.2-399.6c0.5-0.7,0.4-1.5,0.4-2.3c0-8.3,0-16.5,0-24.8c0-2.7,0-2.7,2.6-2.9c6.9,0.4,12.9,3.1,18.7,6.6
		c8.2,5.1,15,11.8,20.9,19.3c0.6,0.8,0.6,1.5,0.4,2.4c-1,3.8-2.4,7.5-3.8,11.2c-0.7,2.4-1.5,4.7-4.2,5.7c-0.4-0.1-0.6-0.4-0.9-0.7
		c-5-6.4-11.9-9.7-19.5-11.9c-4.2-1.2-8.5-1.6-12.8-2.1C1193.4-399,1192.7-398.9,1192.2-399.6z"/>
	<path fill="#8D715D" d="M1152.8-344.8c0.2,0.1,0.4,0.1,0.6,0.2c0.2,0,0.4,0,0.5,0.2c0.6,1.7,1.6,1.7,2.9,0.8
		c1.4-0.2,1.6,0.8,1.9,1.9c1.8,7.5,4.7,14.4,9.5,20.5c1.8,2.4,3.8,4.7,6.3,6.3c1.9,1.2,2.3,2.6,2,4.5c-0.5-0.5-1.1-0.6-1.8-0.6
		c-4.4,0-8.7-0.4-13-1.4c-4.2-1-6.8-3.6-8.1-7.5c-1.8-5.4-1.3-10.9-1-16.4C1152.7-339.2,1152.5-342,1152.8-344.8z"/>
	<path fill="#8D725D" d="M1227.4-384.5c1.8-1.5,2.7-3.7,3.9-5.6c2.1,4,3.1,8.3,3.3,12.7c0.3,5.1-0.4,10.1-1.2,15
		c-0.9-0.6-1.9-0.7-2.9-0.7c-0.6,0-1.4,0.2-1.8-0.6c0.4-2.5-0.2-4.8-0.4-7.3c-0.2-1.1-0.3-2.3-0.3-3.4c0.2-2.8,0.5-5.7-0.5-8.5
		C1227.4-383.3,1227.1-383.9,1227.4-384.5z"/>
	<path fill="#8C725E" d="M1153.2-391.1c1.3,2.3,2.3,4.6,4.2,6.5c0.5,0.7-0.1,1.1-0.4,1.6c-1.3,0.6-1.5,1.4-0.7,2.5
		c0,0.2,0.1,0.3,0.1,0.5c-0.2,1,0,2-0.5,2.9c0.3,0.2,0.6,0.4,0.8,0.9c0.2,0.6-0.1,1.3-0.3,1.7c-0.7,1.8-0.6,4.2-0.2,5.4
		c0.1,0.2,0.4,0.9,0.3,1.8c0,0.3-0.1,0.5-0.1,0.6c0,0.1,0.1,0.2,0.1,0.2c0.1,0.2,0,0.3-0.1,0.5c0,0.1,0,0.2,0,0.4
		c0,2.5,0,2.5-2.5,2.5c-0.2,0.3-1.3,1.4-1.9,1.2c-0.4-0.2-0.5-0.8-0.7-2.3c-0.2-1.4-0.4-2.5-0.5-3.2
		C1149.3-375.5,1149.8-383.4,1153.2-391.1z"/>
	<path fill="#ADB0B0" d="M1167.7-300c-0.8-0.8-1.1-2-2.1-2.6c1.2-0.7,2.6-0.3,3.9-0.3c2.1-0.1,4.2,0,6.3,0c-0.4,2.2-2.3,2.4-4,2.5
		C1170.4-300.4,1169-300.3,1167.7-300z"/>
	<path fill="#8D715D" d="M1215.7-319.4c5-5.2,7.9-11.5,10.1-18.3c0.5-1.5,0.8-3,1.2-4.6c0.2-0.7,0.3-1.5,1.4-1.3
		c0.7,0.5,1.5,0.9,2.2,1.4c1,0.2,0.8,0.9,0.8,1.6c-0.5,4-0.4,8.1-0.7,12.2c-0.3,3.3-1,6.5-2.7,9.3c-2.3,3.8-6,5.2-10.1,5.8
		c-3.1,0.4-6.1,0.8-9.2,1.2c0-0.4,0-0.7,0-1.1c0.5-1.4,2.1-1.8,3-2.8C1212.9-317.2,1214.3-318.3,1215.7-319.4z"/>
	<path fill="#FCFBF4" d="M1230.6-342.1c-1.2,0.3-1.9-0.1-2.2-1.4c0-0.1,0-0.2,0-0.4c0-1.2,0-2.7,1.3-3.1c1.1-0.3,1.2,1.3,2,1.8
		C1231.2-344.2,1231.3-343,1230.6-342.1z"/>
	<path fill="#8E715D" d="M1208.6-382.4c-2.7,0.5-5.4,0.8-8.2-0.1c0.9-1.1,2.1-2,2.1-3.8c-3.1,1.7-6.3,2.7-9.6,3.4
		c-5,0.8-10.1,1.2-15.1-0.1c-2.7-0.7-5.1-1.8-7.1-3.8c0.1-1.1,1.1-1.3,1.8-1.5c6.5-2.3,13-4,20-3.6c7.5-0.3,14.6,1.5,21.5,4.4
		c0.5,0.2,1,0.4,1.3,0.9c0.3,1-0.4,1.4-1,1.9c-1.4,1.1-2.9,1.9-4.6,2.4C1209.4-382.3,1209-382.3,1208.6-382.4z"/>
	<path fill="#28ACAC" d="M1192.6-391.7c-4.3,0.1-8.6,0.6-12.8,1.7c-3.1,0.8-6.3,1.5-9.1,3.1c-1.2,0.5-2.3,1-3.5,1.6
		c-0.4,0.2-0.9,0.5-1.3,0.8c-0.4,0.2-0.7,0.5-1.1,0.7c-0.6,0.3-1.1,0.7-1.7,1c-0.4,0.4-0.7,0.9-1,1.4c-0.3,0.2-0.7,0.6-1.2,1.1
		c-0.7,0.7-0.9,1-1.4,1.5c-0.4,0.4-0.9,0.9-1.7,1.5c-0.3-1-0.8-1.7-1.1-2.2c-0.4-0.4-0.6-0.6-0.8-1.1c-0.2-0.7,0.2-1.4,0.6-1.9
		c0-0.1,0-0.2,0-0.3c0-0.1,0.1-0.1,0.1-0.2c0.2-0.5,0.5-1,0.7-1.5c7.3-9.3,17.4-12.8,28.6-14.3c1.8,0.2,3.5,0.4,5.1-0.7
		c1.4-0.1,2,0.6,2.2,2C1193.5-395.5,1193.6-393.5,1192.6-391.7z"/>
	<path fill="#E7E5E1" d="M1156.7-343.6c-0.6,0.5-0.6,1.6-1.6,1.5c-1.4-0.2-1.1-1.5-1.6-2.4c-0.1-0.1-0.1-0.2,0-0.3
		c0.5-0.9,0.4-2.5,1.9-2.2c1.4,0.3,1.1,1.9,1.4,3.1C1156.7-343.8,1156.7-343.7,1156.7-343.6z"/>
	<path fill="#F0DAB3" d="M1190.7-289.1c-0.2,0.1-0.5,0.2-0.7,0.4c-0.9,1-2,0.5-3,0.5c-0.6,0-0.4-0.8-0.4-1.2c0-0.5,0.1-0.9,0.7-0.8
		c1.7,0.2,2.3-0.5,2.3-2.1c0-0.6,0.3-0.8,0.9-0.8c0.7,0,1,0.3,1.1,0.9C1191.5-291.2,1191.5-290,1190.7-289.1z"/>
	<path fill="#F0DAB4" d="M1183.8-292.8c0-1.5-0.3-3,0.7-4.3c0.8-0.8,1.8-0.6,2.7-0.6c0.7,0,1.1,0.1,1.1,1c0,0.8-0.1,1.3-1.1,1.2
		c-1.4-0.2-2,0.4-1.9,1.8C1185.4-292.6,1184.8-292.3,1183.8-292.8z"/>
	<path fill="#F6DFB5" d="M1215.7-319.4c-1.9,2.6-4.4,4.5-7,6.2c-0.8,0.5-1.5,1.2-2.6,1.1c2.7-2.7,5.8-4.9,8.9-7.1
		C1215.2-319.4,1215.5-319.4,1215.7-319.4z"/>
	<path fill="#89745F" d="M1156.1-369.6c-1.7-0.3-2.3-1.7-2.6-3c-0.3-1.3,0.9-1.9,2.1-2.2c0.3-0.1,0.6-0.1,0.8,0.2
		C1155.8-372.9,1156-371.2,1156.1-369.6z"/>
	<path fill="#D9C297" d="M1190.7-289.1c0.4-1,0.5-2,0.4-3c0-0.5-0.1-1-0.8-0.9c-0.6,0-0.7,0.5-0.6,0.9c0.2,1.5-0.5,2.1-2,2
		c-0.6-0.1-0.9,0.2-0.9,0.8c0,0.7,0.3,1,1,1c0.8,0,1.6,0.1,2.3-0.4c-0.7,1.5-2,0.6-3,0.7c-0.7,0.1-0.6-0.7-0.7-1.2
		c-0.1-0.8,0.2-1.3,1.1-1.2c1.1,0.1,1.7-0.3,1.7-1.5c0-0.9,0.4-1.6,1.6-1.4c1.1,0.2,1.2,0.9,1.1,1.7
		C1191.8-290.7,1191.8-289.7,1190.7-289.1z"/>
	<path fill="#43A1A0" d="M1158.2-378c0,0.1,0,0.3,0.1,0.4c-0.3,0.3-0.6,0.7-0.8,1c-0.7,0.6-1.2,0.2-1.8-0.2c0,0-0.1-0.1-0.1-0.1
		c0.2-1.1-0.2-2.3,0.5-3.3C1157.4-380.1,1157.7-378.9,1158.2-378z"/>
	<path fill="#D5BE94" d="M1183.8-292.8c1,0.1,1.5-0.3,1.5-1.3c-0.1-1.2,0.5-1.7,1.6-1.6c0.7,0,1.4,0,1.3-1c-0.1-0.9-0.8-0.7-1.3-0.8
		c-0.8-0.1-1.5,0.2-2.3,0.4c0.9-1.4,2.3-0.7,3.5-0.7c0.5,0,0.5,0.6,0.6,1c0.1,0.9-0.1,1.6-1.2,1.5c-1.2-0.1-1.8,0.4-1.7,1.7
		c0.1,1.5-0.9,1.3-1.8,1.2c0,0-0.1-0.1-0.1-0.1C1183.7-292.6,1183.8-292.7,1183.8-292.8z"/>
	<path fill="#DBC69F" d="M1160.7-374.7c0.7,0.9,1.4,1.8,2.2,2.6c0.3,0.4,0.6,1.2,1.4,0.6c0.8-0.6,0.6-1.1,0.1-1.8
		c0.9-0.1,1.2,0.5,1,1.2c-0.3,0.7-0.8,1.4-1.8,1.3C1162.8-370.9,1160.8-373.7,1160.7-374.7z"/>
	<path fill="#DBC79F" d="M1156.4-366.3c3.2-0.5,4.6-1.9,5.1-4.7c0.9,0.4,0.3,1,0.1,1.5c-0.9,2.4-2.6,3.5-5.2,3.6
		C1156.4-366,1156.4-366.1,1156.4-366.3z"/>
	<path fill="#DBC7A0" d="M1165.5-375.4c1.5,0,3.2,1.2,4.4-0.7c0.7-0.3,0.9-0.1,0.4,0.5C1169.2-374.2,1167.2-374.2,1165.5-375.4z"/>
	<path fill="#97C8C3" d="M1156.1-376.7c0.3,0,0.6,0.1,0.9,0.1c0.2,0,0.4,0.3,0.3,0.5c0,0,0,0.1-0.1,0.1c-0.8-0.2-0.7-0.2-1.5-0.4
		l0,0C1155.7-376.6,1155.8-376.8,1156.1-376.7z"/>
	<path fill="#EFE5CE" d="M1150.9-361.5c0.2-1.6,1.4-1.5,2.5-1.5C1152.9-362,1152-361.5,1150.9-361.5z"/>
	<path fill="#FEE8B9" d="M1205-275.5c0,0.1,0,0.2,0,0.4c0,0,0,0,0,0c-0.4,1-0.8,2-1.5,2.9c-1.3,1.6-2,3.6-3,5.4
		c-2.3,4.2-4.5,8.5-6.8,12.7c-0.2,0.4-0.4,0.7-0.8,0.9c0-10.3,0-20.5,0-31.2c2.8,2.2,5.3,4.1,7.9,6
		C1202.2-277.4,1203.3-276,1205-275.5z"/>
	<path fill="#F8F8F6" d="M1203.5-272.3c0.2-1.1,0.6-2.1,1.5-2.9C1205.1-273.9,1204.5-273,1203.5-272.3z"/>
	<path fill="#F8E2B3" d="M1208.6-382.4c0.3-0.1,0.5-0.2,0.8-0.2c0.9,0.1,1.6,0.5,2.3,1.1c5.2,4.4,10.8,8.3,16.1,12.6
		c0.1,0.1,0.2,0.1,0.4,0c0.5-0.6-0.1-1.6,0.7-2.1c0.4,2.5,0.4,5,0,7.5c0.8-4.1-2.9-5-5.1-6.8c-4.7-3.9-9.6-7.5-14.4-11.3
		C1209.1-381.8,1208.9-382.2,1208.6-382.4z"/>
	<path fill="#3FB8B9" d="M1192.6-391.7c-0.2-2,0.5-4,0.1-6c-0.3-1.3-0.7-1.6-1.8-1.4c-0.1-0.1-0.1-0.1-0.2-0.2
		c0.1-0.3,0.3-0.4,0.5-0.5c0.3,0,0.5,0.1,0.7,0.2c0.1,0,0.2,0,0.4,0c6.3,0.4,12.5,1.2,18.4,3.3c6.7,2.4,12.5,5.9,16.8,11.8
		c1.7,3.3,1.7,6.8,1.1,10.3c-1.3-0.6-1.5-2-2.2-3c-2.5-3.5-5.8-5.9-9.4-8c-0.6-0.3-1.2-0.5-1.6-1.2c-3.1-1.9-6.5-2.8-10-3.7
		C1201.1-391.1,1196.9-391.5,1192.6-391.7z"/>
	<path fill="#DFE0E2" d="M1169.1-421.5c3,2.8,6.4,5.1,9.6,7.7c1.8,1.5,3.7,2.9,5.6,4.3c0.4,0.3,0.8,0.6,0.5,1.3
		c-4.6-3.2-8.9-6.8-13.4-10.2c-0.7-0.6-1.3-1.2-2.1-1.7C1168.3-420.6,1169-421,1169.1-421.5C1169.1-421.5,1169.1-421.5,1169.1-421.5
		z"/>
	<path fill="#D7D9DA" d="M1191.9-399.6c-0.2,0-0.5,0-0.7,0c-0.1-0.1-0.2-0.2-0.3-0.4c-0.2-0.5-0.1-1.1-0.3-1.9
		c-0.5,0.9-0.5,2-1.4,2.3c-0.7,0.2-1.5,0.1-2.2,0.5c-0.2,0-0.3,0-0.5-0.2c1.2-1.2,2.8-2.1,3.5-3.9c0.2-0.4,1.9-0.3,1.9,1.2
		C1191.9-401.1,1191.9-400.3,1191.9-399.6z"/>
	<path fill="#5FBABB" d="M1186.4-399.2c0.1,0,0.3,0,0.4,0c1.3-0.4,2.6-0.7,3.9,0c0,0,0.2,0.1,0.2,0.1c-1.7,1.4-2.7,1.5-4.9,0.3
		C1186.1-399,1186.2-399.1,1186.4-399.2z"/>
	<path fill="#FEFEFE" d="M1221.8-391.2c-0.1-1.8-0.7-3.5-0.4-5.2c0.1-0.6-0.1-0.8-0.8-0.8c-2.4,0.1-4.9,0-7.3,0.2
		c-2.5,0.2-3.4-0.4-3.6-2.9c0-0.6,0-1.5-0.9-0.7c-1,0.8-1.7,0.6-2.2-0.3c-0.5-1,0.5-1.3,1.2-1.6c0.1,0,0.2-0.1,0.5-0.5
		c-2.9-0.5-5.6-0.9-8.3-0.2c-0.5,0.1-0.4,0.5-0.2,0.8c0.3,0.4,0.6,0.9,0,1.2c-0.5,0.2-1,0.6-1.6,0.3c-0.6-0.3-0.5-0.7-0.3-1.2
		c0.3-0.9-0.2-1.2-1.1-1.2c-1.1,0-1.7-0.5-1.8-1.6c-0.2-1.3-1.5-2.2-1.1-3.7c0.2-0.6-0.1-1.4,1-1.4c0.5,0,0.7-0.6,1-1
		c1.7-2.1,3.8-3.7,6.3-4.6c0.2-0.1,0.5,0,0.5-0.1c0.6-2.4,2.9-2.9,4.5-4.1c1.3-1,6.2-1.3,7.6-0.4c0.4,0.2,0.4,0.6,0.5,0.9
		c0.1,0.5,0.2,1.1,0.2,1.6c0.3,2.8,0.8,3.3,3.6,3.1c2.1-0.2,2.8,0.7,2.3,2.8c-0.2,0.8,0.1,1.7-0.2,2.5c-0.2,0.4,0.3,0.7,0.9,0.6
		c0.8-0.2,1.6-0.4,2.4-0.8c1.4-0.7,2.9,0.5,2.6,1.9c-0.2,1.3,0.3,2.5,0.1,3.8c-0.1,0.6,0.8,1.2,1.3,0.9c1.2-0.7,2.2,0.3,3.4-0.1
		c0.6-0.2,1.4,0.2,1.2,0.9c-0.5,1.3,0.1,2.5,0.2,3.8c0.1,1-0.2,1.2-1.1,1.1c-0.9-0.1-1.8-0.1-2.7-0.1c-2.6,0-2.4,2.2-2.5,3.7
		c-0.1,1.8-0.7,2.4-2.4,2.2C1223.8-391.6,1222.8-391.6,1221.8-391.2z"/>
	<path fill="#FEFEFE" d="M1193.4-408.4c0.4,1.3,0.4,2.5-0.1,3.7C1193-405.9,1192.8-407.2,1193.4-408.4z"/>
	<path fill="#FEFEFE" d="M1201.8-400.9c0.1,0.1,0.4,0.2,0.4,0.4c0.1,0.3-0.1,0.5-0.3,0.4c-0.2,0-0.5-0.2-0.6-0.3
		C1201.2-400.7,1201.4-400.8,1201.8-400.9z"/>
	<path fill="#FEE8B9" d="M1215.3-386.3c5.8,2.5,10.5,6.2,13.2,12.1c0.1,1,0.2,2.1,0.3,3.1c-0.2,1,0.5,2.7-0.4,3
		c-0.9,0.4-1.5-1.2-2.4-1.8c-5.7-4.1-11.1-8.5-16.6-12.8C1211.5-383.7,1213.7-384.5,1215.3-386.3z"/>
	<path fill="#B1B2AA" d="M1156.7-382.7c-0.6,0.6-0.1,1.5-0.7,2.1c-1.4-1.6-1.4-1.8,0.7-2.5C1156.7-382.9,1156.7-382.8,1156.7-382.7z
		"/>
	<path fill="#D9CEAB" d="M1159.7-379.1c0-0.1-0.1-0.2-0.1-0.4c0.8-0.7,1.5-1.4,2.3-2.2c0,1.4,0.1,2.8-0.7,4.4
		C1160.6-377.9,1160.1-378.5,1159.7-379.1z"/>
	<path fill="#CEECEC" d="M1190.7-399.2c-1.3,0-2.6,0-3.9,0c0.4-1.3,1.5-0.5,2.2-0.7c0.7,0.3,1.4-0.7,2.2,0c0,0.1,0,0.2,0,0.4
		C1191-399.4,1190.8-399.3,1190.7-399.2z"/>
	<path fill="#EBEBEC" d="M1191.1-399.9c-0.7,0-1.4,0.8-2.2,0c0.7-0.4,0.7-1,0.7-1.7c0-0.6,0.2-1.2,0.9-1.1c0.7,0.1,0.5,0.7,0.5,1.2
		C1191.1-401,1191.1-400.5,1191.1-399.9z"/>
</g>
</svg>
