<?xml version="1.0" encoding="utf-8"?>
<!-- Generator: Adobe Illustrator 21.1.0, SVG Export Plug-In . SVG Version: 6.00 Build 0)  -->
<svg version="1.1" id="Layer_1" xmlns="http://www.w3.org/2000/svg" xmlns:xlink="http://www.w3.org/1999/xlink" x="0px" y="0px"
	 viewBox="-750.3 4113.3 203.8 266.9" enable-background="new -750.3 4113.3 203.8 266.9" xml:space="preserve">
<g>
	<path fill="#F36B5B" d="M-649,4382.2c-56.8-0.1-101.4-45.1-101.3-102c0.1-56.3,46.1-102.1,102.1-101.7
		c56.1,0.4,101.9,46.6,101.7,102.5C-546.7,4337.2-592.4,4382.3-649,4382.2z"/>
	<ellipse fill="#AA4D48" cx="-651.4" cy="4366.8" rx="31.3" ry="2.7"/>
	<g>
		<g>
			<path fill="#FDFDFD" d="M-677.8,4197c1.2-1.2-0.9-2.8,0.6-3.9c0.8-1.2-0.3-2.7,0.5-3.9c0.3-2,1.2-4,0.6-6.1c0-0.1,0-0.2,0-0.3
				c0.1-4.5,6.9-13.2,11.4-14.6c2.8,0.1,3.7,2.4,4.9,4.3c0.7,1,1.3,2,1.7,3.2c0.3,1.4,0.4,2.7,0.7,4.1c0,0.4,0.2,0.8,0,1.1
				c-1.4,3-0.1,5.2,1.9,7.3c0.3,0.4,0.6,0.9,0.9,1.3c2.5,4.4,5.7,8.2,8.5,12.4c1.1,1.7,2.1,1.4,3.2-0.1c0.5-0.9,1-1.8,2.1-2.1
				c1.7-0.8,0.6-2.8,1.7-3.9c0.9-1.5,1.9-2.8,3-4.1c0.7-0.8,1.3-1.9,2.8-1.3c1.3,1.2,0.6,2.7,0.8,4.1c-0.2,1.5,0.4,2.9,0.2,4.3
				c0.2-1.4-0.4-2.7-0.2-4c-0.3-1.7,0.7-3.6-1.2-4.9c-0.2-0.2-0.2-0.5-0.2-0.8c1.1-2.7,2.5-5.4,1.4-8.4c-0.2-1.2-0.1-2.3,0.5-3.4
				c1.2-2.1,2.5-4.1,3.6-6.3c0.7-1.4,1.7-2.4,3.2-2.7c6.7,4.2,9,10.3,8.6,18.1c-0.3,7.1-0.6,14.3,0.5,21.4c1,5.9,3.4,2.8,7.8-0.9
				c4.7-4,8.6-8.8,12.1-13.9c2.8-4.2,5.7-8.3,8.5-12.5c0.8-1.2,1.7-1.3,2.9-0.5c2,0.9,3.7,2.2,4.8,4.1c1.2,1.1,1,2.6,0,3.2
				c-3.1,1.8-3.4,5.4-5.5,7.9c-4.2,4.7-6.7,10.9-11.5,15.1c-4.7,4.2-18.5,17-22.7,11.5c-0.4-0.6-1-1.3-1.8-1.1
				c-1.3,0.3-0.3,1.2-0.4,1.8c-0.8,3.5-0.1,7-0.2,10.5c-0.2,7.1-1,14.2-0.7,21.4c0.1,3,0.7,5.9-1.2,8.6c-1.3,1.1-2.8,0.9-4.3,0.9
				c-11,0-22,0-33,0c-1.5,0-4.1,0-4.3,0.8c-0.1,0.5,0.7,1.3,1.5,1.6c1.2,0.4,2.1-0.4,2.4-0.1c0.3,0.4-1.2,2.9-2.7,2.8
				c-1.5-0.1-2.2-2.5-3-2.2c-0.4,0.1-0.6,0.8-0.9,1.7c-0.2,0.7-0.2,1-0.4,1.4c-0.2,0.5-0.7,1.2-1.9,1.8c0-0.2,0-0.5,0.1-0.9
				c0.1-0.6,0.3-1.1,0.4-1.2c0.2-1,0-2.1-0.5-3.1c-1.5-3.9-3.9-4.8-7.7-3.1c-0.3,0.2-0.7,0.3-1,0.2c-1-1.1-1.2-2.4-1.2-3.9
				c0-7.9,0.1-15.7,0-23.6c0-2.6-1.1-5.2,0.6-7.6c0.5-2.6,0.5-5.3,0-7.9c-0.1-0.8,0.2-1.6,0.6-2.3c0.4-1.3,0.5-2.6,0-4
				c-1-1.7,0.6-3.4,0-5.1c1.1-0.3,0.7,0.7,0.9,1.3c0-0.9-0.3-1.7-0.3-2.5c0-0.4,0-0.7,0-1.1c0.5-1.3,1-2.6,0-3.9
				c0.2-0.6,0.4-1.2,0.6-1.7C-677.6,4199.8-678.6,4198.3-677.8,4197z"/>
			<path fill="#3D1B0C" d="M-666.4,4272.9c-0.2-2.6-0.8-5.2-0.7-7.8c0-1.9,0.7-2.4,2.5-2.4c13.5,0.1,27,0,40.5,0
				c-1.3,9.6,1.8,18.8,2.1,28.2c0.3,7.5,0.3,15-0.3,22.5c-0.5,7.3-2.1,14.3-3.7,21.3c-1.1,5.1-2.1,10.3-3.6,15.3
				c-0.6,2.2,0.4,4.7-1.5,6.6c-2.4,1.3-4.9,1-7.3,0c-1.9-0.8-1.2-2.4-1-3.7c1.6-10.6,3.7-21.2,4.8-31.8c0.7-6.8,1-13.6,0.4-20.5
				c-0.6-7.1-2-13.9-3-20.9c-0.3-2.2-1.3-2.6-2.9-2.2c-2.6,0.7-5.2,0.3-7.8,0.6c-5.2,0.5-10.5,0.4-15.7,0.1
				C-665.9,4277.9-666.5,4276.4-666.4,4272.9z"/>
			<path fill="#394551" d="M-668.6,4327.7c-0.1-1-0.1-2.2-1.6-2.1c-8.1,0.6-16.1,0.2-24.2,0.1c-0.8,0-1.5,0-2.3,0.1
				c-3.7,0.4-4.8-0.7-5-4.4c-0.4-7.7-0.4-15.4,0.2-23.1c3-0.1,5.9,0.9,8.9,0.9c5,0,10-0.6,14.9-0.7c6-0.1,12,0.6,18,0.6
				c4.2,0,8.4,0.3,12.4-1.4c0.7,5.5,0.2,11,0.4,16.5c0.1,2,0,3.9,0,5.9c0,4.1-2.4,6.3-6.5,5.8c-1.9-0.2-3.4-0.3-4.2,1.8
				C-661.2,4325.2-664.9,4325.8-668.6,4327.7z"/>
			<path fill="#262626" d="M-647.2,4297.7c-1.6,1.6-3.4,2.4-5.8,2.3c-5.9-0.1-11.8-0.1-17.7-0.6c-8-0.6-15.9,0.7-23.9,0.6
				c-2.5,0-4.8-0.5-7-1.7c-1.1-1.8-0.6-3.8-0.7-5.8c-0.1-3.7,0-7.3,0-11c0-2.9,1.3-4.2,4.3-4.2c4.1,0,8.3-0.1,12.4,0
				c2.1,0.1,4,0,4.8-2.4c0.2-0.6,0.8-1,1.2-1.5c1.3-0.7,1.7,0.3,2.1,1.2c0.1,0.9,0.5,1.6,1.6,1.5c2.1,0.5,3.4,0,3.6-2.4
				c0-0.5,0.3-1.1,1.1-1c1.9,0.1,2,2.3,3.6,3.1c0.6-1,0-2.3,1-3c0.5,0.4,0.4,1,0.5,1.5c0.2,2.1,1.2,3.1,3.5,3c3.8-0.1,7.6,0,11.4,0
				c1.1,0,2.2,0,3.2,0.6c1,1.8,1.1,3.6,1.1,5.6C-646.9,4288.3-646.7,4293-647.2,4297.7z"/>
			<path fill="#FCCFA0" d="M-651.9,4162.7c0.9-1.8-0.5-2.1-1.7-2.4c-3.1-0.9-4.9-3.4-6.7-5.7c-1.2-1.6-1.3-3.4-0.9-5.4
				c0.6-3,0.9-5.8-1-8.6c-1.6-2.4-1.9-5.1,0.7-7.4c1.6,1.4,1.9,3.3,2,5.3c0.1,1.9,1,3,2.9,2.9c2.5-0.1,5.1,0.6,7.4-0.7
				c1.3-1.1,1.2-2.8,1.8-4.2c2.2-2.4,3.2-2.1,4.6,1.6c0.3,2.5,1.5,3.6,4.1,3.4c2.1-0.2,4.5,0.6,6.4-0.4c2.1-1.1,0.6-3.9,1.7-5.7
				c0.3-0.7,0.7-1.4,1.4-1.7c2.1,1.8,2.1,3.9,0.5,5.9c-1.3,1.6-1.7,3.1-1.3,5.2c1.3,8-1.1,12.1-8.4,15.3c-0.5,0.2-1,0.5-1.5,0.8
				c-2.8,1.1-5.7,0.5-8.8,0.7c0.6,1.9,2,3,3.3,4.2c1.2,1,2.9,1.4,3.5,3.1c-1.6,3.5-3.5,4-6.2,1.6c-1.3-1.1-2.4-2.4-3.7-3.4
				c-1-0.8-1.3-1.8-1.2-3C-652.8,4163.4-652.4,4163-651.9,4162.7z"/>
			<path fill="#FCCFA0" d="M-656.4,4118.5c5.6-7,16.4-7,22.1,0c1.2,4.3,1.7,8.8,3,13.1c0,0.3-0.1,0.6-0.4,0.7
				c-1.1,0.5-2.3,0.4-3.4,0.7c-1.9-0.4-3.8,0.3-5.6,0.3c-0.8,0-1.6,0-2.3,0c-1.5,0.1-2.9,0.1-4.4,0c-3.9-0.1-7.8,0.3-11.6-1
				c-0.3-0.2-0.6-0.6-0.5-0.9C-658.1,4127.2-658.2,4122.6-656.4,4118.5z"/>
			<path fill="#3D1B0C" d="M-668.6,4327.7c2-3.8,5.6-1.8,8.5-2.2c1.5-0.2,2.4,0.7,2.7,2.2c-0.2,8.9-1.8,17.7-1.8,26.7
				c0,0.9-0.2,2-1,2.8c-2.6,1.2-5.3,1-8.1,0.5c-2-3.1-1-6.5-1-9.8C-669.3,4341.2-668.9,4334.5-668.6,4327.7z"/>
			<path fill="#AFC4DF" d="M-652.4,4163.7c-0.1,1.3,0.2,2.3,1.5,3.1c1,0.6,1.8,1.6,2.7,2.5c3,2.9,3.3,2.9,6.1-0.4
				c1.4-1.8,3.1-3.3,4-5.4c0.6-0.2,1.1-0.1,1.6,0.3c0.5,0.7,1.5,0.8,1.7,1.7c2,1.2,2.4,3.4,3.3,5.3c0.2,1,0.3,2-0.2,2.9
				c-1.9,1-0.8-1.3-1.4-1.5c-0.6,2.2-1.1,4.5-2.7,6.3c-2.4,0-3.5-2.3-5.4-3.1c-0.4-0.3-0.8-0.5-1.1-0.8c-1.9-1.9-3.8-1.7-5.6,0.1
				c-0.5,0.5-1.2,0.9-1.8,1.3c-1.3,0.6-2.1,2-3.4,2.5c-2.2-2.5-2.3-6-4.1-8.7c-0.3-1.3,0.1-2.4,1-3.3c0-0.2,0-0.4,0.1-0.6
				C-655,4165.2-654.6,4162.9-652.4,4163.7z"/>
			<path fill="#272727" d="M-668.3,4357.7c2.6-1.2,5.4-0.4,8.1-0.5c-1.3,2.2-0.6,4.6-0.6,6.8c0,2.1-0.7,2.7-2.7,2.8
				c-3.7,0.1-7.4,0.6-11.2,0.9c-1.4,0.1-2.8,0.2-4.2-0.2c-1.1-0.3-2.8,0-2.7-1.7c0.1-1.4,0.5-2.9,2.1-3.7c2.8-1.2,5.8-2,8.9-1.7
				C-668.1,4360.8-667.4,4360.1-668.3,4357.7z"/>
			<path fill="#262626" d="M-638.3,4356.6c2.4,0,4.9,0,7.3,0c-1.6,3.3-1.6,3.5,2.2,3.3c2.7-0.1,5.2,0.3,7.3,2.1
				c0.9,0.7,1.4,1.7,1.3,2.9c-0.1,1.6-1.5,1.3-2.3,1.4c-4.9,0.8-9.8,0.3-14.7-0.8c-2.5-0.5-1.8-2.5-1.5-3.8
				C-638.2,4360.1-638.2,4358.4-638.3,4356.6z"/>
			<path fill="#FCCFA1" d="M-580,4183.9c-1.9-1-3.6-2.3-4.8-4.1c1.4-2,1.9-4.4,3.1-6.6c1.5-2.8,5.1-4.1,8.2-3.6
				c1.8,0.3,2.8,2.6,2.4,4.7C-572.2,4179.4-574.7,4182.9-580,4183.9z"/>
			<path fill="#FCCFA1" d="M-671,4272.8c-0.2,0.2-0.5,0.4-0.5,0.6c-0.6,4-0.6,4.1-4.6,3.3c-0.9-0.1-1.4-0.6-1.6-1.5
				c-0.1-1-0.5-1.8-1.7-1.7c-0.5-3.4-2-6.8-0.1-10.2c2.4-2.7,6.2-2.4,8.2,0.5C-669.1,4266.7-668.8,4269.7-671,4272.8z"/>
			<path fill="#E4BB8E" d="M-638.2,4163.6c0.2,2.9-1.9,4.1-4,5.3c-2.5-1.9-5.5-3.2-7-6.2c-0.3-0.6-0.9-1.1-0.5-1.8
				c0.5-0.7,1.2-0.1,1.8-0.1c2.7,0.1,5.3,0.1,8,0.1c0.3,0.9,1,1.1,1.8,1.2C-638,4162.6-637.9,4163.1-638.2,4163.6z"/>
			<path fill="#2E2E2E" d="M-656.4,4118.5c-0.2,4.6-1.1,9.2-2.7,13.5c-0.4,0.6-1,0.7-1.6,0.8c-0.3,0-0.5,0-0.7-0.2
				c-0.2-3.9,0.6-7.7,2-11.3C-658.9,4119.9-658.2,4118.5-656.4,4118.5z"/>
			<path fill="#2D2E2E" d="M-631.5,4132c-2.4-3.8-1.6-8.4-3.3-12.3c-0.1-0.3,0.3-0.8,0.5-1.2c1.7,0.1,2.3,1.4,2.8,2.7
				c1.3,3.5,2.1,7.1,1.6,10.9C-630.4,4132.5-630.9,4132.5-631.5,4132z"/>
			<path fill="#DADADB" d="M-625.3,4168.2c-3.1,2.3-3.9,6.1-6.1,9.1c-0.5-0.3-0.6-0.7-0.7-1.2c0-1.8,0.7-3.5,0.4-5.2
				c0-0.9-1.1-1.7-0.2-2.6c1-1.4,2.3-1.3,3.7-0.9C-627.2,4167.6-626.2,4167.9-625.3,4168.2z"/>
			<path fill="#D4D4D4" d="M-658.7,4175.6c-1.9-2.6-2.9-5.9-6.1-7.4c2.5-0.6,4.9-1.1,7.4-1.7c0.5,1.5-0.3,3-0.1,4.6
				C-658.2,4172.6-657.3,4174.4-658.7,4175.6z"/>
			<path fill="#161311" d="M-661.3,4132.6c0.2,0,0.3,0,0.5,0c0.8-0.4,1.7-0.6,2.4,0.2c0,1.3-0.7,2.4-0.5,3.7c0,0.9-0.1,1.9,0.5,2.7
				c2,1.8,4.4,1.9,6.9,1.5c1.1-0.2,2.1-0.9,3.3-0.3c0.2,0.3,0.2,0.5,0,0.8c-3.4,2-7,1.1-10.5,0.7c-0.9-0.1-1.3-1-1.3-1.6
				c0.2-2.5-0.9-4.7-1.4-7C-661.5,4133-661.4,4132.8-661.3,4132.6z"/>
			<path fill="#12110E" d="M-631.5,4132c0.5,0,1.1,0,1.6,0c0.2,0.6,0.5,1.1,0.7,1.7c-0.1,0.6-0.3,1.2-0.8,1.7
				c-0.7,0.2-1-0.5-1.4-0.8c-0.5-0.5-1.2-0.8-1.5-1.5C-632.7,4132.2-631.8,4132.5-631.5,4132L-631.5,4132z"/>
			<path fill="#383C3F" d="M-631.9,4168.2c0.1,0.8,0.2,1.5,0.3,2.3c-0.2,0.2-0.3,0.2-0.5,0c-0.9-1.7-1.8-3.4-2.7-5.1
				C-632.8,4165.2-632.8,4167.3-631.9,4168.2z"/>
			<path fill="#494949" d="M-652.4,4163.7c-1.8-0.1-2.1,2.4-3.9,2.2c0.5-2.4,2.1-3.3,4.4-3.3C-652.1,4163-652.2,4163.4-652.4,4163.7
				z"/>
			<path fill="#393B3E" d="M-658.1,4171c0-1.5,0-3,0.7-4.4c0.4,0,0.7,0,1.1,0c-0.2,1.1-0.4,2.2-0.6,3.3c0,0.7,0.1,1.4-0.6,1.9
				C-658,4171.7-658.4,4171.5-658.1,4171z"/>
			<path fill="#D4D4D4" d="M-680.1,4220.3c0.9,2.6,0.9,5.3,0,7.9C-680.1,4225.6-680.1,4222.9-680.1,4220.3z"/>
			<path fill="#EBEBEB" d="M-678.9,4202.7c1.2-0.5,1.1,0.2,1.1,1c0,1.1-0.2,2.2-1.1,2.9C-678.9,4205.4-678.9,4204.1-678.9,4202.7z"
				/>
			<path fill="#D5D5D5" d="M-676.7,4189.2c-0.2,1.3,0.5,2.8-0.5,3.9C-676.7,4191.8-678.4,4190.3-676.7,4189.2z"/>
			<path fill="#D9D9D9" d="M-679.5,4214c1,1.3,0.9,2.6,0,4C-679.5,4216.7-679.5,4215.4-679.5,4214z"/>
			<path fill="#DDDDDD" d="M-678.9,4207.8c0.9,0.8,0.6,1.9,0.5,3.1c-0.4-0.8-0.7-1.4-1-1.9C-679.5,4208.5-679.4,4208-678.9,4207.8z"
				/>
			<path fill="#DCDCDC" d="M-677.8,4197c-0.2,1.3,0.5,2.8-0.6,4C-678.1,4199.7-678.9,4198.2-677.8,4197z"/>
			<path fill="#595553" d="M-638.2,4163.6c-0.6-0.5-0.6-1,0-1.4c0.6,0.4,1.5,0.6,1.6,1.6C-637.1,4163.7-637.6,4163.6-638.2,4163.6z"
				/>
			<path fill="#DEDEDE" d="M-657.5,4171.6c0.3-0.6-0.2-1.3,0.6-1.7c2.5,2.3,2.3,5.9,4,8.6c0.3,0.1,0.5,0.3,0.7,0.5
				c2,4,3.2,8.3,5,12.3c0.9,2.4,2,4.8,2.7,7.3c0.6-1.9,1.2-3.8,2-5.6c2-4.6,3.6-9.5,6-14c0.2-0.2,0.4-0.4,0.6-0.5
				c1.1-2.3,1.5-4.8,3.1-7.1c0.6,0.8,0,1.9,0.8,2.5c0.7,0.6,0.3,1.4,0.4,2c-0.2,1.5-1,2.9-0.9,4.6c-0.1,0.8-0.6,1.5-0.9,2.3
				c-0.2,0.9-0.3,1.8-0.7,2.7c-0.6,1.4-1.4,2.6-2.7,3.4c-1.1,0.8-1.8,1.8-1.8,3.2c0,0.3-0.1,0.5-0.1,0.8c-0.3,0.9-0.3,1.9-0.5,2.9
				c-0.1,1.5-0.3,3-1.2,4.2c-1.2,0.6-1.6,1.8-2.2,2.8c-1.1,1.9-2.3,1.9-3.4,0.2c-2.9-4.5-6.5-8.5-9.1-13.2c1.3-1.3-0.1-2.1-0.5-3.1
				c-0.7-2.1-1.7-4.1-1.8-6.3C-658.1,4177.4-658.4,4174.5-657.5,4171.6z"/>
			<path fill="#E1E1E1" d="M-632.6,4219.7c1.4,0,2.8,0,4.2,0c0.7,0,1.3,0.4,1.3,1.2c-0.1,0.6-0.6,0.9-1.2,1c-2.8,0-5.7,0-8.5,0
				c-0.7,0-1.3-0.5-1.2-1.3c0.1-0.9,0.8-0.9,1.5-0.9C-635.3,4219.7-634,4219.7-632.6,4219.7
				C-632.6,4219.7-632.6,4219.7-632.6,4219.7z"/>
			<path fill="#DEDEDE" d="M-655.3,4219.7c1.2,0,2.4,0,3.6,0c0.6,0,1.4,0,1.4,0.9c0,0.8-0.5,1.3-1.2,1.3c-2.7,0.1-5.4,0.1-8.1,0
				c-0.7,0-1.7-0.3-1.5-1.3c0.1-0.7,0.9-0.9,1.6-0.9C-658.1,4219.7-656.7,4219.7-655.3,4219.7z"/>
			<path fill="#D8D8D8" d="M-639.3,4192.6c0-0.2,0-0.4,0-0.7c1.3-1.8,2-4.4,5.1-3.8c0.4,0.2,0.7,0.5,0.5,1c0,0.2,0,0.4,0,0.6
				c0.2,0.2,0.2,0.4-0.1,0.6c-2.3,1.4-3,4.1-5,5.7c-0.2-0.2-0.4-0.4-0.5-0.6C-639.5,4194.4-639.1,4193.5-639.3,4192.6z"/>
			<path fill="#D5D5D5" d="M-633.7,4189.2c-0.2-0.2-0.4-0.4-0.6-0.6c-0.6-0.8-0.6-1.6-0.4-2.5c0.4-1,1-2,1-3.1
				c0-0.9,0.7-1.5,0.9-2.2c0.2-0.2,0.4-0.2,0.7-0.1C-630.6,4183.9-631.7,4186.6-633.7,4189.2z"/>
			<path fill="#DDDDDD" d="M-655.9,4188.6c-3.2-2.2-3.3-5.3-2.1-8.6c0.6,0,0.7,0.3,0.8,0.8c0.1,2.2,1.2,4.1,1.8,6.2
				C-655.2,4187.6-655.3,4188.2-655.9,4188.6z"/>
			<path fill="#464646" d="M-657.4,4180.7c-0.2-0.2-0.4-0.4-0.6-0.7c-0.7-1.4-0.6-2.9-0.7-4.4c0.4-1.5-0.5-3.2,0.6-4.7
				c0.2,0.2,0.4,0.4,0.6,0.7c0.1,3-0.1,6.1,0.5,9.1C-657.1,4180.7-657.2,4180.7-657.4,4180.7z"/>
			<path fill="#C1C1C1" d="M-632,4194.8c0.2,1.6-0.2,3.2,0.4,4.8c0.2,0.5-0.1,0.9-0.5,1.2c-0.3,0.3-0.7,0.2-1-0.1
				c-0.5-0.5-0.1-0.9,0.2-1.2c1.1-1.6-0.6-3.1-0.1-4.6C-632.7,4194.5-632.4,4194.5-632,4194.8z"/>
			<path fill="#C4C4C4" d="M-638.9,4195.2c0,0.3,0.1,0.5,0.1,0.8c0.1,1.3-1,2.4-0.4,3.7c0.2,0.4,0.5,0.9-0.2,1.1
				c-0.7,0.2-0.9-0.4-1.2-0.9c0.2-1.6,0.4-3.1,0.7-4.7C-639.6,4195-639.2,4195-638.9,4195.2z"/>
			<path fill="#525252" d="M-632,4194.8c-0.3,0-0.7,0-1,0c-0.3-1.5,0.5-3.1-0.7-4.4c0.1-0.2,0.1-0.4,0.1-0.6
				C-630.8,4190.6-632.4,4193-632,4194.8z"/>
			<path fill="#E3E3E3" d="M-645,4218.6c1,0,1.5,0.4,1.5,1.2c0.1,0.9-0.6,1.2-1.2,1.3c-0.6,0.1-1.1-0.4-1.2-1
				C-645.9,4219.3-645.4,4218.9-645,4218.6z"/>
			<path fill="#313131" d="M-655.9,4188.6c0.1-0.6,0.1-1.1,0.2-1.7c0.2-0.3,0.3-0.3,0.6,0c0.8,0.6,1.9,1.1,1.6,2.3
				c-0.2,0.9-1.1,0.4-1.6,0.5C-655.4,4189.4-655.6,4189-655.9,4188.6z"/>
			<path fill="#E1E1E1" d="M-644.5,4233.3c0.6,0,1.1,0.2,1.1,0.9c0,0.7-0.5,1.2-1.2,1.2c-0.5,0-0.8-0.3-0.9-0.8
				C-645.6,4233.8-645.3,4233.3-644.5,4233.3z"/>
			<path fill="#E3E3E3" d="M-643.4,4248c-0.2,0.7-0.6,1.1-1.4,1c-0.7-0.1-0.8-0.7-0.7-1.2c0.1-0.7,0.6-0.9,1.2-0.9
				C-643.7,4246.9-643.4,4247.3-643.4,4248z"/>
			<path fill="#393939" d="M-632,4180.6c-0.2,0-0.3,0.1-0.5,0.1c-0.1,0.3-0.3,0.3-0.5,0c-0.4-1.7,0.2-3.2,1.1-4.6c0.1,0,0.3,0,0.4,0
				c0.1,0.4,0.1,0.8,0.2,1.2C-632.2,4178.3-632,4179.5-632,4180.6z"/>
			<path fill="#DFDFDF" d="M-668.9,4217.3c-0.8-1.9,0.3-3.1,0.4-4.4C-668.2,4214.3-667.8,4215.7-668.9,4217.3z"/>
			<path fill="#5EB2A0" d="M-677.4,4300.2c2.2,0,4.4,0,6.6,0C-673,4303.2-675.3,4303.1-677.4,4300.2z"/>
			<path fill="#FDFDFD" d="M-646.1,4156.9c-4.1,0-6.4-1.5-7.1-4.5c-0.4-1.9,0.2-3.1,2.2-2.8c4,0.6,8,0.8,12,0
				c1.2-0.2,1.9,0.4,1.6,1.8C-638.2,4155.1-641.1,4156.9-646.1,4156.9z"/>
			<path fill="#211D18" d="M-630.8,4134.3c0.3,0.4,0.6,0.7,0.9,1.1c-0.1,0.5-0.4,1.1-0.4,1.6c-0.5,5.2-0.5,5.2-5.7,5.2
				c-1,0-2.1,0-3.1,0c-3.3,0-3.9-0.5-4.2-4c0.2-0.5,0.4-0.8,1-0.6c1.3,3.5,4.2,3.4,7.1,3.2c1.7-0.1,2.7-0.9,3.1-2.7
				C-631.7,4136.9-632,4135.4-630.8,4134.3z"/>
			<path fill="#100F0C" d="M-642.7,4137.7c-0.2,0.2-0.3,0.4-0.5,0.5c-0.2-0.5-0.5-1-0.6-1.5c-0.2-0.9-0.6-1.3-1.5-1.3
				c-1.1,0-1.3,0.8-1.5,1.6c-1.1,0-0.9-0.9-1.1-1.6c0-0.7,0-1.5,0.2-2.2c0.1-0.3,0.3-0.5,0.5-0.7c1.5,0,3,0.1,4.5,0.1
				c0.3,0.3,0.5,0.7,0.5,1.1C-642.5,4135.1-641.7,4136.5-642.7,4137.7z"/>
			<path fill="#EAC093" d="M-645.6,4142.1c0.5,0.2,0.6,0.3,0.6,0.3c0.8,1.6,0.7,3.3,0.5,5.1c0,0.1-0.7,0.1-0.7,0
				C-646,4145.8-645.4,4144-645.6,4142.1z"/>
			<path fill="#493E34" d="M-647.3,4135.3c0.2,0.6-0.2,1.3,0.5,1.7c-0.7,1.3-0.1,3.1-1.5,4.1c0-0.2,0-0.4-0.1-0.7
				C-649.3,4138.5-649.2,4136.7-647.3,4135.3z"/>
			<path fill="#221E1A" d="M-647.3,4132.6c0,0.3-0.1,0.5-0.1,0.8c-3.8,0.8-7.5,1.2-11.2-0.3c-0.6-0.8-1.5-0.4-2.3-0.5
				c0.4-0.7,1.1-0.5,1.8-0.6C-655.1,4132.2-651.2,4132.4-647.3,4132.6z"/>
			<path fill="#0C0B09" d="M-640.5,4132.7c1.9,0.1,3.7-1.3,5.6-0.1c0.8-0.1,0.9,0.2,0.5,0.8c-1.9,0.9-3.9,0.7-5.8,0.1
				C-640.6,4133.3-640.6,4133-640.5,4132.7z"/>
			<path fill="#27231F" d="M-634.3,4133.1c-0.2-0.2-0.4-0.4-0.6-0.6c1.1-0.7,2.3-0.4,3.5-0.6c-0.4,0.4-0.7,0.7-1.1,1.1
				C-633.1,4133.6-633.7,4133.6-634.3,4133.1z"/>
			<path fill="#1B1814" d="M-640.5,4132.7c0,0.2,0,0.3,0,0.5c-0.6,0.7-1.4,1-2.3,0.6c0-0.3,0-0.7,0-1
				C-642,4132.7-641.2,4132.7-640.5,4132.7z"/>
			<path fill="#7C1818" d="M-650.1,4175.6c0.4-0.3,0.7-0.5,1.1-0.8c4.2-3.4,4.2-3.4,8.1,0.2c0.2,0.4,0.2,0.8,0,1.2
				c-0.4,0.3-0.9,0.5-1.3,0.3c-2.4-1.6-4.7-0.8-6.8,0.5C-649.8,4176.8-650.3,4176.5-650.1,4175.6z"/>
			<path fill="#7E889A" d="M-641.2,4176.2c0.1-0.4,0.2-0.8,0.2-1.2c2,0.7,3.3,2.2,4.9,3.5c0,0.1,0,0.3,0,0.4
				c-2.3,1.5-3.7-0.7-5.4-1.3C-642.1,4177-641.6,4176.6-641.2,4176.2z"/>
			<path fill="#7C899B" d="M-650.1,4175.6c0.4,0.4,0.7,0.8,1.1,1.2c0.2,0.3,0.1,0.5,0,0.7c-1.3,0.5-2,2.3-3.8,1.4
				c0-0.2-0.1-0.3-0.1-0.5C-652.8,4176.7-651.4,4176.2-650.1,4175.6z"/>
			<path fill="#1A1A1A" d="M-631.5,4176.1l-0.2,0l-0.2,0c-0.1-0.8-0.1-1.5-0.2-2.3c0-1.1,0-2.2,0-3.4c0.2,0,0.3,0,0.5,0
				C-631.6,4172.4-631.6,4174.3-631.5,4176.1z"/>
			<path fill="#FAE3CC" d="M-658.6,4133.1c3.7,0.1,7.5,0.2,11.2,0.3c0,0.6,0,1.3,0.1,1.9c-0.6,1.6-1.1,3.3-1.1,5.1
				c-2.9,1.2-5.9,1.6-9,0.6c-0.8-0.3-1.8-0.4-1.9-1.7c-0.4-0.9,0.2-2-0.4-2.9C-659.6,4135.3-660.2,4133.9-658.6,4133.1z"/>
			<path fill="#221E1A" d="M-659.7,4136.5c0.6,0.9,0.5,1.9,0.4,2.9C-660,4138.5-659.7,4137.5-659.7,4136.5z"/>
			<path fill="#FBE4CD" d="M-642.8,4133.7c0.8-0.2,1.5-0.4,2.3-0.6c2.1,0,4.1,0,6.2,0c0.6,0,1.1,0,1.7,0c0.8,0.1,1.5,0.3,1.7,1.2
				c-0.5,8.4-0.8,7.2-8.5,7.3c-2.7,0-2.6-2.3-3.4-3.9C-642.3,4136.4-644,4135-642.8,4133.7z"/>
			<path fill="#A90E0C" d="M-649.1,4177.3c0.1-0.2,0.1-0.4,0-0.5c2.4-3.4,5.1-1.9,7.9-0.6c-0.1,0.4-0.2,0.8-0.3,1.1
				c-1.1,5.2,0.4,10.5-0.5,15.7c-0.8,2.2-1.6,4.4-2.7,7.1c-1.3-3.3-2.3-6-3.3-8.7c-0.7-2.8-1-5.5-0.3-8.3
				C-647.7,4181-649.2,4179.3-649.1,4177.3z"/>
			<path fill="#AEC3DD" d="M-641.9,4193c-0.4-4-1-7.9-0.9-11.9c0-1.5,0.3-2.7,1.4-3.8c2.1-0.4,3.3,2.3,5.4,1.6
				C-638,4183.6-640,4188.3-641.9,4193z"/>
			<path fill="#ADC1DB" d="M-649.1,4177.3c1.3,1.5,2.1,3.2,1.7,5.1c-0.7,3-0.3,6-0.6,9c-1.6-4.2-3.3-8.3-4.9-12.5
				C-651.3,4179-650.7,4176.9-649.1,4177.3z"/>
			<path fill="#353535" d="M-634.2,4185.8c0,0.9-0.1,1.8-0.1,2.8c-1.9-0.2-3,0.7-3.7,2.3c-0.3,0.6-0.3,1.3-1.3,1
				c-0.2-1.4,0.4-2.5,1.6-3.3c1.4-0.8,2.3-2,3-3.4C-634.3,4185.2-633.9,4185.2-634.2,4185.8z"/>
			<path fill="#464646" d="M-655.1,4186.9c-0.2,0-0.4,0-0.6,0c-1.1-1.9-2.1-3.9-1.7-6.2c0.1,0,0.3,0,0.4,0
				C-656.4,4182.7-655.8,4184.8-655.1,4186.9z"/>
			<path fill="#4C4C4C" d="M-634.2,4185.8c-0.2-0.2-0.3-0.4-0.5-0.6c0.2-1,0.4-1.9,0.6-2.9c0.6-0.3,0.7,0.2,1,0.5
				C-633,4184.1-633.7,4184.9-634.2,4185.8z"/>
			<path fill="#595959" d="M-638.9,4195.2c-0.3,0-0.6,0-1,0.1c-0.1-1-0.2-1.9,0.5-2.7C-638.2,4193.3-639,4194.3-638.9,4195.2z"/>
			<path fill="#232323" d="M-633.2,4182.9c-0.3-0.2-0.7-0.4-1-0.5c0-0.9,1-1,1.2-1.7c0.2,0,0.3,0,0.5,0
				C-632.8,4181.4-633,4182.2-633.2,4182.9z"/>
			<path fill="#F7F2EB" d="M-653,4137.7c-1-0.1-2-0.6-2-1.8c0-1.1,0.9-1.9,2.1-1.9c1,0,1.7,0.6,1.7,1.8
				C-651.3,4136.9-651.7,4137.6-653,4137.7z"/>
			<path fill="#F8F3ED" d="M-637.7,4137.7c-0.9,0.1-1.5-0.8-1.6-1.9c-0.1-1,0.6-1.9,1.6-1.9c1.1,0.1,2.2,0.6,2.2,2.1
				C-635.5,4137.2-636.2,4137.6-637.7,4137.7z"/>
			<path fill="#9F9C99" d="M-653.1,4136.6c-0.5,0-0.9-0.2-0.8-0.8c0.1-0.4,0.4-0.8,1-0.8c0.5,0,0.8,0.4,0.8,0.9
				C-652.2,4136.3-652.6,4136.6-653.1,4136.6z"/>
			<path fill="#A09D9A" d="M-636.6,4135.9c0,0.5-0.4,1-0.8,0.9c-0.5,0-0.8-0.5-0.7-1c0.1-0.4,0.4-0.9,1-0.8
				C-636.7,4135.1-636.6,4135.5-636.6,4135.9z"/>
		</g>
	</g>
</g>
</svg>
