<?xml version="1.0" encoding="utf-8"?>
<!-- Generator: Adobe Illustrator 21.1.0, SVG Export Plug-In . SVG Version: 6.00 Build 0)  -->
<svg version="1.1" id="Layer_1" xmlns="http://www.w3.org/2000/svg" xmlns:xlink="http://www.w3.org/1999/xlink" x="0px" y="0px"
	 viewBox="-209.1 5057.9 206.6 205.8" enable-background="new -209.1 5057.9 206.6 205.8" xml:space="preserve">
<g>
	<path fill="#F36B5B" d="M-2.5,5154.4c0,5.9,0,11.8,0,17.7c-0.7,13.2-4.7,25.5-10.9,37.2c-4.9,9.3-11.1,17.6-18.6,24.9
		c-1.2,1.2-2.5,3-4.8,2.1c-1.8-3.3-1.2-6.9-0.9-10.2c0.9-8.8-3.1-16-7.6-22.8c-3.2-4.9-8.7-7.7-14.2-9.6c-8-2.8-15.7-6.4-23.7-9.1
		c-10.1-3.5-13.2-14.5-6.6-22.8c2.6-3.2,4.5-6.6,5.1-10.7c0.2-1.8,0.9-3.4,2.3-4.6c2.2-2,3-4.6,2.8-7.3c-0.3-5.1,0.8-9.9,1.7-14.7
		c1.6-9.2,0.9-18.2-5.5-25.4c-5-5.8-10.6-11.6-19.5-10.9c-1.1,0.1-2.2,0.2-3.2,0c-8.9-1.6-15.9,2.3-21.7,8.1
		c-4.6,4.6-8.1,10.3-8.4,17.3c-0.2,5.4,0.3,10.7,1.4,16c0.6,2.8,0.9,5.5,0.7,8.4c-0.2,3.3,0.5,6.4,3.1,8.8c1,0.9,1.7,2.2,1.8,3.5
		c0.6,4.8,3,8.7,5.9,12.5c6,7.9,2.2,18.8-7.5,22.1c-8,2.7-15.7,6.3-23.7,9c-11.3,3.8-17.3,12.6-20.9,23.4c-1.2,3.6-0.3,7.5-0.5,11.2
		c-0.1,2.1,0.4,4.3-0.9,6.3c-2.1,1.2-3.2-0.3-4.4-1.5c-16.1-17-26.7-36.5-27.9-60.3c0-0.3-0.2-0.5-0.4-0.7c0-6.2,0-12.3,0-18.5
		c0.8-1.3,0.2-2.8,0.4-4.1c-0.1-15.5,5.5-29.4,13.4-42.2c13.9-22.7,33.7-38.1,59.2-46.1c6.2-1.9,12.5-2.8,19-2.8
		c1.6-0.2,3.3,0.4,4.8-0.4c4.3,0,8.6,0,12.9,0c1.5,0.9,3.2,0.2,4.8,0.4c15.6-0.1,29.5,5.4,42.5,13.3c22.7,13.8,38.1,33.3,46.2,58.6
		c2,6.3,2.9,12.7,3,19.3C-2.7,5151.1-3.3,5152.8-2.5,5154.4z"/>
	<path fill="#EAE8D8" d="M-177,5235c0-1.9,0.1-3.7,0.1-5.6c0-6.7,0.4-12.9,3.3-19.4c4.4-9.9,12.1-15.2,21.6-18.3
		c7.3-2.5,14.3-5.9,21.6-8.3c9.5-3.1,12-13.5,5.5-21.1c-2.5-2.9-4.5-5.9-4.9-9.8c-0.2-2.3-0.7-4.3-3.2-6c-2.2-1.5-2.7-5.3-2.3-7.7
		c0.8-4.7-0.5-9.1-1.4-13.5c-2-10.2-0.8-19.9,5.9-27.6c4.7-5.4,10.1-11.3,18.7-10.9c1.2,0.1,2.4,0,3.6,0c13.7,0,14.1-0.4,24.2,8.7
		c4.5,4.1,7.7,10,8.2,16.5c0.5,6,0.3,12.1-1.5,17.9c-1.4,4.7,0.6,9.6-1.5,14.2c-0.3,0.6-0.2,1.7-0.5,1.9c-4.4,2.1-3.7,6.3-4.6,9.9
		c-0.6,2.6-2.6,4.4-4.2,6.3c-5.8,6.6-3.8,18.7,7.3,22.2c12.1,3.8,24.6,7.5,35,15.5c1.1,0.8,2,1.8,2.6,3c4.6,8.4,8.8,16.9,7.2,26.9
		c-0.3,2.2,0,4.5,0.1,6.8c0.2,1.5-0.8,2.5-1.8,3.4c-13.6,11.4-28.8,19.3-46.4,22.5c-3.7,0.7-7.4,0.9-11.2,0.8c-1.7,0-3.4,0-5.1,0
		c-1.4,0.2-3-0.4-4.3,0.4c-2.2,0-4.3,0-6.5,0c-1.5-0.9-3.2-0.2-4.8-0.4c-16.1,0.3-30.3-5.8-43.9-13.6c-4.6-2.7-9-5.8-13-9.3
		C-174.8,5238.9-176.9,5237.6-177,5235z"/>
	<path fill="#ACAAB5" d="M-95.1,5263c-0.2,0.2-0.2,0.5-0.1,0.7c-1.9,0-3.8,0-5.6,0c-0.5-0.3-0.4-0.6,0.1-0.7
		C-98.9,5263-97,5263-95.1,5263z"/>
	<path fill="#4B485E" d="M-117.1,5058.6c0.1-0.2,0.1-0.5,0.1-0.7c1.6,0,3.2,0,4.8,0C-113.7,5059.1-115.5,5058.6-117.1,5058.6z"/>
	<path fill="#4B485E" d="M-94.5,5057.9c0,0.2,0,0.5,0.1,0.7c-1.7,0.1-3.4,0.5-4.9-0.7C-97.7,5057.9-96.1,5057.9-94.5,5057.9z"/>
	<path fill="#4C485E" d="M-3.1,5149.4c0.2,0.1,0.5,0.1,0.7,0.1c0,1.6,0,3.2,0,4.8C-3.7,5152.9-3.2,5151.1-3.1,5149.4z"/>
	<path fill="#9E9DA7" d="M-116.3,5263.7c0-0.2,0-0.5-0.1-0.7c1.7-0.3,3.5-0.6,5,0.7C-113,5263.7-114.6,5263.7-116.3,5263.7z"/>
	<path fill="#4C485E" d="M-209.1,5149.5c0.2,0,0.5,0,0.7-0.1c0.1,1.4,0.5,2.9-0.7,4.1C-209.1,5152.2-209.1,5150.9-209.1,5149.5z"/>
	<path fill="#D8D7E3" d="M-100.8,5263c-0.1,0.2-0.1,0.5-0.1,0.7c-1.3,0-2.7,0-4,0C-103.8,5262.4-102.2,5263-100.8,5263z"/>
</g>
</svg>
