<?xml version="1.0" encoding="utf-8"?>
<!-- Generator: Adobe Illustrator 19.1.0, SVG Export Plug-In . SVG Version: 6.00 Build 0)  -->
<svg version="1.1" id="Layer_1" xmlns="http://www.w3.org/2000/svg" xmlns:xlink="http://www.w3.org/1999/xlink" x="0px" y="0px"
	 viewBox="-202 293.5 206.5 206.5" enable-background="new -202 293.5 206.5 206.5" xml:space="preserve">
<g>
	<g>
		<circle fill="#77CBC7" cx="-98.8" cy="396.8" r="103.2"/>
		<path fill="#62BAB3" d="M-98.8,293.5L-98.8,293.5V500l0,0c57,0,103.2-46.2,103.2-103.2C4.5,339.7-41.7,293.5-98.8,293.5z"/>
	</g>
</g>
<g>
	<path fill="#FDFDFD" d="M-110.4,394.6c7.7-0.3,8.7-0.7,9.5-1.6c1-1.1,1.1-3.6,1.4-8.6c0.1-1.5,0.1-2.8,0.1-3.7c0-0.6,0-1.1,0-1.8
		c0.3-10.6,0.4-21.2-0.1-31.8c-0.8-15.6-12.3-26.2-27.5-26c-15.3,0.2-26.7,10.9-27.3,26.4c-0.5,12.6,0,25.3-0.2,37.9
		c-0.1,6.5,2.6,9.3,9.1,9.2c9.2-0.2,18.4-0.1,27.5,0C-116,394.8-113.5,394.7-110.4,394.6z"/>
	<path fill="#FDFDFD" d="M-82.9,394.8c0-3-0.5-6.2-2.7-7.8c-1.6-1.1-4.1-0.9-5.5-0.7c-1.8,0.1-3.3,0.6-4.3,0.9
		c-1.2,0.3-2.9,0.9-4.9,1.8c-3.3,1.6-5.5,3.5-7.2,4.9c-1.3,1.1-3,2.7-4.8,4.8c-0.4,0.5-0.9,1.2-1.5,1.9c-4.7-1.2-6.7,2-8.6,5.3
		c-8.3,14.6-3.6,38.1,9.5,48.4c2.9,2.3,5.8,3.5,9.4,2.3c5.3,2.4,10.6,4.9,16.4,5.7c3.5-2.1,4.8-6.1,4.7-9.2
		C-83.3,433.6-82.6,414.2-82.9,394.8z"/>
	<path fill="#FF6B6B" d="M-113.9,400.5c-13.2,21.5-9.9,39.7,10.2,56c-7.8,11.3-19.6,15.2-33.2,11.2c-10.8-3.2-17.6-12.9-17.7-25.9
		c-0.1-11.6,0.2-23.2-0.1-34.9c-0.2-7.5,3.1-10.5,10.5-10.2c10,0.4,18.8,0,21.5,0.1c2.8,0.1,7,0.2,12.1,0c-0.5,0.5-0.9,1-1.4,1.4
		C-112.6,399-113.3,399.8-113.9,400.5z"/>
	<path fill="#FDFDFD" d="M-74.7,386.3c20,6.2,31.2,20.4,30.4,38.4c-0.8,18.9-13,32.3-34.3,37.5c-4.8-3-4.5-8.3-4.5-12.5
		c0.4-17.8-0.4-35.6,0.4-53.4C-82.5,391-82.8,385.2-74.7,386.3z"/>
	<path fill="#D2D2D2" d="M-74.7,386.3c-4.4,2.4-4.1,6.7-4.1,10.7c0,21.7,0.1,43.5,0.2,65.2c-2.9,0-5.8,0-8.6,0
		c0.1-21.7,0.1-43.5,0.2-65.2c0-4.1,0.3-8.3-4.1-10.7C-85.7,383.8-80.2,383.8-74.7,386.3z"/>
</g>
</svg>
