<?xml version="1.0" encoding="utf-8"?>
<!-- Generator: Adobe Illustrator 19.1.0, SVG Export Plug-In . SVG Version: 6.00 Build 0)  -->
<svg version="1.1" id="Layer_1" xmlns="http://www.w3.org/2000/svg" xmlns:xlink="http://www.w3.org/1999/xlink" x="0px" y="0px"
	 viewBox="-202 293.5 206.5 206.5" enable-background="new -202 293.5 206.5 206.5" xml:space="preserve">
<g>
	<g>
		<circle fill="#77CBC7" cx="-98.8" cy="396.8" r="103.2"/>
		<path fill="#62BAB3" d="M-98.8,293.5L-98.8,293.5V500l0,0c57,0,103.2-46.2,103.2-103.2C4.5,339.7-41.7,293.5-98.8,293.5z"/>
	</g>
</g>
<g>
	<path fill="#5B4559" d="M-168.1,460.4c4.7-8.5,9.9-16.7,15.2-24.8c0.4-0.3,0.8-0.4,1.3-0.3c15.8,0.1,31.6,0,47.5,0
		c5.7,0,6,0.3,6,6.1c0,4.9,0,9.9,0,14.8c0,1.5,0.2,3-1,4.2C-122.1,460.4-145.1,460.4-168.1,460.4z"/>
	<path fill="#1D2A49" d="M-44.7,435.5c4.6,7.4,9.3,14.8,14,22.2c0.5,0.9,0.5,1.7,0.6,2.6c-22.8,0-45.5,0-68.3,0
		c-0.6-8.1-0.4-16.1-0.1-24.2c1.5-1.3,3.3-0.9,4.9-0.9c15.9-0.1,31.8,0,47.7-0.1C-45.5,435.2-45,435.3-44.7,435.5z"/>
	<path fill="#5B4257" d="M-98.4,436.2c0,8,0,16.1,0,24.1c-0.2,0-0.5,0-0.7,0c0-6.8-0.1-13.5,0.1-20.3c0.1-3-0.7-3.9-3.8-3.9
		c-15.2,0.2-30.3,0.1-45.5,0.1c-1.3,0-2.8,0.5-3.9-0.6c0.9-1,2-1,3.2-1c16.4,0,32.7-0.2,49.1,0.1c0.4,0.1,0.8,0.2,1.2,0.4
		C-98.3,435.4-98.2,435.8-98.4,436.2z"/>
	<path fill="#BE423C" d="M-101,307.2c-0.1-1,1-1.3,1.2-2.1c0.7,0,1.4,0,2.1,0c-0.3,1.1,1.2,1.2,1.2,2.1c-0.4,3.7-0.4,7.3,0,11
		c-2,2.9-2.6,2.9-4.5,0C-100.7,314.6-100.7,310.9-101,307.2z"/>
	<path fill="#BE423C" d="M-93.6,337.7c7.5,1.3,14.7,3.4,20.8,8.5c9.1,7.6,15.9,16.5,17.1,28.7c-0.5,1.4-0.3,2.8,0,4.2
		c0.2,11.3,0,22.7,0.1,34c0,0.9,0.1,1.8-0.5,2.6c-1.3,1-2.8,0.8-4.3,0.8c-25.5,0-51,0-76.5,0c-1.3,0-2.5,0.1-3.7-0.4
		c-2.2-1.9-0.5-4.6-1.3-6.8c0.1-0.8,0.6-1.1,1.3-1.4c3.4-0.7,6.8-0.3,10.3-0.3c8.6-0.1,17.2,0,25.8,0c1.5,0,3,0.2,4.3-0.6
		c1.4-1.3,1-3,1-4.5c0-19.5,0-39,0-58.5c0-1.7-0.2-3.4,0.4-5.1C-97.5,337-95.3,338.5-93.6,337.7z"/>
	<path fill="#ED6D58" d="M-99.1,408.6c-14,0-28.1,0-42.1,0c-1.1-1.3-0.7-2.9-0.7-4.3c0-9.6,0-19.2,0-28.8
		c2.2-16.9,11.6-28.3,27-35.1c2.2-1,4.6-1.4,6.9-2c0.6,0.3,1.3,0.2,1.9,0.2c0.3,0,0.6,0,0.9-0.1c-0.4,0.1-0.7,0-0.9-0.3
		c0.7-0.6,1.4-0.6,2.3-0.5c5.1,0.5,5.1,0.5,5.1,5.9c0,20.4,0,40.8,0,61.2C-98.8,406.1-98.5,407.4-99.1,408.6z"/>
	<path fill="#1D899B" d="M-44.9,416.7c0,0.3,0.1,0.6,0.1,0.9c-0.5,4.6-0.3,9.2-0.2,13.7c0.1,2.7-0.8,3.8-3.5,3.8
		c-15.6,0-31.2,0-46.8,0c-3.3,0-4.1-0.8-4.1-4.1c0-4.6-0.6-9.2,0.4-13.7c0.2-0.4,0.6-0.7,1.1-0.8c14,0.1,28.1,0.3,42.1-0.1
		C-52.1,416.9-48.5,416.2-44.9,416.7z"/>
	<path fill="#BE423C" d="M-44.7,329.3c-0.3,0.4-0.5,1.1-1,1.5c-2.2,2.3-4.5,4.5-6.8,6.8c-1.2,1.1-2.3,1.2-3.6,0
		c-1.6-1.5-0.5-2.3,0.6-3.3c2.3-2.2,4.6-4.5,6.7-6.8c0.8-0.9,1.6-1.2,2.7-0.6C-45.2,327.3-44.8,328.1-44.7,329.3z"/>
	<path fill="#BF423C" d="M-140.7,335.9c0,1.3-0.9,1.4-1.5,1.9c-0.9,0.8-1.7,0.9-2.4,0.2c-2.6-2.5-5.1-5-7.6-7.6
		c-1-1.1-0.8-2.4,0.4-3.3c1-0.8,1.8-0.7,2.8,0.5c2.3,2.5,4.9,4.8,7.4,7.2C-141.2,335.2-140.9,335.7-140.7,335.9z"/>
	<path fill="#1D8FA0" d="M-98.4,417c0,4.8,0.1,9.6,0,14.4c-0.1,2.1,0.7,2.8,2.8,2.8c15.8-0.1,31.6-0.1,47.5,0c2.3,0,2.9-0.8,3-3
		c0.1-4.5-0.7-9.1,0.5-13.6c0,5.7,0,11.5,0,17.2c-0.9,0.6-1.9,0.7-3,0.7c-16.7-0.1-33.3,0.1-50-0.1c-0.4-0.1-0.8-0.2-1.3-0.3
		c-0.4-0.2-0.6-0.6-0.8-1c-0.8-5.1-0.3-10.2-0.3-15.3c0-0.4,0.1-0.8,0.3-1.2c0.1-0.2,0.2-0.3,0.3-0.5
		C-99.2,416.8-98.8,416.7-98.4,417z"/>
	<path fill="#BF443E" d="M-25.3,378.4c0.8,0.9,2.6,1.2,1.8,3c-0.6,1.3-1.8,1.7-3.1,1.7c-3,0-6,0.1-8.9,0c-2.8-0.2-3.3-1.4-2-4
		C-33.5,378-29.4,379.2-25.3,378.4z"/>
	<path fill="#BF443E" d="M-160.2,379.4c2.6,2.1,0.4,3.3-1.1,3.4c-3.5,0.4-7.1,0.2-10.6,0.1c-1.1,0-2-0.8-2.2-1.9
		c-0.3-1.4,0.4-2.4,1.9-2.7c3,0.6,6,0.1,9,0.3C-162.1,378.7-160.9,378.1-160.2,379.4z"/>
	<path fill="#27AEB0" d="M-99.1,434.1c0,0.2,0,0.4,0,0.6c-0.7,0.6-1.5,0.4-2.3,0.4c-16.5,0-32.9,0-49.4,0c-0.7,0-1.4,0.1-2-0.3
		c-0.1-6-0.3-12.1,0.1-18.1c3.4-0.2,6.8-0.5,10.2,0.2c-0.9,2.3-3,1.6-4.7,1.7c-3.6,0.3-3.9,0.4-3.9,4c-0.1,2.4,0,4.8,0,7.2
		c0,2.1,1,3.1,3.1,3.1c2.9,0,5.7,0,8.6,0c11.7,0,23.4,0,35,0C-102.6,433.1-100.7,432.8-99.1,434.1z"/>
	<path fill="#BD3C36" d="M-56.3,415.5c0-12.4,0-24.8,0-37.3c0.3-0.4,0.5-0.4,0.8,0c0.8,1.4,0.4,2.9,0.4,4.4c0,11.2,0,22.4,0,33.5
		c-0.3,0.5-0.8,0.5-1.3,0.2C-56.6,416.1-56.6,415.8-56.3,415.5z"/>
	<path fill="#EC6149" d="M-99.1,408.6c0-21.3,0-42.6,0-64c0-5.6,0-5.6-4.8-6.9c1.8,0,3.6-0.1,5.4-0.1c0.4,0.2,0.4,0.4,0.1,0.7
		c0,22.1,0,44.3,0,66.4C-98.5,406-97.9,407.4-99.1,408.6z"/>
	<path fill="#ED6853" d="M-141.8,375.5c1.1,1,0.6,2.4,0.6,3.6c0,9.8,0,19.7,0,29.5c-0.2,0.3-0.4,0.5-0.6,0.8
		c0.6,2.1,0.2,4.3,0.2,6.5c-0.2,0.5-0.5,0.5-0.9,0.2c0-12,0-24.1,0.1-36.1C-142.4,378.5-142,377-141.8,375.5z"/>
	<path fill="#70737D" d="M-56.4,416.1c0.4,0,0.8,0,1.2,0c3.4,0.7,6.9-0.5,10.3,0.6c-3.6,0.1-7.2,0.1-10.8,0.2
		c-3.9,0.6-7.7,0.3-11.6,0.2c-10.1-0.1-20.3,0.4-30.4-0.2c-0.2,0-0.5,0-0.7,0c-0.2-0.1-0.4-0.1-0.7-0.2c-0.2-0.5,0-0.8,0.6-0.9
		c13.3-0.1,26.5,0,39.8,0C-57.9,415.9-57.1,415.8-56.4,416.1z"/>
	<path fill="#616070" d="M-152.8,434.8c17.9,0,35.8-0.1,53.7-0.1c0.2,0.1,0.5,0.1,0.7,0.2c0.2,0.2,0.2,0.3,0.1,0.4
		c-0.1,0.1-0.2,0.2-0.2,0.2c-17.9,0-35.8,0-53.7,0c-0.2,0-0.4,0-0.7,0C-152.9,435.3-152.8,435.1-152.8,434.8z"/>
	<path fill="#728F8F" d="M-99.1,416.3c0,0.2,0,0.3,0,0.5c0,0,0,0.2,0,0.2c-0.7,0.6-1.6,0.8-2.6,0.8c-13.3-0.1-26.5,0.3-39.8-0.2
		c-0.4-0.1-0.8-0.4-1.1-0.7c-3.4,0-6.8-0.1-10.1-0.1c3.3-1.1,6.9,0.1,10.2-0.7c0.2,0,0.4,0,0.6,0c0.4-0.1,0.9-0.2,1.3-0.2
		c12.6,0,25.2,0,37.8,0C-101.6,415.9-100.3,415.5-99.1,416.3z"/>
	<path fill="#2D4761" d="M-98.6,435.5c0.1-0.2,0.1-0.4,0.1-0.6c17.9,0,35.8,0,53.7-0.1c0,0.2,0,0.5,0.1,0.7c-0.2,0-0.4,0-0.7,0
		c-0.7,0.5-1.6,0.3-2.3,0.3c-16.1,0-32.3,0-48.4,0c-0.8,0-1.6,0.2-2.3-0.3L-98.6,435.5z"/>
	<path fill="#BB332C" d="M-160.2,379.4c-2.7-1-5.4-0.2-8.1-0.5c-1.3-0.1-2.8,0.5-3.9-0.6c3.4,0,6.8-0.1,10.1-0.1
		C-161.2,378.2-160.1,378-160.2,379.4z"/>
	<path fill="#BB332C" d="M-25.3,378.4c-4,1.3-8.2,0.2-12.2,0.6C-33.6,377.4-29.4,378.5-25.3,378.4z"/>
	<path fill="#BD3C36" d="M-101,307.2c0.9,3.7,0.9,7.3,0,11C-101,314.6-101,310.9-101,307.2z"/>
	<path fill="#BD3C36" d="M-96.5,318.2c-0.9-3.7-0.9-7.3,0-11C-96.5,310.9-96.5,314.6-96.5,318.2z"/>
	<path fill="#BA2F27" d="M-98.4,338.2c0-0.2,0-0.5-0.1-0.7c1.6,0,3.2,0.1,4.9,0.1C-95.1,338.8-96.8,338-98.4,338.2z"/>
	<path fill="#ED654F" d="M-106.1,338.2c0.2,0.1,0.4,0.1,0.6,0.2c0.3,0.2,0.3,0.5-0.1,0.5c-0.8,0.1-1.7,0.3-2.4-0.5
		C-107.4,338.3-106.8,338.3-106.1,338.2z"/>
	<path fill="#BB322B" d="M-55.6,378.2c-0.3,0-0.5,0-0.8,0c0.2-1.1-0.4-2.4,0.6-3.4C-55.7,376-55.6,377.1-55.6,378.2z"/>
	<path fill="#1C2747" d="M-98.4,435.5c17.7,0,35.4,0,53.1,0c-1.1,1.2-2.6,0.6-3.9,0.6c-16.4,0-32.8,0-49.2,0
		C-98.5,436-98.4,435.8-98.4,435.5z"/>
	<path fill="#C33E36" d="M-99.1,416.3c-14-0.1-28-0.1-42.1-0.2c-0.2-0.1-0.3-0.3-0.2-0.4c0.1-0.1,0.1-0.2,0.2-0.2
		c28.3,0,56.6,0,84.8,0c0,0.2,0,0.4,0,0.6C-70.6,416.2-84.9,416.2-99.1,416.3z"/>
	<path fill="#BD3B35" d="M-141.2,415.5c0,0.2,0,0.4,0,0.6c-0.2,0-0.5,0-0.7-0.1c0-2.2,0.1-4.5,0.1-6.7
		C-140.5,411.3-141.5,413.5-141.2,415.5z"/>
	<path fill="#F1EDD0" d="M-128.9,388.6c0.1,0.7,0.1,1.4,0.2,2.1c0.2,1.4,0.6,2.8-0.3,4.1c-1.1,0.4-1.7,2.4-3,1.6
		c-1.2-0.8-1.9-2.2-1.7-3.9c0.3-2.7-0.4-5.5,0.6-8.1c0.9-0.8,0.4-1.7,0.2-2.6l-0.2,0c-0.3-0.7-0.4-1.4,0.1-2c1.3-4,1.9-8.2,3.6-12.1
		c1.7-3.8,3.8-7.4,7-10.1c1.4-1.2,3.2-1.9,4.8-0.5c1,1,0.6,2.4-0.6,3.3c-7.1,5.9-8.8,14.2-10.1,22.7c-0.1,0.8-0.3,1.5-0.5,2.3
		C-129.5,386.3-129.1,387.5-128.9,388.6z"/>
	<path fill="#F1E9CD" d="M-111.3,351.3c1.6,0,2.5,0.9,2.5,2.4c0,1.3-1,2.1-2.2,2.1c-1.2,0-2.3-0.7-2.4-2
		C-113.6,352.3-112.7,351.5-111.3,351.3z"/>
	<path fill="#ED6650" d="M-128.9,394.8c0.1-1.4,0.2-2.7,0.3-4.1C-127.9,392.1-127.6,393.5-128.9,394.8z"/>
	<path fill="#F1F4D6" d="M-128.9,388.6c-0.6-1.1-1.5-2.3,0.2-3.3C-128.7,386.4-128.8,387.5-128.9,388.6z"/>
	<path fill="#F1F4D6" d="M-132.8,381.7c0.6,0.9,1.2,1.9-0.2,2.6C-132.9,383.5-132.9,382.6-132.8,381.7z"/>
	<path fill="#ED654F" d="M-132.9,379.7c0,0.7-0.1,1.3-0.1,2c-0.8-0.7-0.6-1.6-0.6-2.4c0-0.3,0.2-0.6,0.5-0.2
		C-132.9,379.2-132.9,379.5-132.9,379.7z"/>
	<path fill="#1C8D9F" d="M-97.7,417c14,0,28,0,42,0c-0.7,0.8-1.7,0.6-2.6,0.6c-12.3,0-24.6,0-36.9,0C-96,417.6-97,417.8-97.7,417z"
		/>
	<path fill="#2CAAAD" d="M-142.6,416.9c0.2,0,0.5,0,0.7,0c2,0.6,4.1,0.3,6.1,0.3c11.1,0,22.2,0,33.3,0c1.1,0,2.3-0.3,3.4,0.3
		c0,5.5,0,11,0,16.6c-16.5,0-33.1,0-49.6,0c-2.6,0-3.8-0.5-3.6-3.4c0.2-3.4,0.2-6.9,0-10.3c-0.1-2.3,0.8-2.9,3-2.9
		C-147,417.5-144.7,418.3-142.6,416.9z"/>
	<path fill="#27AFB1" d="M-99.1,417.6c-13.1,0-26.1,0-39.2,0c-1.2,0-2.5,0.5-3.6-0.6c14.3,0,28.5,0,42.8,0
		C-99.1,417.2-99.1,417.4-99.1,417.6z"/>
</g>
</svg>
