<?xml version="1.0" encoding="utf-8"?>
<!-- Generator: Adobe Illustrator 19.1.0, SVG Export Plug-In . SVG Version: 6.00 Build 0)  -->
<svg version="1.1" id="Layer_1" xmlns="http://www.w3.org/2000/svg" xmlns:xlink="http://www.w3.org/1999/xlink" x="0px" y="0px"
	 viewBox="-202 293.5 206.5 206.5" enable-background="new -202 293.5 206.5 206.5" xml:space="preserve">
<g>
	<g>
		<circle fill="#77CBC7" cx="-98.8" cy="396.8" r="103.2"/>
		<path fill="#62BAB3" d="M-98.8,293.5L-98.8,293.5V500l0,0c57,0,103.2-46.2,103.2-103.2C4.5,339.7-41.7,293.5-98.8,293.5z"/>
	</g>
</g>
<g>
	<path fill="#E8BC9E" d="M-64.3,359.3c0.8,3.6,0.5,7.2,0.2,10.7c-0.1,1.7-1.1,2.8-3,2.5c-1.8-0.2-2.6,0.6-3.3,2.3
		c-3,7.5-7.4,14-13.7,19.1c-0.9,0.7-1.5,1.5-1.6,2.7c-0.4,3.3-0.5,6.6,0.1,9.9c0.5,2.6,2,4.3,4.6,4.8c3,0.6,5.9,1.3,8.9,1.9
		c0.3,0.5,0.3,1.1,0.1,1.6c-2.7,8.1-8.2,13.3-16.5,15.3c-6.4,1.6-12.9,1.5-19.3,0.4c-8.6-1.5-14.1-6.7-16.3-15.2
		c-0.2-0.8-0.5-1.7,0.1-2.5c1.8-0.4,3.7-0.8,5.5-1.3c4-1.1,5.5-2.9,5.8-7c0.1-2.1,0.1-4.2,0-6.3c0-1.4-0.5-2.6-1.7-3.5
		c-6.6-5.4-11.5-12.1-14.5-20c-0.6-1.5-1.4-2.3-3-2.1c-1.8,0.2-2.8-0.7-2.9-2.4c-0.2-3.7-1.1-7.4,0.5-11c2.8-1.7,3.8-4.2,3.9-7.4
		c0.1-2.2,0.2-4.6,2.1-6.3c0.2,0,0.3-0.1,0.5-0.1c3-0.9,5.9,0.3,8.9,0.4c1.3,0.1,2.6,0.3,3.9,0.3c0.9,0,1.9,0,2.8,0.2
		c0.9,0.2,1.5,0.1,2.3-0.7c1.1-1.2,3-1,4,0.4c0.4,0.6,0.8,0.6,1.4,0.7c1.7,0.3,3.4,0.3,5.1,0.2c3.5-0.1,7-0.1,10.5,0.1
		c0.4,0,0.7,0,1-0.3c5.8-0.2,11.6,0.4,17.4-0.4c1.5,2.5,1.7,5.4,2.4,8.2c0.5,2.1,1,4.1,3.7,4.3C-64.4,358.8-64.3,359.1-64.3,359.3z"
		/>
	<path fill="#8AA560" d="M-124,412.8c1.1,1.7,1.3,3.7,2,5.4c1.9,4.6,5.1,8.2,9.8,9.8c9.6,3.2,19.2,3.2,28.6-0.9
		c4.7-2,7.7-5.7,9.6-10.3c0.5-1.3,1-2.5,1.9-3.6c5.9,0.8,11.8,1.7,17.7,2.6c7.8,1.1,12,5.9,12.1,13.8c0.1,17.6,0,35.2,0,52.7
		c-0.4,0.5-0.9,0.3-1.4,0.3c-5.2,0-10.4,0-15.5,0c-0.6,0-1.5,0.4-1.6-0.5c-0.1-0.7,0.7-1,1.3-1.3c0.3-0.1,0.7-0.3,1-0.4
		c3.3-1.5,4.9-4,4.9-7.7c0-3.7-1.3-6.6-4.8-8.2c-2.7-1.2-5.5-1.8-8.4-1.8c-8.8,0-17.6,0-26.3,0c-2.8,0-5.6,0.1-8.4-0.3
		c-1.3,0-1.7-1.1-2.3-1.9c-1.4-2.1-2.4-4.5-3.9-6.5c-2.9-4.8-5.7-9.6-8.8-14.3c-0.7-1.2-0.7-2.7-1.9-3.6c-2.5-3.3-4.2-7-6.5-10.4
		c-1.6-2.4-2.9-5-4.4-7.4c-0.6-0.8-1.1-1.6-1.6-2.5c-0.6-1.2-0.2-1.8,1.1-2.1C-127.9,413.7-126,413.2-124,412.8z"/>
	<path fill="#E8BC9E" d="M-101.9,461.7c11.5,0,22.9,0,34.4,0c3.4,0,6.7,0.5,9.9,2c4.6,2.2,5.5,6.2,5.1,10.7
		c-0.4,3.8-2.7,6.1-6.2,7.3c-0.4,0.1-0.8,0.3-1.1,0.7c5.9,0,11.7,0,17.6,0c-0.8,0.6-1.8,0.5-2.7,0.5c-5.9,0-11.7,0-17.6,0
		c-0.8-0.4-1.6-0.2-2.3-0.2c-9.9,0-19.7,0-29.6,0c-1.7-0.3-1.8-1.7-1.5-2.8c1.1-4.4-0.9-7.8-3.1-11.2c-0.9-1.4-1.8-2.8-2.6-4.2
		C-102.1,463.6-102.7,462.7-101.9,461.7z"/>
	<path fill="#5B4A42" d="M-115.3,329c-5,0.4-9.7-1.2-14.2-3.2c-2.6-1.1-2.7-1.3-0.7-3.5c4.1-4.5,9.3-7.4,15.1-8.9
		c10.1-2.7,20.3-3.5,30.5-0.5c6.5,1.9,11.8,5.5,15.6,11.2c0.5,1.5-0.5,2.1-1.7,2.4c-3.6,1-7.3,2.1-11.1,2.2c-0.6,0-1.3,0.2-1.9,0.3
		c-5.6,0.5-11.3,0.6-17,0.9C-105.6,330.2-110.4,328.7-115.3,329z"/>
	<path fill="#8AA560" d="M-156.3,461.2c0-10.3,0-20.6,0-30.9c0-2.2,0.3-4.3,0.9-6.4c1.2-4.6,4.4-7.2,9-7.9c1.8-0.3,4-0.9,5.5-0.3
		c2,0.8,0.9,3.3,1.1,5.1c0.5,4.6,0.8,9.3,1.3,14c0.1,1.4,0.3,2.7,0.5,4.1c1.3,1.3,1.4,3.2,1.4,4.8c0,4.9,1,9.6,1.2,14.5
		c0.1,1.4,0.4,2.9-0.7,4.1c-0.9,0.5-1.9,0.6-2.9,0.6c-4.7,0-9.4,0.1-14.2,0C-154.6,462.7-155.9,462.7-156.3,461.2z"/>
	<path fill="#EFEFEF" d="M-128.7,417.9c3.8,5.8,7.4,11.7,10.8,17.8c1,4.3,0.5,8.6,0.6,12.9c0.1,2.8,0.1,5.6,0,8.4
		c0,1.1,0.1,2.2-1.1,2.9c-1.3,0.7-2.1-0.4-3-1c-0.4-0.3-0.8-0.6-1.1-0.8c1,0.7,1.9,1.8,3.2,2.2c1.4,0.5,1.9,1.5,1.9,2.8
		c0.2,5.7,0.1,11.5,0,17.2c0,1.1-0.5,1.7-1.5,2.2c-3.5,0-6.9,0-10.4,0c-1.1-0.9-1.1-2.1-1.1-3.4c0-6.8-0.1-13.7,0-20.5
		c0.1-3.2-1-5.6-3.5-7.4c-0.9-0.6-1.7-1.4-2.4-2.2c-0.5-0.6-1-1.3-0.3-2.1c0.6-0.6,1.3-0.3,2,0c0.6,0.3,1.1,0.7,1.6,1
		c1.6,0.8,2.3,0.5,2.5-1.2c0.1-0.5,0.1-1,0-1.5c-0.1-7.5,0.3-15-0.3-22.4c-0.1-1.1,0.2-2.1,0.2-3.2
		C-130.3,418.5-129.7,417.9-128.7,417.9z"/>
	<path fill="#F9F9F9" d="M-128.7,417.9c-1,1.6-0.8,3.4-0.7,5c0.4,8.6,0,17.1,0.2,25.7c0,0.8,0.1,1.7-0.8,2.1
		c-0.8,0.4-1.3-0.4-1.9-0.8c-1.3-0.9-2.6-1.8-4.2-2.3c1.5,1.3,2.8,2.8,4.4,3.9c2.1,1.4,2.5,3.4,2.5,5.6c0,8.4,0,16.9,0,25.3
		c-1.9,0-3.7,0-5.6,0c-1.5-1.4-1.3-3.3-1.4-5c-0.4-4.4-0.7-8.7-1.1-13.1c-0.1-1-0.1-2,0.8-2.7c-0.5-6.5-1-13-1.5-19.5
		c-0.1-1.1-0.1-2.3-0.2-3.4c1-0.6,0.8-1.6,0.8-2.5c0-5.7,0-11.4,0-17c0-4.4,1.9-6.1,6.4-5.6c0.4,0,0.7,0.1,1.1,0.2
		c-0.9,0.6-0.4,1.2-0.1,1.8C-129.5,416.3-129.1,417.1-128.7,417.9z"/>
	<path fill="#E6E6E6" d="M-118.8,482.4c0.4-0.9,0.4-1.8,0.4-2.7c0-5-0.1-10.1,0-15.1c0-1.8-0.5-3.2-2-4.3c-1.4-1.1-2.8-2.2-4.2-3.4
		c-0.5-0.4-1.1-0.6-1.1-1.9c1.7,1.2,3.1,2.2,4.5,3.2c0.6,0.4,1.2,1.2,2.1,0.8c0.9-0.4,0.7-1.4,0.7-2.1c0-6,0-11.9,0-17.9
		c0-1.2-0.1-2.3,0.5-3.4c3.8,5.8,7.3,11.7,10.8,17.8c1,3.9,0.5,7.8,0.6,11.7c0,0.5-0.1,1-0.3,1.5c-0.2,0.3-1.5,0.3-0.3,1.2
		c0.7,0.6-0.1,1.6-1.2,1.6c-1.6,0.1-2.4,0.6-2.3,2.4c0,1.4-1.2,1.6-2.5,0.5c0.4,0.9,1,0.9,1.8,0.6c0.7-0.2,0.9-0.8,0.8-1.4
		c-0.3-2,1-2.1,2.4-2.1c1.7-0.1,1.7,1.3,1.7,2.4c0,1.5,0.3,3.2-0.8,4.5c-0.4,0.4-0.2,0.9,0.1,1.4c1.1,1.6,0.7,3.1-0.5,4.5
		c-0.1,0-0.2,0.1-0.3,0.1C-111.6,482.2-115.2,482.9-118.8,482.4z"/>
	<path fill="#E8BC9E" d="M-136.5,461.7c0.6,6.9,1.2,13.9,1.8,20.8c-2.7,0-5.5-0.1-8.2,0c-5.3,0.4-8.5-2.4-10.6-6.9
		c-2.1-4.6-2.9-9.4-2.9-14.4c0.8,0.4,1.7,0.5,2.5,0.5C-148.1,461.7-142.3,461.7-136.5,461.7z"/>
	<path fill="#D6D6D6" d="M-83.4,328c3.4-0.6,6.8-1.1,10.1-1.8c1.5-0.3,3.4-0.3,4.3-2c1.9,2.3,2.9,4.9,3.4,7.8
		c0.3,1.6-0.3,2.1-1.8,2.1c-4,0-8.1,0-12.1,0c-3.3-0.5-3.4-0.5-3.8-4.2C-83.3,329.2-83.4,328.6-83.4,328z"/>
	<path fill="#E6E6E6" d="M-83.4,328c1.4,0.3,1.6,1.4,1.4,2.5c-0.5,2.3,0.4,3.4,2.6,3.6c-8.7-0.2-17.3-0.6-25.9-2.1
		c-0.6-0.1-1.3,0-1.5-0.6c-0.9-2.5-3-2-4.9-2c-1.2,0-2.4,0.2-3.6-0.4c7.3-0.2,14.7,0.1,22-0.4C-90,328.3-86.7,328.2-83.4,328z"/>
	<path fill="#5B4A42" d="M-64.3,359.3c-0.9,0.1-1.7,0.2-2.6,0.3c-0.8,0.1-1.3-0.3-1.5-1.1c-0.9-3.7-1.8-7.4-2.7-11.1
		c-0.1-0.5,0.1-0.8,0.4-1.2c2.2,0,4.4-0.4,6.6-0.8c0.5-0.1,1.4-0.6,1.5,0.5C-61.9,350.5-61.8,355.1-64.3,359.3z"/>
	<path fill="#5B4A42" d="M-128.4,345.4c-0.5,4.1-1.5,8.2-1.7,12.4c0,0.3-0.3,0.7-0.3,0.7c-1.5-0.4-2.6,1.2-4.1,0.7
		c-0.8-4.5-1.7-9-1.8-13.6c0-1.6,0.2-2.2,2-1.6C-132.3,344.6-130.3,344.9-128.4,345.4z"/>
	<path fill="#E6E6E6" d="M-95,482.4c9.8,0,19.7,0,29.5,0c1,0,2-0.1,2.9,0.4c-14.3,0-28.6,0-42.9,0c-0.9,0-1.7,0-2.5-0.4c0,0,0,0,0,0
		c0.5-0.7,1.2-1,2.1-1c2.9-0.1,5.9-0.1,8.8,0C-96.2,481.5-95.5,481.8-95,482.4z"/>
	<path fill="#DBDBDB" d="M-95,482.4c-4.3,0-8.7,0-13,0c0-1.6,1.1-3.3-1.3-4.4c-0.9-0.4-0.6-1.7,0.5-2.5c1.2-0.8,1.7-3.9,1-5
		c-0.3-0.4-0.6-0.6-1.1-0.5c-0.6,0-1,0.3-1.1,0.9c-0.1,0.6-0.2,1.2-0.4,1.7c-0.4,0.8-1.1,0.8-1.9,0.7c-0.7-0.1-1.1-0.6-1.2-1.3
		c-0.1-1.1,0-2.1,0.8-3.4c0,1,0,1.7,0,2.4c0,0.6-0.2,1.5,0.8,1.5c0.7,0.1,0.9-0.7,0.9-1.2c0.1-1.2,0.8-1.8,1.9-2
		c0.7-0.2,1.6-0.3,1.3-1.3c-0.2-0.8-1-0.6-1.7-0.6c-0.5,0-1,0.1-1.5,0.2c0.1-0.2,0.1-0.4,0.1-0.4c3.4-0.9,3.3-0.9,3.4-4.5
		c0.1-3.1-0.4-6.2,0.4-9.2c1.7,2.7,3.5,5.5,5.2,8.2c2,3.4,4,6.9,6.1,10.3c1.3,2.1,1.4,4.3,1,6.6C-94.9,479.9-95,481.1-95,482.4z"/>
	<path fill="#D6D6D6" d="M-135.2,341.2"/>
	<path fill="#E6E6E6" d="M-135.9,344.5c7.5,1.2,15.5,2.2,24.1,2.8c18.5,1.2,35,0.3,49-1.5c0.2-2.8,0.1-5.1,0-6.7
		c-0.3-3.9-0.6-7.5-3-11.1c-0.7-1.1-1.8-2.4-3.4-3.8c-2.4,0.5-5.4,1.2-9,1.8c-4.1,0.7-8.5,1.3-14.6,1.8c-14,1.2-21.1,1.8-28,0.2
		c-4.5-1-8.1-2.5-10.3-3.6c-0.7,0.5-1.7,1.4-2.7,2.5c-4.4,5.4-3.4,12.3-3.2,13.6C-136.8,342-136.4,343.3-135.9,344.5z"/>
</g>
</svg>
