<?xml version="1.0" encoding="utf-8"?>
<!-- Generator: Adobe Illustrator 19.1.0, SVG Export Plug-In . SVG Version: 6.00 Build 0)  -->
<svg version="1.1" id="Layer_1" xmlns="http://www.w3.org/2000/svg" xmlns:xlink="http://www.w3.org/1999/xlink" x="0px" y="0px"
	 viewBox="-202 293.5 206.5 206.5" enable-background="new -202 293.5 206.5 206.5" xml:space="preserve">
<g>
	<g>
		<circle fill="#77CBC7" cx="-98.8" cy="396.8" r="103.2"/>
		<path fill="#62BAB3" d="M-98.8,293.5L-98.8,293.5V500l0,0c57,0,103.2-46.2,103.2-103.2C4.5,339.7-41.7,293.5-98.8,293.5z"/>
	</g>
</g>
<g>
	<g>
		<path fill="#FFFFFF" d="M-164.5,327.4c0.8-0.1,1.6-0.4,2.3-0.4c42.3,0,84.6,0,126.9,0c0.7,0,1.4,0.2,2.1,0.3
			c0.8,1.9,0.6,4.1,0.6,6.2c0,42.5,0,84.9,0,127.4c0,7-0.1,7.3-4,7.3c-41.5,0-83.1,0-124.6,0c-1.1,0-2.2,0.3-3.2-0.8
			c-0.5-1.3-0.3-2.8-0.3-4.2c0-43.9,0-87.7,0-131.6C-164.8,330.2-165,328.8-164.5,327.4z"/>
		<path fill="#404857" d="M-33.4,326.5c-43.5,0-87,0-130.4,0c0-0.1,0-0.2,0-0.3c43.5,0,87,0,130.5,0
			C-33.4,326.3-33.4,326.4-33.4,326.5z"/>
		<path fill="#2D93CF" d="M-53.9,368.8c0-9.5,0.1-19-0.1-28.5c0-2.5,0.9-3,3.1-2.9c2,0.1,3.2,0.1,3.2,2.8c-0.1,19.3-0.1,38.5,0,57.8
			c0,2.5-0.9,2.8-3.1,2.9c-2.4,0-3.3-0.5-3.2-3.1C-53.8,388.2-53.9,378.5-53.9,368.8z"/>
		<path fill="#3093D0" d="M-65.7,375.1c0-7.7,0.1-15.4-0.1-23.1c-0.1-2.9,1.5-2.5,3.4-2.6c2.1-0.1,3,0.3,3,2.7
			c-0.1,15.4-0.1,30.8,0,46.2c0,2.5-1.1,2.6-3,2.6c-1.9,0-3.3,0.1-3.3-2.7C-65.6,390.5-65.7,382.8-65.7,375.1z"/>
		<path fill="#2191CE" d="M-96.2,367.1c1,0.6,0.5,1.6,0.5,2.4c0,9.6-0.1,19.2,0.1,28.7c0.1,3.1-1.7,2.6-3.5,2.7
			c-2,0.1-3.2,0-3.1-2.7c0.2-10.2,0.1-20.3,0.2-30.5c0.2-0.1,0.3-0.2,0.5-0.2c5-0.4,5-0.4,5,4.6c0,8.8,0,17.6,0,26.4
			c0,0.3-0.1,0.6-0.4,0.7c0,0,0.1,0,0.4,0c0-8.9,0-17.8,0-26.7C-96.5,370.6-96.8,368.8-96.2,367.1z"/>
		<path fill="#2191CE" d="M-77.2,360.6c5.3-0.3,5.3-0.3,5.3,5.1c0,10.4,0,20.7,0,31.1c0,4.5-1.2,5.2-5.8,3.5
			c0.5-2.3,0.2-4.7,0.2-7.1c0-9.9,0-19.8,0-29.7C-77.5,362.5-77.8,361.5-77.2,360.6z"/>
		<path fill="#2191CE" d="M-84.4,373c1.1,0.7,0.5,1.8,0.5,2.7c0.1,7.2-0.1,14.4,0.1,21.7c0.1,2.9-0.7,4.1-3.5,3.5
			c-0.8-0.2-1.8,0.5-2.4-0.6c0.5-7.7,0.1-15.3,0.2-23c0.1-4.2,0-4.2,4.4-3.9c0.7,2.8,0.3,5.7,0.3,8.5c0.1,5.6,0,11.2,0,16.7
			c0-8.2,0-16.4,0-24.6C-84.7,373.7-84.6,373.3-84.4,373z"/>
		<path fill="#2191CE" d="M-120.1,400.3c-1.5,1.3-3.3,0.4-5,0.5c-1.2,0-0.8-1.1-0.8-1.8c0-6.1,0.1-12.1,0.1-18.2
			c1.8-0.4,3.6-0.5,5.4,0.1c0.3,5.4,0,10.9,0.1,16.3C-120.3,398.1-120.5,399.2-120.1,400.3z"/>
		<path fill="#2191CE" d="M-108.2,400.3c-1.5,1.3-3.3,0.4-5,0.5c-1.2,0-0.8-1.1-0.8-1.8c0-4.3,0.1-8.6,0.1-12.9
			c1.8-0.9,3.5-0.8,5.3-0.1C-108,390.7-108.8,395.5-108.2,400.3z"/>
		<path fill="#2191CE" d="M-132.5,400.3c-1.5,1.2-3.1,0.4-4.7,0.5c-1.1,0.1-1.1-0.9-1.1-1.7c0-4,0-8,0-12.1c0-0.7-0.1-1.6,0.9-1.5
			c1.7,0.1,3.5-0.8,5,0.5C-133,390.8-132.9,395.5-132.5,400.3z"/>
		<path fill="#E6E5E4" d="M-85.6,361.1c7.5-5.7,14.3-12.3,21.5-18.2c2.3-1.9,4.5-3.8,6.7-5.7c1.3-1.2,3-2,3.3-4
			c1.2,0,1.4,0.8,1.2,1.8c-10.5,9.1-21,18.3-31.5,27.4C-85.6,362.7-86,362.3-85.6,361.1z"/>
		<path fill="#F6F5F5" d="M-111.7,343.3c-0.8,0.9-1.8,0.6-2.8,0.6c-12.9,0-25.9,0-38.8,0c-0.5,0-1,0-1.5,0c-0.8,0-1.4-0.3-1.4-1.2
			c0-0.9,0.6-1.2,1.4-1.2c14.1,0,28.2,0,42.4,0.1c0.2,0,0.5,0.3,0.7,0.5c-1.1,0.9-2.5,0.6-3.7,0.6c-11.8,0-23.7,0-35.5,0
			c11.8,0,23.7,0,35.5,0C-114.1,342.7-112.8,342.4-111.7,343.3z"/>
		<path fill="#E5E4E3" d="M-111.7,343.3c-14.5,0-29,0-43.5,0c0-0.4,0-0.8,0-1.2c14.5,0,29,0,43.5,0
			C-111.7,342.5-111.7,342.9-111.7,343.3z"/>
		<path fill="#F6F5F5" d="M-114.1,352.2c-0.8,0.9-1.8,0.6-2.8,0.6c-12.1,0-24.3,0-36.4,0c-0.6,0-1.2,0-1.8,0
			c-0.7-0.1-1.1-0.4-1.1-1.1c0-0.7,0.4-1.1,1.1-1.1c0.7,0,1.4,0,2.1,0c11.9,0,23.9,0,35.8,0c1,0,2.2-0.4,3.1,0.6
			c-1.1,0.9-2.5,0.6-3.7,0.6c-11,0-22.1,0-33.1,0c11,0,22.1,0,33.1,0C-116.5,351.6-115.2,351.3-114.1,352.2z"/>
		<path fill="#E5E4E3" d="M-114.1,352.2c-13.7,0-27.4,0-41.1,0c0-0.4,0-0.8,0-1.2c13.7,0,27.4,0,41.1,0
			C-114.1,351.4-114.1,351.8-114.1,352.2z"/>
		<path fill="#F0F0EE" d="M-118.2,347.4c-0.7,0.9-1.6,0.6-2.5,0.6c-11,0-21.9,0-32.9,0c-0.9,0-2.4,0.5-2.4-0.9
			c0-1.4,1.5-0.9,2.4-0.9c11,0,21.9,0,32.9,0c0.9,0,1.8-0.3,2.5,0.6c-1,0.5-2.1,0.3-3.2,0.3c-11.3,0-22.6,0-33.8,0
			c11.4,0,22.8,0,34.1,0C-120.2,347.2-119.1,346.9-118.2,347.4z"/>
		<path fill="#1E90CE" d="M-131.9,336.2c1,1.4,1.1,2.4-1,2.4c-7.2,0-14.4,0-21.6,0c-2.1,0-2.1-0.9-1.1-2.3
			C-147.7,336.6-139.8,336.7-131.9,336.2z"/>
		<path fill="#E6E5E4" d="M-124.2,371.8c-4.2,1.7-7.7,4.6-11.5,7c-4.8,3-9.6,6.1-14.3,9.3c-0.9,0.6-2.2,1-2.6,2.2
			c-0.4-0.1-0.7-0.2-0.5-0.7c0-0.9,0.5-1.4,1.3-1.8c8.9-5.7,17.8-11.5,26.7-17.2C-124.4,370.5-123.9,370.8-124.2,371.8z"/>
		<path fill="#2592CF" d="M-144.4,400.3c-1.6,1.2-3.3,0.4-5,0.5c-0.7,0-0.8-0.7-0.8-1.3c0-0.9,0-1.8,0-2.6c0-4.6,1.2-5.4,5.8-3.6
			C-144.8,395.5-144.8,397.9-144.4,400.3z"/>
		<path fill="#F0F0EE" d="M-123.5,356.4c-0.7,0.8-1.6,0.6-2.5,0.6c-9.2,0-18.4,0-27.5,0c-0.9,0-2.4,0.5-2.4-0.9
			c0-1.4,1.5-0.9,2.4-0.9c9.2,0,18.4,0,27.5,0c0.9,0,1.8-0.3,2.5,0.6c-2.2,0.6-4.5,0.3-6.7,0.3c-8.4,0.1-16.7,0-25.1,0
			c9.7,0,19.3,0,29,0C-125.5,356.1-124.5,355.8-123.5,356.4z"/>
		<path fill="#E7E6E4" d="M-98.5,358c-0.7,0.1-1.3,0.3-1.7,1c-3,4.8-6,9.7-9.1,14.5c-1,0.2-0.9-0.4-0.7-1c2.6-5.6,6.5-10.3,9.6-15.5
			C-99.4,356.6-98.7,357-98.5,358z"/>
		<path fill="#F0DB37" d="M-98.5,358c-0.6-0.4-1.3-0.7-1.9-1.1c-0.8-1.3-0.9-2.6,0.3-3.7c0.8-0.8,1.7-1.2,2.9-0.6
			c1.8,0.8,1.7,2.2,1.6,3.7c0.2,0.8-0.2,1-0.8,1.1C-97.1,357.6-97.8,357.8-98.5,358z"/>
		<path fill="#F0DB35" d="M-124.2,371.8c-0.4-0.4-0.7-0.8-1.1-1.2c-0.4-2,0.7-3.3,2.4-3.7c1.5-0.4,2.6,0.5,3.1,2
			c0.1,0.8,0.6,1.6-0.3,2.3C-121.3,372.2-122.7,372.7-124.2,371.8z"/>
		<path fill="#1F8ACA" d="M-77.2,360.6c0,12.2,0,24.4,0,36.6c0,1,0.4,2.2-0.5,3.1c0-12.8-0.1-25.7-0.1-38.5
			C-77.9,361.2-77.9,360.7-77.2,360.6z"/>
		<path fill="#1E8CCC" d="M-96.2,367.1c0,10.8,0,21.7,0,32.5c-0.2,0-0.4,0-0.6,0c0-1.2,0-2.3,0-3.5c0-8.2,0-16.4,0-24.5
			c0-3.9,0-3.9-3.8-3.9c-0.5,0-1,0-1.5,0C-100.2,366.2-98.2,367.1-96.2,367.1z"/>
		<path fill="#F0DB34" d="M-85.6,361.1c0.1,0.7,0.4,1.2,1.2,1.2c1,1.8,0.5,3.3-1.3,4c-2.3,0.8-3.3-0.8-3.9-2.7
			c0.3-0.7,0.1-1.6,1.1-2C-87.6,361.1-86.6,361-85.6,361.1z"/>
		<path fill="#F1DB35" d="M-52.9,335c-0.4-0.6-0.8-1.2-1.2-1.8c0.1-2.2,1.4-3.4,3.5-3.2c1.8,0.2,2.4,1.8,1.9,3.3
			C-49.4,335.2-50.9,335.8-52.9,335z"/>
		<path fill="#F0DB32" d="M-110,372.5c0.1,0.5,0,1,0.7,1c1.1,1.5,0.8,2.9-0.6,3.8c-1.3,0.8-2.6,0.8-3.6-0.7
			c-0.5-0.9-0.1-1.9-0.3-2.8c0-0.3,0.2-0.6,0.4-0.8C-112.4,372.2-111.2,372.3-110,372.5z"/>
		<path fill="#E5E5E4" d="M-118.2,347.4c-12.2,0-24.4,0-36.7,0c0-0.2,0-0.4,0-0.6c12.2,0,24.4,0,36.7,0
			C-118.2,347.1-118.2,347.2-118.2,347.4z"/>
		<path fill="#F1DC34" d="M-153.3,389.6c0.2,0.2,0.4,0.5,0.5,0.7c-0.2,2.1-1,3.7-3.4,3.4c-1.6-0.2-2.3-1.4-2.2-3
			c0.2-1.7,1.4-2,2.8-1.8C-154.7,389.1-154,389.4-153.3,389.6z"/>
		<path fill="#3894CF" d="M-155.6,361.1c4.6-0.2,9.1-0.3,13.6,0c0,1.4,1.6,3.3-1.3,3.8c-0.5,0-0.9-0.2-1.2-0.6c-0.4-0.4-0.6-1-1-1.4
			c-2.1-1-4.2-0.4-6.4-0.4c-1.2,0-1.2,1.1-1.6,1.8c-0.2,0.3-0.4,0.5-0.8,0.5C-157.2,364.6-155.7,362.6-155.6,361.1z"/>
		<path fill="#228AC9" d="M-85,373.6c-4.2,0-4.2,0-4.2,4.1c0,6.5,0,13,0,19.5c0,1,0.4,2.2-0.5,3.1c0-8.5-0.1-17.1-0.2-25.6
			c0-1.5,0.6-1.9,1.9-1.8c1.2,0.1,2.3,0.1,3.5,0.2c0,0.2,0,0.4,0,0.6C-84.6,373.9-84.8,373.9-85,373.6z"/>
		<path fill="#E5E4E3" d="M-123.5,356.4c-10.4,0-20.9,0-31.3,0c0-0.2,0-0.4,0-0.6c10.4,0,20.9,0,31.3,0
			C-123.5,356-123.5,356.2-123.5,356.4z"/>
		<path fill="#258ECD" d="M-131.9,336.2c-0.1,0.4,0.1,1.3-0.4,1.2c-6.7-1.4-13.5-0.2-20.2-0.6c-1-0.1-2.2,0.4-3.1-0.6
			C-147.7,335.9-139.8,335.9-131.9,336.2z"/>
		<path fill="#429BD3" d="M-155.6,361.1c0.4,1.3-1.1,3.5,1.8,3.5c3.4-1.3,6.7-1.2,10.1,0c2.9,0,1.4-2.2,1.8-3.5
			c1.2,3.7,0.9,4.1-2.7,4.1c-2.8,0-5.7,0-8.5,0C-156.6,365.3-156.9,364.7-155.6,361.1z"/>
		<path fill="#E6E6E4" d="M-88.5,361.7c-0.4,0.7-0.7,1.3-1.1,2c-1.3-3.2-4.4-4.3-6.8-6.2c0.3-0.4,0.6-0.7,0.8-1.1
			C-93.2,358.1-90.9,359.9-88.5,361.7z"/>
		<path fill="#1E8CCC" d="M-120.1,400.3c-1-2.2-0.4-4.6-0.5-6.9c-0.1-4.2,0-8.4,0-12.6c0.2-0.2,0.3-0.2,0.5,0
			C-120.1,387.2-120.1,393.7-120.1,400.3z"/>
		<path fill="#E7E6E6" d="M-113.4,373c0,0.2-0.1,0.3-0.1,0.5c-0.2,0.3-0.2,0.7-0.7,0.7c-2-1-4-2-6-3.1c0.1-0.8,0.2-1.5,0.3-2.3
			C-118.2,371.1-115.9,372.1-113.4,373z"/>
		<path fill="#228AC9" d="M-108.2,400.3c-1.1-4.7-0.2-9.5-0.5-14.2c-0.2-0.5,0-0.7,0.5-0.6C-108,390.4-108,395.3-108.2,400.3z"/>
		<path fill="#1F8AC9" d="M-132.5,400.3c-0.9-4.7-1-9.5,0-14.2C-132.3,390.8-132.2,395.5-132.5,400.3z"/>
		<path fill="#1E8CCC" d="M-108.2,385.5c-0.2,0.2-0.3,0.4-0.5,0.6c-1.7,0-3.5,0-5.2,0C-112.2,384.1-110.2,384.9-108.2,385.5z"/>
		<path fill="#1F8AC9" d="M-144.4,400.3c-0.9-2.4-0.9-4.7,0-7.1C-144.1,395.5-144.1,397.9-144.4,400.3z"/>
		<path fill="#228AC9" d="M-120.1,380.7c-0.2,0-0.3,0-0.5,0c-1.7,0-3.5,0-5.2,0C-123.9,379.6-122,379.6-120.1,380.7z"/>
		<path fill="#E3CC38" d="M-114.1,374.2c0.2-0.2,0.4-0.5,0.7-0.7c0,1,0,2.1,0,3.1C-114.4,376-114,375-114.1,374.2z"/>
		<path fill="#1E8CCC" d="M-72.6,362.5c0,12.3,0,24.7,0,37c-0.1,0-0.2,0-0.3,0c0-12.4,0-24.8,0-37.1
			C-72.8,362.4-72.7,362.4-72.6,362.5z"/>
		<path fill="#1E8CCC" d="M-85,373.6c0.2,0,0.4,0,0.6,0c0,8.7,0,17.3,0,26c-0.2,0-0.4,0-0.6,0C-85,390.9-85,382.2-85,373.6z"/>
		<path fill="#1E8CCC" d="M-137.4,386.7c0,4.3,0,8.6,0,12.8c-0.1,0-0.1,0-0.2,0c0-4.3,0-8.6,0-12.8
			C-137.5,386.7-137.4,386.7-137.4,386.7z"/>
		<path fill="#1E8CCC" d="M-149.5,399.6c0-1.9,0-3.8,0-5.7c0.1,0,0.2,0,0.3,0c0,1.9,0,3.7,0,5.6
			C-149.4,399.6-149.5,399.6-149.5,399.6z"/>
		<path fill="#F1F7FB" d="M-144.3,362.3c0,0.6-0.1,1.2-0.1,1.7c-3,0.6-5.9,0.5-8.9,0.1c-0.4-1.3-0.2-2.2,1.4-2.1
			C-149.4,362.1-146.8,361.7-144.3,362.3z"/>
		<path fill="#429BD3" d="M-144.3,362.3c-2.5,0-4.9,0-7.4,0c-1.4,0-1.8,0.5-1.4,1.8c-0.2,0.3-0.4,0.3-0.7,0.1
			c-0.2-1.8,0.4-2.6,2.3-2.4C-149.1,362-146.6,361.1-144.3,362.3z"/>
		<path fill="#1F8ACA" d="M-153.8,364.1c0.2,0,0.5,0,0.7-0.1c2.9,0,5.8,0,8.7,0c0.2,0.2,0.5,0.4,0.7,0.6c-3.4,0-6.7,0-10.1,0
			C-153.8,364.5-153.8,364.3-153.8,364.1z"/>
	</g>
	<g>
		<path fill="#56A6A1" d="M-93.4,456.3c-2.4,1.2-4.9,0.5-7.4,0.4c-1.3,0-0.8-1.4-0.8-2.2c0-6.1,0-12.2,0-18.3
			c2.7-1.5,5.5-1.4,8.2-0.1c0,0.2,0,0.4,0,0.6C-93.8,443.3-93.8,449.8-93.4,456.3z"/>
		<path fill="#56A6A1" d="M-63.1,439.1c0,5.2,0,10.5,0.1,15.7c0,1.5-0.4,2.3-2,2c-2.1-0.3-4.2,0.7-6.2-0.6c0.4-4.8,0.1-9.6,0.2-14.4
			c0.1-3.4,0.2-3.6,3.7-3.6C-65.9,438.3-64.4,438-63.1,439.1z"/>
		<path fill="#E6E8ED" d="M-116.5,447.5c0-4.4,0.1-8.9-0.1-13.3c-0.1-2.3,0.8-2.9,2.9-2.8c6.5,0.2,5.4-0.8,5.4,5.5
			c0,3.6,0,7.1-0.1,10.7c-2.4,1.3-4.8,0.7-7.3,0.5C-115.9,447.9-116.2,447.7-116.5,447.5z"/>
		<path fill="#5AA7A2" d="M-123.7,456.9c-0.2,0-0.4,0-0.6,0c-2.4-0.3-5.5,1.1-7-0.6c-1.5-1.7-0.4-4.7-0.5-7.2
			c-0.1-2.3-0.1-4.5-0.1-6.8c2.2-1.8,4.7-1.1,7.1-0.8c0.8,0.1,1.5,0.7,1.4,1.6C-123.5,447.7-122.9,452.3-123.7,456.9z"/>
		<path fill="#5AA7A2" d="M-78.5,443.2c0.9,4.1,0.2,8.2,0.4,12.4c0,0.8-0.4,1.3-1.3,1.3c-2,0-4,0-5.9,0c-0.8,0-1.2-0.4-1.2-1.3
			c0.1-4.1,0.2-8.2,0.3-12.4C-83.6,442-81,442-78.5,443.2z"/>
		<path fill="#E5E8EC" d="M-123.7,456.9c0.5-4.4,0.1-8.9,0.2-13.3c0-1.1-0.5-1.6-1.6-1.6c-2.3,0.1-4.5-0.3-6.8,0.3
			c0.9-2.7,0.5-5.5,0.4-8.2c0-2,0.5-2.8,2.7-2.7c6.1,0.2,4.9-0.5,5.1,4.9c0.2,5.9,0.9,11.7,0.6,17.6
			C-123,454.9-122.5,456.1-123.7,456.9z"/>
		<path fill="#E6E8ED" d="M-78.5,443.2c-2.6,0-5.2,0-7.8,0c0-3.2,0.1-6.3,0-9.5c-0.1-1.8,0.6-2.4,2.4-2.4c6.5,0.1,5.2-0.5,5.3,5
			C-78.4,438.7-78.5,441-78.5,443.2z"/>
		<path fill="#57A6A1" d="M-115.9,447.6c2.6,0,5.1,0,7.7,0c0,2.4,0,4.9,0,7.3c0,0.7,0.3,1.9-0.8,1.9c-2.4,0-5,0.7-7.3-0.4
			C-115.7,453.4-116.7,450.4-115.9,447.6z"/>
		<path fill="#E5E8EC" d="M-71.3,438.6c0-0.5,0-1,0-1.5c0.2-6.6-1.4-5.6,6.1-5.7c1.6,0,2.4,0.5,2.3,2.2c-0.1,1.7,0,3.3,0,5
			C-65.8,439-68.6,439-71.3,438.6z"/>
		<path fill="#57ABD1" d="M-85,411.3c0.8,2.5,0.9,5,0,7.5c-2.5-0.6-5.1,0.3-7.6-0.5c0.1-2.4-0.8-4.8,0.5-7.2
			C-89.8,411.8-87.4,411.6-85,411.3z"/>
		<path fill="#E5E7EC" d="M-111.7,413.6c-2.5,0-4.9,0-7.4,0c-0.8,0-1.9,0.2-2-1.1c-0.1-1.3,1-1.2,1.9-1.3c5,0,10.1,0,15.1,0
			c0.9,0,1.9-0.1,1.9,1.3c-0.1,1.3-1.2,1.1-2,1.1C-106.8,413.6-109.3,413.6-111.7,413.6z"/>
		<path fill="#E5E7ED" d="M-70.3,413.6c-2.5,0-4.9,0-7.4,0c-0.9,0-1.9,0.1-1.9-1.2c0-1.3,1.1-1.1,2-1.1c5,0,10.1,0,15.1,0
			c0.8,0,1.7-0.1,1.7,1.1c0.1,1.3-0.9,1.3-1.8,1.3C-65.2,413.6-67.7,413.6-70.3,413.6z"/>
		<path fill="#E5E8EC" d="M-101.6,435.6c0-4.2,0-4.2,4.3-4.2c4,0,4,0,4,4.2C-96.1,436-98.9,436-101.6,435.6z"/>
		<path fill="#E5E7ED" d="M-115.7,416.6c1.2,0,2.4,0,3.5,0c0.8,0,1.6,0.1,1.6,1.2c0,0.9-0.7,1.1-1.4,1.1c-2.6,0-5.1,0-7.7,0
			c-0.7,0-1.4-0.2-1.4-1.1c-0.1-1.1,0.7-1.3,1.6-1.3C-118.3,416.6-117,416.6-115.7,416.6z"/>
		<path fill="#E5E7EC" d="M-74.4,418.9c-1.3,0-2.6,0-3.8,0c-0.8,0-1.3-0.3-1.3-1.2c0-0.7,0.4-1.1,1.1-1.1c2.6,0,5.1,0,7.7,0
			c0.7,0,1.1,0.3,1.2,1.1c0.1,0.9-0.4,1.3-1.2,1.3C-72.1,418.9-73.3,418.9-74.4,418.9z"/>
		<path fill="#EAC359" d="M-126,415.1c0,3.9,0,3.9-3.9,3.9c-4.5,0-4,0.6-4-4.1c0-4.3-0.5-3.7,4.4-3.7
			C-125.4,411.1-126,410.6-126,415.1z"/>
		<path fill="#4AA29D" d="M-71.3,438.6c2.8,0,5.5,0,8.3,0c0,0.2,0,0.4-0.1,0.5c-7.6,0-7.5,0-7.7,7.6c-0.1,3.2,0.6,6.4-0.4,9.6
			C-71.3,450.4-71.3,444.5-71.3,438.6z"/>
		<path fill="#4AA29D" d="M-93.4,456.3c-1.1-4.2-0.4-8.4-0.4-12.6c0-2.3-0.6-4.7,0.5-7C-93.4,443.3-93.4,449.8-93.4,456.3z"/>
		<path fill="#4AA29D" d="M-115.9,447.6c-0.3,2.9,0.6,5.9-0.5,8.8c0-2.9,0-5.9-0.1-8.8C-116.3,447.5-116.1,447.5-115.9,447.6z"/>
		<path fill="#EDE9F0" d="M-101.6,435.6c2.8,0,5.5,0,8.3,0c0,0.2,0,0.4,0,0.7c-2.7,0-5.5,0-8.2,0.1
			C-101.6,436-101.6,435.8-101.6,435.6z"/>
		<path fill="#46A6CF" d="M-92.6,418.4c2.5,0.2,5.1-0.5,7.6,0.5C-87.6,418.8-90.2,419.6-92.6,418.4z"/>
		<path fill="#46A6CF" d="M-85,411.3c-2.4,0.8-4.8,0.9-7.1-0.1C-89.8,411.1-87.4,410.9-85,411.3z"/>
		<path fill="#EBC562" d="M-129.9,411.9c2.5-0.5,3.5,0.3,3.5,3c0,2.6-0.6,3.6-3.4,3.5c-2.6,0-3.3-0.8-3.3-3.4
			C-133.1,412.7-132.7,411.2-129.9,411.9z"/>
	</g>
</g>
</svg>
