<?xml version="1.0" encoding="utf-8"?>
<!-- Generator: Adobe Illustrator 21.1.0, SVG Export Plug-In . SVG Version: 6.00 Build 0)  -->
<svg version="1.1" id="Layer_1" xmlns="http://www.w3.org/2000/svg" xmlns:xlink="http://www.w3.org/1999/xlink" x="0px" y="0px"
	 viewBox="-470 4834.5 206.5 206.5" enable-background="new -470 4834.5 206.5 206.5" xml:space="preserve">
<g>
	<circle fill="#77CBC7" cx="-366.7" cy="4937.7" r="103.2"/>
	<path fill="#62BAB3" d="M-366.7,4834.5L-366.7,4834.5V5041l0,0c57,0,103.2-46.2,103.2-103.2
		C-263.5,4880.7-309.7,4834.5-366.7,4834.5z"/>
</g>
<g>
	<path fill="#FEFEFE" d="M-416,5011.1l-0.2-0.2l-0.3,0.1c-1.7-0.9-0.8-2.4-0.8-3.6c-0.1-42.9-0.1-85.9,0-128.8
		c0-1.2-0.8-2.7,0.8-3.7c7.1-0.1,14.3-0.2,21.4-0.2c0.5-0.2,1-0.1,1.5,0.2c1.8,1.6,1.4,3.9,1.5,6c0.2,3.6-0.1,7.3,0.2,10.9
		c0.5,5.9,2.8,7.9,8.7,8.2c4.3,0.2,8.8-0.8,13,1.3c0.4,0.4,0.7,0.8,1,1.4c1,2.3,0.9,4.7,0.9,7.1c0,19.6,0,39.3,0,58.9
		c0,2.6,0.1,5.1-1,7.6c-1,2.1-2.7,2.4-4.8,2.5c-5,0.2-5.9,1.2-6,6.3c-0.1,6.6,0,13.2-0.1,19.8c0,2.2,0.1,4.6-2.2,6l0.1,0.3
		C-393.6,5011.6-404.8,5011.7-416,5011.1z"/>
	<path fill="#DED9D6" d="M-370.6,4902c-4.7,0-9.4,0.1-14,0c-6.1-0.1-8.9-2.4-9.3-8.7c-0.4-6.2-0.2-12.4-0.3-18.6
		c-0.7-3.9-0.9-7.8,0.1-11.6c1.2-3.5,3-6.4,7.2-6.7c5.4-0.5,10.9-0.5,16.3,0l-0.1,0.3c3.5,4.3,2.7,7.6-2.3,9.9
		c-0.4,0.2-0.8,0.5-1.1,0.8c-2.4,2-0.9,4.8-1.2,7.2c-0.2,0.4-0.4,0.8-0.8,1c-2,0.8-4.2,1-6.2,1.5c-0.4,0.1-0.7,0.2-1.1,0.4
		c-1.2,1.1-1.2,2.3-0.2,3.6c0.3,0.2,0.6,0.3,1,0.4c0.4,0,0.8,0.1,1.2,0.2c1.7,0.3,3.5,0,4.9,1.4c1.8,2.1,0,5.3,2.3,7.2
		c0.4,0.2,0.8,0.4,1.2,0.5c1.3,0.7,2.8,1.2,3.5,2.7C-368.6,4896.4-367.7,4899.4-370.6,4902z"/>
	<path fill="#C3BFBE" d="M-375.2,4865.4c6.1-0.5,4.3-5.1,4.5-8.7c4.8-0.1,9.6-0.2,14.5-0.2c5,0.1,7.7,2.8,8,7.8
		c0.2,2.9,0.2,5.7,0.2,8.6c0.5,0.6,0.8,1.3,0.9,2.1c0,0.5,0.1,1.1,0.1,1.6c0.4,5.9,0.3,11.8,0.1,17.6c-0.2,6.3-3.5,9.7-10,9.7
		c-4.7,0-9.7,1.7-13.9-1.9c0,0,0.1-0.1,0.1-0.1c0-2.9,0-5.9,0-8.8c0-0.2,0.1-0.4,0.1-0.6c0.5-0.9,1.5-1.1,2.3-1.6
		c0.3-0.2,0.5-0.5,0.8-0.8c1.6-2,0.1-4.2,0.6-6.3c0.2-0.4,0.4-0.8,0.7-1.1c1.9-1.6,4.6-0.6,6.5-2c1-1.1,1-2.2-0.1-3.2
		c-2-1.3-4.6-0.3-6.5-1.9c-0.3-0.3-0.6-0.6-0.7-1c-0.4-2.1,1.1-4.3-0.6-6.3c-0.3-0.2-0.6-0.4-0.9-0.6c-0.9-0.1-1.7-0.7-2.7-0.7
		c-1.2-0.2-2.5,0.1-3.6-0.6C-374.9,4866.2-375.1,4865.8-375.2,4865.4z"/>
	<path fill="#00A1C8" d="M-416.6,4874.8c0,45.4,0,90.7,0.1,136.1c-1.6-1.4-1.3-3.3-1.3-5c0-42,0-84,0-126
		C-417.8,4878.1-418.2,4876.2-416.6,4874.8z"/>
	<path fill="#A5C7CF" d="M-325.3,5011c-0.3,0-0.6,0-0.9-0.1c-1.2-1.2-1.3-2.7-1.3-4.2c0-43.1-0.1-86.2,0-129.3
		c0-0.5,0.1-0.9,0.2-1.3c0.2-0.6,0.5-1.1,1-1.5c0.4,0.4,0.8,0.8,1.1,1.2c0.6,1.5,0.3,3,0.3,4.5c0,42.1,0,84.3,0,126.4
		C-324.8,5008.1-324.3,5009.6-325.3,5011z"/>
	<path fill="#008EA4" d="M-325.3,5011c0-42.8,0.1-85.7,0.1-128.5c0-2.3,0.1-4.5,0.1-6.8c0.3,0.3,0.5,0.6,0.8,0.8
		c0,42.8,0,85.5,0,128.3C-324.3,5006.9-323.8,5009.1-325.3,5011z"/>
	<path fill="#008CA3" d="M-416,5011.1c11.2,0,22.4,0,33.6,0.1c-3.8,1.6-7.7,0.7-11.6,0.7c-7.1,0.2-14.1,0.1-21.2,0.1
		C-415.4,5011.6-415.7,5011.3-416,5011.1z"/>
	<path fill="#0AA8CC" d="M-347.9,4874.7c0-0.6,0-1.2,0-1.8c4.3,1.7,8.9,0.6,13.3,0.9c2.8,0.2,5.7-0.6,8.4,0.7c0,0,0,0.2,0,0.2
		l0.2,0.2c-5,2.4-10.3,0.8-15.5,1.1C-343.7,4876.2-346.1,4876.8-347.9,4874.7z"/>
	<path fill="#0AA8CC" d="M-370.6,4856.4c-5.4,0-10.9,0-16.3,0C-381.5,4855.2-376,4855.2-370.6,4856.4z"/>
	<path fill="#00A1C8" d="M-394.1,4863.1c0,3.9-0.1,7.7-0.1,11.6c-0.3,0-0.6-0.1-0.9-0.1C-394.5,4870.8-396.5,4866.8-394.1,4863.1z"
		/>
	<path fill="#DED9D6" d="M-382.5,5010.8c0-9.5,0-19.1,0.1-28.6c0-5.6,0.1-5.7,5.9-5.7c1.9,0,3.9,0.7,5.8-0.1c4-2.9,8.2-2.8,11.1,0.5
		c-0.5,1.7-1.9,2.3-3.4,2.4c-4.5,0.3-5.6,3-5.6,7c0.1,6.1,0.1,12.3,0,18.4c0,2.2,0.1,4.6-2.1,6.1
		C-374.6,5010.8-378.5,5010.8-382.5,5010.8z"/>
	<path fill="#C3BFBE" d="M-370.6,5010.9c0-9.2,0.2-18.5-0.1-27.7c-0.2-4.7,1.5-6.4,6-5.8c1.6,0.2,3.3,0.1,5,0.1
		c1.4,0.7,1.9,1.9,1.9,3.3c0.3,9,0.5,18-0.1,27c0,0.6-0.4,1.1-0.6,1.7c-0.3,0.5-0.7,1-1.1,1.4
		C-363.3,5010.9-367,5010.9-370.6,5010.9z"/>
	<path fill="#F1EEEC" d="M-359.7,5010.9c0-0.3,0-0.5,0.1-0.8c1.5-2.2,3.9-2.1,6.1-2.1c5.9-0.1,11.8,0,17.7-0.1
		c5.2-0.1,6.5-1.4,6.5-6.5c0.1-39,0.1-78,0-117c0-5.1-1.3-6.3-6.6-6.5c-2.6-0.1-5.1,0.1-7.7-0.2c-1.8-0.2-3.8-0.1-4.2-2.6
		c0,0-0.2-0.3-0.2-0.3c7.3,0.1,14.5,0.1,21.8,0.2c0,45.3,0,90.6-0.1,136C-337.3,5010.9-348.5,5010.9-359.7,5010.9z"/>
	<path fill="#ECEBEA" d="M-347.7,4875.1c5.2,1.2,10.5,0.5,15.8,0.5c3.4,0,4.9,1,4.9,4.6c-0.1,41.8-0.1,83.5,0,125.3
		c0,3.7-1.6,4.6-4.9,4.6c-9.2-0.1-18.5,0-27.7,0c0-10.9-0.1-21.8-0.1-32.7c-3.5-1.9-7.3-0.5-10.9-1c0-24.8,0-49.6,0-74.4
		c4.4,0,8.7,0,13.1-0.1c6.3-0.1,8.8-2.5,8.9-8.7c0.1-4.5,0-9,0-13.5C-348.7,4878.2-349.1,4876.4-347.7,4875.1z"/>
	<path fill="#DED9D6" d="M-382.4,4920.5c0,11.4,0,11.4-11.5,11.4c-11.2,0-11.2,0-11.2-11.3c0-12.1,0-12.1,11.8-12.1
		c10.9,0,10.9,0,10.9,11.1C-382.4,4919.9-382.4,4920.2-382.4,4920.5z"/>
	<path fill="#DED9D6" d="M-405.1,4954.2c0-11.3,0-11.3,11.2-11.3c11.5,0,11.5,0,11.5,11.4c0,11.3,0,11.3-11.2,11.3
		C-405.1,4965.6-405.1,4965.6-405.1,4954.2z"/>
	<path fill="#F76E51" d="M-377,4884c-2.1-0.1-4.2-0.2-6.4-0.3c-1.6-1.3-1.3-3.2-1.3-5c0-2.3,0.9-3.7,3.4-3.5
		c1.6,0.1,3.3,0.1,4.9-0.1c0.5-0.3,0.7-0.8,0.8-1.3c0-1.1-0.1-2.1-0.1-3.2c0.1-4.6,0.9-5.1,5.6-3.7c1.1,4.7,1.7,9.5,1.3,14.2
		c-0.3,3.4,0,6.9-1,10.2c-4.8,2.3-5.7,1.5-6-5c0-0.5-0.2-0.9-0.4-1.3C-376.3,4884.6-376.6,4884.3-377,4884z"/>
	<path fill="#F8684A" d="M-375.2,4874.7c-0.5,0.3-1,0.7-1.6,0.8c-6.5,1.2-6.5,1.2-6.6,8.2l-0.4,0.1l-0.4-0.1c-1.5-3-1.5-5.9,0-8.9
		c2.7-0.1,5.3-0.2,8-0.2C-375.8,4874.3-375.5,4874.4-375.2,4874.7z"/>
	<path fill="#F86748" d="M-375.2,4883.9c1.2,1.4,1,3.1,1,4.7c-0.1,2.5,1.2,3.5,3.6,3.4c0.1,0.1,0.2,0.2,0.3,0.4
		c-0.1,0.1-0.2,0.3-0.3,0.4c0,0,0,0.4,0,0.4c-1.5-0.1-3-0.2-4.5-0.3C-376.6,4889.9-376.4,4886.9-375.2,4883.9z"/>
	<path fill="#EE9888" d="M-384.2,4874.8c0,3,0,5.9,0,8.9c-0.3,0.1-0.6,0.1-0.9,0.1c-0.9-3-0.9-6.1,0-9.1
		C-384.8,4874.7-384.5,4874.8-384.2,4874.8z"/>
	<path fill="#DDDDDA" d="M-385.1,4874.8c0,3,0,6.1,0,9.1C-386.6,4880.8-386.5,4877.8-385.1,4874.8z"/>
	<path fill="#DDDDDA" d="M-377,4884c0.3-0.1,0.5-0.1,0.8,0c1,3,0.7,6,0.2,8.9C-377.8,4890.1-376.6,4887-377,4884z"/>
	<path fill="#ECA193" d="M-376,4892.9c-0.1-3-0.1-6-0.2-8.9c0.3,0,0.6-0.1,0.9-0.1c0.1,3,0.1,6,0.2,9
		C-375.4,4892.9-375.7,4892.9-376,4892.9z"/>
	<path fill="#ECA192" d="M-375.2,4874.7c-0.3,0-0.7-0.1-1-0.1c0-0.3,0-0.6,0-0.9c-0.3-2.7-0.7-5.4,0.2-8.1c0.3-0.1,0.6-0.2,0.9-0.3
		c0,0,0.1,0.4,0.1,0.4C-374.5,4868.8-374.3,4871.8-375.2,4874.7L-375.2,4874.7z"/>
	<path fill="#DDDDDA" d="M-376,4865.7c-0.1,2.7-0.1,5.4-0.2,8.1C-377.3,4871-377.5,4868.3-376,4865.7z"/>
	<path fill="#E45A42" d="M-370.7,4892c0-8.5,0-17,0-25.4c0.2-0.1,0.4-0.3,0.6-0.4c2.5-0.3,3.6,0.8,3.6,3.2c0,1.3,0,2.7,0,4
		c0.1,0.5,0.3,0.9,0.7,1.1c2.9,0.1,5.8,0.2,8.7,0.2c1.1,3,1.3,6-0.1,9c-2.9,0-5.7,0.1-8.6,0.1c-0.4,0.4-0.6,0.8-0.6,1.3
		c0.1,1.3,0.1,2.7,0,4C-366.7,4891.9-367.8,4893.1-370.7,4892L-370.7,4892z"/>
	<path fill="#F86748" d="M-375.2,4874.8c0.1-3,0.1-6,0.2-9c1.5,0,3,0,4.5,0c0.6,0.3,0.6,0.6,0,0.8c0,0-0.1,0-0.1,0
		c-2.4-0.1-3.6,0.9-3.6,3.4C-374.2,4871.7-374.1,4873.4-375.2,4874.8z"/>
	<path fill="#E5553A" d="M-370.6,4892c2.2-0.1,2.7-1.5,2.7-3.4c0-1.6-0.2-3.3,1-4.7c1.1,3,1.5,6-0.1,9c-1.2,0-2.4,0-3.6-0.1
		C-370.6,4892.5-370.6,4892.3-370.6,4892z"/>
	<path fill="#E5553A" d="M-370.6,4866.6c0-0.3,0-0.6,0-0.8c1.2,0,2.4,0,3.5,0c1.6,3,1.1,6,0.2,9c-1.3-1.4-1-3.1-1.1-4.7
		C-367.9,4868.1-368.4,4866.7-370.6,4866.6z"/>
	<path fill="#C2C3C2" d="M-357.4,4883.8c0-3,0.1-6,0.1-9C-355.5,4877.8-355.4,4880.8-357.4,4883.8z"/>
	<path fill="#D68A80" d="M-367.1,4892.8c0-3,0.1-6,0.1-9c0.3,0,0.6,0.1,0.9,0.1c0,0.3,0,0.6,0,0.9c0.4,2.7,0.8,5.4-0.2,8.1
		C-366.5,4892.9-366.8,4892.9-367.1,4892.8z"/>
	<path fill="#D68A80" d="M-366.8,4874.7c-0.1-3-0.1-6-0.2-9c0.3,0,0.6,0,0.9,0c0.9,2.7,0.5,5.4,0.2,8.1c0,0.3,0,0.6,0,0.8
		C-366.2,4874.6-366.5,4874.7-366.8,4874.7z"/>
	<path fill="#C2C3C2" d="M-366.2,4892.9c0.1-2.7,0.1-5.4,0.2-8.1C-364.8,4887.6-364.6,4890.3-366.2,4892.9z"/>
	<path fill="#C2C3C2" d="M-365.9,4873.7c-0.1-2.7-0.1-5.4-0.2-8.1C-364.7,4868.3-364.8,4871-365.9,4873.7z"/>
	<path fill="#C3BFBE" d="M-337,4954.3c0,11.3,0,11.3-11.2,11.3c-11.6,0-11.6,0-11.6-11.4c0-11.3,0-11.3,11.2-11.3
		C-337,4942.9-337,4942.9-337,4954.3z"/>
	<path fill="#C3BFBE" d="M-348.4,4931.2c-11.3,0-11.3,0-11.3-11.1c0-10.9,0-10.9,11.1-10.9c11.6,0,11.6,0,11.6,10.9
		C-337,4931.2-337,4931.2-348.4,4931.2z"/>
</g>
</svg>
