<?xml version="1.0" encoding="utf-8"?>
<!-- Generator: Adobe Illustrator 19.1.0, SVG Export Plug-In . SVG Version: 6.00 Build 0)  -->
<svg version="1.1" id="Layer_1" xmlns="http://www.w3.org/2000/svg" xmlns:xlink="http://www.w3.org/1999/xlink" x="0px" y="0px"
	 viewBox="-202 293.5 206.5 206.5" enable-background="new -202 293.5 206.5 206.5" xml:space="preserve">
<g>
	<g>
		<circle fill="#77CBC7" cx="-98.8" cy="396.8" r="103.2"/>
		<path fill="#62BAB3" d="M-98.8,293.5L-98.8,293.5V500l0,0c57,0,103.2-46.2,103.2-103.2C4.5,339.7-41.7,293.5-98.8,293.5z"/>
	</g>
</g>
<g>
	<path fill="#FDFDFD" d="M-104.5,431.5c0.7,3.3,1,6.6,0.8,10c0,0.6-0.1,1.2-0.1,1.7c0.1,0.2-0.1,0.5,0,0.7c0,2-0.5,4-1,5.9
		c-1.3,4.4-3.4,8.4-6.2,12.1c-2.3,2.9-4.9,5.4-7.9,7.6c-2.9,2.1-6.1,3.7-9.4,4.9c-2.7,0.9-5.5,1.6-8.4,1.8c-1.2,0.1-2.4,0.2-3.6,0.2
		c-2.2,0-4.4-0.3-6.6-0.7c-0.3-0.1-0.8-0.1-0.9-0.5c-1.6-0.4-3.3-0.8-4.9-1.4c-0.2-0.1-0.4-0.2-0.6-0.2c0.1-0.3,0.3-0.4,0.5-0.6
		c7.7-7.7,15.4-15.4,23.1-23.1c2-2,3.4-4.3,4.1-7c0-0.1,0-0.2,0.1-0.3c-0.2-0.5-0.1-1,0-1.6c0.5-4.3-0.8-8-3.6-11.2
		c-2.3-2.6-5.2-4.2-8.6-4.8c-2.7-0.4-5.3-0.1-7.9,1c-2.4,1-4.2,2.7-6,4.6c-1.7,1.7-3.4,3.4-5.1,5.1c-1.6,1.6-3.3,3.3-4.9,4.9
		c-1.4,1.4-2.7,2.7-4.1,4.1c-1.1,1.1-2.2,2.2-3.3,3.3c-1,1-1.9,2-2.9,2.9c-0.5,0.4-0.9,0.8-1.3,1.3c-0.1,0.1-0.2,0.2-0.3,0.3
		c-0.5,0.4-0.8,0.3-1.1-0.3c-0.7-1.8-1.2-3.7-1.6-5.6c-0.2-0.9-0.2-1.9-0.3-2.8c0.1-0.3-0.1-0.5,0-0.8c-0.1-1.6-0.2-3.2-0.1-4.8
		c0.3-8.3,3.2-15.7,8.5-22c5.5-6.6,12.6-10.8,21-12.5c6.6-1.3,13.1-0.8,19.5,1.5c0.5,0.2,0.8,0.1,1.2-0.3c3.7-3.7,7.3-7.3,11-11
		c0.1-0.1,0.1-0.1,0.2-0.2c-0.1-0.3,0.2-0.5,0.4-0.7c1-1,2-2,3-3c3.3-3.3,6.6-6.6,9.9-9.9c0.2-0.2,0.3-0.3,0.6-0.3
		c4.5-4.5,9-9,13.6-13.6c0-0.5,0.3-0.7,0.6-0.9c0.5-0.4,0.5-0.8,0.3-1.4c-0.6-1.7-1.1-3.4-1.5-5.2c-0.2-0.9-0.2-1.9-0.3-2.8
		c0-0.2,0-0.4,0-0.6c-0.1-1.8-0.2-3.5-0.1-5.3c0.4-8.6,3.4-16.1,9-22.6c5.3-6.1,12-10.1,19.9-11.8c5.6-1.3,11.2-1,16.8,0.3
		c1.3,0.3,2.6,0.7,4.1,1c-2,2-4,4-5.9,6c0.1,0.4-0.3,0.6-0.5,0.8c-3,3-6,6-8.9,8.9c-2.8,2.8-5.6,5.5-8.3,8.3
		c-2.3,2.4-3.7,5.2-4.1,8.5c-0.2,1.3-0.1,2.6,0.1,4c0.1,0.5,0.1,0.9,0,1.4c1.5,5.3,5,8.9,10.2,10.5c5.3,1.6,10.2,0.3,14.2-3.5
		c5.2-5,10.3-10.1,15.5-15.2c2.7-2.7,5.5-5.4,8.2-8.1c0.3-0.3,0.5-0.4,0.7,0.1c1.7,4.7,2.6,9.6,2.3,14.6c-0.1,1.1-0.2,2.2-0.3,3.4
		c0.1,1.1-0.1,2.1-0.4,3.2c-0.9,4-2.5,7.7-4.8,11.2c-1.6,2.5-3.5,4.8-5.6,6.9c-3.6,3.4-7.7,6.1-12.4,7.9c-2.9,1.1-6,1.9-9.1,2.2
		c-5.1,0.5-10,0.1-14.9-1.4c-0.5-0.2-1.1-0.3-1.5-0.5c-0.6-0.3-1-0.1-1.5,0.3c-2.1,2.2-4.3,4.3-6.5,6.5c-0.8,0.8-1.6,1.6-2.4,2.4
		c-0.4,0.4-0.7,0.8-1.1,1.2c-6.3,6.3-12.6,12.6-18.9,18.9c-0.3,0.3-0.6,0.6-0.9,0.9c-1.1,1.2-2.3,2.3-3.4,3.4
		c-1.8,1.9-3.7,3.7-5.6,5.6c-0.5,0.5-0.6,0.9-0.4,1.5c0.5,1.2,0.9,2.5,1.2,3.8C-104.4,430.8-104.3,431.1-104.5,431.5z"/>
	<path fill="#F4CE86" d="M-71.7,398.9c2.7,2.7,5.4,5.4,8.1,8.1c10.8,10.8,21.7,21.7,32.5,32.5c2.4,2.4,4,5.2,4.6,8.6
		c0.3,1.8,0.2,3.6-0.2,5.4c0,0.2-0.1,0.3-0.1,0.5c0.1,1.2-0.5,2.3-1.1,3.3c-2.2,3.9-5.4,6.5-9.7,7.6c-3.4,0.9-6.7,0.5-9.9-1
		c-1.7-0.8-3.2-1.9-4.5-3.2c-12-12-24.1-24.1-36.1-36.1c-1.3-1.3-2.7-2.7-4-4c-0.2-0.2-0.5-0.4-0.5-0.8c-0.1-0.4,0.2-0.7,0.5-0.9
		c2.8-2.8,5.5-5.5,8.3-8.3c3.8-3.8,7.5-7.5,11.3-11.3C-72.4,399.1-72.2,398.6-71.7,398.9z"/>
	<path fill="#4F5D72" d="M-101.6,379.7c-3.4,3.4-6.9,6.9-10.3,10.3c-0.4,0.2-0.6-0.1-0.8-0.3c-2-1.9-3.9-3.9-5.8-5.8
		c-3.7-3.6-7.3-7.3-11-10.8c-2.4-2.3-4.7-4.7-7-7c-0.4-0.4-0.9-0.8-1.5-1.1c-3.6-1.8-7.2-3.6-10.8-5.5c-2.5-1.3-5.1-2.5-7.5-3.8
		c-0.2-0.1-0.4-0.2-0.6-0.3c-1.3-0.4-1.8-1.5-2.4-2.6c-0.5-1-1-2-1.5-2.9c-1.6-3.2-3.3-6.4-4.8-9.6c-0.3-0.6-0.7-1.2-1-1.8
		c-0.1-0.2-0.2-0.5-0.1-0.7c-0.7-1.4-1.3-2.9-2.2-4.2c-0.4-0.6-0.2-1,0.2-1.4c0.9-0.9,1.9-1.8,2.8-2.8c1.8-2,3.7-3.9,5.5-5.8
		c0.4-0.4,0.9-0.7,1.2-1.2c0.2-0.3,0.4-0.1,0.7,0c1.7,0.9,3.4,1.8,5.1,2.7c5.3,2.8,10.5,5.5,15.8,8.3c0.3,0.1,0.4,0.3,0.6,0.6
		c1.6,3.1,3.3,6.2,4.9,9.3c2,3.7,3.9,7.4,5.9,11.2c0.4,0.8,0.9,1.5,1.6,2.1c4.4,4.3,8.7,8.7,13.2,13c3.2,3.1,6.3,6.2,9.4,9.3
		C-102,379.2-101.7,379.4-101.6,379.7z"/>
	<path fill="#65A091" d="M-92.6,419.7c0.1,0.1,0.3,0.3,0.4,0.4c13.4,13.4,26.9,26.9,40.3,40.3c3,3,6.5,4.6,10.7,4.6
		c6.3,0,12-4.3,14-10.3c0.1-0.2,0.2-0.5,0.3-0.7c0.2,0.6,0.3,1.3,0.4,1.9c0.1,0.2,0,0.4,0.1,0.6c0,0.6,0,1.2,0,1.9
		c-0.1,0.2,0,0.5-0.1,0.7c-0.4,2.9-1.5,5.5-3.5,7.7c-1.8,2-3.9,3.5-6.4,4.4c-1.3,0.5-2.7,0.8-4.1,0.8c-0.5,0.1-1,0.1-1.5,0
		c-3.3-0.1-6.2-1.4-8.7-3.5c-0.8-0.7-1.6-1.5-2.3-2.2c-14.1-14.1-28.3-28.3-42.4-42.4c-0.2-0.2-0.4-0.4-0.6-0.6c0,0-0.1-0.1-0.1-0.1
		c0-0.3,0.1-0.4,0.3-0.6c0.9-0.9,1.7-1.7,2.6-2.6c0.2-0.2,0.3-0.3,0.6-0.3C-92.7,419.7-92.6,419.7-92.6,419.7z"/>
	<path fill="#65A091" d="M-75.5,395.1c1.9-1.9,3.8-3.8,5.6-5.7c1.2-1.2,2.5-2.5,3.7-3.7c0.3-0.3,0.5-0.3,0.9-0.2
		c5,1.9,10.1,2.7,15.4,2.3c8.4-0.6,15.8-3.8,22.1-9.5c6.2-5.7,10.1-12.7,11.5-21c0-0.2,0.1-0.4,0.1-0.6c0.2,0.7,0,1.3,0.1,2
		c-0.2,0.6,0,1.3-0.1,1.9c0,0.4,0,0.7,0,1.1c-0.1,0.2,0,0.5-0.1,0.7c-0.4,4.1-1.5,8.1-3.2,11.9c-1.4,3-3.1,5.7-5.2,8.2
		c-2,2.3-4.2,4.4-6.7,6.2c-4.5,3.2-9.4,5.3-14.8,6.4c-1.2,0.2-2.3,0.4-3.5,0.4c-0.2,0.1-0.5,0-0.7,0.1c-0.4,0-0.9,0-1.3,0
		c-0.5,0.1-1.1,0.1-1.6,0c-0.4,0-0.9,0-1.3,0c-0.2-0.1-0.4,0-0.6-0.1c-2.8-0.1-5.5-0.8-8.2-1.6c-0.7-0.2-1.3-0.4-2-0.7
		c-0.3-0.1-0.6-0.1-0.8,0.2c-1.8,1.8-3.6,3.6-5.4,5.5c-0.3,0.1-0.5-0.1-0.7-0.3c-0.9-1-1.9-1.9-2.8-2.8
		C-75.4,395.5-75.6,395.4-75.5,395.1z"/>
	<path fill="#65A091" d="M-166.7,337.9c0.4,0.8,0.9,1.6,1.3,2.4c2.1,4.1,4.1,8.1,6.2,12.2c0.1,0.2,0.3,0.5,0.4,0.7
		c0.3,1.1,1.2,1.6,2.1,2c4.5,2.3,9.1,4.6,13.6,6.9c1.8,0.9,3.6,1.9,5.5,2.8c0.4,0.2,0.8,0.5,1.1,0.8c2,2,3.9,4,5.9,5.9
		c3.3,3.2,6.5,6.5,9.8,9.7c2.8,2.7,5.5,5.5,8.3,8.2c0.2,0.2,0.3,0.4,0.6,0.5c-1.2,1.2-2.3,2.3-3.5,3.5c-0.7-0.4-1.2-1-1.8-1.5
		c-2.7-2.7-5.3-5.4-8.1-8c-3.4-3.3-6.8-6.7-10.1-10c-0.3-0.3-0.7-0.6-1.1-1c-0.4-0.3-1-0.3-1.3-0.8c-1.4-0.7-2.7-1.3-4.1-2
		c-0.2,0-0.3-0.1-0.5-0.2c-0.1,0-0.2-0.1-0.3-0.1c-0.7-0.3-1.4-0.6-2-1.1c-1.7-0.9-3.4-1.8-5.1-2.6c-0.7-0.3-1.4-0.6-2-1.1
		c-1.3-0.8-2.7-1.4-4.1-2.1c-0.2,0-0.3-0.1-0.5-0.2c-0.1,0-0.2-0.1-0.3-0.1c-0.5-0.3-1.1-0.4-1.5-0.8c-0.3-0.8-0.7-1.6-1.2-2.3
		c-0.6-0.7-0.9-1.6-1.3-2.5c-0.7-1.5-1.4-3-2.2-4.4c-0.6-0.7-0.9-1.6-1.3-2.5c-0.1-0.2-0.2-0.5-0.3-0.7c-1.5-2.9-2.9-5.7-4.4-8.6
		c-0.2-0.5-0.2-0.8,0.2-1.2C-168,339.1-167.4,338.5-166.7,337.9z"/>
	<path fill="#65A091" d="M-176.6,443.6c0.4,3,1.2,6,2.3,9.1c0.5-0.6,0.9-1.1,1.4-1.5c7.3-7.3,14.7-14.6,22-22
		c3.1-3.1,6.8-4.8,11.2-4.7c6.7,0.1,13,5.5,14.1,12.2c0.3,2,0.4,3.9-0.1,5.9c-0.2-0.1-0.2-0.2-0.3-0.4c-0.7-2.3-1.9-4.3-3.6-6.1
		c-0.1-0.1-0.3-0.2-0.3-0.3c-1.2-1.1-2.5-2.1-4-2.8c-1.7-0.8-3.5-1.3-5.4-1.4c-0.5-0.1-1-0.1-1.5,0c-3.2,0.2-6.1,1.2-8.4,3.3
		c-3.7,3.3-7.1,7-10.7,10.5c-4.6,4.6-9.2,9.2-13.8,13.8c-0.6,0.6-0.5,0.6-0.8-0.2c-0.8-2.4-1.5-4.9-1.9-7.4
		c-0.1-0.6-0.1-1.2-0.2-1.9c-0.1-0.2,0-0.4-0.1-0.6c0-0.3,0-0.5,0-0.8c-0.1-1.2-0.1-2.5,0-3.7c0-0.3,0-0.6,0-0.9
		C-176.6,443.5-176.6,443.6-176.6,443.6z"/>
	<path fill="#65A091" d="M-147.8,475.1c1.5,0.3,3,0.6,4.6,0.7c3.5,0.4,7.1,0.1,10.5-0.6c13.4-2.9,23.9-12.7,27.7-25.7
		c0.5-1.9,0.9-3.7,1.2-5.7c0.1-0.1,0-0.3,0.2-0.2c0,0.3,0,0.6,0,0.9c0.1,1.2,0.1,2.5,0,3.7c0,0.3,0,0.6,0,0.9
		c-0.1,0.2,0,0.5-0.1,0.7c-0.4,3.9-1.4,7.7-3,11.4c-1.4,3.1-3.2,5.9-5.4,8.5c-1.7,2-3.5,3.8-5.5,5.4c-4.2,3.3-8.8,5.5-14,6.8
		c-1.9,0.5-3.8,0.8-5.7,0.9c-0.3,0.1-0.6,0-0.8,0.1c-1.2,0-2.5,0-3.7,0c-0.2-0.1-0.5,0-0.7-0.1c-2.6-0.1-5.1-0.7-7.6-1.4
		c-0.9-0.2-1.7-0.6-2.6-0.8c-0.4-0.1-0.6-0.3-0.2-0.7c1.5-1.5,3-3,4.6-4.5C-148.4,475.3-148.1,475.1-147.8,475.1z"/>
	<path fill="#65A091" d="M-66.9,354.8c-1.2-4.6-0.3-8.7,2.5-12.5c1-1.4,2.3-2.5,3.5-3.7c5.1-5.1,10.2-10.2,15.4-15.4
		c0.1-0.1,0.3-0.3,0.4-0.4c1.8,0.4,3.5,0.9,5.2,1.5c0.7,0.2,0.7,0.3,0.2,0.8c-7.8,7.8-15.5,15.5-23.3,23.3c-1.7,1.7-2.9,3.7-3.7,6
		C-66.8,354.4-66.8,354.6-66.9,354.8z"/>
	<path fill="#CAAB72" d="M-75.5,395.1c1.3,1.2,2.5,2.5,3.8,3.7c0,0,0,0.1,0,0.1c-0.3,0.1-0.4,0.3-0.6,0.5
		c-6.6,6.6-13.2,13.2-19.8,19.8c-0.2,0.2-0.4,0.3-0.4,0.6c0,0-0.1,0-0.1,0c-0.3,0-0.5-0.1-0.7-0.3c-0.9-0.9-1.8-1.8-2.7-2.7
		c-0.2-0.2-0.4-0.4-0.3-0.7c0.2-0.2,0.4-0.5,0.6-0.7c6.6-6.6,13.2-13.2,19.8-19.8C-75.8,395.3-75.7,395.2-75.5,395.1z"/>
	<path fill="#65A091" d="M-96.1,423.1c0,0,0,0.1,0,0.1c-0.3,0-0.5,0.3-0.6,0.5c-2.4,2.4-4.8,4.8-7.3,7.3c-0.2,0.2-0.3,0.3-0.5,0.5
		c-0.5-1.8-1-3.6-1.7-5.4c-0.1-0.2,0-0.4,0.1-0.5c2.1-2.1,4.2-4.1,6.2-6.2c0.3,0,0.4,0.1,0.6,0.3c0.9,0.9,1.9,1.9,2.8,2.8
		C-96.2,422.7-96.1,422.9-96.1,423.1z"/>
	<path fill="#65A192" d="M-88.7,355.7c0.4,2.9,1,5.7,2.1,8.4c0.1,0.3,0.1,0.6-0.2,0.8c-0.4,0.4-0.8,0.8-1.2,1.2
		c-0.4-0.4-0.4-1-0.4-1.5c-0.2-0.9-0.4-1.9-0.4-2.8c-0.1-0.2,0-0.4-0.1-0.6c0-0.3,0-0.5,0-0.8c-0.1-1.2-0.1-2.5,0-3.7
		c0-0.3,0-0.6,0-0.9C-88.9,355.6-88.8,355.6-88.7,355.7z"/>
	<path fill="#76C1AE" d="M-164.2,350.2c0.6,0.7,0.9,1.6,1.3,2.5c-0.1,0-0.3-0.1-0.3-0.2C-163.6,351.7-164.1,351-164.2,350.2z"/>
	<path fill="#76C1AE" d="M-160.7,357.1c0.6,0.7,0.9,1.6,1.3,2.5c-0.1,0-0.3-0.1-0.3-0.2C-160.1,358.6-160.6,357.9-160.7,357.1z"/>
	<path fill="#76C1AE" d="M-151.8,365.2c0.7,0.3,1.4,0.6,2,1.1C-150.6,366.1-151.3,365.9-151.8,365.2z"/>
	<path fill="#76C1AE" d="M-144.7,368.8c0.7,0.3,1.4,0.6,2,1.1C-143.5,369.7-144.2,369.5-144.7,368.8z"/>
	<path fill="#74BFAC" d="M-89,356.6c0,1.2,0,2.5,0,3.7c-0.2-0.9-0.1-1.9-0.1-2.8C-89.1,357.3-89.1,356.9-89,356.6z"/>
	<path fill="#75C1AE" d="M-103.7,448.3c0-1.2,0-2.5,0-3.7c0.2,0.9,0.1,1.9,0.1,2.8C-103.6,447.7-103.5,448-103.7,448.3z"/>
	<path fill="#74BFAC" d="M-176.8,444.5c0,1.2,0,2.5,0,3.7c-0.2-0.9-0.1-1.9-0.1-2.8C-176.9,445.1-177,444.8-176.8,444.5z"/>
	<path fill="#76C1AE" d="M-137.8,372.2c0.4,0.2,1,0.4,1.3,0.8C-137,372.9-137.6,372.9-137.8,372.2z"/>
	<path fill="#76C1AE" d="M-158.3,361.9c0.5,0.2,1.1,0.4,1.5,0.8C-157.4,362.6-157.9,362.5-158.3,361.9z"/>
	<path fill="#74BFAC" d="M-16.2,360.5c0-0.6-0.1-1.3,0.1-1.9C-16.2,359.3-16,359.9-16.2,360.5z"/>
	<path fill="#74BFAC" d="M-53.5,395.5c0.5,0,1.1,0,1.6,0C-52.4,395.7-52.9,395.7-53.5,395.5z"/>
	<path fill="#74BFAC" d="M-42.1,472c0.5,0,1,0,1.5,0C-41.1,472.2-41.6,472.2-42.1,472z"/>
	<path fill="#75C1AE" d="M-140.8,431.5c0.5-0.2,1-0.2,1.5,0C-139.8,431.5-140.3,431.5-140.8,431.5z"/>
	<path fill="#74BFAC" d="M-176.6,443.6c-0.1,0-0.1-0.1-0.2-0.1c0-0.2,0-0.5,0.1-0.7C-176.6,443.1-176.6,443.4-176.6,443.6z"/>
	<path fill="#74BFAC" d="M-88.7,355.7c-0.1,0-0.1,0-0.2,0c0-0.2,0-0.4,0.1-0.6C-88.8,355.3-88.7,355.5-88.7,355.7z"/>
	<path fill="#75C1AE" d="M-103.7,443.7c-0.1,0.1-0.1,0.1-0.2,0.2c0-0.2,0-0.5,0.1-0.7C-103.7,443.3-103.7,443.5-103.7,443.7z"/>
	<path fill="#76C1AE" d="M-156.4,362.9c0.2,0,0.3,0.1,0.5,0.2C-156.2,363.2-156.3,363-156.4,362.9z"/>
	<path fill="#76C1AE" d="M-142.3,370c0.2,0,0.3,0.1,0.5,0.2C-142.1,370.4-142.2,370.1-142.3,370z"/>
	<path fill="#75C1AE" d="M-138.3,483c0.3-0.2,0.5-0.1,0.8-0.1C-137.7,483.1-138,483-138.3,483z"/>
	<path fill="#74BFAC" d="M-16.3,362.3c0-0.2,0-0.5,0.1-0.7C-16.2,361.8-16.2,362-16.3,362.3z"/>
	<path fill="#75C1AE" d="M-103.8,450c0-0.2,0-0.5,0.1-0.7C-103.7,449.5-103.7,449.8-103.8,450z"/>
	<path fill="#74BFAC" d="M-26.5,459.1c0-0.2,0-0.5,0.1-0.7C-26.4,458.6-26.4,458.9-26.5,459.1z"/>
	<path fill="#75C1AE" d="M-142.7,482.9c0.2,0,0.5,0,0.7,0.1C-142.2,483-142.5,483-142.7,482.9z"/>
	<path fill="#74BFAC" d="M-50.5,395.5c0.2-0.1,0.5-0.1,0.7-0.1C-50.1,395.6-50.3,395.5-50.5,395.5z"/>
	<path fill="#74BFAC" d="M-88.9,361.2c0.1,0.2,0.1,0.4,0.1,0.6C-89,361.6-88.9,361.4-88.9,361.2z"/>
	<path fill="#75C1AE" d="M-129.8,435.7c0.2,0.1,0.3,0.2,0.3,0.3C-129.7,436-129.8,435.9-129.8,435.7z"/>
	<path fill="#75C1AE" d="M-12,314c0.1,0.1,0.3,0.2,0.3,0.4C-11.9,314.3-12,314.2-12,314z"/>
	<path fill="#75C1AE" d="M-15.5,310.5c0.2,0,0.3,0.2,0.4,0.3C-15.3,310.8-15.5,310.7-15.5,310.5z"/>
	<path fill="#74BFAC" d="M-176.8,449c0.1,0.2,0.1,0.4,0.1,0.6C-176.8,449.4-176.8,449.2-176.8,449z"/>
	<path fill="#74BFAC" d="M-26.4,456.5c-0.1-0.2-0.1-0.4-0.1-0.6C-26.4,456.1-26.4,456.3-26.4,456.5z"/>
	<path fill="#74BFAC" d="M-55.3,395.4c0.2,0,0.4,0,0.6,0.1C-54.9,395.5-55.2,395.5-55.3,395.4z"/>
	<path fill="#58867B" d="M-96.1,423.1c-1.3-1.2-2.5-2.4-3.7-3.7c1.1-1.1,2.3-2.3,3.4-3.4c1.3,1.2,2.5,2.5,3.7,3.8
		C-93.9,420.8-95,422-96.1,423.1z"/>
</g>
</svg>
