<?xml version="1.0" encoding="utf-8"?>
<!-- Generator: Adobe Illustrator 21.1.0, SVG Export Plug-In . SVG Version: 6.00 Build 0)  -->
<svg version="1.1" id="Layer_1" xmlns="http://www.w3.org/2000/svg" xmlns:xlink="http://www.w3.org/1999/xlink" x="0px" y="0px"
	 viewBox="-1348.7 4392.4 126.6 126.2" enable-background="new -1348.7 4392.4 126.6 126.2" xml:space="preserve">
<g>
	<path fill="#E0DBC8" d="M-1238.3,4497.5c-2,1.7-4,3.3-6,5c-2.2-0.9-1,1.7-2,2l0,0c-3,1.8-6.4,1.8-9.7,1.5
		c-5.5-0.5-9.4,1.5-11.3,6.8c-0.5,1.3-1,2.8-2.6,2.6c-1.6-0.2-1.7-1.8-1.8-3.1c-0.1-1.7-0.1-3.3,0.1-5c0.3-3.7-0.5-4.2-4-2.5
		c-1,0.5-1.9,0.7-2.9,0.5c-2.2-0.9-4.6-1.5-6.1-3.7c0-2,1.5-2.4,2.9-2.5c3.1-0.1,5.1-1.7,6.8-4c0.9-1.8,1.8-3.7,3.1-5.3
		c1.6-1.3,1.2-3.2,1.6-5c0.2-0.5,0.3-1,0.4-1.5c1-3.2,3.4-4.3,6.5-4.5c4.8-0.4,9.6-0.4,14.5-0.2c8,0.2,11,3.3,11.4,11.4
		c0.1,2-0.2,4-0.1,6C-1237.7,4496.5-1238,4497-1238.3,4497.5z"/>
	<path fill="#DCD6C0" d="M-1290.4,4517.5c-9.8-0.6-19-3.2-27-9.1c2.6-4.5,4.5-9.3,6.9-13.9c1.3-2.9,2.2-5.9,3.9-8.6
		c1-1.6,1.7-3.3,4.1-2.9c1.4,0.5,2.1,1.6,2.3,3c1.3,8.3,6.4,12.8,14.3,14.7c2.6,3.9,2.7,8.3,2,12.7
		C-1284.4,4517.1-1286.1,4519.4-1290.4,4517.5z"/>
	<path fill="#DCD6C1" d="M-1318.4,4508.4c-4.3-3.7-8.7-7.3-13-11c-1.5-4.1-0.6-8.2,0.1-12.2c0.5-3.1,3-5.2,6.5-5.2
		c4.8,0,9.6-0.5,14.4,0.3c2.2,1,1.6,2.9,1.3,4.6c-0.6,2.9-2.2,5.4-3.5,8c-0.4,0.9-0.6,2-1.2,2.6
		C-1317.7,4499.1-1318.8,4503.5-1318.4,4508.4z"/>
	<path fill="#E0DBC7" d="M-1290.4,4517.5c10.4-2.6,2.6-10.9,5-16c0.3-0.3,0.7-0.3,1,0c2,1,4,2,6,3c0.9,0.7,1.9,0.6,2.8,0.3
		c4.7-1.3,4.8-1.3,4.7,3.9c-0.1,2.6,0.6,5.2-0.5,7.8C-1277.7,4517.1-1283.9,4520.2-1290.4,4517.5z"/>
	<path fill="#E3DECB" d="M-1271.4,4516.5c-0.1-5.3,2.4-12.1-7-12c6.2-3.2,6.2-3.2,8.7,11c2.6-16,14.6-9.8,23.3-11
		C-1253.5,4511.1-1261.9,4514.9-1271.4,4516.5z"/>
	<path fill="#E7CACF" d="M-1309.5,4481.5c-11.8-0.9-23.8-2-21.9,16c-0.7-0.7-1.3-1.4-2-2c-0.6-0.6-0.5-1.3-0.6-2
		c0-14.6,1.6-16.6,16.1-16.2c4.5,0.1,4.5-3.5,6.8-5.1c0.6,0,1,0.3,1.4,0.7C-1308.3,4475.7-1307,4478.6-1309.5,4481.5z"/>
	<path fill="#342F2E" d="M-1318.4,4508.4c-5.1-6.7,1.3-10.3,3.9-15c2.3-0.9,4-0.4,5,2c-2.4,4.4-1.7,10.8-7.9,13c0,0-0.5,0-0.5,0
		L-1318.4,4508.4z"/>
	<path fill="#ECCCDC" d="M-1333.4,4493.5c0,0.6,0,1.3,0,1.9c-2.7-3.7-5.3-7.3-8-11c-0.4-1.7-0.7-3.3-1.1-5c1.8-0.7,3.1,0.3,3.7,1.6
		C-1336.7,4485.1-1333.6,4488.7-1333.4,4493.5z"/>
	<path fill="#E3DECB" d="M-1246.4,4504.5c0.2-1.3,0.4-2.5,0.6-3.8c0.5,0.6,0.9,1.2,1.4,1.8
		C-1245,4503.2-1245.7,4503.8-1246.4,4504.5z"/>
	<path fill="#F0C3DA" d="M-1333.4,4493.5c-3-4.7-6-9.3-9-14c-13.4-27.4,1.6-69.6,28-79c1.3-0.7,2.9-0.8,4-2l0,0
		c7.8-1.9,15.3-5,23.6-5.1c12.6-0.1,24.2,2.8,34.8,9.5c1.1,0.7,2.5,0.9,3.6,1.6c4,3.3,8,6.7,12,10c16.6,23.5,19.7,48,4.9,73.6
		c-1.8,3.1-4.5,5.6-6.8,8.4c0.8-21.3-14.4-15.7-26.4-15.8c-3.8-0.1-2.9,3.4-4.7,4.8c-1.7-1-1.5-3.4-3.2-4.3
		c-0.3-0.4-0.6-0.8-0.8-1.2c-1.7-5.6,0.8-9.8,4.6-13.4c0.9-1.4,2.4-2.4,3.3-3.8c1.3-1.4,1.6-3.3,2.7-4.9c5.5-3.9,6.5-9,4.2-15.1
		c0.3-5.1,1-10.3-0.5-15.4c-3.8-12.5-14.8-19.2-27.8-16.7c-1.1,0.4-2.2,0.8-3.3,1.2c-15.6,6.2-19.7,12.5-19.3,29.3c0,0.7,0,1.3,0,2
		c-3.8,4.6-3.6,9,0.5,13.4c0.8,0.8,0.9,2.1,1,3.2c0,1.8-0.9,3.4-1.1,5.2c-1.3,2.3,0.2,5.3-2,7.3c1.1,6.7-2.1,7.4-7.8,6.3
		C-1330.9,4476.5-1333.2,4484.2-1333.4,4493.5z"/>
	<path fill="#E8C6C8" d="M-1284.4,4501.5l-0.5,0c0,0-0.5,0-0.5,0c-11.9-0.3-14.9-8.9-17.1-18.3c0.3-1.4,1.2-1.3,2.3-1
		c1.9,1.8,2,4.4,2.7,6.7c2.1,6.1,5.7,8.8,11.8,9c3.2,0.2,6-0.6,8.6-2.4c1.2-0.5,2.3-0.9,3.5-0.2
		C-1275.2,4500.9-1280.6,4499.8-1284.4,4501.5z"/>
	<path fill="#EAA2C3" d="M-1273.4,4495.4c-1,0.4-2,0.7-2.9,1.1c-1.1-2.1,0.7-3.5,1.6-4.9c2.1-3.5,1-7.9,3.4-11.1c3,0.7,1.6,3.2,2,5
		c0,0.3,0,0.6,0,1c-0.6,1.3,0.1,2.9-1,4C-1271.4,4492.1-1272.4,4493.8-1273.4,4495.4z"/>
	<path fill="#F0C3DA" d="M-1270.4,4490.5c0.3-1.3,0.7-2.7,1-4C-1269.7,4487.8-1270.1,4489.1-1270.4,4490.5z"/>
	<path fill="#2A2625" d="M-1300.4,4482.5c-0.7,0.2-1.4,0.5-2.1,0.7c-2.3,4.1-4.7,8.2-7,12.2c-1.7-0.7-3.3-1.3-5-2c1.7-4,3.3-8,5-12
		c-0.3-2.9-0.7-5.8-1-8.7c-1.3-1.5,1.2-2.6,0.6-3.3c-1.5-1.7-0.6-3.4-0.5-5.1c0.3-1.8,0.6-3.5,1-5.3c2-1.2,4.2-1.1,5.2,0.9
		c2.3,4.5,6.1,8,8.2,12.6c0.2,2.5,0.9,5-0.2,7.4C-1297.1,4481.7-1298.4,4482.7-1300.4,4482.5z"/>
	<path fill="#DAD4BE" d="M-1294.2,4506.5c0.7,3,1.4,5.9,2.1,8.9c-0.8-0.1-2.3-0.1-2.3-0.4c-0.6-2.7-0.9-5.4-1.3-8.2
		C-1295.2,4506.7-1294.7,4506.6-1294.2,4506.5z"/>
	<path fill="#EACBDA" d="M-1248.4,4404.5c-13.2-5.7-26.3-12-41.2-9.9c-7,1-13.9,2.6-20.8,3.9
		C-1294.6,4388.4-1265.2,4391.2-1248.4,4404.5z"/>
	<path fill="#EACBDA" d="M-1310.4,4398.5c-1.3,0.7-2.7,1.3-4,2C-1313.1,4399.8-1311.7,4399.1-1310.4,4398.5z"/>
	<path fill="#292828" d="M-1310.4,4464.4c0.2,2.8,2.6,5.7-0.1,8.5c-0.3-0.2-0.5-0.4-0.8-0.5C-1311,4469.7-1310.7,4467-1310.4,4464.4
		z"/>
	<path fill="#2D2D2D" d="M-1287.6,4409.4c8.9-2.8,16.8-0.4,23.2,5.8c8.1,7.8,9.9,17.6,7,28.3c-2.3,2.3-2.7,6.6-7.1,6.8
		c-0.7-0.2-1.3-0.6-1.7-1.2c-0.7-2.8-0.8-6.3-5.4-4.1c-4.9,0.3-9.6-0.5-14.2-2c-1.5-0.8-3-1.6-3-3.6c2.8-8.2,1.1-16.7,1.2-25
		C-1287.4,4412.7-1287.8,4411-1287.6,4409.4z"/>
	<path fill="#272626" d="M-1287.6,4409.4c3.8,3.9,3.2,28.4-0.8,30.2c-2.9,1.7-4.9-0.5-7.3-1.5c-1.7-0.7-3.1-1.8-4.8-2.5
		c-0.6,0.3-0.5,0.9-0.5,1.4c0,2.1,0.1,4.2,0,6.3c-0.1,1.3-0.9,2.4-1.1,3.6c-0.5,1.2-1.1,2.4-2.2,3.2c-5.5,1.2-4.9-3.5-6.2-6.4
		C-1314.4,4426.7-1305.5,4413.4-1287.6,4409.4z"/>
	<path fill="#F0A289" d="M-1310.5,4443.7c3.8-0.1,0.6,7.3,6,5.6c0.8,0.1,1.4,0.5,1.7,1.2c0.2,0.7,0.2,1.4-0.2,2.1
		c-2.3,1.7-4,0.6-5.4-1.3c0.4,5.1,4.4,3.1,7.2,3.5c0.7,0.3,1.2,0.8,1.3,1.5c-0.9,3.5,0.2,6.4,2.1,9.4c1.5,2.3,3.8,4.4,2.8,7.6
		c-1.1,0.9-1.7,0.2-2.1-0.8c-5.6-3.2-4.4-12.5-12.4-13.4C-1311.7,4454.1-1318.4,4449.4-1310.5,4443.7z"/>
	<path fill="#F3AB94" d="M-1264.5,4449.6c4.3,0.3,1.7-7.6,7.1-6.1c3.8,6.8,2.1,11.8-4.9,15c-0.5,0.5-1.1,0.8-1.8,0.7
		c-0.9-0.1-1.7-0.6-2.2-1.4c-0.4-1.2-1.3-2.2-1.6-3.4c0-0.4,0.1-0.8,0.2-1.2c0.7-1.1,1.8-1.7,2.4-2.8
		C-1265.1,4450.1-1264.8,4449.9-1264.5,4449.6z"/>
	<path fill="#F39DBC" d="M-1271.4,4480.5c0.6,6.1-1.1,11.4-5,16c-2.2,3.4-5.7,3-9,2.9c-0.8-0.8-1-1.8-0.6-2.8c1.3-2,4-2,5.6-3.6
		c3.1-2.1,4.8-5,5.3-8.6c0.2-1.5,0.3-3,1.5-4.1c0.5-0.2,0.9-0.2,1.3,0.1C-1272,4480.5-1271.7,4480.5-1271.4,4480.5z"/>
	<path fill="#F4B19A" d="M-1272.3,4480.5c-0.4,0-0.7,0-1.1,0c-0.4-0.3-0.8-0.6-1-1.1c-0.6-1.4-0.7-2.8-0.6-4.3
		c-0.5-2.2-0.4-4.3,1.2-6c1-1,2.5-1.7,2.8-3.4c1.3-2.7,1.6-5.9,4-8.1c0.2-0.1,0.4-0.1,0.6-0.1c0.7,0.4,1.4,0.8,2.1,1.1
		c1.3,1.4,0.1,2.6-0.3,3.8c-0.9,1.3-1.8,2.6-2.7,3.9C-1270.1,4470.7-1273.9,4474.6-1272.3,4480.5z"/>
	<path fill="#754B4E" d="M-1265.5,4462.3c0.4-1.2,0.8-2.5,1.2-3.7c0.7,0,1.3-0.1,2-0.1c-0.7,1.7-1.4,3.3-2,5
		C-1265.3,4463.7-1265.9,4463.4-1265.5,4462.3z"/>
	<path fill="#89615D" d="M-1265.5,4462.3c0.4,0.4,0.8,0.8,1.2,1.2c-1,1-2,1.9-3,2.9C-1266.7,4465-1266.1,4463.7-1265.5,4462.3z"/>
	<path fill="#E896B4" d="M-1285.4,4496.5c0,1,0,2,0,3c-11.6,0.2-14-7.8-15-17c1-0.7,2-1.3,3-2c0.4-0.3,0.8-0.4,1.2-0.1
		c1.9,3.3,1.5,7.4,3.8,10.6C-1291.3,4494.5-1287.3,4494.2-1285.4,4496.5z"/>
	<path fill="#F09779" d="M-1296.5,4480.6c-0.3,0-0.6,0-0.9-0.1c0.1-2.7,0.2-5.3,0.3-8c0.6,0.3,1.1,0.6,1.7,1
		c3.5-0.5,6.4,1.4,9.6,2.3c0.4,0.3,0.7,0.7,0.8,1.2c0,0.5-0.2,1-0.6,1.4C-1289,4480.1-1292.4,4482.1-1296.5,4480.6z"/>
	<path fill="#292828" d="M-1301.7,4469.7c-0.7,3.2-1.3,6.4-2.1,9.6c0,0.2-1.4,0-2.2,0c0.8-3.4,1.6-6.7,2.4-10.1
		C-1303,4469.4-1302.4,4469.6-1301.7,4469.7z"/>
	<path fill="#292828" d="M-1307.1,4463.9c-0.5,1.1-0.7,1.3-0.8,1.6c-0.4-0.5-0.8-1-1.1-1.5c-0.1-0.1,0.3-0.7,0.4-0.7
		C-1308,4463.5-1307.4,4463.8-1307.1,4463.9z"/>
	<path fill="#ECA58E" d="M-1301.5,4432.6c4.3,2.3,8.7,4.6,13,6.9c1,0.6,2.1,1.2,3.1,1.8c0.8,1.6,2.1,3.1,1.3,5.2
		c-0.8,0.8-1.7,1-2.8,0.8c-3.5-3-6.9-6.5-12.2-3.7c-1.1,0.3-2.3,0.8-3.4-0.1c-0.1-2.7-0.1-5.3-0.2-8
		C-1302.5,4434.4-1304,4432.8-1301.5,4432.6z"/>
	<path fill="#EFB09A" d="M-1284.4,4446.4c-0.3-1.7-0.6-3.4-0.9-5.1c5,0.6,9.9,1.3,14.9,1.9c0.3,0.4,0.4,0.9,0.2,1.4
		c-2.7,2.1-6.3,0.8-9.1,2.3C-1281,4446.3-1282.9,4447.7-1284.4,4446.4z"/>
	<path fill="#E7B7AC" d="M-1270.4,4444.5c0-0.4,0-0.8,0-1.2c6.1-2.5,4.7,2.2,5,5.2c-1.6,0.7-2.4-0.7-3.6-1.3
		C-1269.9,4446.6-1270.5,4445.7-1270.4,4444.5z"/>
	<path fill="#F6D5CF" d="M-1268.4,4446.5c1,0.7,2,1.3,3,2c0.3,0.4,0.6,0.7,1,1.1c0,0.3-0.1,0.5,0,0.8c-0.3,0.4-0.8,0.7-1.3,0.8
		c-1.5,0.1-2.6-0.5-3.3-1.8C-1269.4,4448.3-1269.3,4447.3-1268.4,4446.5z"/>
	<path fill="#F7BFB5" d="M-1302.4,4443.5c1-0.4,2-0.7,3-1.1c0.9-0.5,1.2,0,1.5,0.7c-0.3,2.1-1.4,3.8-2.9,5.4
		c-0.4,0.2-0.8,0.3-1.3,0.3c-1.1-0.4-0.8-1.5-1-2.3C-1302.9,4445.5-1302.7,4444.5-1302.4,4443.5z"/>
	<path fill="#EEC8C0" d="M-1303.2,4446.5c0.3,0.7,0.6,1.3,0.8,2c0.6,1.3,0.5,2.1-1.1,2.1c-0.4-0.4-0.7-0.9-1.1-1.3
		C-1304.1,4448.4-1303.7,4447.4-1303.2,4446.5z"/>
	<path fill="#8B7069" d="M-1301.5,4432.6c-0.4,1-0.7,2-1.1,3c-0.1-1.2-0.2-2.5-0.4-3.7C-1302.5,4432.1-1302,4432.3-1301.5,4432.6z"
		/>
	<path fill="#F5A386" d="M-1285.4,4476.5c-3.3-1-6.7-2-10-3c-0.3-6.1-10.5-9.2-5-17c1-0.6,1.8-0.2,2.7,0.3c3.6,3,6.2,2.9,9.5-0.3
		c1.3-1.2,2.5-2.3,4.3-0.7C-1283.4,4462.8-1282.1,4469.8-1285.4,4476.5z"/>
	<path fill="#F5A386" d="M-1301.4,4455.5c-7.6,4.9-8.1-2.8-10.8-6.3c-0.2-0.3,0.7-1.3,1.1-2c1.1,1,2,2.2,3.2,3
		c1.4,0.9,3,1.6,4.5,2.4C-1301.8,4452.9-1300.7,4453.6-1301.4,4455.5z"/>
	<path fill="#FDBEAA" d="M-1301.4,4455.5c-0.7-1-1.3-2-2-3c0-0.6-0.1-1.3-0.1-1.9c0.4-0.7,0.8-1.4,1.1-2.1c0.3,0,0.6,0,0.9,0
		c0.4,0.2,0.8,0.5,1.1,0.8c4.1,6.3,6.8,6.1,11.7-1c0.5-0.3,0.9-0.3,1.5-0.2c0.8,0.3,1.3,0.9,1.6,1.7c0.3,0.8,0.3,1.6,0.2,2.5
		c-4,6.9-6,7.7-13,5.2c-0.7-0.3-1.4-0.7-2-1C-1300.8,4456.2-1301.1,4455.8-1301.4,4455.5z"/>
	<path fill="#E7B7AC" d="M-1268.3,4449.4c1,0.3,2,0.7,2.9,1c0.7,1.9-1.5,1.9-2,3c0,0.3,0,0.7,0,1c-0.4,0.3-0.8,0.4-1.3,0.2
		c-0.8-0.6-1.2-1.4-1.4-2.4C-1270,4451-1269.6,4450-1268.3,4449.4z"/>
	<path fill="#F4B19A" d="M-1268.4,4454.5c0.3,0,0.7,0,1,0c0.3,1,0.7,2,1,3h0c-1.3,1-2.3,0.5-3.2-0.6
		C-1270,4455.7-1269.5,4454.9-1268.4,4454.5z"/>
	<path fill="#F4B19A" d="M-1267.4,4453.5c0.7-1,1.3-2,2-3c0.3,0,0.6,0,0.9-0.1C-1263.7,4453.1-1265.9,4452.9-1267.4,4453.5z"/>
	<path fill="#F8AD92" d="M-1273.4,4479.5c0,0.3,0,0.7,0,1c0.4,5.7-0.9,10.7-6,14c-1.8,0.6-3.6,1-5.4,0.7c-0.8-0.4-1.2-1-1.3-1.8
		c0.4-2-0.2-3.9-0.9-5.9c-0.2-0.8-0.3-1.6-0.3-2.4c-0.1-6.6,1.3-8,8.3-8.1C-1276.8,4477-1274.9,4477.8-1273.4,4479.5z"/>
	<path fill="#F9AB97" d="M-1285.4,4494.5c2,0,4,0,6,0c-2,0.7-4,1.4-6,2c-3.6-0.1-7-0.7-8-5
		C-1290.1,4490.8-1288.1,4493.5-1285.4,4494.5z"/>
	<path fill="#F8AE90" d="M-1269.4,4456.4c1,0.3,2,0.7,3.1,1c-1.3,3-2.7,6-4,9c-0.5,1.1-1.4,2-2,3c-0.3,1.7-0.7,3.3-1,5
		c-3.5,3.7-7.6,3.7-12,2c0,0,0,0,0,0c0-7,0-14,0-21c-0.8-0.7-1-1.6-0.6-2.6c1.1-1.5,2.1-0.4,2.8,0.3c1.1,1.2,2.2,2.4,3.5,3.5
		c3.8,3.3,5.6,3.2,8.9-0.4C-1270.3,4456.1-1269.9,4456.2-1269.4,4456.4z"/>
	<path fill="#EF9F82" d="M-1285.4,4476.5c4-0.7,8-1.3,12-2c0,1.7,0,3.3,0,5c-1.7-0.3-3.3-0.7-5-1c-2.2-1.3-4.8,0.3-7-1
		C-1285.4,4477.1-1285.4,4476.8-1285.4,4476.5z"/>
	<path fill="#F8AD92" d="M-1272.4,4469.5c0.7-1,1.3-2,2-3C-1271.1,4467.5-1271.7,4468.5-1272.4,4469.5z"/>
	<path fill="#F6A487" d="M-1285.4,4477.5c2.3,0.3,4.7,0.7,7,1c-10.5-1.5-6.1,6.4-7,11c0.8,1,0.8,2,0,3c0,0.7,0,1.3,0,2
		c-3.7,1.7-5.5-1.7-8-3c-3.1-3.1-3.2-6.9-3.1-10.9C-1292.8,4479.5-1289.1,4478.5-1285.4,4477.5z"/>
	<path fill="#FCC5B5" d="M-1269.4,4456.4c-0.3,0-0.6,0-0.9,0.1c-5.2,4.2-9.8,2.7-13.7-4.5c-0.6-1.7-0.7-3.8-3.3-3.5
		c-0.3,0-0.6,0-0.9,0c-0.3-0.3-0.5-0.7-0.5-1.2c0.3-0.7,0.6-1.2,1.5-0.8c1,0,1.9,0,2.9,0c1.4-0.8,2.8-1.5,4.2-2.2
		c-0.1,0.8-0.1,1.5-0.2,2.3c0.9,1.9,0,4.3,1.7,5.9c0.7,1.1,1.6,1.8,2.9,1.8c2.5,0.6,3.9-2.6,6.5-1.8c0.3,0.7,0.7,1.3,1,2
		C-1268.7,4455.1-1269.1,4455.8-1269.4,4456.4z"/>
	<path fill="#FDBEA8" d="M-1287.3,4446.4c-0.4,0.4-0.7,0.7-1.1,1.1c-0.7,0.3-1.3,0-1.8-0.5c-0.9-1.6-2.2-2.5-4-3
		c-1-0.1-2.1,0.2-3.1,0c-0.4-0.1-0.8-0.3-1.1-0.6c-0.4-0.3-0.7-0.7-1.1-1C-1294.1,4439.6-1289.9,4440.6-1287.3,4446.4z"/>
	<path fill="#F3A486" d="M-1296.2,4438.2c-1.4,1-2.6,2.1-2.7,2c-0.9-0.7-1.6-1.7-2.2-2.8c-0.1-0.2,1.1-1.4,1.4-1.3
		C-1298.7,4436.5-1297.8,4437.2-1296.2,4438.2z"/>
	<path fill="#F1AF97" d="M-1269.4,4452.5c-2.1,1.6-3.6,4.5-7,3.1c-1.2-0.8-1.6-1.7-0.4-2.9c1.4-1.3,2.7-2.7,4.4-4.7
		c-3.8,0.1-5,2.3-6.1,4.6c-0.2,0.4-0.6,0.7-1,1c-2.7-2-2.6-4.4-1-7c3.3-0.7,6.7-1.3,10-2c0.7,0.7,1.3,1.3,2,2c0,1,0.1,2,0.1,3
		C-1268.7,4450.5-1269,4451.5-1269.4,4452.5z"/>
	<path fill="#F0A792" d="M-1298.4,4443.5c0.3,0,0.7,0,1,0c1.7,4-0.1,5.7-4,6c0-0.3,0-0.7-0.1-1
		C-1300.4,4446.8-1299.4,4445.1-1298.4,4443.5z"/>
	<path fill="#F2A68D" d="M-1285.4,4452.5c0,1,0,2,0,3c-1.6,5.4-7.7,3.9-11.2,6.5c-0.4-1.1-1.1-2.8-1.8-4.5c5.3,0.5,10,0,12-6
		C-1285.5,4451.2-1285.1,4451.6-1285.4,4452.5z"/>
	<path fill="#F4A586" d="M-1301.4,4449.5c1.3-2,2.7-4,4-6c1-0.3,2-0.6,3-0.9c1.1,2,3.5,2.5,5,3.9c0.3,0.3,0.7,0.7,1,1
		c0,0.3,0,0.6,0.1,1c0.1,4-1.6,6.7-5.8,7C-1298.3,4455.8-1301.1,4454-1301.4,4449.5z"/>
	<path fill="#F4B19A" d="M-1285.4,4452.5c-0.3-0.3-0.7-0.7-1-1c0-0.7,0-1.3,0-2c1.4-0.9,2.6-1.2,3.1,0.9c1.6,7.7,6.8,7.9,12.9,6.1
		c-1.2,1.6-2.5,4.7-3.6,4.6C-1279.3,4460.5-1282.5,4456.7-1285.4,4452.5z"/>
	<path fill="#FED8D3" d="M-1283.3,4450.4c-1-0.3-2.1-0.6-3.1-0.9c-0.3-0.3-0.7-0.7-1-1c1.4-0.2,2.8-0.4,4.1-0.6
		C-1283.3,4448.7-1283.3,4449.5-1283.3,4450.4z"/>
	<path fill="#F9AB97" d="M-1277.6,4485.8c-1.1,1-2.1,2-3.2,2.9c0,0-0.8-0.8-1.2-1.2c1.2-0.9,2.4-1.8,3.6-2.7
		C-1278.1,4485.2-1277.8,4485.5-1277.6,4485.8z"/>
	<path fill="#F9AB97" d="M-1285.4,4492.5c0-1,0-2,0-3c0.6,0.4,1.2,0.8,1.7,1.3C-1284.2,4491.3-1284.8,4491.9-1285.4,4492.5z"/>
	<path fill="#F4B19A" d="M-1279.4,4453.5c0-0.3,0-0.7,0-1c1.4-0.7,2.6-1.3,3,1c0,0.7,0,1.4,0,2
		C-1277.4,4454.8-1278.4,4454.2-1279.4,4453.5z"/>
	<path fill="#F2A690" d="M-1289.4,4446.5c-2.8,0.1-5.2-0.3-5-3.9C-1292,4443-1289.8,4443.6-1289.4,4446.5z"/>
	<path fill="#F7AD8F" d="M-1276.4,4453.5c-1-0.3-2-0.7-3-1c-1.4-5,3.1-5.3,5.8-6.8c0.4-0.3,3.2,2,3,2.4
		C-1271.6,4450.7-1272.8,4453.4-1276.4,4453.5z"/>
</g>
</svg>
