<?xml version="1.0" encoding="utf-8"?>
<!-- Generator: Adobe Illustrator 21.1.0, SVG Export Plug-In . SVG Version: 6.00 Build 0)  -->
<svg version="1.1" id="Layer_1" xmlns="http://www.w3.org/2000/svg" xmlns:xlink="http://www.w3.org/1999/xlink" x="0px" y="0px"
	 viewBox="-1151.1 4043.7 125.3 125.6" enable-background="new -1151.1 4043.7 125.3 125.6" xml:space="preserve">
<g>
	<path fill="#B1CCC7" d="M-1116.9,4050c22.2-9.2,43.6-9.2,63.9,5c0.9,3,3.7,3.7,6.1,4.9l0,0c4.1,5.6,9.2,10.3,12.7,16.4
		c2,3.5,2.7,7.5,5.2,10.7c7.2,23,2.3,43.5-12.9,61.8c-0.8-4.1-1.3-8.3-1.5-12.5c-0.4-8.5-3.4-10.9-11.7-9.5
		c-4.9,0.8-9.8,1.4-14.7,1.7c-2.5,0-4.4,0.7-4.8,3.7c-0.1,1.1-0.9,2.1-2.3,2.1c-0.9-0.6-1.3-1.5-1.5-2.5c-0.6-1.4-0.7-2.9-0.4-4.4
		c0.1-0.5,0.3-0.9,0.5-1.3c0.9-4.7,2.6-9.1,5.8-12.7c0.3-0.4,0.6-0.7,0.9-1c1.2-0.9,2.1-2.1,2.9-3.4c0.9-1.3,1.4-2.7,2.3-4
		c0.7-0.7,1.3-1.5,2.1-2.1c5.1-3.5,4.2-7.9,2.1-12.6c0-3.8,0.7-7.6,0.5-11.4c-1-14-14.7-24.8-27.8-21.7c-2.3,0.9-4.7,1.6-7,2.4
		c-13.2,4.5-17.2,15-16.4,26.7c0.1,1,0.2,2,0,3c-0.2,1.1-0.9,2.1-1.5,3c-2.3,3.8-1.7,7.2,1.7,9.9c1,0.8,2.1,1.5,2.9,2.6
		c0.8,1.5,1.9,2.7,3,3.8c0.8,1,1.3,2.1,1.4,3.3c0.1,1.3,0,3,1.1,3.7c4.2,2.7,3.9,7,4.1,11.1c-0.1,0.5-0.3,1-0.6,1.4
		c-0.4,0.3-0.9,0.5-1.5,0.6c-2.1-0.2-4.2-0.5-6.4-0.4c-5.5-0.2-10.9-0.9-16.3-1.7c-5.4-0.8-7.7,0.6-9.1,5.8
		c-0.7,2.8-0.4,5.6-0.5,8.4c-0.1,2,0,4.1-2.4,4.9c-18.8-18.4-18.8-52-0.1-80c2.7-2.7,4.3-6.4,7.9-8.1l0.2,0.1
		c0.8-1.3,3.7,0.3,3.3-2.6C-1123.3,4052.7-1120.4,4051-1116.9,4050z"/>
	<path fill="#0AA7BD" d="M-1071,4127c3.6-0.3,7.2-0.8,10.9-1c16.8-1.2,22.4,5.8,18.2,22.8c-7.2,7.1-15,13.4-24.9,16.3
		c-0.4,0.3-0.9,0.3-1.3,0c-0.4-2.8,1.6-3.8,3.6-4.6c6.3-2.5,11-7.3,16.3-11.2c0.9-0.7,2-1.5,2.2-2.6c0.7-5,0.4-10.2-0.8-15
		c-0.8-3.2-4.9-3.1-7.8-2.6c-4.1,0.7-8,1.9-12.2,1.9c-2.6,0-2.9,2.1-3.7,4c-0.8,2.1-1.2,5.1-4.8,3.8
		C-1074.7,4134.5-1076.3,4129.4-1071,4127z"/>
	<path fill="#1B9DAF" d="M-1068,4164.9c0.4,0.1,0.7,0.1,1.1,0.2c-21.3,9.3-51.9,2.3-66.4-15c0.6-0.7,1.3-0.9,2.1-0.8
		c1.3,0.2,2.5,0.9,3.5,1.8c10,8.9,21.7,13.5,34.9,14.7c2.6,0.2,5.2,0.9,7.8,0c4.1-0.8,8.3-0.7,12.3-1.9
		C-1071,4163.5-1069.3,4163.4-1068,4164.9z"/>
	<path fill="#119AAF" d="M-1131,4150c-0.7,0-1.5,0.1-2.2,0.1c-1.2-1.4-2.5-2.7-3.7-4.1c-2.4-24.7,13.3-21.8,28.9-18.9
		c3,0.6,6.7,0.6,4.6,5.5c-2.3,1.6-3.4-1.2-5.1-1.6c-6-1.4-11.9-2.6-18.1-2.1c-3.7,0.3-5.2,2.1-5.5,5.7
		C-1132.5,4139.8-1132.9,4145-1131,4150z"/>
	<path fill="#B8CCC8" d="M-1029,4087c-6-9-12-18-17.9-27.1C-1037.9,4066.9-1032.2,4076.1-1029,4087z"/>
	<path fill="#B8CCC8" d="M-1047,4059.9c-3.3-0.1-7.3,0.8-6.1-4.9C-1051,4056.7-1049,4058.3-1047,4059.9z"/>
	<path fill="#BACDCB" d="M-1128,4057c1-0.4,2-0.7,3-1.1c1.7,1.4,1.5,3-0.3,3.7c-0.9,0.3-2.3-1-3.5-1.6
		C-1128.6,4057.7-1128.3,4057.4-1128,4057z"/>
	<path fill="#2D2D2D" d="M-1090.3,4055.9c19.2-4.9,34.8,13.7,29.2,34.7c-1.3,1-2.3,2.3-3,3.9c-0.6,1.3-1.1,3-3.1,2.6
		c-1.8-0.4-2.9-1.7-3.1-3.5c-0.3-2.1-1.1-4.2-1.1-6.3c0-3.2-1.6-3.9-4.4-3.8c-4.6,0.1-9.3,0.4-13.3-2.7c-0.3-0.4-0.6-0.8-0.8-1.2
		c-1.1-6.9-1.9-13.8,0.4-20.6C-1089,4057.6-1089.5,4056.7-1090.3,4055.9z"/>
	<path fill="#262626" d="M-1090.3,4055.9c6.8,0.6,1.1,4,1.2,5.9c0.3,5.7,0.1,11.5,0.1,17.2c-3,1.7-4.7-0.8-6.4-2.3
		c-2.1-1.8-3.8-1.3-5.8-0.1c-2,1.2-3.9,2.1-3.5,5.2c0.5,3.6,0.5,7.3-0.8,10.8c-0.8,2.2-1.6,4.8-4.3,4.8c-3,0-3.2-2.8-3.9-5
		c-0.3-0.8-0.2-1.6-0.3-2.5C-1117.6,4072-1108.9,4059.6-1090.3,4055.9z"/>
	<path fill="#F4A587" d="M-1114.1,4090c1.6,2.1,3.3,4.3,4.9,6.4c1-2.4,2.9-4.8,2.8-7.1c-0.7-14.8,3.2-20.9,17.4-10.2
		c0.1,0.3,0.2,0.6,0.2,0.9c0.7,1.3,1.2,2.6,1.4,4c0.6,11.7,0.8,23.5-0.1,35.2c-1.8,3.7-3.1,2.1-4-0.5c-1.7-5.2-1.4-10.5-0.8-15.8
		c0.3-2.6,0.3-5.3,0.7-7.9c1.1-6.3-2-10.8-5.8-15.1c-0.6-0.6-1-1.4-2-0.8c-1.3,0.8-2.4,1.8-2.1,3.6c0.7,5-1.4,9.5-2.7,14.1
		c-1.5,5.2-2.8,5.6-7.1,3.7c6.9,4.1,10.6,11.4,13.3,19.6c-0.5,2.7-0.2,4.4,3.3,3.8c2.6-0.4,5.6-0.7,7.1,2.6
		c0.8,5.2,1.5,10.4-0.6,15.5c-1.1,1.3-2.5,1.5-4.1,1.5c-7-1.6-10.1-7.3-8.5-15.5c0-0.3,0-0.6-0.1-0.9c0.8-6.1-3.4-10.2-5.9-15
		c-0.4-0.8-0.7-1.7-1.1-2.5c-0.7-1.4-1.4-2.8-2.9-3.5C-1116.1,4101.5-1121.7,4097-1114.1,4090z"/>
	<path fill="#F5AF93" d="M-1089,4141.9c0-5.7,0-11.3,0-17c-0.1-2.1,1.5-2,2.8-2.2c3,1.1,6.7,0.7,8.4,4.4c0.3,1.3,0.5,2.6,0.8,3.8
		c-0.2,3.8-0.9,7.5-4.1,10.1C-1083.6,4143.1-1086.1,4144.6-1089,4141.9z"/>
	<path fill="#EEAE92" d="M-1089,4082c0.1-0.7,0.1-1.4,0.2-2.1c5,0.7,10.1,2.2,15.1,1.9c5.6-0.3,3.5,3.3,4,5.7
		c0.7,2.8,0.7,7.5,2.2,8.1c3.1,1.2,1.3-3.5,3.1-4.7c0.8-0.5,2.1-0.2,3.2-0.3c5.1,7,0.7,11.3-4.4,15.4c-2.2,0-1.7,2.3-2.7,3.3
		c-0.9,1.2-1.3,2.9-2.7,3.8l-0.2,0.1c-0.4,0.3-0.9,0.2-1.3,0c-3.9-9.3,3.3-11.2,9.6-13.7c-5,2.3-8,1-9.4-4.1
		c-0.3-1.1-0.5-2.3-0.4-3.4c0.2-4.3-1.4-6.2-6.2-5.8C-1082.5,4086.3-1086.5,4085.5-1089,4082z"/>
	<path fill="#5DC4D5" d="M-1103.9,4133c0.8-3.4-1-5.1-4.1-5.9c2,0.3,4,0.6,6,0.9c1.5,1.6,1,3.8,1.5,5.6c2.4,9.4,9.8,12.6,18.5,8
		c1.8-2.4,3.5-5,5.2-7.6c1.6-2.7,0.4-7.6,5.9-7c-1.3,4-2.7,8-4,11.9c-0.7,4.9-5.2,8.6-11.1,9.4c-2.7,0.3-5.3-0.4-7.8-0.9
		C-1101.7,4144.3-1105.1,4139.5-1103.9,4133z"/>
	<path fill="#80B8BA" d="M-1081.1,4141.9c-3.3,3.9-7.5,3.8-11.7,2.2c-7.3-2.8-9.1-9-9.2-16.1c0.4,0,0.8,0,1.1-0.1
		c1.8,5.1,0.7,12,7.9,14.1C-1089,4143.7-1085.1,4142.1-1081.1,4141.9z"/>
	<path fill="#D0B8A7" d="M-1081.1,4141.9c-4,1.4-7.9,3-12,0.1c1.3,0,2.7-0.1,4-0.1c8.1,0.8,9.6-5.6,12-11c0.1,1,0.1,2.1,0.2,3.1
		C-1078.3,4136.7-1079.7,4139.3-1081.1,4141.9z"/>
	<path fill="#EAA489" d="M-1077.8,4127.1c-2.7-1-5.5-2.1-8.2-3.1c-0.3-0.5-0.3-1,0.1-1.4c3.1-1,5.7-3.9,9.4-2
		c-0.2,2.1,0.6,4.3-0.5,6.4C-1077.3,4127-1077.6,4127.1-1077.8,4127.1z"/>
	<path fill="#BBC3BB" d="M-1106.9,4112c5.2,3.7,6.8,8.9,5.9,15C-1102.9,4122-1104.9,4117-1106.9,4112z"/>
	<path fill="#E2B09C" d="M-1077,4126.9c0-2.3,0-4.6,0-6.9c-0.6-4.5,0.6-6.1,5-7c0.3,0,0.6,0.1,1,0.1
		C-1073.1,4117.7-1075,4122.3-1077,4126.9z"/>
	<path fill="#BAC8C9" d="M-1039.8,4129.8c-2.1-2.8-3.4-4.7-4.8-6.6c0.5-0.2,1.1-0.7,1.5-0.6
		C-1040.3,4123.5-1039.5,4125.7-1039.8,4129.8z"/>
	<path fill="#6B4F47" d="M-1069,4109c1.1-1.1,0-4.8,3.5-3c-0.8,1.4-1.7,2.7-2.5,4.1C-1068.6,4110-1068.7,4109.4-1069,4109z"/>
	<path fill="#5B493D" d="M-1110.9,4106c2.8-0.3,3.1,1.4,2.9,3.5C-1109,4108.4-1109.9,4107.2-1110.9,4106z"/>
	<path fill="#715748" d="M-1069,4109c0.3,0.4,0.7,0.7,1,1.1c-1,1-2,2-2.9,3C-1070.3,4111.7-1069.7,4110.3-1069,4109z"/>
	<path fill="#01A7C1" d="M-1093.9,4146.2c7.9,1.9,14.4-0.1,18.9-7.2c2.3-8.2,7.9-10.7,16.1-11.1c5-0.3,11.8-2.5,13.2,2.3
		c1.7,5.8,5.3,13.8-0.4,19.1c-6.5,6.1-14.6,10.5-22,15.7c-5.7,1-11.4,2-17.1,3c-5.8-0.8-5.8-0.8-5.8-7c0-0.5,0-1,0-1.5
		C-1091.1,4154.8-1088.7,4149.6-1093.9,4146.2z"/>
	<path fill="#009DB8" d="M-1093.9,4146.2c2.1,0.8,4.2,1.6,5.3,2.1c2,6.5-5.6,14.1,3.6,19.6c-17.6,0-33.5-4.6-46-17.9
		c-7.3-5.3-1.9-12.6-2.6-18.8c-0.3-2.5,2.8-4.4,5.8-4.2c8.3,0.5,17.3-1.5,23.8,6C-1102.7,4139-1099.6,4143.6-1093.9,4146.2z"/>
	<path fill="#F8AE91" d="M-1072,4113c-1.7,2.3-3.3,4.7-5,7c-2.5,2.5-5.5,3.5-9,3c-1,0.7-2,0.5-3.1,0.2c-0.5-0.8-0.5-1.5,0.1-2.2
		c0-13,0-26,0-39c8.4,2.6,20.7,0,19.4,15.3c-0.2,2.5,2.9,2.5,5.5,1.2c1.9-0.9-1.8-5,2.5-3.7c0.6,0.2,1.4,1.6,1.3,1.8
		c-1.2,1.9-2.5,5-4,5.2C-1071.7,4102.6-1071.9,4107.6-1072,4113z"/>
	<path fill="#F5A487" d="M-1089,4121c0,0.7,0,1.3,0,2c-5.9,2.1-8.3,1.4-10-3c-4-6.4-6.1-14.2-13.4-18.4c-1.9-1.1-5.2-4.1-2.6-6.3
		c2.7-2.3,1.4,2.5,3.2,3.3c2.7,1.2,5.1,3.4,5.9-1.7c0.9-5.5,4.4-10.7,1.9-16.7c-0.2-0.5,4.1-2.9,6.4-4.4c2.6,4.1,6.6,7.9,7.4,12.3
		C-1088.2,4098.9-1093.7,4110.1-1089,4121z"/>
	<path fill="#EA9A7F" d="M-1099,4120c2.7,3.2,6.3,3.2,10,3c1,0,2,0,3,0c0,0.3,0,0.6,0,1c-1,0.3-2,0.7-3,1
		C-1091.1,4120.8-1101.7,4133.7-1099,4120z"/>
	<path fill="#08A3C5" d="M-1057.1,4154.2c-1.7,0.1-3.3,0.2-5,0.3c0-0.6,0-1.6,0.1-1.6c1.6-0.3,3.1-0.4,4.7-0.5
		C-1057.3,4153-1057.2,4153.6-1057.1,4154.2z"/>
	<path fill="#EEAE92" d="M-1075.4,4105.1c0.7,0.7,1.2,1,1.2,1.4c0,0.5-0.3,1.1-0.5,1.7c-0.3-0.3-0.9-0.5-1-0.9
		C-1075.8,4106.7-1075.6,4106.1-1075.4,4105.1z"/>
</g>
</svg>
