<?xml version="1.0" encoding="utf-8"?>
<!-- Generator: Adobe Illustrator 21.1.0, SVG Export Plug-In . SVG Version: 6.00 Build 0)  -->
<svg version="1.1" id="Layer_1" xmlns="http://www.w3.org/2000/svg" xmlns:xlink="http://www.w3.org/1999/xlink" x="0px" y="0px"
	 viewBox="-207.7 -1238.2 220.4 220.4" enable-background="new -207.7 -1238.2 220.4 220.4" xml:space="preserve">
<g>
	<path fill="#2196F3" d="M12.7-1128c0,60.8-49.6,110.3-110.3,110.2c-60.8-0.1-110.2-49.7-110.1-110.4
		c0.1-60.6,49.5-109.9,110.1-109.9C-36.8-1238.3,12.7-1188.8,12.7-1128z M-1-1128c0-53.1-43.1-96.5-95.9-96.6
		c-53.7-0.1-97,43-97.1,96.4c0,53.3,43.2,96.6,96.4,96.6C-44.2-1031.5-1-1074.7-1-1128z"/>
	<path fill="#2196F3" d="M-122.3-1122.8c-24.8-19.3-21.5-49.9-5.4-65.5c17-16.6,45.2-16.1,61.5,1c16,16.9,16.9,46.9-6.9,64.8
		c8.4,3.9,15.7,9,21.7,15.8c9.3,10.5,14.1,22.7,15.3,36.6c0.3,2.8-0.4,3.7-3.4,3.8c-8.3,0.1-8.3,0.2-9.5-8
		c-3.3-22.8-24.2-40.7-47.7-41c-23.9-0.3-45.4,17.1-49.2,39.9c-0.1,0.5-0.1,1-0.2,1.5c-1.2,7.8-2.8,8.8-10.8,7.6
		c-3.2-0.5-2-2.6-1.9-4.1c2.1-22.4,13.1-39,32.7-49.9C-124.8-1121.2-123.2-1121.4-122.3-1122.8z M-66.8-1158.1
		c0-17-13.7-30.5-30.9-30.5c-16.9,0.1-30.4,13.5-30.5,30.3c-0.1,17.1,13.4,30.7,30.6,30.7C-80.3-1127.5-66.8-1141-66.8-1158.1z"/>
</g>
</svg>
