<?xml version="1.0" standalone="no"?>
<!DOCTYPE svg PUBLIC "-//W3C//DTD SVG 20010904//EN"
 "http://www.w3.org/TR/2001/REC-SVG-20010904/DTD/svg10.dtd">
<svg version="1.0" xmlns="http://www.w3.org/2000/svg"
 width="512.000000pt" height="512.000000pt" viewBox="0 0 512.000000 512.000000"
 preserveAspectRatio="xMidYMid meet">

<g transform="translate(0.000000,512.000000) scale(0.100000,-0.100000)"
fill="#000000" stroke="none">
<path d="M1067 4309 c-106 -25 -201 -104 -251 -209 -28 -58 -31 -75 -31 -155
0 -78 4 -98 28 -151 36 -77 113 -154 192 -191 l60 -28 326 -3 326 -3 6 -132
c3 -73 13 -161 22 -197 25 -96 106 -256 168 -331 108 -130 274 -235 443 -280
111 -30 297 -30 408 0 243 65 439 225 546 446 63 130 80 202 87 362 l6 132
326 3 326 3 65 31 c82 39 144 101 184 184 28 58 31 75 31 155 0 80 -3 97 -31
155 -39 83 -101 145 -184 184 l-65 31 -1475 2 c-837 0 -1491 -3 -1513 -8z
m2998 -175 c155 -81 150 -306 -9 -380 l-51 -24 -1445 0 -1445 0 -51 24 c-135
63 -166 235 -61 340 23 23 58 47 77 53 25 8 442 11 1490 10 1455 -2 1455 -2
1495 -23z m-827 -692 c-5 -107 -10 -142 -35 -213 -75 -219 -259 -388 -483
-446 -85 -21 -235 -21 -320 0 -226 58 -411 230 -486 452 -21 64 -27 105 -32
208 l-5 127 683 0 683 0 -5 -128z"/>
<path d="M2020 2290 c-31 -31 -35 -65 -11 -104 38 -61 153 -159 236 -203 111
-58 188 -76 315 -76 127 0 204 18 315 76 90 47 213 156 240 213 28 60 -6 114
-71 114 -21 0 -45 -18 -103 -77 -87 -89 -168 -135 -278 -158 -86 -18 -121 -18
-208 0 -108 23 -188 69 -276 158 -84 84 -119 97 -159 57z"/>
<path d="M1576 1969 c-61 -48 -23 -124 140 -278 235 -223 519 -335 844 -335
332 0 624 118 858 347 152 150 185 219 126 266 -46 36 -72 28 -133 -41 -190
-215 -355 -320 -600 -385 -83 -22 -117 -26 -251 -26 -134 0 -168 4 -251 26
-245 65 -417 175 -604 390 -57 64 -84 71 -129 36z"/>
<path d="M1129 1641 c-40 -41 -37 -68 18 -143 154 -205 399 -403 641 -520 631
-302 1375 -210 1912 237 149 124 320 323 320 372 0 27 -49 83 -74 83 -30 0
-62 -22 -96 -68 -55 -75 -208 -229 -295 -297 -155 -121 -318 -207 -511 -268
-175 -55 -283 -71 -484 -71 -201 0 -309 16 -483 71 -322 102 -534 250 -822
576 -58 66 -82 71 -126 28z"/>
</g>
</svg>
