<?xml version="1.0" encoding="utf-8"?>
<!-- Generator: Adobe Illustrator 21.0.2, SVG Export Plug-In . SVG Version: 6.00 Build 0)  -->
<svg version="1.1" id="Camada_1" xmlns="http://www.w3.org/2000/svg" xmlns:xlink="http://www.w3.org/1999/xlink" x="0px" y="0px"
	 viewBox="0 0 427.4 676" enable-background="new 0 0 427.4 676" xml:space="preserve">
<rect y="65.9" fill="#3682C2" width="427.4" height="466"/>
<g>
	<path fill="#F9F9F9" d="M26.2,476.6c-0.4,4.7-0.8,9.3-1.1,14c-0.5,7.3-0.8,14.6-1.3,21.9c-0.1,1.1-0.1,2.3,0,3.4
		c0,0.7-0.2,0.9-0.9,0.9c-3.8,0-7.6,0-11.3,0c-0.2,0-0.4,0-0.5,0c-2.6,0-2.6,0-2.2-2.6c0.8-5.6,1.2-11.2,1.7-16.8
		c0.5-6.1,1.1-12.3,1.6-18.4c0.4-4.8,0.7-9.6,1-14.5c0.1-1.8,0.3-3.5,0.4-5.3c0-0.8,0.3-0.9,1-0.9c3.8,0.1,7.6,0,11.4,0.1
		c3.5,0.1,7,0,10.5-0.1c0.8,0,1.1,0.2,1.2,1c0.7,5.4,2.3,10.6,3.7,15.9c1.6,6,2.7,12.1,3.9,18.2c0.1,0.3,0.1,0.7,0.4,1
		c2.6-10.3,6.4-20.1,10-30c0.6-1.8,1.1-3.6,1.6-5.4c0.1-0.5,0.4-0.7,0.9-0.7c3.7,0.1,7.5,0.1,11.2,0.1c3.6,0,7.2-0.1,10.8-0.1
		c1.6,0,1.5,0,1.5,1.5c-0.2,3.9-0.4,7.8-0.6,11.8c-0.3,7.6-0.5,15.2-0.7,22.9c-0.1,6.1-0.3,12.1-0.3,18.2c0,1.1,0,2.2,0.1,3.3
		c0,0.6-0.1,0.9-0.8,0.9c-4.8,0-9.7,0-14.5,0c-0.5,0-0.8-0.1-0.7-0.7c0.2-4.3,0.4-8.6,0.6-12.8c0.3-7.4,0.6-14.8,0.7-22.2
		c0-1.7,0-3.5-0.2-5.3c-0.4,1.1-0.8,2.2-1.1,3.4c-3.9,12.2-8,24.4-12,36.6c-0.3,0.8-0.6,1.1-1.4,1.1c-4.6,0-9.2,0-13.7,0
		c-0.9,0-1.2-0.2-1.3-1.1c-2.7-12.1-5.3-24.2-8.3-36.2c-0.3-1.1-0.4-2.2-0.6-3.3C25.9,475.9,26.4,476.5,26.2,476.6z"/>
	<path fill="#F9F9F9" d="M347.3,485.5c0.7-3.5,1.2-6.8,1.6-10.2c0.1-0.5,0.2-0.8,0.8-1c7.1-1.4,14.1-2.6,21.4-2.5
		c4,0.1,8,0.5,11.7,2.3c3.8,1.8,5.6,4.9,5.6,9.1c0,4.9-0.5,9.7-0.8,14.6c-0.3,4.8-0.5,9.5-0.6,14.3c0,1.3-0.1,2.5-0.1,3.8
		c0,0.7-0.3,0.8-0.9,0.8c-4.5,0-8.9,0-13.4,0c-0.3,0-0.6,0-0.9,0c-1.9,0-1.8,0-1.6-1.9c0.6-5.6,0.8-11.2,1.2-16.8
		c0-0.5-0.1-0.6-0.6-0.4c-2.9,1.4-6,2-9,3.1c-1.1,0.4-2,1-2.8,1.8c-1.9,2-1.1,5,1.6,5.8c2,0.5,4,0.3,5.9-0.3c0.3-0.1,0.6-0.3,0.8,0
		c0.1,0.1-0.1,0.5-0.1,0.7c-0.8,2.6-1.6,5.3-2.4,7.9c-0.1,0.4-0.2,0.8-0.7,0.8c-4.5,0.6-8.9,0.8-13.3-0.3c-5-1.3-8-4.6-9.1-9.6
		s0.8-9,4.5-12.2c2.7-2.3,6-3.4,9.3-4.3c3.7-1.1,7.6-1.6,11.4-2.6c0.8-0.2,1.7-0.5,2.4-0.9c1.2-0.7,1.9-1.7,1.8-3.1
		c-0.1-1.4-1-2.1-2.2-2.5c-1.9-0.7-3.8-0.5-5.7-0.3c-5.1,0.5-9.9,1.9-14.6,3.7C348,485.2,347.8,485.3,347.3,485.5z"/>
	<path fill="#F9F9F9" d="M248.8,500.6c1-3.3,2.2-6.4,3.3-9.4c2.1-5.7,4.1-11.5,6.2-17.2c0.3-0.8,0.7-1.1,1.6-1.1
		c5.1,0.1,10.2,0.1,15.3,0c0.8,0,1.2,0,0.7,1c-6.5,13.8-12.6,27.9-18.5,42c-0.2,0.6-0.5,0.8-1.2,0.8c-5.6,0-11.1,0-16.7,0
		c-0.6,0-0.9-0.2-1.1-0.8c-4.4-14-9.3-27.8-14.1-41.7c-0.4-1.3-0.5-1.3,0.9-1.3c5,0.1,10,0.1,14.9,0c0.8,0,1.1,0.2,1.3,1
		c2.3,8.7,4.9,17.2,7.1,25.9C248.6,500,248.7,500.2,248.8,500.6z"/>
	<path fill="#F9F9F9" d="M337.8,504c-0.7,4-1.4,7.8-2.1,11.7c-0.1,0.4-0.2,0.7-0.6,0.8c-5.7,1.3-11.4,2-17.2,0.7
		c-5.2-1.1-7.9-4.6-8-10.1c0-4,0.4-7.9,0.6-11.9c0.2-3,0.3-5.9,0.6-8.9c0.1-0.7-0.2-0.9-0.9-0.9c-1.6,0-3.3,0-4.9,0
		c-0.6,0-0.8-0.2-0.8-0.8c0.2-3.4,0.3-6.9,0.4-10.3c0-0.6,0.3-0.7,0.8-0.7c1.8,0,3.6,0,5.5,0c0.7,0,1-0.2,1-0.9
		c0.1-2.2,0.3-4.5,0.4-6.7c0-0.7,0.3-1.1,1-1.2c4.7-0.9,9.5-1.9,14.1-3.1c0.8-0.2,0.9-0.1,0.8,0.7c-0.2,3.4-0.2,6.8-0.4,10.2
		c0,0.8,0.2,1,1,1c2.6,0,5.2,0,7.7,0c0.7,0,0.9,0.2,0.9,0.9c-0.1,3.4-0.2,6.8-0.3,10.1c0,0.7-0.3,0.8-0.9,0.8c-2.7,0-5.3,0-8,0
		c-0.7,0-1.1,0.1-1.1,0.9c-0.1,4.4-0.5,8.7-0.5,13.1c0,4.6,1.9,6.2,6.5,5.5C335.1,504.8,336.4,504.4,337.8,504z"/>
	<path fill="#F9F9F9" d="M208.4,516.7c-2.8,0-5.5,0-8.3,0c-0.7,0-0.9-0.1-0.8-0.9c1.1-9.1,1.6-18.1,1.8-27.3
		c0.1-4.9,0.3-9.7,0.4-14.6c0-0.8,0.2-1.1,1-1c5.2,0.1,10.5,0.1,15.7,0c0.8,0,1,0.2,1,1c-0.7,7.6-1.2,15.3-1.3,22.9
		c-0.1,6.3-0.2,12.6-0.2,18.8c0,0.8-0.2,1-1,1C213.9,516.7,211.2,516.7,208.4,516.7z"/>
	<path fill="#F9F9F9" d="M287.6,516.7c-2.8,0-5.5,0-8.3,0c-0.8,0-1-0.2-0.9-1c1.1-8.2,1.5-16.4,1.8-24.6c0.2-5.6,0.4-11.1,0.4-16.7
		c0-1.5,0-1.5,1.5-1.5c5,0.1,10,0.1,15,0c0.9,0,1.2,0.2,1.1,1.1c-0.6,6.4-1,12.7-1.2,19.1c-0.1,2.5-0.1,5-0.1,7.5
		c-0.1,5-0.1,10-0.2,14.9c0,0.8-0.2,1.1-1.1,1.1C292.9,516.7,290.3,516.7,287.6,516.7z"/>
	<path fill="#F9F9F9" d="M408.1,494.9c-2.4,0-4.7,0-7.1,0c-0.6,0-0.8-0.1-0.8-0.8c0.2-6.2,0.4-12.3,0.6-18.5
		c0.2-5.5,0.3-11,0.4-16.6c0-0.7,0.3-0.9,0.9-0.9c5.3,0,10.6,0,15.9,0c0.8,0,0.9,0.3,0.8,0.9c-0.6,5.8-1.1,11.6-1.5,17.5
		s-0.9,11.7-1.3,17.6c0,0.7-0.4,0.7-0.9,0.7C412.8,494.9,410.4,494.9,408.1,494.9z"/>
	<path fill="#F9F9F9" d="M407.1,516.7c-2.7,0-5.4,0-8.1,0c-0.6,0-0.9-0.1-0.8-0.8c0.5-4.3,0.6-8.6,0.8-12.9c0-0.9,0.2-1.2,1.1-1.2
		c5.3,0,10.5,0,15.8,0c0.7,0,1,0.1,0.9,1c-0.3,4.2-0.6,8.4-0.6,12.6c0,1.1-0.3,1.4-1.4,1.4C412.2,516.6,409.7,516.7,407.1,516.7z"/>
	<path fill="#F9F9F9" d="M281.2,463.1c0-1.7,0.3-3.4,0.1-5.1c-0.1-0.7,0.1-0.9,0.8-0.9c5.2,0,10.4,0,15.6,0c0.7,0,0.8,0.2,0.8,0.9
		c-0.2,2.9-0.3,5.8-0.4,8.7c0,0.7-0.2,0.9-0.9,0.9c-4.4-0.3-8.7-0.1-13.1-0.1c-1,0-2.2,0.6-2.8-0.1c-0.4-0.6,0-1.8,0-2.7
		C281.2,464.1,281.2,463.6,281.2,463.1z"/>
	<path fill="#F9F9F9" d="M206.6,457.1c4,0,7.9,0,11.9,0c0.8,0,0.9,0.2,0.9,1c-0.2,2.9-0.3,5.8-0.4,8.7c0,0.7-0.3,0.8-0.9,0.8
		c-5-0.2-10-0.2-15,0c-0.8,0-1-0.2-0.9-1c0.2-2.9,0.3-5.9,0.2-8.8c0-0.5,0.2-0.7,0.7-0.7C204.1,457.1,205.3,457.1,206.6,457.1z"/>
	<path fill="#F9F9F9" d="M26.2,476.6c-0.1-0.4-0.1-0.8,0-1.2c0.5,0.1,0.3,0.4,0.3,0.7C26.4,476.3,26.3,476.4,26.2,476.6z"/>
	<g>
		<path fill="#F9F9F9" d="M192,458.2c-5.2,0-10.3,0-15.5,0c-0.7,0-1,0.1-1,0.9c0,4-0.2,7.9-0.4,11.9c-0.1,1.5-0.1,1.5-1.6,1.3
			c-4.5-0.6-8.9-0.7-13.4,0.1c-5.9,1-10.9,3.4-14.4,8.3c-4.5,6.3-6.1,13.3-5,21c0.6,4.1,2.1,7.8,5.1,10.8c5.2,5.3,13.8,6.9,21.2,3.9
			c2.7-1.1,5-2.8,7-4.9c0,1.4,0,2.7,0,3.9c0,1.4-0.1,1.3,1.3,1.3c4.3,0,8.7,0,13,0c1.7,0,1.7,0,1.7-1.7c0-4.1,0.1-8.3,0.3-12.4
			c0.3-8.2,0.7-16.4,1.2-24.6c0.4-6.3,0.9-12.5,1.4-18.8C193,458.4,192.9,458.2,192,458.2z M173,497.8c-0.4,1.2-0.8,2.3-1.5,3.4
			c-2,3.1-5.2,4.5-8.5,3.7s-5.4-3.5-5.7-7.3c0-0.4,0-0.9,0-1.3c0-3,0.8-5.7,2.4-8.2c1.9-3,4.8-4.4,8.3-4.8c1.9-0.3,3.8-0.1,5.7,0.2
			c0.4,0.1,0.8,0.2,0.7,0.7C174.2,488.8,174.3,493.4,173,497.8z"/>
		<path fill="#F9F9F9" d="M125,473.7c-6.3-2.3-12.9-2.4-19.4-0.9c-4.3,1-8.1,2.8-10.9,6.3c-5.5,6.7-7.2,14.5-5.4,22.9
			c1.7,8,6.5,13,14.5,14.8c8.6,1.9,17.3,1.3,25.9-0.4c0.6-0.1,0.6-0.5,0.7-0.9c0.6-3.5,1.2-7.1,1.8-10.6c0.1-0.8,0.2-1-0.8-0.8
			c-2.5,0.8-5,1.4-7.5,1.9c-3.7,0.7-7.3,1.2-11,0.3c-4.9-1.2-7.3-4.1-7.3-8.6c0-0.9,0.3-1.1,1.1-1.1c4.7,0,9.3,0,14,0c0,0,0,0,0-0.1
			c4.7,0,9.4,0,14.1,0c0.8,0,1.1-0.2,1.2-1c0.3-2.5,0.5-4.9,0.2-7.4C135,481.1,131.5,476.1,125,473.7z M118.3,489.9
			c-1.8,0-3.6,0-5.5,0c-2,0-4.1,0-6.1,0c-0.9,0-0.9-0.3-0.8-1c0.7-4,3.2-6.5,6.7-7c4.2-0.5,7.2,2,7.2,6.3
			C120,489.9,120,489.9,118.3,489.9z"/>
	</g>
</g>
<g>
	<path fill="#FDFDFD" d="M215.9,323.5c2.7-13.5,5.2-26.9,7.9-40.4c3.4-17.1,5.9-34.2,11.4-50.9c0.8-2.3,1.8-4.4,3.3-6.5
		c1.6-2.3,3.8-2.5,6.1-0.5c3.3,2.8,5,6.4,6.7,9.9c5.6,12,10.1,24.2,14.3,36.5c0.6,1.7,1.3,3.3,3.1,4.9c1.4-5.6,2.9-11.1,4.3-16.7
		c0.9-3.5,1.8-7.1,3.7-10.5c1.8-3.2,4.9-4.9,9.3-5.5c9-1.2,18.2-0.3,27.3-0.5c5.4-0.1,10.4,0.2,15.1-3.2c5.3-3.7,14.6-2.3,18.8,1.9
		c4,3.9,3.5,11.4-1.1,14.6c-5.5,3.8-14.8,3.9-19.9-0.2c-2-1.7-4.2-2.1-6.9-2.1c-8.2,0.1-16.4,0.2-24.6,0c-4-0.1-5.5,1.2-6.4,4
		c-3.6,12.1-7.1,24.3-11.7,36.3c-1,2.7-2.2,5.4-4.3,7.7c-1.9,2.1-4.1,2.2-6.4,0.3c-3.2-2.5-4.5-5.8-5.9-8.9
		c-5-10.9-8.9-22-12.6-33.2c-0.5-1.4-0.7-3-2.8-4.6c-0.9,3.8-1.8,7.1-2.5,10.5c-6.5,30.5-12.4,61.2-20.2,91.6
		c-1.4,5.5-2.9,11-5.4,16.2c-0.7,1.5-1.3,3.6-3.8,3.5c-2.8-0.1-3.2-2.3-3.7-3.9c-3.1-9.3-4.2-18.8-5.4-28.3c-2-15.6-3.6-31.3-5.1-47
		c-1.5-15.9-2.8-31.9-4.1-47.7c-0.8-8.8-1.6-17.6-3.4-26.4c-0.9,7.1-1.9,14.1-2.8,21.2c-2,16.1-3.3,32.3-6.5,48.3
		c-0.6,3-1.5,5.9-2.8,8.8c-1.9,3.9-5.3,4.3-8.7,0.9c-5.3-5.2-8.7-11.2-12-17.2c-5.9-10.5-11.5-21.1-17.1-31.6
		c-1.2-2.2-2.8-3.1-5.9-3c-19.7,0-39.6,0-59.3,0c-2.6,0-4.6,0.6-6.4,2.2c-4.2,3.8-9.8,4.2-15.5,2.8c-5.3-1.3-8.5-4.3-9.1-8.8
		c-0.6-4.8,1.8-8.4,6.9-11c4.6-2.4,12.7-1.5,17.2,2.1c2,1.6,4,2.2,6.8,2.2c19.3,0,38.6,0.2,57.9,0.2c13.2,0,18.7,2.9,23.2,12.4
		c3.4,7.4,6.7,14.7,10,22.1c0.4,0.8,0.6,1.8,2.3,2.4c0.4-2.1,0.9-4.1,1.2-6.2c4.5-33.9,8.9-67.7,15.8-101.3c1-4.9,2.6-9.8,4.1-14.7
		c0.5-1.5,1.1-3.8,3.5-3.6c2.3,0.2,2.7,2.3,3.1,3.9c1.1,4.4,2.2,8.9,2.8,13.5c3.6,24.4,5.8,48.9,7.7,73.4c1.8,22.1,4,44.2,5.9,66.2
		c0.4,4.8,0.8,9.5,1.1,14.2C215.1,323.6,215.5,323.5,215.9,323.5z M342.3,248.9c0.1-2.7-2.3-4.6-5.9-4.8c-3.5-0.2-6.6,2-6.7,4.6
		c0,2.6,2.6,4.7,5.9,4.8C339.4,253.6,342.3,251.6,342.3,248.9z M65,246.4c0-2.7-2.6-4.6-6-4.6c-3.5,0-5.9,1.9-5.9,4.7
		c0.1,2.8,2,4.3,5.7,4.3C62.6,250.9,65,249.1,65,246.4z"/>
	<path fill="#FDFDFD" d="M367.8,184.1c-28.3-37.5-66.1-63.6-107.8-83.7c-36.3-17.5-74.5-29.5-115.7-26.6
		c-36,2.5-62.1,20.1-75.2,54.3C42,199.7,29.5,273.4,41.5,349.8c5.6,35,19.1,65.9,56.9,78.2c13,4.3,26.4,5.1,40.5,5.7
		c95.2-10.3,174.8-50.1,231.8-128.3C401,264,398.6,225.1,367.8,184.1z"/>
	<g>
		<path fill="#7D7C80" d="M179.9,384.9c-2.3,3.4-5,2.3-7.8,0.7c-6.5-3.6-13.2-7-19.6-10.7c-11.9-6.8-23.6-14-35.7-20.5
			c-4.1-2.2-5.6-4.5-5.5-9.1c0.2-21.3,0.2-42.5,0-63.8c0-3.4,0.8-5.3,3.9-7.1c8.1-4.5,15.9-9.6,23.9-14.2
			c9.8-5.7,19.7-11.3,29.6-16.8c2.9-1.6,3.8-1.1,3.8,2.1c0,18.5,0,37,0,55.5c0,7.5,0,7.5,5.7,11.7c1.8,19.2,0.4,38.5,0.7,57.7
			C178.8,375.2,178.9,380.1,179.9,384.9z"/>
		<path fill="#B5B5BA" d="M192.7,216.4c-3.1,3.8-8.1,4.3-11.9,7c-1.5,1.1-3.3,0.3-5-0.7c-6.6-3.9-28.7-14.1-30.4-18.1
			c-1.9-4.2-0.6-35.2-0.8-46c-0.1-3.9,1.4-5.6,4.8-7.5c6.1-3.5,28.4-15.8,33-19.4c0,0,2.3-1.8,4.6-2.2c1.3-0.3,3.1-0.1,3.4-0.2
			c0,0,0.1,0,0.2,0s0.1,0.1,0.1,0.2c0.1,0,0.2,0,0.2,0.1c0.2,0.2,0.3,0.5,0.3,1.3c0.1,0.7,0,1.3-0.1,1.6c-2.5,25.3-0.9,50.7-0.9,76
			C190.3,211.3,192,213.7,192.7,216.4z"/>
		<path fill="#A3A2A7" d="M187.4,219.6c-0.5-0.6-0.1-3.1-0.1-5.5c0-0.4,0-0.8,0-0.8c0-0.5,0-0.9-0.1-1.3c-0.2-6.6-0.2-69.6-0.1-76.3
			c0.1-2.4-0.1-4.7-0.1-4.7c0-0.6-0.1-1.2-0.1-1.5c0.6-0.1,1.3-0.2,2.2-0.2c0.6,0,1.1,0.1,1.5,0.1c1,0.8,2.1,1.6,3.3,2.4
			c1.1,0.7,2.2,1.5,3.4,2.2c1.6,1,3.1,1.9,4.6,2.8c8.8,4.9,16.8,11.1,26.2,14.9c2.5,1,3.6,2.8,3.5,5.7c-0.2,11.1-0.1,22.1,0,33.2
			c0,2.9-1.2,4.3-3.6,5.6c-6.5,3.5-12.6,7.8-19.2,11.1C196.8,213.2,188.7,221,187.4,219.6z"/>
		<path fill="#706F74" d="M176.3,384.8c-0.2-0.8-0.2-1.5-0.3-2.6c-0.1-2-0.1-3-0.1-3c0-2.8,0.1-4.2,0.1-6.3c0-18.6,0-37.3,0-55.9
			c0-1.6-1-3.8,1.9-4.3c17.3,8.9,33.8,19,50.5,29c2.8,1.7,5.9,2.9,8.8,4.4c4,2.2,4.2,3.7,0.1,6.2c-6.7,4-12.9,8.7-20,12
			c-9.7,4.5-28.7,15-35.4,20.5c-0.4,0.3-3.7,3.1-4.9,2.3C176.7,386.7,176.6,386.1,176.3,384.8z"/>
		<g>
			<path fill="none" d="M252.2,282.9c0.5-1,1-1.9,1.5-2.7C253,280.9,252.5,281.8,252.2,282.9z"/>
			<path fill="none" d="M272.3,277.6c0-0.1,0-0.2,0-0.2s0,0-0.1,0C272.2,277.4,272.3,277.5,272.3,277.6z"/>
			<path fill="none" d="M272.3,259.1c0-0.4,0-0.8,0-1.3c-0.1,0.3-0.3,0.6-0.5,0.9C272,258.9,272.1,259,272.3,259.1z"/>
			<path fill="#3682C2" d="M240.6,319.3c1.7-1.5,3.2-3,0.9-5.2c-1.3-1.2-0.6-2.9-0.6-4.4c0-3-0.9-6.7,0.5-8.9
				c1.6-2.5,5.6-0.8,8.6-1.1c4.4-0.4,5.5-1.5,5.6-6.3c0.1-3.1,0.1-6.1,0-9.2c-0.1-2.5,1-3.2,3.2-3.1c3.7,0.1,7.4,0,11,0
				c2.8,0,2.4-1.9,2.4-3.6c0-0.1,0-0.1-0.1-0.2c-2,1.5-4,2.4-6.6,2.1c-3-0.3-6.2-0.1-9.2-0.1c-1.1,0-1.9,0.3-2.6,0.8
				c-0.5,0.7-1,1.6-1.5,2.7c0,0.1-0.1,0.3-0.1,0.4c-0.1,0.6,0,1.2,0,1.8c-0.1,4-0.3,7.9-0.4,11.9c-4.4,1.9-9,0.5-13.5,0.9
				c-0.3,0-0.6,0-0.9,0c-8.7,0-7.4,0.6-7.4-7.3c0-10.7,1.4-11.7-11.8-11.3c-1.5,0-3.1,0-4.6-0.1c-1.5,0-2.2-0.8-2.2-2.3
				c0-2.2-0.1-4.3,0-6.5c0.2-4.2-1.8-9.6,0.9-12.4c2.7-2.9,8.1-0.9,12.4-1c5.6-0.1,5.2,0,5.4-5.7c0.1-4.2-2-9.7,1.2-12.2
				c2.5-2,7.7-0.6,11.6-0.7c9.4,0,9.4,0,9.4,9c0,0.9,0,1.9,0,2.8c0.2,6.1,0.8,6.6,6.9,6.8c4.3,0.2,8.8-1.2,12.7,1.6
				c0.9,0.7,1.5,1,1.6,0.9c0.1-0.1-0.2-0.7-1.1-1.8c0-1.4-0.1-2.6-2.4-2.6c-3.7,0-7.4-0.2-11,0.1c-3.4,0.2-4.2-2.7-3.1-3.9
				c4-4.3-1.8-7.8-0.5-11.8c0.3-0.9-1.9-3-4.1-2.9c-2.5,0.1-4.9,0.2-7.4,0c-4.1-0.3-5-2-3-5.5c0.6-1,1.2-2.1,2-2.9
				c2.4-2.4,2.4-3.7-1.2-5c-2.2-0.8-3.1-2.6-1.6-5.8c0.9-1.9,2-2.2,3.4-4.1c1.1-1.5,1.6-2.9,1.9-4c0.3,0.2,0.7,0.4,1.1,0.7
				c-2.8-2.4-6.2-1.8-9.8,0.1c-5,2.6-10.1,5.2-15,8.1c-9.9,5.8-19.5,11.9-29.5,17.6c-2.5,1.4-3.4,2.7-3.3,5.5
				c0.1,17.9,0.1,35.8,0,53.7c0,3.1,1,4.9,3.8,6.5c12.6,7,25.1,14.3,37.6,21.4c2,1.1,5.2,3,9.2,5.6c-0.2-0.3-0.4-0.7-0.5-1.2
				C236.9,322.6,236.9,322.6,240.6,319.3z"/>
			<path fill="#3682C2" d="M294.6,244.8c0-2.5-0.4-4.4-1.3-6.1c-1.5-2.5-3.8-3.6-4.6-4c-7.4-3.7-32.6-18.5-42.1-24.6
				c0.7,0.6,1.4,1.4,2,2.4c-1.2,2.4-5.5,3.3-4.8,6.2c1.1,4.7,1.2,9.4,1.2,14.1c0,1.1,1.9,1.4,3.1,1.5c7.2,0.4,10.3,5,10.6,11.5
				c0.3,5.6,2.9,7.1,8.1,7.4c3,0.2,7.8,0.2,5.6,4.6c0,0.4,0,0.8,0,1.3c0,6.1,0,12.1,0,18.2c0,0.1,0,0.2,0,0.2
				c2.1,5.3-2.4,5.6-5.6,5.8c-6.1,0.3-8.7,3.1-8.7,9.1c0,5.3-2.9,8.6-8.2,9.4c-2.6,0.4-4.5,1.4-5.5,3.1s-0.6,3.7-0.5,4.4
				c0.5,3.1,0.1,8.6-4,19.5c-0.1-0.1-0.2-0.1-0.3-0.2c0.5,0.6,1.3,0.8,2.1,0.5c2.5-1,4.9-2.3,7.2-3.7c13.5-7.8,26.9-15.8,40.7-23.3
				c3.8-2.1,5.1-4.3,5-8.5C294.3,277.4,294.3,261.1,294.6,244.8z"/>
			<path fill="#3682C2" d="M243.7,309.3c-0.1-0.7-0.5-2.6,0.5-4.4c1-1.7,2.9-2.7,5.5-3.1c5.3-0.9,8.2-4.2,8.2-9.4
				c0-6,2.6-8.8,8.7-9.1c3.2-0.2,7.7-0.5,5.6-5.8c0,1.7,0.4,3.6-2.4,3.6c-3.7,0-7.4,0.1-11,0c-2.3-0.1-3.4,0.6-3.2,3.1
				c0.2,3.1,0.1,6.1,0,9.2c-0.1,4.8-1.2,5.9-5.6,6.3c-3,0.2-6.9-1.5-8.6,1.1c-1.4,2.2-0.6,5.9-0.5,8.9c0,1.5-0.7,3.1,0.6,4.4
				c2.3,2.2,0.8,3.7-0.9,5.2c-3.8,3.3-3.8,3.3-1.6,8.2c0.1,0.5,0.3,0.9,0.5,1.2c0.1,0.1,0.2,0.1,0.3,0.2
				C243.8,318,244.3,312.4,243.7,309.3z"/>
			<path fill="#3682C2" d="M243.5,213.4c-1.4,2-2.5,2.2-3.4,4.1c-1.5,3.2-0.7,5,1.6,5.8c3.6,1.3,3.6,2.6,1.2,5
				c-0.8,0.8-1.4,1.9-2,2.9c-2,3.5-1.1,5.2,3,5.5c2.4,0.2,4.9,0.1,7.4,0c2.2-0.1,4.4,2,4.1,2.9c-1.3,4,4.4,7.5,0.5,11.8
				c-1.1,1.2-0.3,4.1,3.1,3.9c3.7-0.3,7.4-0.1,11-0.1c2.2,0,2.4,1.2,2.4,2.6c2.1-4.4-2.7-4.5-5.6-4.6c-5.1-0.3-7.8-1.8-8.1-7.4
				c-0.3-6.4-3.4-11-10.6-11.5c-1.2-0.1-3.1-0.4-3.1-1.5c0-4.8-0.1-9.4-1.2-14.1c-0.7-2.9,3.6-3.8,4.8-6.2c-0.6-1-1.3-1.8-2-2.4
				c-0.4-0.2-0.7-0.5-1.1-0.7C245.2,210.5,244.6,211.9,243.5,213.4z"/>
		</g>
	</g>
</g>
</svg>
