<?xml version="1.0" encoding="utf-8"?>
<!-- Generator: Adobe Illustrator 21.1.0, SVG Export Plug-In . SVG Version: 6.00 Build 0)  -->
<svg version="1.1" id="Layer_1" xmlns="http://www.w3.org/2000/svg" xmlns:xlink="http://www.w3.org/1999/xlink" x="0px" y="0px"
	 viewBox="-470 4834.5 206.5 206.5" enable-background="new -470 4834.5 206.5 206.5" xml:space="preserve">
<g>
	<circle fill="#77CBC7" cx="-366.7" cy="4937.7" r="103.2"/>
	<path fill="#62BAB3" d="M-366.7,4834.5L-366.7,4834.5V5041l0,0c57,0,103.2-46.2,103.2-103.2
		C-263.5,4880.7-309.7,4834.5-366.7,4834.5z"/>
</g>
<g>
	<path fill="#EAE8D8" d="M-412.9,4960.9c0.6-3.8,1.5-7.5,2.8-11.1c0.6-1.5,1.5-2.5,3-3.1c6.2-2.7,12.4-5.4,18.8-7.6
		c0.7,0.5,0.6,1.1,0.5,1.8c-0.1,0.7-0.3,1.3-0.3,2c0,0.5-0.2,0.9-0.4,1.2c-0.1,0.2-0.2,0.3-0.3,0.4c-0.6,0.4-1.1,0.8-1.4,1.5
		c0,0.2-0.1,0.3-0.1,0.5c-0.2,1.6-0.1,3.2-0.1,4.8c0,1.4-0.4,2.2-1.9,2.5c-1.3,0.3-2.6,0.7-3.4,2c-0.9,1.5-2.3,2.7-3.1,4.3
		c-2.6,4.9-4,10.2-4.9,15.7c-0.1,0.6,0.1,1.2,0.1,1.8c-0.3,1.5-0.4,3,0,4.5c0,2.9,1.3,4.8,4.2,5.8c1.2,0.4,2.4,0.6,3.5,1.2
		c0.3,0.1,0.5,0.2,0.6,0.4c1.6,1.7,2.4,1.6,3.9-0.2c0.1-0.2,0.1-0.5,0-0.7c-1.3-1.7-1.8-1.8-3.5-0.8c-0.3,0.2-0.7,0.3-1,0.3
		c-3.9,0.2-8-2.1-7.6-6.5c0-0.9,0-1.8,0-2.7c0.1-7.5,2.3-14.4,6.4-20.6c0.5-0.7,1-1.2,1.9-1.2c0.5-0.1,0.9-0.4,1.4-0.5
		c3-1.2,6.1-1.6,9.2-0.4c0.7,0.3,1.4,0.5,1.7,1.3c0,0.2,0.1,0.4,0,0.5c-1.5,1.5-0.8,3.1-0.1,4.7c2.4,5.3,5,10.6,7.9,15.7
		c0.5,1,0.8,2.1,1.6,2.9c0.4,2.5-1.1,5.2-3.4,6.1c-1,0.4-2.1,0.8-3.3,0.7c-0.6,0-1.1-0.3-1.6-0.6c-1-0.6-2.2-0.4-2.7,0.4
		c-0.5,0.8-0.4,1.7,0.3,2.3c0.8,0.7,1.9,0.5,2.7-0.4c0.4-0.4,0.5-0.9,1.1-1.1c0.5-0.3,1.1-0.5,1.8-0.7c1.9-0.5,3.7-1.3,4.7-3.2
		c0.2-0.4,0.6-0.6,1-0.7c1,0,1.5,0.7,2,1.5c2.1,3.3,4.4,6.3,6.7,9.5c0.1,0.2,0.3,0.3,0.6,0.3c0.2,0,0.4,0,0.6-0.1
		c2.7-2.8,4.9-6,7-9.3c5.1-8,9.3-16.4,13.1-25c0.2-0.5,0.4-1.1,1-1.4c1-0.2,1.4,0.7,2,1.1c3,2.3,7.1,1.1,8.1-2.4
		c0.7-2.4-0.6-4.9-3-5.9c-0.8-0.4-1.8-0.6-2-1.7c-0.1-1.3,0-2.6,0-3.9c0.2-2-0.7-3.8-0.8-5.7c0-0.6-0.4-1.6,0.9-1.5
		c6,2.2,11.9,4.6,17.7,7.2c1.4,0.6,2,1.7,2.5,3c1.2,3.1,2,6.4,2.5,9.7c0,0.2-0.3,0.4,0.1,0.6c0.4,1,0.5,2,0.6,3
		c-0.1,0.2-0.3,0.4,0.1,0.6c1.1,4.7,1.5,9.5,2.2,14.2c0.3,2,0.5,4,0.7,5.9c0.9,1.3,1.4,2.7,0.6,4.3c0.5,5,0.9,10.1,1.4,15.1
		c0.2,1.3-0.2,1.5-1.4,1.6c-10.6,0.3-21.2,0.7-31.7,1.1c-6.3,0.2-12.6,0.6-18.9,0.7c-9.5,0.2-19-0.6-28.5-0.8
		c-9.1-0.3-18.1-0.6-27.2-1"/>
	<path fill="#EDC9B2" d="M-337.7,4892.4c0.8,0.9,1.6,1.8,1.6,3c-0.2,2.1-0.3,4.1,0,6.2c-0.2,2.2-1.5,3.6-3.6,4.1
		c-0.9,0.2-1.2,0.6-1.3,1.4c-0.5,4.6-1.7,8.9-4.6,12.6c-1.2,1.6-2.9,2.5-4.2,3.9c-0.7,1.5-2.2,1.8-3.6,2.2c-6.8,2-13.6,1.9-20.3-0.1
		c-1-0.3-2-0.8-2.8-1.5c-0.3-0.2-0.5-0.4-0.6-0.8c-0.1-0.1-0.2-0.3-0.3-0.4c-4.1-2.7-6.2-6.6-7.3-11.2c-0.2-1-0.5-2-0.6-3
		c-0.2-1.7-0.1-3.1-2.5-3.4c-1.7-0.2-2.7-2-2.9-3.7c-0.2-2.5-0.4-5.1,0.4-7.5c0.1-0.4,0.2-0.8,0.4-1.2c0.5-1.1,1.6-1.3,2.5-0.4
		c0.4,0.4,0.5,1.1,1.2,1.1c0.3-0.5,0-1,0-1.6c0-0.5,0.2-0.9,0.7-1.2c0.2,0,0.4,0,0.4,0.3c0.1-0.2-0.1-0.4-0.2-0.5
		c-0.2-0.2-0.3-0.4-0.4-0.6c0.1-2,0.8-3.8,1.7-5.5c0.3-0.5,0.6-1,1.3-1.2c3.6-0.1,7.1,0,10.7-0.1c0.8-0.1,1.3,0.4,1.9,0.7
		c0.9,0.6,2,1,3.1,1.2c1.8,0.4,3.6,0.5,5.4,0c0.7-0.1,1.3-0.4,1.9-0.7c0.6-0.1,1-0.5,1.5-0.7c0.6-0.3,1.1-0.9,2-0.7
		c3.7,0.1,7.3,0,11,0.1c0.9,0.1,1.3,0.9,1.7,1.6c1.1,1.9,2,3.9,2.4,6c0.1,0.7-0.5,1.5,0.4,2.1c0.3-0.2,0.4-0.5,0.6-0.8
		C-339.2,4891.2-338.7,4891.2-337.7,4892.4z"/>
	<path fill="#424545" d="M-389.4,4878.2c0-0.2,0-0.4,0-0.5c1.8-2.7,1-5.1-0.7-7.6c-1.2-1.8-1.7-3.9-2.1-6.2
		c5.6,2.3,10.7,0.5,15.9-1.2c4.9-1.6,9.5-3.8,14.5-5.2c2.1-0.6,4.3-1,6.5-1c6.6,0.1,13.9,7.1,14.3,13.6c-0.2,0.7-0.3,1.3,0.1,1.9
		c1.1,1.9,1.9,3.9,2.2,6.1c-0.3,0.6-0.9,0.5-1.4,0.5c-3.8,0-7.6,0-11.4,0c-0.7,0-1.4-0.1-1.6-1c0-0.8,0.1-1.6-0.3-2.3
		c0-0.6-0.1-1.2,0.1-1.8c0.3-0.5,0.6-0.9,0.3-1.5c0-0.1,0-0.3-0.1-0.4c-1.5-5.7-6.6-8.8-12.5-8.1c-4.9,0.6-9.2,4.6-9.6,9.6
		c-0.4,1.1-0.2,2.2,0,3.3c0,0.2,0,0.4,0,0.6c0.3,1.2-0.2,1.7-1.4,1.7c-3.9,0-7.7,0-11.6,0C-388.6,4878.7-389.1,4878.7-389.4,4878.2z
		"/>
	<path fill="#E7BFAC" d="M-376.6,4923.6c2.3,0.9,4.6,1.9,7.2,2.3c6.8,1.1,13.4,0.6,19.7-2.3c0,1.2,0,2.3,0.1,3.5
		c0.3,0.7,0.8,1.3,0.6,2.1c-0.1,1,0.3,2,0.2,3c-0.5,1.4-0.3,3.1-1.4,4.3c-0.4,0.2-0.8,0.4-1.2,0.6c-4,1.8-7.9,3.6-12.2,4.5
		c-3.1-0.7-5.9-2.1-8.8-3.2c-1.4-0.5-2.8-1.1-4.1-1.9c-0.7-1.1-1.1-2.3-0.9-3.7c0-0.2,0.1-0.3,0.1-0.5c0.3-0.8,0.4-1.6-0.1-2.4
		c-0.4-0.8,0.1-1.4,0.5-2C-376.7,4926.6-377.4,4925-376.6,4923.6z"/>
	<path fill="#A6A8A3" d="M-349.7,4929.5c0-0.8,0-1.6,0-2.4c1.6,0.8,3.4,1.3,5,2.3c3.4,2.1,5.8,4.9,7,8.7c0.2,0.6,0.3,1.3,0.9,1.6
		c-0.6,0.4-0.2,1-0.1,1.4c0.3,1.9,0.6,3.8,0.5,5.7c-0.2,1.4-0.3,2.8,0.1,4.1c0.4,0.2,0.9,0.4,1.3,0.6c2.5,0.9,4.1,2.9,4.2,5.4
		c0.1,2.4-1.5,4.6-3.8,5.5c-2.4,0.9-5,0.2-6.7-1.9c-0.2-0.2-0.4-0.5-0.6-0.8c-0.9-0.1-1.1-0.8-1.3-1.5c0.1-1.3-0.2-2.6,0.5-3.9
		c0.7-1.3,1.5-2.3,2.8-2.9c0.8-0.4,1.3-0.9,1-1.9c0.1-3.1-0.1-6.1-0.9-9.1c0-0.5,0.1-1-0.1-1.5c-1.3-3.6-3.6-6.3-7.1-8
		C-347.8,4930.6-348.9,4930.3-349.7,4929.5z"/>
	<path fill="#424646" d="M-382.9,4883.8c-0.8,2.1-1.8,4.2-2.1,6.4c0.1,0.2,0.2,0.4-0.1,0.5c-0.3,0.4-0.3,0.9-0.3,1.4
		c0.2,1,0.3,1.9,0,2.9c-1.2,0.2-1.5-0.9-2-1.6c-1-1.6-1.1-1.6-2.3-0.1c-0.2,0.2-0.3,0.4-0.5,0.6c-0.2-1.1-0.5-2.1-0.4-3.2
		c0-2.3,0.1-4.5,0-6.8c0-0.1,0-0.2-0.1-0.3c0.2-0.4,0.6-0.5,1-0.5c1.9-0.1,3.9-0.1,5.8,0C-383.5,4883.3-383.1,4883.4-382.9,4883.8z"
		/>
	<path fill="#424646" d="M-341.7,4891.3c-0.8-2.6-1.8-5.1-3.2-7.5c0.2-0.4,0.6-0.5,0.9-0.5c1.8-0.1,3.6-0.1,5.5,0
		c0.4,0,0.7,0.1,1,0.5c0.1,2.9,0.3,5.8-0.3,8.6c-0.8-0.7-1.4-0.6-1.9,0.4c-0.2,0.4-0.1,0.9-0.6,1c-0.7,0.1-1-0.1-1-0.8
		C-341.3,4892.5-341,4891.8-341.7,4891.3z"/>
	<path fill="#A6A8A3" d="M-376.9,4928.5c-0.2,0.4-0.2,0.9,0,1.3c0.2,0.9,0.3,1.7,0,2.6l0,0c-0.1,0.1-0.3,0.1-0.4,0.1
		c-1.1-1.3-1.5-1.4-2.9-0.5c-1.5,0.9-2.8,2.2-3.9,3.6c-0.3,0.4-0.4,0.9-0.6,1.4c-0.1,0.1-0.1,0.3-0.2,0.4c-0.5,0.4-0.3,1-0.5,1.6
		c-0.5,1.3-0.7,2.6-0.9,3.9c-0.2,0.9-0.2,1.8,0.6,2.5c0.7,0.7,0.6,1.7,0.6,2.6c0,1,0.1,2.1-0.1,3.1c-0.1,0.6,0.1,1.3-0.5,1.8
		c-0.2,0.1-0.3,0.1-0.5,0.1c-0.6-0.4-0.5-1-0.4-1.6c0-1.4-0.2-2.8-0.7-4.1c-0.7-1-1.8-0.3-2.6-0.7c-0.1,0-0.3-0.1-0.4-0.2
		c-0.1-0.1-0.2-0.2-0.3-0.3c0-0.1,0-0.2-0.1-0.3c0.8-0.2,1.1-0.9,1.6-1.3c0.1,0,0.2-0.1,0.3-0.1c0.2,0.2,0.2,0.4,0.2,0.6
		c0-0.6,0.2-1.2-0.1-1.8c0.2-1.3,0.4-2.6,0.6-3.9c0.9-2.1,1.7-4.3,3.2-6.1c1.8-2.2,3.9-3.8,6.7-4.5c0.9-0.2,1.3-0.6,1.2-1.5
		c-0.1-1.3-0.1-2.7-0.1-4c0.1,0,0.2,0,0.3,0C-376.7,4924.8-376.7,4926.7-376.9,4928.5z"/>
	<path fill="#575757" d="M-389.4,4878.2c4.1,0,8.3,0,12.4,0.1c1.3,0,1.6-0.5,1.3-1.6c0.2-0.3,0.4-0.6,0.8-0.5c0.9,0.2,1,0.9,1.2,1.6
		c1.4,4.6,7.8,8.7,13.2,6.2c0.4-0.2,0.8-0.3,1.3-0.1c0.2,0.1,0.4,0.3,0.5,0.5c0.1,0.6-0.6,0.5-0.8,0.8c-0.5,0.3-1.1,0.7-1.8,0.7
		c-1.9,0.2-3.9,0.2-5.8,0c-1.7-0.2-3.1-1.2-4.5-2.1c-0.4-0.2-0.9-0.3-1.2-0.6c-1-0.7-1.9-1.5-2.4-2.7c-0.2-0.5-0.7-0.7-1.3-0.9
		c-2.8-0.8-5.7-0.4-8.6-0.5c-1.4-0.1-2.9,0.2-4.3-0.2c-0.2-0.1-0.3-0.3-0.3-0.5C-389.5,4878.3-389.4,4878.2-389.4,4878.2z"/>
	<path fill="#565857" d="M-358.8,4884.4c-0.1-0.1-0.2-0.2-0.3-0.3c-0.1-0.6,0.2-0.9,0.7-1.2c2.1-1.4,3.4-3.4,4.3-5.7
		c0.1-0.2,0.3-0.3,0.4-0.5c0.2-0.1,0.5-0.2,0.7-0.1c0.2,0.1,0.3,0.2,0.4,0.3c-0.1,1.2,0.7,1.3,1.6,1.3c4.1,0,8.3,0,12.4,0
		c0.1,0.1,0.2,0.1,0.2,0.2c0,0.2-0.1,0.4-0.3,0.5c-2.7,0.4-5.5,0.1-8.2,0.2c-1.7,0-3.4,0.2-5.1,0.6c-0.4,0.2-0.9,0.4-1.1,0.9
		c-0.6,1.1-1.4,2-2.4,2.7c-0.3,0.2-0.7,0.3-1,0.4c-0.5,0.3-1,0.5-1.5,0.8C-358.3,4884.6-358.6,4884.6-358.8,4884.4z"/>
	<path fill="#77C3ED" d="M-372.4,4882.8c0.3,0.3,0.6,0.5,0.9,0.8c-3.8,0.1-7.6,0.1-11.4,0.2c-2.6,0-5.1,0-7.7,0
		c-0.4-0.2-1,0.2-1.3-0.4c0.1-0.1,0.3-0.3,0.5-0.4c2.9-0.1,5.8-0.2,8.6-0.7c2.5-0.1,5,0,7.5,0
		C-374.3,4882.3-373.3,4882.5-372.4,4882.8z"/>
	<path fill="#78C4EF" d="M-356.6,4883.6c0.2-0.2,0.4-0.4,0.7-0.5c1-0.6,2.1-0.8,3.2-0.8c2.6,0,5.1,0,7.7,0c2.8,0.4,5.6,0.6,8.4,0.7
		c0.2,0.1,0.3,0.2,0.5,0.4c-0.3,0.5-0.9,0.2-1.4,0.4c-2.5-0.1-4.9-0.1-7.4,0C-348.8,4883.7-352.7,4883.7-356.6,4883.6z"/>
	<path fill="#47403C" d="M-390.6,4884.1c0.5,2.3,0.5,4.5,0,6.8C-390.9,4888.6-390.9,4886.4-390.6,4884.1z"/>
	<path fill="#8FCEF7" d="M-391.6,4883.4c-0.1,0-0.2,0-0.3,0c0-0.8-0.1-1.6-0.1-2.4c0-2.5,0-2.5,2.4-2.6c0,0,0,0.1,0,0.1
		c0.1,0.1,0.1,0.3,0.1,0.5c-0.9,0.7-1.5,1.6-1.3,2.9c0,0.4-0.2,0.8-0.4,1.2C-391.3,4883.2-391.4,4883.3-391.6,4883.4z"/>
	<path fill="#8FCEF7" d="M-336.1,4883.4c-0.1,0-0.2,0-0.3,0c-0.1-0.1-0.2-0.2-0.3-0.3c-0.2-0.4-0.4-0.8-0.4-1.2
		c0.1-1.2-0.4-2.1-1.3-2.9c-0.1-0.2,0-0.3,0.1-0.5c0,0,0-0.1,0-0.1c0.5,0,1,0.1,1.4,0.1c0.7,0,1,0.3,0.9,1
		C-336.1,4880.7-336.1,4882.1-336.1,4883.4z"/>
	<path fill="#006991" d="M-391.1,4901.6c0-1.8,0-3.7,0-5.5c0.1,0,0.1,0,0.2,0c0,1.9,0,3.7,0,5.6
		C-391,4901.6-391.1,4901.6-391.1,4901.6z"/>
	<path fill="#FED4B6" d="M-336.1,4901.6c-0.5-2-0.5-4.1,0-6.2C-335.9,4897.5-335.9,4899.5-336.1,4901.6z"/>
	<path fill="#493F3A" d="M-340.9,4872.1c-0.6-0.6-0.5-1.3-0.1-1.9C-340.9,4870.8-340.9,4871.4-340.9,4872.1z"/>
	<path fill="#F9F0DD" d="M-313.4,4963.8c-0.1,0.2-0.1,0.4-0.2,0.5c-0.3-0.4-0.1-0.8,0.1-1.1
		C-313.4,4963.4-313.4,4963.6-313.4,4963.8z"/>
	<path fill="#FAF1DE" d="M-314,4960.2c-0.1,0.2-0.1,0.4-0.2,0.5c-0.3-0.4-0.1-0.8,0.1-1.1C-314.1,4959.8-314,4960-314,4960.2z"/>
	<path fill="#FEF8E7" d="M-339,4940.2c1,3.2,1.1,6.4,1,9.7c-0.4,0.8-1,1.2-1.8,1.5c-1.7,0.5-3.4,1.1-5,1.7c-1.3,0.5-1.4,0.7-0.4,1.7
		c1.1,1.1,2.1,2.1,2.7,3.6c0.2,0.5,0.4,1.1,0.6,1.6c-0.5,2.4-1.6,4.4-2.7,6.6c-3.3,6.9-6.7,13.8-10.9,20.2c-2.1,3.2-4.2,6.3-6.8,9
		c-0.2,0.2-0.3,0.6-0.8,0.4c-0.3-0.2-0.4-0.5-0.5-0.8c-0.3-0.8,0.2-1.6,0.1-2.4c0.3-0.7,0.7-1.3,0.5-2.1c0.6-2.3,1-4.6,1.5-6.9
		c0.3-0.6,0.6-1.2,0.4-1.9c0-0.4,0.1-0.8,0.3-1.1c0.1-0.1,0.2-0.3,0.3-0.4c0.6-0.5,0.5-1.2,0.5-1.9c0.8-7.9,3.1-15.5,4.5-23.2
		c0.1-0.7,0.4-1.4,0.4-2.1c1.1-5.1,2.1-10.2,3.3-15.3c0.4-0.6,0.6-1.3,1.1-1.9c0.4-1.3,0.8-2.5,1.1-3.8c0.7-0.6,1.3-0.2,2,0
		c1.8,0.7,3.5,1.6,5.2,2.6c0.8,0.5,1.2,1.3,1.7,2.1c0.3,0.5,0.5,1.1,0.9,1.5C-339.4,4939.1-339.5,4939.8-339,4940.2z"/>
	<path fill="#FEF8E7" d="M-385.4,4936.9c0.1-0.1,0.1-0.1,0.1-0.2c0.1-0.6,0.6-0.9,0.9-1.4c1.7-1.5,3.8-2.2,5.8-3.2
		c0.5-0.2,0.9-0.1,1.3,0.2c0.1,0,0.2,0.1,0.3,0.1c0.3,1.3,0.5,2.6,0.8,3.8c0.8,0.6,1.1,1.5,1.3,2.5c0.9,4.4,1.9,8.7,2.7,13.1
		c1.7,7.9,3.7,15.7,4.9,23.8c0.2,1.3,0.5,2.5,1.1,3.7c0.5,3.1,1.2,6.1,1.9,9.1c-0.1,0.7,0,1.4,0.4,2c0.4,1.7,0.4,3.4,0.6,5.1
		c0,0.3-0.1,0.5-0.3,0.7c-0.8,0.3-1-0.5-1.3-0.9c-3-3.3-5.2-7.2-7.8-10.8c-1.2-1,0-2.1-0.1-3.1c0.2-1.2,0.2-2.4-0.1-3.6
		c-0.8-5.8-2.2-11.5-4.7-16.8c-0.9-1.8-2.3-3.1-3.4-4.7c-0.3-0.5-0.3-1.1-0.2-1.7c0.5-0.9,0.5-1.4-0.7-1.7c-0.9-0.2-1.7-0.6-2.6-0.9
		c-0.6-0.2-1.2-0.5-1.4-1.2c0-1,0-2.1-0.1-3.1c0-0.9,0.4-2-1.2-2.2c-0.4,0-0.4-0.5-0.3-0.8c0.3-2.2,0.4-4.5,1.5-6.6
		C-386,4937.7-385.7,4937.3-385.4,4936.9z"/>
	<path fill="#FEF8E7" d="M-374.1,4981.3c-0.3,0.1-0.5,0-0.7-0.3c-3.6-6.6-7-13.3-10-20.2c-0.6-1.4,0.3-2.3,1.6-2.9
		c0.3-0.6,0.7-1.1,1.5-0.9c1.3,0.6,2.2,1.6,2.9,2.8c3.1,5.3,4.9,11,5.3,17.1C-373.4,4978.4-373,4980-374.1,4981.3z"/>
	<path fill="#6B7071" d="M-381.8,4957.4c-0.5,0.1-0.7,0.9-1.4,0.7c-3.5-2.3-7-2.2-10.7-0.4c-0.4-0.1-0.7,0-1.1-0.1
		c-1.1-0.1-1.3-0.9-1.4-1.8c-0.3-0.5,0.1-0.8,0.5-1c1.1-0.7,2.3-1.3,3.6-1.5c1.3-0.1,1.4-0.7,1.4-1.8c-0.1-1.8,0-3.6,0-5.3
		c0.1,0,0.2,0,0.3,0.1c0.3,2,0,4,0.2,5.8c0.1-1.8-0.2-3.8,0.1-5.9c1.2-0.2,2.4-0.2,3.6,0c0.3,1.7,0,3.4,0.2,5c0,0.6-0.2,1.2,0.2,1.7
		c0.1,0,0.2,0,0.3,0c2.1-0.7,4.4,0.1,5.2,1.9c0.5,0.4,0.1,0.9,0,1.3C-380.8,4956.8-381,4957.3-381.8,4957.4z"/>
	<path fill="#A6A8A3" d="M-396.3,4955.7c0.6,0.5,0.7,1.3,1.4,1.7c0.1,0.1,0.2,0.1,0.1,0.2c0,0.1-0.1,0.1-0.1,0.1
		c-0.9-0.1-1.3,0.6-1.7,1.2c-3,4.3-4.6,9.1-5.6,14.1c-0.4,2-0.7,4-0.7,6.1c0.2,0.9,0.2,1.7,0,2.6c0.1,3.1,1.1,4.6,4,5.5
		c1,0.3,2,0.7,3.1,0.7c0.7,0.8,0.4,1.3-0.3,1.9c-1.1-0.3-2.2-0.6-3.3-0.9c-3.1-0.9-4.8-3.1-5.2-6.2c0.2-1.7,0.2-3.4,0-5.2
		c0.9-7.8,2.5-15.3,8-21.3C-396.4,4956-396.4,4955.8-396.3,4955.7z"/>
	<path fill="#A6A8A3" d="M-381.8,4957.4c0.2-0.5,0.5-1,1-1.3c1.1,0.6,1.9,1.6,2.6,2.6c3.5,5.9,5.3,12.3,5.9,19.1
		c-0.2,1.2,0,2.4,0,3.6c0.1,1.1-0.3,2.1-0.4,3.2c-1.4,3.3-4.3,4.3-7.5,4.9c-0.6-0.4-0.9-0.9-0.3-1.5c0.6-0.1,1.1-0.3,1.7-0.4
		c3.3-0.9,4.7-2.7,4.8-6.1c0.1-7.5-1.7-14.5-5.3-21C-380,4959.2-381,4958.3-381.8,4957.4z"/>
	<path fill="#6B7071" d="M-380.6,4987.9c0.1,0.5,0.2,1,0.3,1.5c-0.3,0.5-0.4,1.2-1,1.6c-1.1,0.9-2.6,0.9-3.7,0
		c-1-0.9-1.1-2.4-0.2-3.5c0.9-1.1,2.5-1.3,3.6-0.5C-381.2,4987.3-380.9,4987.6-380.6,4987.9z"/>
	<path fill="#6C7071" d="M-396.1,4989.7c-0.1-0.7,0.1-1.3,0.3-1.9c1.9-2.1,3.6-1.8,5.1,0.7c0.3,0.4,0.3,0.8,0,1.1
		c-0.6,1.1-1.4,2.1-2.8,2C-394.8,4991.7-395.5,4990.9-396.1,4989.7z"/>
	<path fill="#FDF9E9" d="M-336.1,4946.1c0.6,0.9,0.9,1.4,1.2,2c0.2,0.5-0.1,0.7-0.5,0.8c-0.5,0.2-0.7,0-0.8-0.5
		C-336.1,4947.8-336.1,4947.2-336.1,4946.1z"/>
	<path fill="#A0A19E" d="M-404.5,4977.5c0.5,1.7,0.5,3.4,0,5.2C-404.7,4980.9-404.6,4979.2-404.5,4977.5z"/>
	<path fill="#9D9E9C" d="M-336.4,4951.2c-0.7-1.4-0.4-2.8-0.1-4.1C-336.4,4948.4-336.4,4949.8-336.4,4951.2z"/>
	<path fill="#FCF9E9" d="M-391.4,4947.2c0.1,0.6,0.4,1.2-0.1,1.7c0,0-0.2,0-0.3-0.1C-392.3,4948.1-391.6,4947.7-391.4,4947.2z"/>
	<path fill="#FBF9EC" d="M-389.3,4944.4c-0.2,0.9-0.5,1.6-1.6,1.3C-390.3,4945.4-390.1,4944.4-389.3,4944.4z"/>
	<path fill="#F2EEDE" d="M-402.9,4981.7c0-0.9,0-1.7,0-2.6C-402.4,4980-402.4,4980.8-402.9,4981.7z"/>
	<path fill="#9FA19D" d="M-388.9,4943.1c0.3,0.4,0.3,1,0.3,1.5c0,0.3-0.1,0.4-0.3,0c0-0.1,0-0.2-0.1-0.3
		C-389,4943.9-389,4943.5-388.9,4943.1z"/>
	<path fill="#F9F5E4" d="M-390.6,4989.7c0-0.4,0-0.8,0-1.1C-390,4988.9-390,4989.3-390.6,4989.7z"/>
	<path fill="#65696C" d="M-394.8,4957.7c0-0.1,0-0.2,0-0.3c0.4,0,0.7,0,1,0.3C-394.1,4958-394.5,4958.2-394.8,4957.7z"/>
	<path fill="#7B888E" d="M-363.6,4996.2c0-0.2,0-0.4,0-0.6c0.1-0.2,0.3-0.4,0.6-0.3c0,0.3,0,0.6,0,0.9
		C-363.2,4996.2-363.4,4996.2-363.6,4996.2z"/>
	<path fill="#DCAEA5" d="M-363.3,4895.9c0.7,3.1,1.5,6.3,2.2,9.4c0.8,3.7,0.8,3.8-3,3.7c-0.5,0-1,0-1.5,0c-0.6,0-0.9-0.3-0.8-0.9
		c0.9-4.1,1.8-8.1,2.7-12.2C-363.6,4895.9-363.4,4895.9-363.3,4895.9z"/>
	<path fill="#D5877E" d="M-374.9,4913.2c7.7,0,15.1,0,22.6,0c-0.4,1.2-1.4,3.1-3.2,4.7c-3.9,3.4-10.2,4.1-14.8,1.2
		C-373,4917.2-374.3,4914.6-374.9,4913.2z"/>
	<path fill="#ECC2B2" d="M-375.9,4900.6c1.7,0.2,3.5,0.1,4.5,2c0.5,0.9,0.5,1.5-0.2,2.3c-1.7,2.1-5.4,2.5-7.3,0.6
		c-0.6-0.6-1-1.5-0.6-2.5C-379.1,4901.9-377.1,4900.6-375.9,4900.6z"/>
	<path fill="#ECC2B2" d="M-351.6,4900.6c1.1,0.3,2.4,0,3.5,1c1.4,1.2,1.4,2.2,0.2,3.5c-1.3,1.5-4.9,2.3-6.7,0.6
		c-1.2-1.1-1.4-2.1-0.6-3.4C-354.6,4901.6-352.7,4900.6-351.6,4900.6z"/>
	<path fill="#4E4E4C" d="M-349.7,4895.2c-0.1,0.8-0.5,1.5-1.4,1.5c-1,0-1.5-0.6-1.5-1.5c0-0.9,0.6-1.4,1.5-1.4
		C-350.2,4893.8-349.8,4894.3-349.7,4895.2z"/>
	<path fill="#484A49" d="M-375.2,4893.7c0.8,0.1,1.4,0.5,1.5,1.4c0,0.9-0.5,1.4-1.3,1.5c-1,0.1-1.5-0.5-1.5-1.5
		C-376.6,4894.3-376,4893.9-375.2,4893.7z"/>
	<path fill="#EFD0B8" d="M-356.5,4913.8c-4.7,0-9.3,0-14,0c0,0,0-0.1,0-0.1c4.7,0,9.3,0,14,0
		C-356.5,4913.7-356.5,4913.8-356.5,4913.8z"/>
	<path fill="#383D3F" d="M-341.7,4891.3c0.9,0,0.7,0.7,0.7,1.1c0,0.6,0.1,1.1,0.7,1.4c-0.3,0.4-0.6,0.9-1.1,0.7
		c-0.5-0.2-0.1-0.7-0.2-1.1C-341.6,4892.8-341.6,4892-341.7,4891.3z"/>
	<path fill="#595A59" d="M-367,4885.7c1.9,0,3.9,0,5.8,0C-363.2,4886.4-365.1,4886.3-367,4885.7z"/>
	<path fill="#FECBB0" d="M-376.9,4928.5c0-1.8,0-3.7,0-5.5c0.1,0.2,0.2,0.4,0.3,0.6C-376.8,4925.3-376.3,4926.9-376.9,4928.5z"/>
	<path fill="#FED9BF" d="M-385.4,4895.1c-0.2-1-0.2-1.9,0-2.9C-384.9,4893.2-384.9,4894.1-385.4,4895.1z"/>
	<path fill="#FAD4BB" d="M-385.1,4890.8c0-0.2,0.1-0.4,0.1-0.5c0.1,0.2,0.2,0.4,0.2,0.6c0,0.2-0.1,0.4-0.1,0.5
		C-385,4891.2-385,4891-385.1,4890.8z"/>
	<path fill="#595A59" d="M-358.8,4884.4c0.3,0,0.5,0,0.8,0c-0.4,0.4-0.8,0.6-1.4,0.7C-359.2,4884.9-359,4884.6-358.8,4884.4z"/>
	<path fill="#585A5A" d="M-374.9,4876.3c-0.2,0.1-0.5,0.2-0.7,0.3c0-0.1,0-0.2,0-0.3c-0.1-1.1,0.1-2.2,0-3.3c0.2-4.7,4.8-9.3,9.7-10
		c6.2-0.8,11.6,2.7,13.3,8.7c-0.2,0.3-0.3,0.6-0.7,0.5c-0.9-0.2-1-1-1.3-1.7c-1.2-2.8-3.4-4.5-6.2-5.5c-0.7-0.2-1.4-0.3-2.1-0.2
		c-0.8-0.1-1.6-0.1-2.4,0c-4.5,0.1-8.5,4.2-8.9,9.2C-374.3,4874.9-374.1,4875.7-374.9,4876.3z"/>
	<path fill="#595A5A" d="M-353.3,4872.1c0.2-0.1,0.5-0.2,0.7-0.3c0,0.1,0,0.2,0,0.3c0.1,0.5,0,1-0.3,1.4c0,0.7,0,1.3,0,2
		c0.3,0.5,0.3,1-0.1,1.4c-0.2,0-0.4,0-0.5,0c-0.8-0.3-0.7-1.1-0.7-1.7c0-0.6,0-1.1,0.1-1.7C-354,4873-353.9,4872.4-353.3,4872.1z"/>
	<path fill="#575757" d="M-375.7,4873c0.6,1.1,0.3,2.2,0,3.3C-376.1,4875.2-376.1,4874.1-375.7,4873z"/>
	<path fill="#585A5A" d="M-352.9,4873.5c-0.1-0.5,0-1,0.3-1.4C-352.1,4873.2-352.2,4873.4-352.9,4873.5z"/>
	<path fill="#585A5A" d="M-353,4876.9c0-0.5,0-0.9,0.1-1.4c1.1,0.3,0.5,0.9,0.3,1.4C-352.7,4876.9-352.8,4876.9-353,4876.9z"/>
	<path fill="#80C4EC" d="M-372.8,4951.9c-1.4-5.2-2.3-10.4-3.4-15.6c4.3,1.4,8.4,3.1,12.6,4.9c0.1,0.1,0.2,0.3,0.2,0.4
		c0.1,1.2-0.9,1.9-1.6,2.7c-0.8,1-1.5,1.9-2.4,2.8c-1.2,1.4-2.4,2.9-3.6,4.3C-371.4,4952-371.9,4952.4-372.8,4951.9z"/>
	<path fill="#80C4EC" d="M-363.7,4941.4c0-0.1,0-0.2,0-0.3c3.4-1.3,6.9-2.6,10.3-3.9c0.6-0.2,1.1-0.4,1.7-0.6
		c0.9,0.3,0.5,1.1,0.6,1.6c-1.1,5.1-2.1,10.2-3.2,15.3c-1.5-2-3.1-3.9-4.7-5.9c-0.2-0.2-0.3-0.4-0.5-0.6c-1.1-0.9-1.7-2.2-2.7-3.2
		c-0.2-0.5-0.6-0.9-1-1.3C-363.5,4942.2-363.4,4941.7-363.7,4941.4z"/>
	<path fill="#027294" d="M-339.7,4938.9c-0.7,0-1-0.6-1.3-1.1c-0.7-1.7-2.1-2.6-3.8-3.3c-1.6-0.7-3.2-1.5-4.8-2.2
		c-0.1-1-0.1-1.9-0.2-2.8c0.2-0.2,0.4-0.3,0.7-0.2c4.7,1.7,8.1,4.6,9.6,9.5C-339.4,4939-339.5,4939-339.7,4938.9z"/>
	<path fill="#7BC4ED" d="M-351,4938.2c-0.2-0.5-0.4-1.1-0.6-1.6c0.3-0.2,0.7-0.3,1-0.5C-350.6,4936.9-350.8,4937.6-351,4938.2z"/>
	<path fill="#FDC9AF" d="M-377,4932.4c0-0.9,0-1.7,0-2.6C-376.5,4930.7-376.5,4931.5-377,4932.4z"/>
	<path fill="#EAE8D8" d="M-342.6,4958.3c-1.6-1.2-2.9-2.8-4.3-4.1c-0.7-0.7-0.6-1.1,0.4-1.5c2.8-0.9,5.6-1.9,8.4-2.8
		c0.2,1.1-0.1,1.7-1.2,2.2C-341.9,4953.3-342.7,4955.6-342.6,4958.3z"/>
	<path fill="#6B7071" d="M-334.7,4957c0,1.3-0.9,2.3-2.1,2.2c-1.2-0.1-1.9-0.8-1.9-2c0-1.2,1-2.1,2.1-2
		C-335.5,4955.3-334.8,4956-334.7,4957z"/>
	<path fill="#A0A19E" d="M-337.7,4950.9c0-0.4,0-0.8,0-1.2c0-1.3,0-2.7,0-4c0.1,0,0.1,0,0.2,0c0,1.7,0,3.5,0,5.2
		C-337.6,4950.9-337.6,4950.9-337.7,4950.9z"/>
	<path fill="#E8E6D7" d="M-339.7,4938.9c0.1,0,0.2,0,0.3-0.1c0.1,0.5,0.2,0.9,0.3,1.4C-339.7,4940-339.9,4939.5-339.7,4938.9z"/>
	<path fill="#037294" d="M-377.3,4932.3c-2.4,1.1-4.7,2.2-7.1,3.3c-0.3,0.1-0.5,0-0.4-0.4c1.2-2.2,3-3.7,5.3-4.6
		C-377.2,4929.7-377.1,4929.8-377.3,4932.3z"/>
	<path fill="#EAE8D8" d="M-380.8,4954.7c-1.6-0.9-3.4-1.5-5.2-1.9c0-0.7,0.1-1.3,0.1-2c1.6,0.5,3.2,1,4.7,1.6
		c0.6,0.2,1.5,0.2,1.6,0.8C-379.4,4954-380.4,4954.2-380.8,4954.7z"/>
	<path fill="#5D6365" d="M-386.3,4952.8c-0.7-0.9-0.3-2-0.3-3c-0.1-1.2,0-2.5,0-3.7c0.8,1.6,0.2,3.2,0.3,4.8
		C-386.3,4951.5-386.3,4952.2-386.3,4952.8z"/>
	<path fill="#636769" d="M-390.3,4946.1c0,2.1,0,4.3,0,6.4c-0.1,0-0.2,0-0.3,0c0-2.1,0-4.2,0-6.4
		C-390.5,4946.1-390.4,4946.1-390.3,4946.1z"/>
	<path fill="#699BA7" d="M-385.4,4936.9c0.1,0.6-0.3,1-0.7,1.3C-386.4,4937.5-386,4937.1-385.4,4936.9z"/>
	<path fill="#18819B" d="M-384.8,4935.3c0.1,0.1,0.3,0.2,0.4,0.4c-0.3,0.4-0.5,0.9-1,1C-385.8,4935.9-384.9,4935.8-384.8,4935.3z"/>
	<path fill="#CFD0D0" d="M-353.3,4872.1c0,0.5,0,1.1,0.1,1.6c-0.3,0.5-0.3,1.1,0,1.6c0.2,0.6-0.5,1-0.2,1.6
		c-0.7,3.3-2.7,5.6-5.6,7.2c-2.2,1.2-4.7,1.7-7,1.1c-3.9-1-7-3.3-8.3-7.4c-0.2-0.5-0.3-1-0.5-1.5c-0.2-6.6,2.9-10.9,8.6-12.2
		c0.3-0.1,0.5,0,0.8-0.1c1,0.2,1.9,0.2,2.9,0c4.2,0.5,7.1,2.8,8.8,6.6C-353.7,4871.1-353.5,4871.6-353.3,4872.1z"/>
	<path fill="#81EAAE" d="M-391.5,4883.1c0-0.7,0.1-1.5,0-2.2c-0.2-1.5,0.4-2.2,2-2c2.3-0.3,4.7-0.1,7-0.2c2.4-0.1,4.8,0.2,7.2-0.1
		c0.9,1.4,1.7,3,2.9,4.2c-2,0.6-4,0.2-6,0.3c-1.4,0.1-2.9,0-4.3,0C-385.7,4883.4-388.6,4883.4-391.5,4883.1z"/>
	<path fill="#85CFFA" d="M-375.3,4878.6c-0.2,0.4-0.5,0.3-0.8,0.3c-4.5,0-9,0-13.4,0c0-0.1,0-0.2,0-0.3
		C-384.8,4878.5-380.1,4878.3-375.3,4878.6z"/>
	<path fill="#81EAAE" d="M-338.4,4878.9c1.6-0.2,2.1,0.5,2,2c-0.1,0.7,0,1.5,0,2.2c-2.8,0.3-5.6,0.3-8.4,0c-3.7,0-7.4,0-11.1,0
		c1.2-1.3,2.1-2.7,3-4.2C-348.1,4878.7-343.2,4878.6-338.4,4878.9z"/>
	<path fill="#84CFFA" d="M-338.4,4878.9c-4.1,0-8.3,0-12.4,0c-0.7,0-1.5,0.5-2.2,0c0.2-0.4,0.6-0.4,1-0.4c4.5,0,9.1,0,13.6,0.1
		C-338.4,4878.6-338.4,4878.8-338.4,4878.9z"/>
	<path fill="#81CAF3" d="M-391.5,4883.1c2.9,0,5.8,0,8.7,0c-1.8,0.7-3.6,0.2-5.4,0.3c-1.1,0.1-2.2,0-3.4,0
		C-391.5,4883.3-391.5,4883.2-391.5,4883.1z"/>
	<path fill="#81C9F2" d="M-344.9,4883.1c2.8,0,5.6,0,8.4,0c0,0.1,0,0.2,0,0.3c-2.2,0-4.5,0-6.7,0
		C-343.7,4883.4-344.3,4883.5-344.9,4883.1z"/>
	<path fill="#3A3D3F" d="M-363.7,4941.4c0.6-0.1,0.8,0.3,0.9,0.7c0,0.7,0.6,0.9,1,1.3c1.1,0.9,1.9,2,2.7,3.3c0.2,0.7,0,1.3-0.4,1.9
		c-0.7,0.8-1.4,1.6-1.8,2.6c-0.5,1.6-0.3,3.2-0.2,4.8c0.3,3,0.4,6.1,0.5,9.2c0.2,4.2,0.7,8.4,0.7,12.5c0,0.6,0.2,1.2,0.4,1.7
		c0,0.6,0.1,1.2-0.3,1.7c-0.1,0.3-0.3,0.6-0.4,0.9c-0.3,0.6-0.3,1.3-0.3,1.9c-0.4,2.4-0.8,4.8-1.6,7.2c-0.6,0.5-0.2,1.4-0.7,2
		c0,0.7,0,1.4-0.1,2.1c-0.2,0.1-0.4,0.2-0.6,0.3c-0.3-1.7-0.7-3.4-1-5.1c0-0.7,0.1-1.4-0.4-1.9c-0.8-2.9-1.4-5.9-1.9-8.9
		c-0.1-0.3-0.2-0.5-0.1-0.8c0.2-1.5-0.4-3-0.4-4.5c0.8-2.6,0.5-5.2,0.7-7.8c0.3-4.7,0.7-9.3,0.8-14c0-1.3-0.2-2.5-1.1-3.6
		c-0.5-0.6-1.1-1.3-0.5-2.2c-0.1-1,0.8-1.2,1.2-1.8C-365.6,4943.6-364.6,4942.5-363.7,4941.4z"/>
	<path fill="#65AFE0" d="M-361.7,4950.9c0.2-1.8,2-2.7,2.7-4.2c1.7,1.4,2.9,3.4,4.4,5c0.5,0.5,0.3,1.2,0.4,1.8
		c-1.1,5.2-2.1,10.5-3.4,15.7c-0.8,3.2-1.2,6.5-1.9,9.8c-0.1,0.2-0.2,0.3-0.4,0.2c-0.4-0.3-0.4-0.7-0.5-1.2
		c-0.1-1.2,0.1-2.3-0.1-3.5c0-0.5-0.1-0.9-0.2-1.3c-0.1-1.4,0.1-2.8-0.1-4.1c0-0.5-0.2-0.9-0.2-1.4c-0.1-1.4,0.1-2.8-0.1-4.2
		c-0.1-0.6-0.2-1.1-0.2-1.7c-0.1-1.4,0.2-2.9-0.2-4.3C-361.8,4955.3-361.8,4953.1-361.7,4950.9z"/>
	<path fill="#2A3034" d="M-360.8,4983.9c-0.5-0.7-0.4-1.4,0.3-1.9C-360.4,4982.7-360.5,4983.3-360.8,4983.9z"/>
	<path fill="#2B3135" d="M-363,4993.1c0-0.8-0.2-1.6,0.7-2C-362.4,4991.8-362.2,4992.6-363,4993.1z"/>
	<path fill="#89969C" d="M-360,4978.2c0.1,0.4,0.2,0.8,0.3,1.1c0.1,0.6,0.3,1.1-0.1,1.6c-0.1,0-0.2,0.1-0.3,0.1c0-0.6,0-1.1,0-1.7
		c-0.2-0.2-0.3-0.4-0.3-0.7C-360.4,4978.5-360.3,4978.3-360,4978.2z"/>
	<path fill="#FCFEF9" d="M-359.8,4981c0-0.5,0.1-1.1,0.1-1.6c0.1-0.1,0.2-0.3,0.2-0.4C-359.6,4979.6-359,4980.4-359.8,4981z"/>
	<path fill="#65AFE0" d="M-366.9,4978.9c0,0.2,0,0.4,0,0.7c-1.2-4.1-1.9-8.4-2.8-12.6c-1.1-5-2.3-10-3.1-15.1c1.9-0.8,2.5-2.9,4-4.2
		c0.4-0.3,0.6-0.9,1.2-1c0.1,0.3,0.2,0.7,0.4,0.8c2,1.7,2.1,3.8,1.9,6.2c-0.6,6.8-0.9,13.7-1.3,20.5
		C-367,4975.8-366.5,4977.4-366.9,4978.9z"/>
	<path fill="#9D9E9C" d="M-372.4,4981.4c-0.5-1.2-0.5-2.4,0-3.6C-372.2,4979-372.1,4980.2-372.4,4981.4z"/>
	<path fill="#2B2F34" d="M-365,4988.5c0.8,0.5,0.9,1.2,0.4,1.9C-364.9,4989.8-365,4989.2-365,4988.5z"/>
	<path fill="#A0A19E" d="M-373.6,4981.4c0-1,0-1.9,0-2.9c0,0,0.1,0,0.1,0c0,1,0,1.9,0,2.9C-373.5,4981.4-373.6,4981.4-373.6,4981.4z
		"/>
	<path fill="#EBBCB1" d="M-375.5,4905.5c-1.1,0-2.3,0.1-2.4-1.5c-0.1-1.3,1.1-2.1,2.9-2.1c1.2,0,2.3,0.2,2.5,1.7
		C-372.4,4904.8-373.5,4905.5-375.5,4905.5z"/>
	<path fill="#EBBDB1" d="M-351.5,4901.9c1.4,0.1,2.8-0.3,3,1.4c0.1,1.2-0.9,2-2.8,2.1c-0.7,0-1.4,0.5-2,0c-0.7-0.5-1.1-1.2-0.8-2.1
		c0.3-0.8,0.7-1.6,1.7-1.6C-352,4901.8-351.6,4901.9-351.5,4901.9z"/>
	<path fill="#D8D9D9" d="M-362.7,4864c-1,0.4-1.9,0.4-2.9,0C-364.6,4863.8-363.7,4863.8-362.7,4864z"/>
	<path fill="#DDDEDE" d="M-353.3,4875.3c-0.4-0.5-0.4-1.1,0-1.6C-353.1,4874.2-353.1,4874.8-353.3,4875.3z"/>
	<path fill="#383C3F" d="M-361.7,4943.4c-0.9,0-1.2-0.4-1-1.3C-362.4,4942.5-362,4943-361.7,4943.4z"/>
	<path fill="#6B7071" d="M-366.3,4873.7c0.3-0.6,0.7-1.1,1.3-1.2c0.5,0.1,1.1,0.2,1.6,0c0.6,0.1,1,0.4,1.3,1c0,0.7,0,1.5,0,2.2
		c-0.2,0.7-0.9,0.9-1.3,1.3c-0.5,0.3-1,0.3-1.5,0c-0.6-0.4-1.2-0.8-1.4-1.5C-366.6,4874.8-366.7,4874.2-366.3,4873.7z"/>
	<path fill="#636768" d="M-362.1,4875.6c-0.4-0.7-0.4-1.5,0-2.2C-361.6,4874.1-361.6,4874.9-362.1,4875.6z"/>
	<path fill="#D7D7D7" d="M-364.9,4876.9c0.5,0,1,0,1.5,0C-363.9,4877.5-364.4,4877.4-364.9,4876.9z"/>
	<path fill="#D8D8D8" d="M-366.6,4875.3c-0.5-0.5-0.6-1,0-1.6C-366.3,4874.3-366.3,4874.8-366.6,4875.3z"/>
	<path fill="#616767" d="M-363.3,4872.4c-0.5,0.4-1.1,0.4-1.6,0C-364.4,4872.2-363.9,4872.2-363.3,4872.4z"/>
	<path fill="#A0A3A3" d="M-366.6,4875.3c0-0.5,0-1,0-1.6c0.1,0,0.2,0,0.3-0.1c0,0.6,0,1.1,0,1.7
		C-366.4,4875.3-366.5,4875.3-366.6,4875.3z"/>
	<path fill="#393C3E" d="M-360.1,4978.7c0,0.2,0,0.4,0,0.7c-0.6-0.2-0.6-0.7-0.6-1.2c-0.2-4.5-0.4-9-0.7-13.5
		c-0.3-4.5-0.6-9.1-0.9-13.6c0-0.2-0.2-0.6,0.2-0.7c0.1,0,0.3,0.3,0.4,0.5c0.2,2.2,0.5,4.4,0.3,6.6c0.4,1.4-0.1,3,0.3,4.4
		c0.1,0.5,0.2,1,0,1.4c0.4,1.4-0.1,3,0.3,4.4c0.1,0.4,0.2,0.7,0,1.1c0.4,1.4-0.1,3,0.3,4.4c0.1,0.4,0.2,0.7,0,1.1
		C-360,4975.8-360.5,4977.3-360.1,4978.7z"/>
	<path fill="#63A8D6" d="M-366.9,4978.9c0.1-1.6-0.4-3.2,0.3-4.7C-366.5,4975.8-366.6,4977.4-366.9,4978.9z"/>
	<path fill="#3A3D3F" d="M-360.7,4967.7c-0.7-1.4-0.2-2.9-0.3-4.4C-360.7,4964.8-360.7,4966.3-360.7,4967.7z"/>
	<path fill="#3A3D3F" d="M-361.1,4961.9c-0.6-1.4-0.2-2.9-0.3-4.4C-361,4959-361.1,4960.4-361.1,4961.9z"/>
	<path fill="#3A3D3F" d="M-360.1,4978.7c-0.6-1.4-0.2-2.9-0.3-4.4c0.1,1.3,0.3,2.6,0.4,3.8C-360,4978.4-360.1,4978.6-360.1,4978.7z"
		/>
	<path fill="#3A3D3F" d="M-360.4,4973.2c-0.7-1.4-0.2-2.9-0.3-4.4C-360.4,4970.3-360.4,4971.8-360.4,4973.2z"/>
</g>
<path fill="#F7F0F0" d="M-373.1,4913.8c6.5,0,12.6,0,18.8,0c-0.4,1-1.1,2.6-2.7,3.9c-3.2,2.8-8.5,3.4-12.3,1
	C-371.6,4917.2-372.6,4915-373.1,4913.8z"/>
</svg>
