<?xml version="1.0" encoding="utf-8"?>
<!-- Generator: Adobe Illustrator 21.1.0, SVG Export Plug-In . SVG Version: 6.00 Build 0)  -->
<svg version="1.1" id="Layer_1" xmlns="http://www.w3.org/2000/svg" xmlns:xlink="http://www.w3.org/1999/xlink" x="0px" y="0px"
	 viewBox="-2521.5 -576.7 148.6 147.6" enable-background="new -2521.5 -576.7 148.6 147.6" xml:space="preserve">
<g>
	<path fill="#DC574B" d="M-2435-430.1c-30.1,4.2-54.8-5.7-72.3-30.4c-17.5-24.8-18.9-51.8-4.1-78.2c14.7-26.5,38.5-39.2,68.7-37.9
		c48.6,2.2,81.8,52.1,65.6,97.7c-3.1,2-4.6-0.9-6.2-2.4c-12.6-12.3-24.9-24.8-37.4-37.1c-2.7-2.7-5-5.8-8.4-7.7
		c-0.7-0.3-1.3-0.5-1.9-1c-3.4-7.3-10.2-9.7-17.1-12.1c-0.2-0.5-0.3-1-0.1-1.6c-0.2,0.4-0.3,0.9-0.4,1.4c-0.4,1.6-1.5,2.6-2.9,3.1
		c-4.4,1.7-6.9,5.2-8.8,9.3c-1.3,1.4-1.2,3.2-1.4,5c-0.5,2-0.4,3.8,1.6,5c2.6,2.4,5.1,4.9,7.7,7.3c1.2,1.3,1.9,3,3.3,4.1
		c0.8,0.9,1.8,1.6,2.3,2.7c0.4,1,0.5,1.9-0.1,2.9c-1,1.3-2.5,1.5-4,1.7c-6.9,0.8-11.2,5-13.2,11.2c-1.4,4.4-2.9,8.8-3.9,13.3
		c-1.1,1.8-1.8,3.7-0.3,5.7c0.4,0.5,0.9,0.9,1.4,1.3c0.7,0.6,1.5,1,2.1,1.6c10,8.6,18.8,18.3,28.2,27.5c1.2,1.2,2.5,2.3,3.3,3.7
		C-2431.9-432.2-2432.2-430.6-2435-430.1z"/>
	<path fill="#B84136" d="M-2448.1-502.8c-0.7-0.7-1.4-1.4-2.1-2c0.1-0.2,0.2-0.4,0.3-0.6c1.5-1.5,4-0.6,5.3-2.4
		c0.3-0.3,0.7-0.6,1.1-0.8c5.6-2,9.8-5.5,11.9-11.2c0.3-0.4,0.6-0.7,0.8-1c1.5-1.4,0.7-3.9,2.5-5.2c1.4-0.4,2.1,0.7,2.9,1.5
		c15.4,15.4,30.8,30.8,46.2,46.2c0.5,0.5,0.8,1,1.1,1.6c-8.6,23.1-25.1,37.6-48.3,44.9c-2.8,0.9-5.8,1.3-8.7,1.9
		c2.6-2.5-0.3-3.5-1.4-4.6c-9.8-10.1-19.8-20.1-29.7-30.1c1.3-2.1,3.5-1.6,5.4-1.6c9.1-0.1,18.1,0,27.2,0c2.5,0,5,0.1,7.3-1
		c0.4-0.3,0.7-0.6,1-1c2.5-6.3-4.6-25.1-10.5-28.2c-1.8-0.9-4.4-1.1-4.6-3.9c0.4-0.9,1.1-0.9,1.8-0.8c-1.2-0.4-2.1,0.6-3.3,0.7
		C-2444-500.9-2446.1-501.8-2448.1-502.8z"/>
	<path fill="#B74035" d="M-2378-476.9c-10.6-10.4-21.1-20.8-31.7-31.2c-6.1-6-12.2-11.9-18.2-17.8c-0.6-0.6-0.7-1.3-0.1-2
		c5.1,3.7,9.2,8.6,13.7,13.1c10.9,10.7,21.6,21.6,32.5,32.4c1.4,1.4,2.6,3.1,4.8,3.4C-2377.4-478.2-2377.7-477.6-2378-476.9z"/>
	<path fill="#FEF5E3" d="M-2440.2-500.8c8,1.2,12.1,6.4,14.1,13.7c1.4,5.1,3,10.1,4.5,15.2c0.6,2,0.9,3.9-1.4,5.2
		c-0.3,0.1-0.6,0.1-0.9,0.2c-13.4,0.4-26.9,0.1-40.3,0.2c-1.5,0-3-0.2-4.3-0.9c-2.4-1.8-0.9-4.5-1.6-6.7c1.5-6.7,3-13.3,6.2-19.4
		c3.6-6.7,10.2-7.6,16.9-7.6c1.4-1.2,3-1,4.6-0.7C-2441.6-501.4-2440.7-501.5-2440.2-500.8z"/>
	<path fill="#FEF5E3" d="M-2429.8-519.9c-1.5,7.3-6.4,11.2-13.2,13.1c-4,1.7-7.6,1.2-10.9-1.6c-3-1.8-4.4-5.5-7.9-6.6
		c-1-0.8-0.7-2.1-1.1-3.1c0-0.4,0-0.9,0.1-1.3c1.1-2.5,0.8-5.2,0.8-7.9c0-0.2,0-0.4-0.1-0.7c1.9-6.8,6.9-10.1,13.2-12.2
		c0.3-0.3,0.6-0.4,1-0.1c9,0,15.5,3.9,18.1,12.3c0.1,0.2,0.2,0.4,0.4,0.6c0.1,0.2,0.1,0.4,0.2,0.7c-0.3,2,0,4.1-0.4,6.1
		C-2429.7-520.3-2429.8-520.1-2429.8-519.9z"/>
	<path fill="#E4B1A2" d="M-2423-466.7c0,0.2,0,0.5,0,0.7c-1.7,1.2-3.6,0.6-5.3,0.6c-13.1-0.2-26.3,0.5-39.4-0.3
		c-0.4-0.3-0.8-0.6-1.2-0.9c0.2-0.2,0.5-0.4,0.7-0.6c15.1-0.1,30.1-0.3,45.2,0.1C-2423-467.1-2422.9-466.9-2423-466.7z"/>
	<path fill="#AD251B" d="M-2467.8-465.7c14.9-0.1,29.8-0.2,44.8-0.3c-1.9,1.6-4.1,1.1-6.2,1.1c-12.3,0.1-24.6,0.1-36.9,0.1
		C-2466.7-465.1-2467.2-465.4-2467.8-465.7z"/>
	<path fill="#FEFDF1" d="M-2470.2-474c1.6,1.8,1.1,4,1.2,6.1c0.2,0.1,0.5,0.3,0.7,0.4c-0.2,0.1-0.5,0.2-0.7,0.3
		c-0.1,0.2-0.1,0.4,0.1,0.5C-2472.5-468.6-2470.9-471.4-2470.2-474z"/>
	<path fill="#BB483D" d="M-2453.9-508.3c3.5,1.4,7.2,1.8,10.9,1.6c0,0.3,0,0.6,0,0.9c-2.2,1.2-4.7-0.3-6.9,0.9c0,0-0.2,0-0.2,0
		C-2451.5-505.8-2453-506.8-2453.9-508.3z"/>
	<path fill="#B63B30" d="M-2442-500.9c-1.7,0-3.3,0-5,0c-0.4-0.6-0.7-1.3-1.1-1.9c2.1-0.5,4.2-0.2,6.1,0.9
		C-2441.3-501.6-2441.3-501.3-2442-500.9z"/>
	<path fill="#AF2A20" d="M-2429.8-526.9c0-0.3,0-0.7,0-1c0.6,0,1.2,0,1.8,0c0,0.7,0.1,1.3,0.1,2c-0.6,1.9,1.1,4.3-1.1,5.9
		C-2430.6-522.2-2429.8-524.6-2429.8-526.9z"/>
	<path fill="#F3C2B2" d="M-2463.2-521.8c0.4-2-0.3-4.2,1.1-6.1l0.5,0.1c0.3,2.9,0.3,5.8,0,8.8c-0.1,0.1-0.3,0.2-0.5,0.1
		C-2464.3-519.3-2463.4-520.7-2463.2-521.8z"/>
	<path fill="#DA4C40" d="M-2463.2-521.8c0.3,1,0.7,2,1,2.9c0.1,1.3,0.2,2.6,0.3,3.9C-2463.9-516.9-2464.6-519.2-2463.2-521.8z"/>
	<path fill="#D8453A" d="M-2448-540.2c-0.3,0-0.7,0.1-1,0.1c0.8-1.9,2.5-1.8,5-1.6C-2445.8-541-2446.9-540.6-2448-540.2z"/>
	<path fill="#D99487" d="M-2429.8-526.9c1.6,2.1,0.7,4.6,0.8,6.9c-0.2,0.1-0.5,0.1-0.7,0.1c0,0-0.5,0-0.5,0c-0.4-2.3-0.3-4.6,0-7
		C-2430.2-527-2430-527-2429.8-526.9z"/>
	<path fill="#B23127" d="M-2449.9-504.9c2.1-1.5,4.6-0.7,6.9-0.9C-2445.2-504.4-2447.6-505-2449.9-504.9z"/>
	<path fill="#AF281E" d="M-2442-500.9c0-0.3,0-0.7,0-1c0.6,0,1.3-0.1,1.9,0.1c0.4,0.1,1.4-0.5,1.2,0.6c0,0.2-0.8,0.3-1.3,0.4
		C-2440.8-500.8-2441.4-500.9-2442-500.9z"/>
	<path fill="#FEFEFC" d="M-2469-467.2c0-0.2,0-0.5,0-0.7c13.4,0,26.7,0,40.1,0c2,0,4-0.3,5.8,0.7
		C-2438.4-466.7-2453.7-466.7-2469-467.2z"/>
	<path fill="#FEFEF3" d="M-2461.7-519c-0.6-2.9-0.6-5.8,0-8.8C-2460.7-524.9-2460.7-521.9-2461.7-519z"/>
	<path fill="#FEFEFB" d="M-2430.3-526.9c0.5,2.3,0.5,4.6,0,7C-2431.3-522.2-2431.3-524.5-2430.3-526.9z"/>
</g>
</svg>
