<?xml version="1.0" encoding="utf-8"?>
<!-- Generator: Adobe Illustrator 19.1.0, SVG Export Plug-In . SVG Version: 6.00 Build 0)  -->
<svg version="1.1" id="Layer_1" xmlns="http://www.w3.org/2000/svg" xmlns:xlink="http://www.w3.org/1999/xlink" x="0px" y="0px"
	 viewBox="-202 293.5 206.5 206.5" enable-background="new -202 293.5 206.5 206.5" xml:space="preserve">
<g>
	<g>
		<circle fill="#77CBC7" cx="-98.8" cy="396.8" r="103.2"/>
		<path fill="#62BAB3" d="M-98.8,293.5L-98.8,293.5V500l0,0c57,0,103.2-46.2,103.2-103.2C4.5,339.7-41.7,293.5-98.8,293.5z"/>
	</g>
</g>
<g>
	<path fill="#FEFEFE" d="M-63.4,359.4c8.5,0,17,0.1,25.5,0.1c1.6,0.6,1,2,1,3c0,28.2,0,56.5,0,84.7c0,0.8,0,1.7-0.6,2.3
		c-1.7,6.6-5.5,11.3-11.9,13.7c-0.8,1.2-2.1,0.7-3.2,0.7c-31.1,0-62.3,0-93.4,0c-1.1,0-2.4,0.4-3.3-0.6c-4.2-1.7-7.8-4-10.3-7.8
		c-1.2-2.8-1.8-5.6-1.8-8.7c0-27.1,0.1-54.2-0.1-81.3c0-5,1.8-6.1,6.4-6.1C-124.6,359.6-94,359.4-63.4,359.4z"/>
	<path fill="#3C3C3C" d="M-161.3,354.6c0.6-7,4.8-11.2,10.8-14c3.7-1.3,7.5-0.3,11.2-0.6c1.5-0.1,1.8,0.9,2.4,2
		c3.2,5.8,6.5,6.1,10.8,0.8c0.8-2.5,3-2.1,4.9-2.2c13.5-0.2,27-0.2,40.5,0c1.9,0,4.1-0.5,4.8,2.1c4,5.6,7.7,5.4,11-0.5
		c0.7-1.2,1.4-1.7,2.7-1.5c5,0,10-1.1,14.8,0.9c1.2,1.2,1.9,2.5,0.5,4c-4.4,4.9-8.6,10.2-15.2,12.4c-0.6,0-1.2,0-1.8,0
		c-30.8,0-61.5,0-92.3,0C-158.8,358.1-161.2,358.2-161.3,354.6z"/>
	<path fill="#B1B1B1" d="M-123.5,346.5c-2.9,2.7-10,4-13.4,2.4c-1.3-0.6-2.5-1.5-2.5-2.9c0.2-6.1-3.9-5.9-8-5.6c-1,0.1-2,0.1-3,0.2
		c1.6-0.3,3.2-1,4.8-1c3.8,0,5.8-1.5,6.3-5.4c0.5-4.1,3.7-4.7,7.1-4.7c3.6,0,7.5,0,8.3,4.5c0.8,4.8,3.7,5.6,7.8,5.5
		c10.1-0.1,20.3-0.1,30.4,0c4.1,0,6.8-0.8,7.8-5.6c1.1-5.3,5.9-4.4,9.8-4.3s5.6,2.4,5.7,6.1c0.1,1.7,0.1,3.3,0.2,5
		c-0.4,3,1.1,7.2-2.9,8.1c-4.5,1-9.6,2.3-13.3-2.4c0.2-5.1-2.7-5.7-7.1-5.6c-10.3,0.3-20.6,0.4-30.9,0
		C-120.9,340.7-123.5,341.7-123.5,346.5z"/>
	<path fill="#272727" d="M-61.5,357.4c4.3-5.6,10.6-9.5,14.1-15.8c0.6,0.1,1.3,0.2,1.9,0.3c7.2,5.5,9.2,10.2,7,16.4
		c-6.1-0.8-12.1-0.1-18.2-0.4C-58.3,357.9-60,358.6-61.5,357.4z"/>
	<path fill="#333333" d="M-161.3,354.6c2.3,3.3,5.7,2.9,9,2.9c29.9,0,59.8,0,89.8,0c0.8,0.2,0.9,0.5,0.1,0.9
		c-0.4,0.1-0.7,0.2-1.1,0.3c-30.7-0.1-61.4-0.1-92.1-0.2C-158.2,358.5-161.7,359.3-161.3,354.6z"/>
	<path fill="#7A7A7A" d="M-149.4,463.4c33.3,0,66.6-0.1,100-0.1c-2.5,1.3-5.1,1.3-7.8,1.3c-28.1,0-56.2,0-84.3,0
		C-144.2,464.5-146.9,464.5-149.4,463.4z"/>
	<path fill="#7A7A7A" d="M-37.5,449.6c0-27.5-0.1-55.1-0.1-82.6c0-2.5-0.2-5-0.3-7.4c1.5,2.4,1.5,5.1,1.5,7.7c0,25,0,50,0,75
		C-36.4,444.7-36.5,447.2-37.5,449.6z"/>
	<path fill="#1A1A1A" d="M-62.4,358.4c0-0.3,0-0.6-0.1-0.9c0.3,0,0.6,0,0.9-0.1c7.6,0.6,15.4-0.9,23,1
		C-46.5,358.4-54.4,358.4-62.4,358.4z"/>
	<path fill="#D5D5D5" d="M-134.5,394.5c-7.2,0-8-0.7-7.9-8c0-7.2,0.7-7.9,8-7.9c7.2,0,7.9,0.7,7.9,8
		C-126.5,393.7-127.2,394.5-134.5,394.5z"/>
	<path fill="#D5D5D5" d="M-103.5,386.5c0,7.2-0.7,8-7.9,8c-7.2,0-8-0.7-8-8c0-7.2,0.7-8,7.9-8C-104.2,378.5-103.5,379.3-103.5,386.5
		z"/>
	<path fill="#D2D2D2" d="M-96.5,386.5c0-7.2,0.8-8,8-8c6.8,0,8,1.2,7.9,8.2c-0.1,6.7-1.2,7.8-8.4,7.8
		C-95.7,394.5-96.5,393.7-96.5,386.5z"/>
	<path fill="#E8653D" d="M-73.6,386.4c0-7.8,0-7.8,7.8-7.8c7.6,0,7.6,0,7.6,8c0,7.9,0,7.9-8.3,7.9
		C-73.6,394.4-73.6,394.4-73.6,386.4z"/>
	<path fill="#D5D5D5" d="M-134.5,416.6c-7,0-7.9-0.9-7.9-7.6s0.9-7.5,8-7.5c7.1,0,7.9,0.8,7.9,7.6
		C-126.5,415.7-127.4,416.6-134.5,416.6z"/>
	<path fill="#D2D2D2" d="M-111.5,416.6c-7,0-7.9-0.8-7.9-7.6c0-6.7,0.9-7.5,8-7.5c7,0,7.9,0.8,7.9,7.6
		C-103.5,415.7-104.5,416.6-111.5,416.6z"/>
	<path fill="#D2D2D2" d="M-134.3,439.6c-7.2,0-8-0.7-8.1-7.4c0-6.8,0.9-7.7,7.9-7.7c7.1,0,8,0.8,8.1,7.5
		C-126.5,438.7-127.3,439.5-134.3,439.6z"/>
	<path fill="#D1D1D1" d="M-111.3,439.6c-7.3,0-8.1-0.7-8.2-7.3c0-6.9,0.8-7.8,7.7-7.8c7.2,0,8.1,0.8,8.2,7.4
		C-103.5,438.7-104.4,439.5-111.3,439.6z"/>
	<path fill="#D1D1D1" d="M-89,401.4c6.6,0,7.6,1,7.7,7.4c0,6.8-1,7.8-7.8,7.7c-6.5,0-7.4-1-7.4-7.6C-96.5,402.4-95.5,401.4-89,401.4
		z"/>
	<path fill="#D1D1D1" d="M-65.8,401.4c6.5,0,7.5,1,7.5,7.5c0,6.7-1,7.7-7.9,7.6c-6.3-0.1-7.3-1.1-7.2-7.8
		C-73.5,402.4-72.5,401.4-65.8,401.4z"/>
	<path fill="#D1D1D1" d="M-89,439.6c-6.6,0-7.5-0.9-7.5-7.5s0.9-7.6,7.4-7.6c6.8,0,7.8,1,7.8,7.8C-81.3,438.6-82.3,439.6-89,439.6z"
		/>
	<path fill="#D1D1D1" d="M-66,439.6c-6.6,0-7.5-0.9-7.5-7.5c0-6.7,1-7.7,7.9-7.6c6.3,0.1,7.3,1.1,7.2,7.8
		C-58.4,438.7-59.3,439.6-66,439.6z"/>
	<path fill="#333333" d="M-123.5,346.5c-0.7-4.8,1.3-6.3,6.1-6.1c11,0.3,22,0.3,33,0c4.8-0.1,6.9,1.2,6.1,6.1
		c-1.4-3.8-4.1-5.1-8.1-5c-9.6,0.2-19.3,0.2-28.9,0C-119.4,341.4-122.2,342.6-123.5,346.5z"/>
</g>
</svg>
