<?xml version="1.0" encoding="utf-8"?>
<!-- Generator: Adobe Illustrator 21.1.0, SVG Export Plug-In . SVG Version: 6.00 Build 0)  -->
<svg version="1.1" id="Layer_1" xmlns="http://www.w3.org/2000/svg" xmlns:xlink="http://www.w3.org/1999/xlink" x="0px" y="0px"
	 viewBox="-470 4834.5 206.5 206.5" enable-background="new -470 4834.5 206.5 206.5" xml:space="preserve">
<g>
	<circle fill="#77CBC7" cx="-366.7" cy="4937.7" r="103.2"/>
	<path fill="#62BAB3" d="M-366.7,4834.5L-366.7,4834.5V5041l0,0c57,0,103.2-46.2,103.2-103.2
		C-263.5,4880.7-309.7,4834.5-366.7,4834.5z"/>
</g>
<g>
	<path fill="#345D65" d="M-295.5,4937.2c9.9,3.1,14.4,10.2,14.7,20.3c0,1.3,0.1,2.7,1.1,3.7c-8.1,7.7-18,11.8-28.8,14
		c-1.1,0.2-2.2,0.5-3.4,0.7c-2.6-0.3-5.2-0.5-7.8,0.1c-0.7,0-1.5,0-2.2,0c-2.6-0.6-5.2-0.4-7.8-0.1c-12-2.2-23.1-6.2-32.1-14.7
		c1.6-2.6,1.8-5.6,2-8.5c0.5-6.6,3.6-11.1,9.9-13.5c1.4-0.5,2.6-1.4,3.9-2c2.7-2.6,5.8-3.7,9.4-2.8c1.9,1.2,1,2.7,0.1,3.8
		c-1.7,2.2-0.4,3.5,1,5.1c3.1,3.6,7.6,4.3,11.6,6c1.1,1.2,1.5,2.8,2.7,4c2.2-0.5,2.1-2.8,3.4-3.9c3.5-2,7.9-1.9,10.9-5.3
		c1.9-2.1,3.8-3.7,1.3-6.6c-0.8-0.9-1-2.2,0.4-3C-301.3,4933.5-298.2,4934.6-295.5,4937.2z"/>
	<path fill="#4A6866" d="M-329.5,4975.9c2.6-1.1,5.2-1.2,7.8,0.1C-324.3,4976-326.9,4976-329.5,4975.9z"/>
	<path fill="#4A6866" d="M-319.5,4976c2.6-1.3,5.2-1.2,7.8-0.1C-314.3,4976-316.9,4976-319.5,4976z"/>
	<path fill="#1A1A1A" d="M-343.7,4895.2c0-5,0-10,1-14.9c2-10.3,8.8-16.1,19.2-17c18.8-1.7,24.8,8.6,25.7,23.8c0.2,3,0.6,6-0.2,8.9
		c-0.7,0.8-1.6,1.5-2.7,1.7c-1,0.1-1.8-0.3-2.6-0.9c-0.6-0.7-1.1-1.5-1.6-2.4c-2-3.8-3.6-7.8-5.6-11.7c-1.3-2.4-2.9-3.3-5.6-2.7
		c-2.4,0.5-4.9,1.1-7.3,1.5c-7.2,1-11.5,5.4-13.8,12c-0.8,1.2-1.2,2.6-2.7,3.2c-1,0.2-1.9,0-2.7-0.4
		C-343.1,4896-343.4,4895.6-343.7,4895.2z"/>
	<path fill="#ECB081" d="M-343.1,4895.7c1.1-1.2,2.2-2.1,2.6,0.5c1.5,1,3.6,0.8,4.7,2.5c0.5,0.7,1,1.4,1.7,1.9
		c5.7,2.1,6.5,1.8,10.9-4.1c1.1-0.7,2.2-1,3.5-0.7c2.2,1,2.1,3.6,3.6,5c3,1.3,6.1,1.5,9-0.2c0.7-0.5,1.2-1.2,1.6-1.8
		c1.1-1.7,3.1-1.1,4.6-1.6c0.3-0.9-0.2-2.2,1-2.4c0.5-0.1,1.2,0.9,1.8,1.3c0,0,0.1,0.3,0.1,0.3c1.5,1.2,0.5,2.8,0.8,4.3
		c-0.1,1-0.5,2-0.5,3c-3,7.9-6.2,15.8-13.2,21.2c-6.5,5.3-13.1,5.3-19.6,0.1c-6.7-6-11.3-13.3-13.2-22.2
		C-343.8,4900.3-345.2,4897.8-343.1,4895.7z"/>
	<path fill="#1A1B1A" d="M-343.1,4901.9c3.4,7.8,7.5,15.1,13.2,21.4c2.1,2.5,3,5.2,1.5,8.4c-2.1,1.8-3.9,4.3-7.3,3.6
		c-3.4,0.5-6.6,2.1-10.1,1.9c0.4-10.6,0.9-21.2,1.3-31.8C-343.7,4904.3-344.8,4902.6-343.1,4901.9z"/>
	<path fill="#1A1B1B" d="M-311.4,4923.3c5.8-5.8,9.1-13.2,13-20.2c2.5,0.6,0.5,3,1.6,4.1c0.4,10,0.9,20,1.3,29.9
		c-3.5,0.2-6.7-1.4-10.1-1.9c-3.3,0.7-5.1-1.8-7.2-3.5C-314.3,4928.6-313.5,4925.8-311.4,4923.3z"/>
	<path fill="#3A8574" d="M-343.1,4901.9c-0.4,1.1-0.9,2.3-1.3,3.4c-0.1-3.4-0.9-6.9,0.8-10.1c0.3,0,0.5,0.2,0.6,0.4
		C-343.9,4897.7-343.2,4899.8-343.1,4901.9z"/>
	<path fill="#406A5B" d="M-296.8,4907.3c-0.5-1.4-1-2.8-1.6-4.1c0.2-0.7,0.4-1.5,0.6-2.2c0.5-0.4,0.9-0.3,1,0.4
		C-296.8,4903.3-296.8,4905.3-296.8,4907.3z"/>
	<path fill="#3C8C79" d="M-296.7,4901.3c-0.3-0.1-0.7-0.2-1-0.4c0-1.5-0.1-3.1-0.1-4.6C-296.1,4897.6-296.7,4899.5-296.7,4901.3z"/>
	<path fill="#D7D9DD" d="M-311.5,4932.1c2.8-0.6,3.9,2.2,5.9,3.1c5.5,5.3,5.2,5-0.5,10.7c-3.2,3.2-6.7,3.9-10.7,4.3
		c-0.9,0.2-1.4-0.3-1.7-1C-318.3,4942.6-314.3,4937.6-311.5,4932.1z"/>
	<path fill="#D7D9DD" d="M-335.7,4935.2c2-0.9,3.1-3.7,5.9-3.1c2.8,5.5,6.8,10.5,6.9,17.1c-0.4,0.7-0.8,1.2-1.7,1
		c-6,0.9-9.2-3.5-13.2-6.6c-2.9-2.3-3.6-4.1,0-6.2C-337,4936.8-336.4,4935.9-335.7,4935.2z"/>
	<path fill="#D0D0D1" d="M-324.5,4950.2c0.3-0.4,0.6-0.7,0.9-1.1c2-0.1,3.9-0.1,5.9,0c0.3,0.4,0.6,0.7,0.9,1.1
		c-0.8,2.5-2,4.8-3.8,7.4C-322.6,4955.3-323.6,4952.7-324.5,4950.2z"/>
	<path fill="#ECB081" d="M-319.6,4896.2c-0.9,0.3-1.8,0.7-2.7,1c-0.9,0-1.8-0.1-2.6-0.7c-3.5-1.1-7-1.7-10.4,0.5
		c-0.6,0.5-1.3,0.8-2.1,0.7c-2.8-0.9-1.6-2.9-1.3-4.6c1.5-8.4,7-12.1,14.9-13.8c13.3-2.9,13.3-3.1,18.5,9.5c0.7,1.7,1.2,3.4,1.8,5.1
		c0.5,0.9,0,1.3-0.6,1.7c-0.5,0.2-0.9,0.2-1.4,0.2c-3.8-0.2-7.6-0.7-11.3,0.5C-317.8,4896.8-318.8,4896.8-319.6,4896.2z"/>
	<path fill="#614D3D" d="M-338.7,4893.2c0.8,1.2-1.4,3.8,1.9,3.8c0.8,0.8,0.8,1.6,0.1,2.4c-0.7-1.7-4.5,0.2-3.7-3.3
		C-339.9,4895.1-339.3,4894.2-338.7,4893.2z"/>
	<path fill="#5F4C3C" d="M-300.8,4897.1c0.1,2.8-3.3,0.3-3.6,2.4c-0.8-0.5-0.9-1.3-0.7-2.1c0.6-1.1,1.7-1.2,2.8-1.3
		C-301.8,4896.4-301.3,4896.8-300.8,4897.1z"/>
	<path fill="#D5A176" d="M-302.3,4896.1c-0.3,1.1-1.2,1-2,0.8c-0.7-0.6-0.7-1.2,0-1.8c0.3-0.4,0.6-0.7,0.9-1.1
		C-303.1,4894.7-302.7,4895.4-302.3,4896.1z"/>
	<path fill="#DAA079" d="M-317.7,4949.1c-2,4.1-3.9,4.1-5.9,0c-1.8-3.8-3.4-7.7-5.4-11.4c-1-1.9-1.2-3.6-0.8-5.6
		c0.6-2.9,0.2-5.9-0.2-8.8c6.2,4.6,12.4,4.6,18.5,0c-0.3,2.9-0.8,5.9-0.2,8.8c1.2,3.8-1.5,6.4-2.8,9.5
		C-315.4,4944.1-316.6,4946.6-317.7,4949.1z"/>
	<path fill="#BD6D58" d="M-320.7,4919.4c-0.8-0.2-1.8-0.2-2.7-0.6c-1.1-0.5-2.9-0.8-2.5-2.5c0.3-1.4,1.9-1,3-1.1c1-0.1,2-0.1,3,0
		c1.6,0.2,4.5-0.9,4.4,1.6C-315.7,4918.9-318.5,4919.1-320.7,4919.4z"/>
	<path fill="#3B322C" d="M-323.7,4895.2c0.5,0.7,0.9,1.3,1.4,2c-0.6,7.9-6.5,5.9-11.3,6c-1,0-2.4,0.5-3-1c0.3-0.6,0.6-1.3,1.3-1.6
		c1.1-0.5,2.2-0.5,3.3-0.3c3.5,0.5,5.5-1.1,6.4-4.4C-325,4895.3-324.5,4894.9-323.7,4895.2z"/>
	<path fill="#3C332C" d="M-304.7,4902.2c-4.3,1.8-8.7,1.5-13.1,0.2c-0.4-0.9,0.1-1.5,0.8-1.9c3.6-0.7,7.2-0.4,10.8,0
		C-305.4,4900.8-305.1,4901.5-304.7,4902.2z"/>
	<path fill="#514337" d="M-316.6,4901.2c-0.4,0.4-0.7,0.8-1.1,1.2c-0.6-2.1-1.3-4.1-1.9-6.2c0.7-0.4,1.3-0.7,2-1.1
		c0.9,0.2,1.6,0.6,2,1.4C-314.9,4898.3-315,4899.9-316.6,4901.2z"/>
	<path fill="#393029" d="M-304.7,4902.2c-0.3-0.4-0.7-0.8-1-1.1c-1.8-1.3-2.1-3.1-1.6-5.1c0.7-1.1,1.4-1.6,2.6-0.7
		c0,0,0.3-0.1,0.3-0.1c0,0.6,0,1.2,0,1.8c0,0.9,0,1.7,0,2.6C-304.5,4900.4-304.6,4901.3-304.7,4902.2z"/>
	<path fill="#1A1A1A" d="M-335.6,4901.1c-0.3,0.3-0.6,0.7-0.9,1c-0.1-0.9-0.2-1.9-0.3-2.8c0-0.8-0.1-1.6-0.1-2.4
		c0.1-0.6,0.2-1.1,0.3-1.7c1.1-0.2,1.6,0.4,2,1.2C-333.9,4898.2-333.9,4899.9-335.6,4901.1z"/>
	<path fill="#534437" d="M-304.7,4895.2c-0.6,0.2-1.3,0.4-1.9,0.6c-3.6,3.2-5.6,3.3-10,0.4c-0.4-0.4-0.8-0.8-1.1-1.1
		C-313.3,4893.7-309,4893.5-304.7,4895.2z"/>
	<path fill="#524336" d="M-335.5,4896.4c-0.3-0.4-0.7-0.7-1-1.1c4.3-1.8,8.6-1.7,12.9-0.1c-0.4,0.4-0.7,0.8-1.1,1.1
		C-328.3,4899.1-331.9,4899.1-335.5,4896.4z"/>
	<path fill="#DAC7AF" d="M-335.5,4896.4c3.6-0.8,7.2-0.9,10.8,0c0.1,6.2-2.8,7.5-10.9,4.8C-335.6,4899.5-335.6,4897.9-335.5,4896.4z
		"/>
	<path fill="#DAC7AF" d="M-316.6,4896.2c3.3-0.8,6.6-0.3,10-0.4c1.6,1.5,0.6,3.5,0.9,5.2c-3.6,1.6-7.3,1.4-11,0.1
		C-316.6,4899.5-316.6,4897.9-316.6,4896.2z"/>
</g>
<g>
	<path fill="#E8F0F2" d="M-384.7,4944.2c6.5,2,10.3,6.1,10.8,13.1c0.2,3.3,0.9,6.5,1.4,9.8c-26.6,19.3-54.6,19.3-80.8,0
		c0.5-3.4,1.2-6.8,1.5-10.2c0.6-6.8,4.4-10.7,10.7-12.6c3.1-1.1,6,0.3,8.9,1.1c3.8,2.4,2.6,7.1,4.7,10.3c3.9,3,6.9,6.9,9.8,10.9
		c1.3,1.7,2.4,3.6,4.4,4.4c2.3-0.3,3.2-2.1,4.3-3.7c3.1-4.5,6.5-8.6,10.8-12c2.1-2.9,0.6-7.4,4-9.7
		C-391,4944.5-388,4943.2-384.7,4944.2z"/>
	<path fill="#462416" d="M-429,4957.2c-1.6,0.2-2-0.5-1.6-2c0.8-3.2-0.2-6-1.5-8.9c-1.8-1.2-3.4-2.6-2.8-5.1c-1-1.9-2.1-3.7-3.1-5.7
		c-2.6-5.4-3.2-10.9,0.4-16.1c2.4-3.4,2.6-6.9,0.6-10.3c-4.5-7.3-3.7-14.6-0.6-22c1.7-4.1,3.7-8.2,5.9-12.1c2.4-4.1,6.1-6.4,10.9-7
		c1.2-0.4,2.4-0.8,3.2,0.6c-0.3,2.4-2.5,2.9-4.1,3.8c-4.6,2.6-7.2,6.5-8.7,11.9c4.7-0.3,8.3-3.2,12.6-2.9c7.2,0.6,14.7-0.9,21.7,3
		c-0.4-5.3-3.1-8.9-7.3-11.5c-1.8-1.1-4.1-1.5-4.8-4c0.3-1.4,1.3-1.3,2.3-1c9.8,1.4,14.3,8.6,17.5,16.7c3.2,8,4.9,16.3-0.2,24.5
		c-1.6,2.6-2.4,5.7-0.4,8.5c5.4,7.6,3.9,14.7-0.9,21.7c-0.4,0.5-0.6,1.2-0.8,1.8c0.5,2.5-1,3.8-2.8,5.1c-1.2,2.7-2,5.5-1.5,8.5
		c0.3,1.5,0.3,2.6-1.7,2.4c-4.7-0.1-7.6-2.7-9.5-6.8c-1.6-3.2-1.5-6.5-0.2-9.7c0.1-0.5,0.1-1,0.2-1.5c0.2-1.2,0.6-2.4,1.1-3.5
		c2.8-5,5.1-10.2,8.2-14.9c1.1-1.7,1.6-3.6,0.8-5.6c0-11.5-6.8-19-14.8-25.9c-1.4-1.2-2.9-1.6-4.4-0.1c-7.3,7.2-14.3,14.7-14.1,25.9
		c-0.8,2-0.3,3.9,0.8,5.7c3.1,4.7,5.8,9.7,8.2,14.7c0.6,1.1,1,2.2,1.1,3.5c0.1,0.5,0.2,1,0.3,1.5c1.4,3.3,1.4,6.6-0.3,9.9
		C-421.4,4954.5-424.2,4957.3-429,4957.2z"/>
	<path fill="#C7D7D9" d="M-434.9,4941.3c1.4,1.5,2.2,3.2,2.8,5.1c-3.3,0.5-6-1.4-9-2.2C-439.3,4942.5-436.8,4942.4-434.9,4941.3z"/>
	<path fill="#C5D4D6" d="M-393.6,4946.4c0.6-1.9,1.5-3.6,2.8-5.1c2,1.1,4.4,1.2,6.1,2.9C-387.7,4945-390.3,4946.9-393.6,4946.4z"/>
	<path fill="#704B40" d="M-417.9,4869.2c-0.8-0.9-1.9-0.8-2.9-1c5-1.5,10-1.3,15-0.1c-0.7,0.4-1.3,0.7-2,1.1c-0.5,1-1.5,1.3-2.5,1.4
		c-1.7-0.4-3.4-0.4-5.1,0C-416.5,4870.5-417.4,4870.2-417.9,4869.2z"/>
	<path fill="#C7DBDE" d="M-404.8,4950.1c1.9,3.3,4.9,5.3,8,7.2c-5.1,1.9-6.7,7.1-10.3,10.3c-2.2,2-2.7,6.1-6.8,5.8
		c-0.2-0.3-0.3-0.6-0.3-0.9c0-0.3,0.1-0.5,0.1-0.5c1.6-6.2,4-12.2,5.8-18.4C-407.8,4951.9-407.3,4950-404.8,4950.1z"/>
	<path fill="#C7DBDE" d="M-413.9,4972.3c0,0.4,0,0.8-0.1,1.1c-3.9-4.7-7.8-9.5-11.7-14.2c-0.9-1.1-2-1.7-3.4-2
		c3.1-1.9,6.3-3.8,8.1-7.2c2.6,0,3.1,2,3.7,3.9c0.8,3.9,2.7,7.4,3.7,11.2C-412.9,4967.6-412.2,4970-413.9,4972.3z"/>
	<path fill="#C8DCDF" d="M-432.6,4965.2c2.4,0.9,6.9-1.2,6.9,1.6c0,3-4.3,1.5-6.6,1.5c-2.6,0-7.3,1.4-7.3-1.4
		C-439.7,4963.7-435,4966.2-432.6,4965.2z"/>
	<path fill="#ECB081" d="M-430.9,4915.4c-0.7-2.2-0.9-4.4-0.1-6.7c3.1-8.9,8.9-15.8,15.3-22.4c1.5-1.5,2.9-1.2,4.3,0
		c7.2,5.8,13.1,12.7,16.4,21.4c1,2.5,1.5,5.1,0.2,7.6c-0.6,6.1-4.3,10.4-8.3,14.5c-8,5.4-11.7,5.4-19.5,0
		C-426.5,4925.7-430.4,4921.5-430.9,4915.4z"/>
	<path fill="#DAA079" d="M-422.1,4928.4c6.2,4.6,12.3,4.6,18.5,0c2.4,2.7,0.4,5.3-0.2,7.9c-0.2,1.1,0,2.2-1,3.1
		c-1.3,0.8-2.7,0.5-3.9,0.3c1,0.7,2.6-0.4,3.7,0.7c-0.7,3.3-0.9,6.5,0.2,9.8c-0.7,1.5-1.4,3-2.2,4.5c-4,3.9-7.9,3.9-11.8,0
		c-0.7-1.5-1.4-3-2.2-4.5c1.3-3.2,1-6.5,0.2-9.7c1.1-1.1,2.8,0.1,4.2-0.9c0.4-0.1-0.7-0.5-0.3,0.1c-1.3,0.6-2.7,0.6-4-0.1
		c-0.4-1-0.7-2-1.1-3C-422.6,4933.7-424,4931.1-422.1,4928.4z"/>
	<path fill="#E3E3E4" d="M-410.9,4869.3c1,0,2.1,0,3.1-0.1c9.7,2.8,15,9.6,14.7,19.5c-7.7-5-16.1-6-24.7-5.5c-0.3-2,1.5-2.2,2.6-3
		c2.1-0.6,4.5-0.4,6-2.5c0.6-1.1,0.8-2.3,0.1-3.5c-0.6-1.3-2-2.2-2.2-3.8C-411.4,4870-411.2,4869.6-410.9,4869.3z"/>
	<path fill="#E3E3E4" d="M-414.9,4881.6c-1,0.5-2,1.1-3,1.6c-5,1.1-9.9,2.6-14.3,5.2c-2-7.6,5.7-18,14.3-19.2c1,0,2.1,0,3.1,0.1
		c0.3,0.3,0.4,0.7,0.4,1.2c-0.2,1.6-1.6,2.5-2.2,3.8c-0.7,1.1-0.6,2.2,0.1,3.3C-415.8,4878.8-414.6,4879.9-414.9,4881.6z"/>
	<path fill="#331F13" d="M-403.8,4936.3c-0.7-2.6,0-5.3,0.2-7.9c3.8-3.8,6.8-8.1,8.8-13.1c1.4,1.5,0.9,3.1,0.1,4.6
		C-397.7,4925.4-400.8,4930.9-403.8,4936.3z"/>
	<path fill="#341F14" d="M-422.1,4928.4c0.2,2.6,0.9,5.2,0.2,7.9c-3-5.3-6-10.6-8.9-15.9c-0.9-1.6-1.7-3.3-0.1-5
		C-428.9,4920.3-426,4924.7-422.1,4928.4z"/>
	<path fill="#DAA886" d="M-404.9,4940.3c-1.5,0-3,0-4.5,0c0-0.3,0-0.6,0-1c1.6,0,3.1,0,4.7,0C-404.8,4939.7-404.9,4940-404.9,4940.3
		z"/>
	<path fill="#DAA886" d="M-420.9,4939.3c1.5,0,2.9,0,5,0c-1.8,1.6-3.4,0.8-4.8,1C-420.8,4940-420.8,4939.7-420.9,4939.3z"/>
	<path fill="#DAA1A3" d="M-414.9,4870.2c0-0.3,0.1-0.6,0.1-1c1.3-1,2.6-1,3.9,0c0.1,0.3,0.1,0.6,0.1,1
		C-412.2,4871.6-413.6,4871.6-414.9,4870.2z"/>
	<path fill="#359896" d="M-418.8,4954.6c4,1.2,7.9,1.2,11.8,0c-1.6,5.4-3.2,10.8-4.8,16.2c-0.3,1.1-0.8,1.8-2.1,1.5
		C-415.5,4966.4-417.1,4960.5-418.8,4954.6z"/>
	<path fill="#A7453C" d="M-407.3,4921.6c-0.8,2-2.5,2.5-4.3,2.8c-2.7,0.4-6.3,0-6.5-2.7c-0.2-2.4,3.4-1.2,5.3-1.3
		C-410.9,4920.3-408.8,4919.7-407.3,4921.6z"/>
	<path fill="#CC1B2C" d="M-414.9,4870.2c1.4,0,2.7,0,4.1,0c1.3,0.7,2.6,1.4,3,3c0.6,1,0.4,1.8-0.4,2.5c-3.1,0-6.2-0.1-9.3,0
		c-0.9-0.7-1.1-1.5-0.4-2.5C-417.5,4871.6-416.2,4870.9-414.9,4870.2z"/>
	<path fill="#CC1E2E" d="M-414.9,4881.6c-1.2-0.8-2.6-1.5-3.1-3.1c-0.6-0.9-0.5-1.8,0.4-2.4c3.1,0.2,6.2-0.3,9.3,0
		c0.9,0.7,1.1,1.5,0.4,2.5C-409.3,4881.4-412,4881.6-414.9,4881.6z"/>
	<path fill="#CF4149" d="M-407.8,4878.5c-0.4-0.7-0.8-1.4-1.1-2.2c-0.2-0.4-0.1-0.7,0.2-1c0.3-0.7,0.6-1.4,0.9-2.1
		C-406.4,4875-406.4,4876.7-407.8,4878.5z"/>
	<path fill="#CF3F48" d="M-417,4876.4c-0.3,0.7-0.6,1.4-1,2.1c-1.4-1.7-1.4-3.5,0-5.2c0.3,0.7,0.6,1.4,0.9,2.1
		c0.2,0.2,0.3,0.5,0.3,0.7C-416.8,4876.2-416.9,4876.4-417,4876.4z"/>
	<path fill="#E0CBCD" d="M-417,4876.4c0-0.4,0-0.7,0-1.1c2.8-3,5.5-3,8.3,0c-0.1,0.3-0.2,0.7-0.2,1c-2,0.4-3,1.8-3.5,4.3
		C-414,4878.6-414.8,4876.6-417,4876.4z"/>
</g>
<g>
	<path fill="#E8F0F2" d="M-412.8,5012.2c0.9-10.5,6.5-16.5,16.9-18.2c2.4-0.6,4.7-0.7,6,2c0.1,0.6,0.2,1.1,0.1,1.7
		c-0.9,5-0.2,10-0.4,15c0.2,1.8-0.6,3.2-1.8,4.4c-1.1,1.2-1,2.5,0.4,3.4c1.1,0.7,2.3,0.7,3.2-0.3c1-1.1,1.4-2.4,0.1-3.5
		c-1.2-1-2-2.2-1.9-3.8c0-4.3,0-8.5,0-12.8c0-1,0.4-2,0.8-2.9c1.8-1.6,3.9-1.3,4.3,0.8c1,5.5,5.2,8.8,8.5,12.5c3,3.4,5.1,7.8,9,10.4
		c0.6,0.2,1.3,0.2,1.9,0c4.2-3.6,6.9-8.5,10.8-12.3c1.8-1.8,3.9-5,6.6-0.8c0.3,0.9,0.8,1.8,1,2.7c0.2,1.4,0.1,2.9,0.2,4.3
		c0.2,1.4,0.5,2.7,0.8,4c1,3.3,2.8,3.4,5.1,1.3c1.1-1.4,1.6-3.1,1.7-4.8c0.3-1.5,0.3-3.1,0.3-4.6c0-2-0.4-3.8-1.9-5.2
		c-0.4-0.3-0.6-0.7-0.9-1c-2-2.2-2.4-4.8-2.5-7.6c0.1-0.5,0.3-1,0.6-1.4c1.8-2,4-2.2,6.5-1.5c10.4,1.7,16.1,7.7,16.9,18.2
		c-19.6,23.1-58.4,26.7-83.8,7.7C-407.5,5017.6-410.7,5015.4-412.8,5012.2z"/>
	<path fill="#E4E5E6" d="M-387.6,4949c-4.9-6.8,1.6-26.5,11.3-28.4c6.5-1.3,12.8-1.8,19.2,0.1c3.8,1.1,7,3.3,8.8,6.9
		c3.2,6.4,5.5,13.1,3.6,20.4c-0.1,0.2-0.2,0.5-0.2,0.7c-1,1.8-2.3,2.6-4.3,1.3c-2.1-3.6-1-8.2-3.6-11.7c-1.4-1.9-2.6-2.9-4.6-0.8
		c-4.6,4.9-10.6,5.8-16.9,5.5c-4.4-0.2-7.8,1.2-9,5.9c-1,1.7-2.3,1.9-3.7,0.6C-387.4,4949.5-387.5,4949.3-387.6,4949z"/>
	<path fill="#ECB081" d="M-375.8,4980.2c-6.2-3.8-8.4-11.1-13.8-15.8c-4.2-3.7-2.6-12.4,1.9-15.3c0,0-0.1,0.1-0.1,0.1
		c2.6,1.9,3.9,4.4,3.8,7.6c0.3,1.9,1.5,3.1,3.2,3.7c2.4,0.6,4.7,0.4,6.9-1c1.2-0.5,2.3-1.2,3.3-2c2.8-2.5,5.6-2,8.3,0.3
		c1.2,0.9,2.1,2.3,3.7,2.8c2.3,0.4,4.6,0.5,6.9-0.5c1.3-0.8,2.3-1.8,2.5-3.4c-0.5-4,2.5-5.9,4.7-8.4c0,0-0.1,0-0.1,0
		c4.9,6.8,3.8,11.7-1.7,18.4c-3.7,4.5-6.6,9.8-11.2,13.6C-362.5,4986.8-371,4986.8-375.8,4980.2z"/>
	<path fill="#C8DCDF" d="M-349.6,5008.3c-2.9-3.1-3.4,0.9-4.3,1.8c-4.1,4.2-7.1,9.4-11.9,13c-2.2-2.7-0.7-5.4,0.1-8
		c0.7-2.4,1.4-4.8,2.4-7.1c1.8-4,1.8-8.6,4-12.4c0.8-2.7,1-5.7,3.1-7.9c0.9-0.7,1.9-0.7,3-0.5c2.1,0.8,4,2,5.5,3.7
		c0.7,0.5,1.4,0.9,2,1.4c1.5,0.9,3.5,1.5,2,3.9c0,0.3,0,0.5,0,0.8c-0.1,0.4-0.3,0.8-0.6,1.1c-1.5,1.5-0.3,3.6-1.1,5.3
		c-0.1,0.5-0.2,0.9-0.4,1.3C-347,5005.9-347.2,5008.4-349.6,5008.3z"/>
	<path fill="#C8DCDF" d="M-367.7,5023.2c-7-6.3-12.5-14-18.7-21.1c-1-1.2-0.3-2,0-3.2c0.5-2-1.2-1.5-2.2-1.7
		c-0.8-0.4-1.1-1.1-1.2-1.9c-0.1-1.5,0.6-2.4,2-2.9c0.3-0.5,0.7-0.9,1-1.4c2.1-1.2,3.9-2.9,6.3-3.7c0.8-0.1,1.5-0.1,2.3,0.1
		c3.3,1.8,3.1,5.3,4,8.3c2.2,3.9,2.3,8.4,4.2,12.4c1,3.1,2.1,6.3,2.9,9.5C-366.6,5019.4-366.3,5021.4-367.7,5023.2z"/>
	<path fill="#D8A17A" d="M-375.8,4980.2c6,3.7,12.1,3.7,18.1,0c0,1.9,0,3.8,0,5.7c1,2.6-0.9,3.6-2.5,4.7c-1.6,1.1-3.7,1.5-5.4,2.5
		c-0.7,0.2-1.5,0.3-2.3,0.1c-2.1-0.8-4.3-1.4-6.1-2.9c-1.4-1.1-2.8-2.3-1.9-4.4C-375.8,4984-375.8,4982.1-375.8,4980.2z"/>
	<path fill="#67CAEB" d="M-366.1,4992c2.3-2.8,7.1-2.2,8.5-6.2c0.2-0.2,0.4-0.4,0.5-0.7c1.3,0.7,2.1,1.5,1.7,3.1
		c-0.3,2.8-1.2,5.3-2.3,7.9c-2.1,1.7-3.9,0.4-5.8-0.6C-364.9,4994.8-366.4,4994.1-366.1,4992z"/>
	<path fill="#66CBEC" d="M-375.8,4985.9c1.5,3.8,6.1,3.5,8.5,6.1c0.3,2-1.2,2.7-2.6,3.5c-1.8,1-3.6,2.3-5.8,0.6
		c-1.4-2.5-1.1-5.8-3.2-8c-0.3-1.9,1.5-1.3,2.2-2C-376.4,4985.9-376.1,4985.8-375.8,4985.9z"/>
	<path fill="#C3D9DB" d="M-343.7,4996.2c-0.7-1.3-1.3-2.6-2-3.9c3-0.6,5.6,0.2,8.1,1.7C-339.9,4993.9-341.5,4995.8-343.7,4996.2z"/>
	<path fill="#C3D9DB" d="M-387.8,4992.4c-0.3,0.8-0.6,1.5-0.9,2.3c-0.4,1-1.1,1.6-2.2,1.6c-1.5-1.2-3-2.2-5-2.2
		C-393.4,4992.5-390.7,4991.6-387.8,4992.4z"/>
	<path fill="#42655F" d="M-355.5,4988.3c-0.6-1-1.1-2.1-1.7-3.1c1.9,0.4,3.9,0.6,5.5,2c0,0.6-0.6,0.7-1,1
		C-353.6,4988.2-354.6,4988.3-355.5,4988.3z"/>
	<path fill="#415450" d="M-352.7,4988.2c0.3-0.3,0.6-0.7,1-1c1.6,1,3.7,1.4,4,3.8C-349.6,4990.5-351.2,4989.4-352.7,4988.2z"/>
	<path fill="#415450" d="M-380.8,4988.2c-2.1,0.7-3.5,2.8-6,2.8c1.2-1.8,3.1-2.9,5-3.8C-380.7,4986.8-380.5,4987.3-380.8,4988.2z"/>
	<path fill="#42655F" d="M-380.8,4988.2c-0.3-0.3-0.6-0.7-1-1c1.5-1.4,3.2-1.6,5.1-1.1c-0.7,0.7-1.5,1.3-2.2,2
		C-379.5,4988.1-380.1,4988.2-380.8,4988.2z"/>
	<path fill="#921923" d="M-370.5,4994.3c1.1-0.7,2.1-1.5,3.2-2.2c0.4,0,0.8,0,1.2,0c1.1,0.7,2.1,1.5,3.2,2.2c0.9,4.6,1.4,9.3,1.2,14
		c-1.3,5-2.7,9.9-4,14.9c-0.6,0-1.3,0-1.9,0c-1.3-5-2.7-9.9-4-14.9C-371.6,5003.6-371.6,4998.9-370.5,4994.3z"/>
	<path fill="#E5EDEF" d="M-346.8,5004.3c0.1-0.3,0.2-0.6,0.2-0.9c0.2-0.4,0.5-0.7,0.9-1c2-0.6,3.6-0.1,4.7,1.7c0.4,0,0.8,0,1.2,0.1
		c1.5,1.7,1.6,3.8,1.5,6c0,1.8,0,3.7,0,5.5c-0.3,2.4-1.6,4.3-3.2,6.1c-2.4,0.3-5.2,1.5-5.9-2.4c-1-1.3-1-2.9-0.9-4.4
		c0-1.6,0.1-3.1-0.1-4.7C-348.8,5008-348.1,5006-346.8,5004.3z"/>
	<path fill="#808181" d="M-389.5,5014c0.7,0.4,1.5,0.8,2.1,1.3c2.2,2,2.4,4.3,0.3,6.5c-1.8,1.8-3.9,1.9-5.8,0.1
		c-2.2-2.1-2.2-4.3,0-6.5c0.6-0.6,1.4-0.9,2.1-1.4C-390.4,5014.1-389.9,5014.1-389.5,5014z"/>
	<path fill="#A0A2A4" d="M-347.2,5019c1.2,2,3.2,2.1,5.2,2.1c0.8-0.5,1.7-0.5,2.5,0.1c-1.2,4-4.4,1.5-6.5,1.7
		c-2.2,0.1-1.4-2.3-1.5-3.8L-347.2,5019z"/>
	<path fill="#434343" d="M-389.5,5014c-0.4,0.4-0.8,0.6-1.3,0.1c0.1-5.6,0.1-11.2,0.2-16.8c1.9-0.1,1.3,1.1,1,2
		C-389.6,5004.2-389.5,5009.1-389.5,5014z"/>
	<path fill="#494949" d="M-340.9,5004.1c-1.5-1.2-3.5-0.2-5.1-0.9c1-1.9,0.5-4.1,1.5-6c0.3,0,0.6-0.1,0.8-0.2
		C-342.8,4999.4-341.8,5001.7-340.9,5004.1z"/>
	<path fill="#747777" d="M-346.8,5004.3c-0.4,2-0.7,3.9-1.1,5.9c-0.3,0.7-0.6,0.7-1,0.1c-0.2-0.6-0.5-1.3-0.7-1.9
		C-348.8,5006.9-349.1,5004.6-346.8,5004.3z"/>
	<path fill="#A1A3A4" d="M-339.6,5021.2c-0.8,0-1.6-0.1-2.5-0.1c1.7-1.3,2.5-3.1,3.4-4.9c0.2,0,0.4,0,0.6,0
		C-338.5,5017.8-339,5019.5-339.6,5021.2z"/>
	<path fill="#4C4C4C" d="M-338.6,5010.1c-0.4-2-0.8-3.9-1.2-5.9c2.6,1.4,2.2,3.6,1.8,5.9c-0.1,0.2-0.2,0.5-0.3,0.7
		C-338.3,5010.5-338.5,5010.3-338.6,5010.1z"/>
	<path fill="#8C8C8D" d="M-338.6,5010.1c0.2,0,0.4,0,0.7,0c0,2,0,4-0.1,6c0,0-0.3,0-0.3,0s-0.3,0-0.3,0
		C-338.6,5014.1-338.6,5012.1-338.6,5010.1z"/>
	<path fill="#7A8283" d="M-389.6,4999.3c-0.3-0.7-0.7-1.4-1-2c-0.1-0.4-0.2-0.7-0.3-1.1c0.7-0.5,1.5-1,2.2-1.6
		c0,0.9,0.1,1.7,0.1,2.6C-388.9,4997.9-389.2,4998.6-389.6,4999.3z"/>
	<path fill="#78787B" d="M-347.2,5019c0,0-0.3,0-0.3,0c-1.8-0.8-1.2-2.4-1.2-3.8c0.3-0.7,0.5-0.7,0.8,0
		C-347.7,5016.5-347.5,5017.7-347.2,5019z"/>
	<path fill="#888A8C" d="M-347.9,5015.2c-0.3,0-0.5,0-0.8,0c-0.1-1.6-0.1-3.3-0.2-4.9c0.3,0,0.7-0.1,1-0.1
		C-347.9,5011.8-347.9,5013.5-347.9,5015.2z"/>
	<path fill="#EBAF81" d="M-384.6,4949.7c0-5.6,2.8-8.8,8.4-8.5c7.8,0.3,14.9-0.2,19.8-7.4c1.4-2.1,2.4-0.3,3.4,0.9
		c3.6,4.5,5,9.6,4.4,15.3c-0.2,0.4-0.5,0.7-1,0.8c-3.4-0.7-6.9-2.4-10.1,0.7c-0.5,0.5-1.1,0.9-1.8,1.2c-2.2,0.9-4.2,2.7-6.9,1.8
		c-1.4-0.5-2.4-1.6-3.8-2c-0.6-0.3-1.2-0.7-1.7-1.2c-2.9-2.7-6.3-1.2-9.5-1C-383.9,4950.1-384.3,4949.9-384.6,4949.7z"/>
	<path fill="#3A322B" d="M-384.6,4949.7c0.3-0.1,0.7-0.1,1-0.2c0.5,0.1,0.9,0.3,1.3,0.7c0.9,2.6-0.2,4.9-1.3,7.1
		c-0.5,0.6-1.1,1.1-1.9,0.8c-0.5-3.1-0.7-6.2-2.2-9C-386.6,4948.8-385.9,4950.5-384.6,4949.7z"/>
	<path fill="#342D28" d="M-349.2,4950c0.2,0,0.4-0.1,0.6-0.2c1.8,0.7,2.2-2.2,4-1.7c-1.6,3.1-3.4,6.2-3.3,9.9
		c-0.9,0.2-1.4-0.3-1.9-1c-0.8-2.3-2.2-4.6-0.8-7.2C-350.2,4949.8-349.7,4949.9-349.2,4950z"/>
	<path fill="#D19166" d="M-359.9,4970.5c-4.5,3-10.4,3.4-12.3,1.3c-0.5-0.5-0.9-1.3-0.2-1.6
		C-368.5,4968.6-364.6,4968.8-359.9,4970.5z"/>
	<path fill="#302721" d="M-368.4,4953c2.6,0.9,4.2-2.1,6.6-1.8c1.4,2.5,0.5,4.9,0,7.4c-0.2,0.4-0.6,0.7-1,0.9
		c-2.7-3.2-5.3-3.3-7.9,0.2c-0.7,0.9-1.6,1.6-2.9,1.6c-0.1-0.2-0.3-0.4-0.5-0.5c-0.1-3.1,2-5.2,3.6-7.5
		C-369.8,4952.8-369.2,4952.6-368.4,4953z"/>
	<path fill="#3B2F27" d="M-350.9,4961.1c-2.8,2.1-5.7,1.7-8.8,0.8c-0.2-0.9,0.3-1.4,1-1.8c2.1-0.6,4.2-1.4,6.5-0.7
		C-351.4,4959.8-351,4960.3-350.9,4961.1z"/>
	<path fill="#2C241E" d="M-373.6,4961.3c-2.5,2.1-5.3,1.1-8,0.6c-0.1-1,0.6-1.5,1.4-1.9c2.2-0.4,4.5-1.3,6.4,1L-373.6,4961.3z"/>
	<path fill="#514034" d="M-380.6,4961.1c-0.3,0.3-0.6,0.5-1,0.8c-2-0.6-3.4-1.8-4-3.8c0.3-0.4,0.6-0.8,0.9-1.2
		c2.2-0.2,3.3,1.2,4.2,2.9C-380.3,4960.3-380.4,4960.7-380.6,4961.1z"/>
	<path fill="#4F3F34" d="M-358.7,4961.1c-0.3,0.3-0.7,0.5-1,0.8c-1.3-0.5-2.6-1-3.2-2.4c0.1-0.5,0.1-1,0.2-1.6
		c1.9-0.6,3.2,0.3,4.2,1.8C-358.3,4960.3-358.4,4960.7-358.7,4961.1z"/>
	<path fill="#4A3A2F" d="M-350.9,4961.1c-0.3-0.2-0.6-0.4-0.9-0.7c0-1.9,0.5-3.5,2.9-3.5c0.3,0.4,0.6,0.8,0.9,1.1
		C-348.5,4959.6-349.1,4960.9-350.9,4961.1z"/>
	<path fill="#86D8EE" d="M-361.8,5008.3c-1.8-4.5-4.4-9-1.2-14c1.7,0.6,3.5,1.3,5.2,1.9C-359.1,5000.2-360.4,5004.2-361.8,5008.3z"
		/>
	<path fill="#D2DBDD" d="M-344.6,4997.2c1,2.4,1.2,4.5-1.5,6c-0.2,0.1-0.4,0.1-0.5,0.2c0-1.1,0.4-2.6-0.2-3.3
		C-349.3,4996.4-346.3,4997.3-344.6,4997.2z"/>
	<path fill="#85D8EE" d="M-370.5,4994.3c3.2,5,0.6,9.5-1.2,14c-1.3-4-2.7-8.1-4-12.1C-374,4995.5-372.2,4994.9-370.5,4994.3z"/>
	<path fill="#7E7E7E" d="M-388.2,5018.6c0.1,1.3-0.7,1.8-1.7,1.9c-1,0.1-1.5-0.6-1.5-1.5c-0.1-1.2,0.6-1.8,1.7-1.9
		C-388.7,5016.9-388.5,5017.8-388.2,5018.6z"/>
	<path fill="#ECC0A1" d="M-380.6,4961.1c-0.1-0.3-0.2-0.5-0.3-0.8c-0.2-1.3,0-2.7,0.7-3.8c1.8-2.6,0.8-4.8-0.7-7
		c2.8-1.7,5.4-1.2,8,0.5c0.4,0.4,0.8,0.8,1.3,1.2c1.4,0.6,1.6,1.9,1.8,3.3c-0.3,2.8-2.1,4.7-4,6.5
		C-376.1,4961-378.4,4961.1-380.6,4961.1z"/>
	<path fill="#EDC8AD" d="M-359.1,4960.4c-1.6-0.1-2.2-1.7-3.5-2.4c-0.8-2.4-0.5-4.6,0.8-6.8c0.4-0.4,0.8-0.8,1.2-1.1
		c0.8-0.5,1.6-0.8,2.5-0.9c2.7-0.3,4.8,0.6,4.6,3.7C-353.9,4956.4-354.4,4960-359.1,4960.4z"/>
	<path fill="#2E251F" d="M-358.9,4950.1c-0.6,0-1.1,0-1.7,0c3.8-3.5,7.6-2.5,11.4,0c-0.5,0.1-1.1,0.1-1.6,0.2
		C-353.6,4952.1-356.2,4948.1-358.9,4950.1z"/>
	<path fill="#2E251F" d="M-372.9,4950.1c-2.7-0.4-5.4-1.9-8.1,0c-0.5,0.6-1,0.7-1.6,0.2c-0.3-0.3-0.7-0.5-1-0.8
		C-380,4947.9-376.3,4946.4-372.9,4950.1z"/>
	<path fill="#3E3129" d="M-369.9,4954.5c-0.6-1.1-1.2-2.2-1.8-3.3c1.8-0.7,2.4,0.8,3.3,1.8C-368.9,4953.5-369.4,4954-369.9,4954.5z"
		/>
	<path fill="#ECC7AC" d="M-382.6,4950.2c0.5-0.1,1.1-0.1,1.6-0.2c4.2-0.4,5.4,1.1,3.5,5.1c-0.9,1.9-1.3,4.1-3.4,5.2
		c-2.1-0.1-2.5-2.2-3.7-3.3C-385,4954.4-384.3,4952.2-382.6,4950.2z"/>
	<path fill="#ECBFA1" d="M-358.9,4950.1c2.7-1.9,5.4-0.7,8.1,0.1c1.7,1.9,2.3,4.2,2,6.7c-1,1.2-1.9,2.3-2.9,3.5
		c-2.2,1-4.6,0.6-6.9,0.7c-0.2-0.2-0.3-0.5-0.4-0.8c1.9-1.4,2.4-3.5,3.3-5.4C-354.3,4951.6-355,4949.9-358.9,4950.1z"/>
</g>
</svg>
