<?xml version="1.0" encoding="utf-8"?>
<!-- Generator: Adobe Illustrator 21.1.0, SVG Export Plug-In . SVG Version: 6.00 Build 0)  -->
<svg version="1.1" id="Layer_1" xmlns="http://www.w3.org/2000/svg" xmlns:xlink="http://www.w3.org/1999/xlink" x="0px" y="0px"
	 viewBox="-470 4834.5 206.5 206.5" enable-background="new -470 4834.5 206.5 206.5" xml:space="preserve">
<g>
	<circle fill="#77CBC7" cx="-366.7" cy="4937.7" r="103.2"/>
	<path fill="#62BAB3" d="M-366.7,4834.5L-366.7,4834.5V5041l0,0c57,0,103.2-46.2,103.2-103.2
		C-263.5,4880.7-309.7,4834.5-366.7,4834.5z"/>
</g>
<g>
	<g>
		<path fill="#F2F2F2" d="M-436.1,5015c0.3,0.3,0.5,0.5,0.8,0.8C-435.8,5015.9-436.1,5015.6-436.1,5015z"/>
		<path fill="#F2F2F2" d="M-436.5,5016.7c0-0.1,0.1-0.1,0.1-0.2C-436.4,5016.6-436.5,5016.6-436.5,5016.7
			C-436.5,5016.7-436.5,5016.7-436.5,5016.7z"/>
		<path fill="#F2F2F2" d="M-436.5,5016.7c0,0.1-0.1,0.1-0.1,0.2C-436.6,5016.8-436.5,5016.7-436.5,5016.7
			C-436.5,5016.7-436.5,5016.7-436.5,5016.7z"/>
		<path fill="#FDFCFC" d="M-350.3,4996.1c-17.9,0-35.7,0-53.6,0c-4.6,0-9.3,0-13.9,0c-2.6-0.8-3.7-2.6-3.7-5.3c0-21,0-42.1,0-63.1
			c0-0.4,0.1-0.8,0.1-1.2c0.2,0,0.4-0.1,0.6-0.1c3.8,0,7.5,0.1,11.3,0.1c8.9,0,17.8-0.1,26.7-0.1c0.2,0,0.5,0,0.7,0
			c4.3,0.1,8.7,0.1,13,0.2c0,7.1,0,14.2,0,21.3c-0.1,0.6,0.2,1.1,0.5,1.6c-0.7,0.5-0.4,1.2-0.4,1.9c0,14,0,28.1,0,42.1
			c0,1.5,0.4,1.9,1.9,1.9c5.6-0.1,11.1,0,16.7,0C-350.5,4995.6-350.4,4995.9-350.3,4996.1z M-399,4950.3c-0.1-0.2-0.1-0.3-0.2-0.5
			c-0.1,0-0.1,0.1-0.1,0.1C-399.2,4950-399.1,4950.2-399,4950.3c0,0.5,0.3,0.8,0.8,0.8c0.2,1.4,1.4,1.5,2.4,1.8
			c2.8,0.8,6-0.1,7.2-2.1c-1.5,0.3-2.5,1.4-3.9,1.5c-2.1,0.3-3.8-0.5-5.6-1.2C-398.2,4950.6-398.5,4950.3-399,4950.3z
			 M-383.6,4951.5c-0.1-0.5-0.2-0.9-0.7-1c-0.2,0-0.4,0.1-0.3,0.3C-384.6,4951.4-384.1,4951.5-383.6,4951.5c1.8,1.6,6,2.2,7.8,0.9
			C-378.5,4952.5-381.1,4952.1-383.6,4951.5z M-380.3,4966c5.1,0,5.1,0,5.1-5.1c0-0.1,0-0.1,0-0.2c0-4.8,0-4.8-4.8-4.8
			c-5.2,0-5.2,0-5.2,5.2C-385.3,4966-385.3,4966-380.3,4966z M-375.2,4983.2c0-5.1,0-5.1-5.1-5.1c-0.1,0-0.1,0-0.2,0
			c-4.8,0-4.8,0-4.8,4.8c0,5.2,0,5.2,5.2,5.2C-375.2,4988.1-375.2,4988.1-375.2,4983.2z M-380.3,4933.8c-5,0-5,0-5,5c0,5,0,5,5.1,5
			c5,0,5,0,5-4.9C-375.2,4933.8-375.2,4933.8-380.3,4933.8z M-407.5,4983.2C-407.5,4983.2-407.5,4983.2-407.5,4983.2
			c0,1.2,0.1,2.4-0.1,3.6c-0.2,1.1,0.1,1.3,1.1,1.3c2.4,0,4.8,0,7.3,0c1.1,0,1.6-0.3,1.5-1.5c-0.1-2.3-0.1-4.7,0-7
			c0-1.3-0.5-1.6-1.7-1.6c-2.1,0.1-4.2,0.1-6.2,0c-1.6-0.1-2,0.5-1.9,2C-407.4,4981.1-407.5,4982.2-407.5,4983.2z M-397.8,4960.9
			c0-1.1-0.1-2.1,0-3.2c0.1-1.3-0.3-1.8-1.7-1.8c-2.1,0.1-4.3,0.1-6.4,0c-1.4-0.1-1.7,0.5-1.7,1.8c0.1,1.3,0,2.5,0,3.8
			c0,4.5,0,4.5,4.6,4.5C-397.8,4966-397.8,4966-397.8,4960.9z M-417.3,4942.2c3.4,0,6.9,0,10.3,0c0-0.2,0-0.5,0-0.7
			C-410.5,4941.6-413.9,4941-417.3,4942.2z M-396.7,4942.5c2-0.5,4-0.2,5.9,0.5C-392.5,4941.1-395,4940.9-396.7,4942.5z
			 M-412.6,4948c-1.8-1.3-4-1.3-6-1.8C-416.8,4947.6-414.5,4947.3-412.6,4948z M-411,4951.7c-2.7,1.1-5.7,0.3-8.4,0.9
			C-416.7,4952.5-413.7,4953.3-411,4951.7z M-401.3,4952.6c-1.7,0-3.2-0.8-4.8-1.1C-404.7,4952.9-403.2,4953.4-401.3,4952.6z
			 M-400.9,4941.8c-0.9-0.4-1.9-0.7-3,0.2C-402.7,4942.4-401.8,4942.4-400.9,4941.8z M-399.5,4948.6c0,0-0.1,0-0.1,0
			c0,0,0,0.1,0,0.1c0.1,0,0.1,0,0.2,0C-399.5,4948.7-399.5,4948.6-399.5,4948.6z M-419.7,4944.8c0-0.1,0-0.1,0-0.2
			c-0.1,0-0.1,0-0.2,0c0,0,0,0.1,0.1,0.1C-419.8,4944.8-419.7,4944.8-419.7,4944.8z"/>
		<path fill="#CA4743" d="M-421.4,4920.9c-0.1-7.8-0.2-15.6,0.1-23.4c0-0.1,0.1-0.3,0.1-0.4c0.6-2.2,2.2-3.1,4.3-3.1
			c4.5,0,9,0,13.5,0c0,3.7,0.1,7.4,0.1,11c0,4.7,0,4.7,4.6,4.8c3,0.1,3.4-0.3,3.4-3.5c0.1-4.1-0.3-8.3,0.2-12.4c2,0,4.1,0,6.1-0.1
			c6.7,0,13.4,0.1,20.1,0.1c-0.5,0.7-0.4,1.5-0.4,2.3c0,8.2,0,16.3,0,24.5C-386.6,4920.9-404,4920.9-421.4,4920.9z"/>
		<path fill="#CA4743" d="M-369.2,4920.9c0-8.2,0-16.3,0-24.5c0-0.8-0.1-1.6,0.4-2.3c8.4,0,16.7,0,25.1,0c0.2,0.1,0.4,0.2,0.5,0.2
			c0.4,3.5,0.1,7.1,0.2,10.6c0.1,5,0,5,5,4.9c2.4,0,2.9-0.6,3-3c0-4.3,0.1-8.6,0.1-12.9c2,0,4.1-0.1,6.1-0.1c2.5,0,4.9,0,7.4,0.1
			c2.1,0,3.7,0.9,4.3,3.1c0,0.1,0.1,0.3,0.1,0.4c0.4,3.5,0.1,7.1,0.2,10.6c0,4.3,0,8.6-0.1,12.8c-0.6,0-1.2-0.1-1.8-0.1
			C-335.5,4920.9-352.3,4920.9-369.2,4920.9L-369.2,4920.9z"/>
		<path fill="#A83D3D" d="M-421.4,4920.9c17.4,0,34.8,0,52.3,0c0,0,0,0,0,0c0,1.8,0,3.6,0,5.4c0,0.1,0,0.1,0,0.2
			c-4.3-0.1-8.7-0.1-13-0.2c-0.2-0.3-0.5-0.3-0.7,0c-8.9,0-17.8,0.1-26.7,0.1c-3.8,0-7.5,0-11.3-0.1c-0.2-0.1-0.4-0.2-0.6-0.3
			C-421.6,4924.4-421.5,4922.7-421.4,4920.9z"/>
		<path fill="#353535" d="M-395.1,4894c-0.5,4.1-0.1,8.3-0.2,12.4c-0.1,3.2-0.4,3.6-3.4,3.5c-4.6-0.1-4.6-0.1-4.6-4.8
			c0-3.7-0.1-7.4-0.1-11c0-1.8,0-3.6,0.1-5.4c0.1-1.6,0.8-2.6,2.5-2.4c1.9,0.3,4.1-1.1,5.5,1.3
			C-395.1,4889.7-395.6,4891.9-395.1,4894z"/>
		<path fill="#050404" d="M-334.9,4894c0,4.3-0.1,8.6-0.1,12.9c0,2.4-0.6,2.9-3,3c-5,0.1-5,0.1-5-4.9c0-3.5,0.3-7.1-0.2-10.6
			c0-0.1,0.1-0.2,0-0.3c0.4-1.8,0.1-3.6,0.2-5.4c0-1.7,0.9-2.4,2.5-2.4c0.9,0,1.9,0.1,2.8,0c1.4-0.1,2.3,0.5,2.8,1.8
			C-334.9,4890-334.9,4892-334.9,4894z"/>
		<path fill="#CA4743" d="M-395.1,4894c-0.6-2.1-0.1-4.3-0.2-6.5c2.2,2,4.4,4.1,6.4,6.4C-391,4894-393,4894-395.1,4894z"/>
		<path fill="#CA4743" d="M-334.9,4894c0-2,0-4,0-6.1c1.5,0.2,1.7,1.7,2.7,2.5c1.3,1,2.3,2.3,3.4,3.5
			C-330.8,4894-332.9,4894-334.9,4894z"/>
		<path fill="#34C7DB" d="M-421.4,4926.2c0.2,0.1,0.4,0.2,0.6,0.3c-0.2,0-0.4,0.1-0.6,0.1C-421.5,4926.4-421.5,4926.3-421.4,4926.2z
			"/>
		<path fill="#34C7DB" d="M-343.2,4894c0,0.1,0,0.2,0,0.3c-0.2-0.1-0.4-0.2-0.5-0.2C-343.5,4894.1-343.3,4894-343.2,4894z"/>
		<path fill="#30B4C4" d="M-421.2,4897.2c0,0.1-0.1,0.3-0.1,0.4C-421.3,4897.4-421.2,4897.3-421.2,4897.2z"/>
		<path fill="#04A8BD" d="M-316.9,4897.6c0-0.1-0.1-0.3-0.1-0.4c0.1,0,0.2,0.1,0.3,0.2C-316.8,4897.4-316.9,4897.5-316.9,4897.6z"/>
		<path fill="#F2F2F2" d="M-369.1,4947.9c0-7.1,0-14.2,0-21.3c0-0.1,0-0.1,0-0.2c0.8,0,1.6,0.1,2.4,0.1c6.2,0,12.4,0.1,18.6,0.1
			c0.3,0.4,0.5,0.4,0.8,0c0.1-0.1,0.3-0.1,0.4-0.2c0.3,0,0.5,0,0.8,0c9.6,0,19.1,0,28.7,0c0.2,0,0.4,0.1,0.7,0.1
			c0.1,4.4,0.1,8.9,0.2,13.3c0,0.7,0,1.3,0,2c0,5.9-0.1,11.7-0.1,17.6c-2.1-0.2-4.3-0.4-6.4-0.6c-2.5-0.3-4.9,0.3-7.3,0.7
			c0-0.5-0.1-0.9,0-1.4c0.3-1.8-0.5-2.4-2.2-2.2c-2.1,0.2-4.2,0.1-6.2,0c-1.2,0-1.7,0.4-1.6,1.6c0.1,2.3,0,4.6,0,6.8
			c-3.5,3-6.6,6.4-8.5,10.7c-3.1,6.6-3.3,13.4-1.5,20.3c-5.6,0-11.1,0-16.7,0c-1.5,0-1.9-0.4-1.9-1.9c0.1-14,0-28.1,0-42.1
			c0-0.6-0.2-1.4,0.4-1.9c0.7,0.3,1,1.3,2,1.2c0.1,0.1,0.3,0.3,0.4,0.4c0.1,0.1,0.3,0.3,0.4,0.4c0.8,1.8,1.8,2.1,3.6,0.9
			c-1.4,0-2.5-0.4-3.6-0.9c-0.1-0.1-0.3-0.3-0.4-0.4c-0.1-0.1-0.3-0.3-0.4-0.4C-367,4949.3-368.2,4948.7-369.1,4947.9z M-332,4944.7
			c-0.1,0-0.1-0.1-0.2-0.1C-332.1,4944.6-332.1,4944.6-332,4944.7c-0.1,0.9,0.3,1.6,1.2,1.9c1.9,0.6,3.9,1.1,5.9,1.7
			c0.1-0.2,0.1-0.3,0.2-0.5C-327,4946.3-330.2,4946.9-332,4944.7z M-363.9,4941.4c0.3,0.1,0.8,0.1,0.7,0.5c-0.1,1.5,0.8,1.5,1.9,1.5
			c2.2,0,4.4-0.1,6.6,0c1.3,0,1.6-0.4,1.6-1.6c-0.1-2.1-0.1-4.3,0-6.4c0.1-1.4-0.5-1.7-1.8-1.7c-2.1,0.1-4.3,0.1-6.4,0
			c-1.5-0.1-2,0.4-2,1.9C-363.1,4937.6-362.6,4939.7-363.9,4941.4c-1.9,0.9-3,2.5-4.2,4.2C-366.4,4944.5-364.7,4943.4-363.9,4941.4z
			 M-357.9,4978.1c-5.2,0-5.2,0-5.2,5.1c0,0.1,0,0.1,0,0.2c0,4.8,0,4.8,4.8,4.8c5.3,0,5.3,0,5.3-5.2
			C-353,4978.1-353,4978.1-357.9,4978.1z M-358,4966c5,0,5,0,5-4.9c0-5.1,0-5.1-5-5.1c-5,0-5,0-5,4.9C-363,4966-363,4966-358,4966z
			 M-342.2,4941.7c1.5,1.6,3.2,2,5.1,1.9c1.6-0.1,3.2,0.1,4.7,0c0.6,0,1.6,0.1,1.6-1.1c0.1-1.1,0.4-2.2,0.4-3.4c0-6.5,0.8-5.3-5-5.3
			c-5.1-0.1-5.1,0-5.1,5.1C-340.5,4940.3-340.4,4941.6-342.2,4941.7z M-333.4,4946.5c-3.3,0.4-6.3-0.1-9.3,0.5
			C-339.9,4947.8-334.5,4947.6-333.4,4946.5z M-322.6,4941.9c-3.3-0.8-6-0.5-6.9,0.7C-327.1,4941.9-324.8,4942.6-322.6,4941.9z
			 M-332,4952.5c4.6,0.7,7.6,0.4,8.8-1C-326.1,4952.8-328.9,4952-332,4952.5z M-335.3,4952.6c-2.6-0.4-5.2,0.1-7.8-0.7
			C-340.6,4953.3-337.9,4952.5-335.3,4952.6z M-349.5,4942c0,0.2,0.1,0.3,0.1,0.5c1.1,0,2.2,0.5,3-0.9
			C-347.5,4941.8-348.5,4941.9-349.5,4942z M-350.4,4952.7c-0.7-0.3-1.3-0.8-2.2-0.4C-351.9,4953.3-351.2,4953.2-350.4,4952.7z
			 M-344.8,4950.1c0-0.1,0.1-0.2,0.1-0.3c0,0-0.1,0-0.1,0C-344.8,4949.9-344.8,4950-344.8,4950.1z"/>
		<path fill="#353535" d="M-330.4,4959.5c2.4-0.4,4.8-1,7.3-0.7c0,2,0,4.1,0,6.1c-0.4,0.6-0.5-0.3-0.8-0.1
			c-10.2-0.4-20.1,8.4-21.4,19.1c-0.2,1.4-0.8,3,1.9,3.1c-2.2-0.1-2.1,1-2,2.4c0.4,3.4,1.4,6.5,3.3,9.4c4.3,6.5,10.2,10.2,18.2,10.3
			c0.3,0.1,0.5,0.2,0.8,0.3c0,1.9,0,3.8,0,5.7c-11.3,0.5-22.2-6.8-26.6-17.7c-0.2-0.4-0.4-0.8-0.6-1.3c-0.1-0.3-0.1-0.5-0.2-0.8
			c-1.8-6.9-1.6-13.7,1.5-20.3c2-4.3,5-7.7,8.5-10.7C-337.4,4962.3-334,4960.6-330.4,4959.5z"/>
		<path fill="#050404" d="M-323.1,4964.9c0-2,0-4.1,0-6.1c2.1,0.2,4.3,0.4,6.4,0.6c11.3,3.2,18.7,10.4,21.2,21.9
			c1.9,9-0.3,17.2-6.5,24.2c-0.1-0.2-0.3-0.4-0.4-0.6c-0.1-0.1-0.3-0.3-0.4-0.4c-0.1-0.1-0.3-0.3-0.4-0.4c-0.3-0.1-0.5-0.3-0.8-0.4
			c-0.1-0.1-0.3-0.3-0.4-0.4c0-0.5-0.3-0.8-0.8-0.8c-0.1-0.2-0.2-0.4-0.3-0.6c-0.1,0-0.2,0.1-0.2,0.1c0.2,0.2,0.3,0.3,0.5,0.5
			c0.3,0.3,0.5,0.5,0.8,0.8c0.1,0.1,0.3,0.3,0.4,0.4c0.3,0.1,0.5,0.3,0.8,0.4c0.1,0.1,0.3,0.3,0.4,0.4c0.1,0.1,0.3,0.3,0.4,0.4
			c0.1,0.3,0.1,0.6,0.2,0.9c-5.6,6.1-12.4,9.3-20.8,9.2c0-1.9,0-3.8,0-5.7c0.5-0.1,1.1-0.2,1.6-0.2c10.4-0.7,19.2-8.8,20.5-19.8
			c0.1-1.2,0.5-2.5-1.9-2.3c2.5-0.1,2-1.6,1.8-2.8c-0.9-6.5-4-11.7-9.4-15.5C-314.3,4966.1-318.4,4964.5-323.1,4964.9z"/>
		<path fill="#A83D3D" d="M-348.2,4926.6c-6.2,0-12.4-0.1-18.6-0.1c-0.8,0-1.6-0.1-2.4-0.1c0-1.8,0-3.6,0-5.4c16.8,0,33.6,0,50.5,0
			c0.6,0,1.2,0,1.8,0.1c0,1.7,0,3.4,0,5.1c-0.2,0.1-0.4,0.2-0.6,0.3c-9.6,0-19.1,0-28.7,0c-0.3-0.3-0.5-0.3-0.8,0
			c-0.1,0.1-0.3,0.1-0.4,0.2C-347.6,4926.6-347.9,4926.6-348.2,4926.6z"/>
		<path fill="#34C7DB" d="M-317.5,4926.4c0.2-0.1,0.4-0.2,0.6-0.3c0,0.1,0,0.3,0,0.4C-317.1,4926.5-317.3,4926.5-317.5,4926.4z"/>
		<path fill="#353535" d="M-302.6,5005c0.1,0.2,0.3,0.4,0.4,0.6c-0.1,0.1-0.2,0.2-0.3,0.4C-302.4,5005.6-302.5,5005.3-302.6,5005
			L-302.6,5005z"/>
		<path fill="#D1D1D1" d="M-380.3,4966c-4.9,0-4.9,0-4.9-4.9c0-5.2,0-5.2,5.2-5.2c4.8,0,4.8,0,4.8,4.8c0,0.1,0,0.1,0,0.2
			C-375.2,4966-375.2,4966-380.3,4966z"/>
		<path fill="#D1D1D1" d="M-375.2,4983.2c0,4.9,0,4.9-4.9,4.9c-5.2,0-5.2,0-5.2-5.2c0-4.8,0-4.8,4.8-4.8c0.1,0,0.1,0,0.2,0
			C-375.2,4978.1-375.2,4978.1-375.2,4983.2z"/>
		<path fill="#D1D1D1" d="M-380.3,4933.8c5.1,0,5.1,0,5.1,5.1c0,4.9,0,4.9-5,4.9c-5.1,0-5.1,0-5.1-5
			C-385.3,4933.8-385.3,4933.8-380.3,4933.8z"/>
		<path fill="#D1D1D1" d="M-407.5,4983.2c0-1.1,0.1-2.2,0-3.2c-0.1-1.4,0.3-2.1,1.9-2c2.1,0.1,4.2,0.1,6.2,0c1.2,0,1.7,0.3,1.7,1.6
			c-0.1,2.3-0.1,4.7,0,7c0,1.2-0.4,1.5-1.5,1.5c-2.4-0.1-4.8,0-7.3,0c-1,0-1.2-0.2-1.1-1.3C-407.4,4985.7-407.5,4984.4-407.5,4983.2
			C-407.5,4983.2-407.5,4983.2-407.5,4983.2z"/>
		<path fill="#D1D1D1" d="M-397.8,4960.9c0,5.1,0,5.1-5.2,5.1c-4.6,0-4.6,0-4.6-4.5c0-1.3,0.1-2.5,0-3.8c-0.1-1.2,0.3-1.8,1.7-1.8
			c2.1,0.1,4.3,0.1,6.4,0c1.4-0.1,1.8,0.5,1.7,1.8C-397.8,4958.8-397.8,4959.8-397.8,4960.9z"/>
		<path fill="#FDFCFC" d="M-417.3,4942.2c3.4-1.1,6.8-0.6,10.3-0.7c0,0.2,0,0.5,0,0.7C-410.5,4942.2-413.9,4942.2-417.3,4942.2z"/>
		<path fill="#FDFCFC" d="M-398.2,4951.1c1.8,0.7,3.5,1.5,5.6,1.2c1.4-0.2,2.4-1.2,3.9-1.5c-1.2,2-4.4,2.9-7.2,2.1
			C-396.8,4952.6-398,4952.5-398.2,4951.1L-398.2,4951.1z"/>
		<path fill="#FDFCFC" d="M-383.6,4951.5c2.5,0.7,5.1,1.1,7.8,0.9C-377.7,4953.6-381.8,4953.1-383.6,4951.5L-383.6,4951.5z"/>
		<path fill="#FDFCFC" d="M-396.7,4942.5c1.7-1.6,4.2-1.3,5.9,0.5C-392.7,4942.2-394.7,4942-396.7,4942.5z"/>
		<path fill="#FDFCFC" d="M-412.6,4948c-2-0.7-4.3-0.4-6-1.8C-416.5,4946.7-414.3,4946.7-412.6,4948z"/>
		<path fill="#FDFCFC" d="M-411,4951.7c-2.7,1.6-5.6,0.8-8.4,0.9C-416.7,4952.1-413.8,4952.8-411,4951.7z"/>
		<path fill="#FDFCFC" d="M-401.3,4952.6c-1.9,0.8-3.5,0.3-4.8-1.1C-404.5,4951.9-403,4952.6-401.3,4952.6z"/>
		<path fill="#FDFCFC" d="M-369.1,4947.9c0.9,0.8,2.1,1.5,2.4,2.9l0,0c-0.9,0-1.2-0.9-2-1.2C-369,4949-369.2,4948.5-369.1,4947.9z"
			/>
		<path fill="#F1F1F1" d="M-400.9,4941.8c-0.9,0.6-1.8,0.5-3,0.2C-402.7,4941.1-401.8,4941.4-400.9,4941.8z"/>
		<path fill="#F1F1F1" d="M-383.7,4951.5c-0.5-0.1-0.9-0.2-1-0.7c0-0.2,0.1-0.4,0.3-0.3C-383.8,4950.6-383.7,4951-383.7,4951.5
			C-383.6,4951.5-383.7,4951.5-383.7,4951.5z"/>
		<path fill="#F1F1F1" d="M-398.2,4951.1c-0.5,0-0.8-0.3-0.8-0.8l0,0C-398.5,4950.3-398.2,4950.6-398.2,4951.1
			C-398.2,4951.1-398.2,4951.1-398.2,4951.1z"/>
		<path fill="#34C7DB" d="M-382.8,4926.4c0.2-0.3,0.5-0.3,0.7,0C-382.3,4926.4-382.6,4926.4-382.8,4926.4z"/>
		<path fill="#F1F1F1" d="M-399,4950.3c-0.1-0.1-0.2-0.3-0.3-0.4c0,0,0.1-0.1,0.1-0.1C-399.1,4949.9-399,4950.1-399,4950.3
			C-399,4950.3-399,4950.3-399,4950.3z"/>
		<path fill="#F1F1F1" d="M-399.5,4948.6c0,0,0,0.1,0.1,0.1c-0.1,0-0.1,0-0.2,0c0-0.1,0-0.1,0-0.1
			C-399.6,4948.6-399.6,4948.6-399.5,4948.6z"/>
		<path fill="#F1F1F1" d="M-419.7,4944.8c0,0-0.1,0-0.1,0c0,0,0-0.1-0.1-0.1c0.1,0,0.1,0,0.2,0
			C-419.7,4944.7-419.7,4944.7-419.7,4944.8z"/>
		<path fill="#D1D1D1" d="M-357.9,4978.1c4.9,0,4.9,0,4.9,4.9c0,5.2,0,5.2-5.3,5.2c-4.8,0-4.8,0-4.8-4.8c0-0.1,0-0.1,0-0.2
			C-363.1,4978.1-363.1,4978.1-357.9,4978.1z"/>
		<path fill="#FDC10B" d="M-358,4966c-5.1,0-5.1,0-5.1-5.1c0-4.9,0-4.9,5-4.9c5,0,5,0,5,5.1C-352.9,4966-352.9,4966-358,4966z"/>
		<path fill="#D1D1D1" d="M-342.2,4941.7c1.8-0.2,1.7-1.4,1.7-2.8c0-5.2,0-5.2,5.1-5.1c5.8,0.1,5-1.2,5,5.3c0,1.1-0.3,2.2-0.4,3.4
			c-0.1,1.1-1,1-1.6,1.1c-1.6,0.1-3.2-0.1-4.7,0C-339,4943.7-340.7,4943.3-342.2,4941.7z"/>
		<path fill="#D1D1D1" d="M-363.9,4941.5c1.3-1.8,0.8-3.8,0.8-5.8c0-1.5,0.4-2,2-1.9c2.1,0.1,4.3,0.1,6.4,0c1.3,0,1.8,0.3,1.8,1.7
			c-0.1,2.1-0.1,4.3,0,6.4c0,1.2-0.3,1.7-1.6,1.6c-2.2-0.1-4.4-0.1-6.6,0c-1.1,0-2-0.1-1.9-1.5
			C-363.1,4941.6-363.6,4941.5-363.9,4941.5L-363.9,4941.5z"/>
		<path fill="#D1D1D1" d="M-330.4,4959.5c-3.6,1-7,2.7-10.1,4.8c0-2.3,0-4.6,0-6.8c0-1.2,0.4-1.7,1.6-1.6c2.1,0.1,4.2,0.1,6.2,0
			c1.8-0.1,2.5,0.4,2.2,2.2C-330.5,4958.6-330.4,4959.1-330.4,4959.5z"/>
		<path fill="#F2F2F2" d="M-333.4,4946.5c-1.1,1.1-6.5,1.3-9.3,0.5C-339.7,4946.4-336.7,4947-333.4,4946.5z"/>
		<path fill="#F2F2F2" d="M-332,4944.7c1.8,2.2,5,1.6,7.2,3c-0.1,0.2-0.1,0.3-0.2,0.5c-2-0.5-3.9-1-5.9-1.7
			C-331.7,4946.3-332.1,4945.6-332,4944.7L-332,4944.7z"/>
		<path fill="#F2F2F2" d="M-322.6,4941.9c-2.2,0.7-4.5,0.1-6.9,0.7C-328.6,4941.4-326,4941.1-322.6,4941.9z"/>
		<path fill="#D1D1D1" d="M-363.9,4941.4c-0.8,2-2.5,3-4.2,4.2C-366.9,4944-365.8,4942.3-363.9,4941.4
			C-363.9,4941.5-363.9,4941.4-363.9,4941.4z"/>
		<path fill="#F2F2F2" d="M-332,4952.5c3.1-0.4,5.9,0.3,8.8-1C-324.4,4952.9-327.4,4953.1-332,4952.5z"/>
		<path fill="#D1D1D1" d="M-335.3,4952.6c-2.6-0.1-5.3,0.7-7.8-0.7C-340.5,4952.7-337.9,4952.1-335.3,4952.6z"/>
		<path fill="#FDFCFC" d="M-365.9,4951.5c1.1,0.5,2.2,0.9,3.6,0.9C-364.1,4953.6-365.1,4953.3-365.9,4951.5L-365.9,4951.5z"/>
		<path fill="#FDFCFC" d="M-349.5,4942c1-0.1,2.1-0.3,3.1-0.4c-0.8,1.4-2,0.9-3,0.9C-349.5,4942.4-349.5,4942.2-349.5,4942z"/>
		<path fill="#FDFCFC" d="M-350.4,4952.7c-0.8,0.5-1.5,0.6-2.2-0.4C-351.7,4951.9-351,4952.4-350.4,4952.7z"/>
		<path fill="#34C7DB" d="M-346.9,4926.4c0.3-0.3,0.5-0.3,0.8,0C-346.4,4926.4-346.7,4926.4-346.9,4926.4z"/>
		<path fill="#D1D1D1" d="M-344.8,4950.1c0-0.1,0-0.2-0.1-0.2c0,0,0.1,0,0.1,0C-344.7,4949.9-344.7,4949.9-344.8,4950.1z"/>
		<path fill="#FDFCFC" d="M-348.2,4926.6c0.3,0,0.5,0,0.8,0C-347.6,4927-347.9,4927-348.2,4926.6z"/>
		<path fill="#D1D1D1" d="M-366.7,4950.7c0.1,0.1,0.3,0.3,0.4,0.4c0,0,0,0,0,0C-366.4,4951-366.6,4950.8-366.7,4950.7
			C-366.7,4950.7-366.7,4950.7-366.7,4950.7z"/>
		<path fill="#D1D1D1" d="M-365.9,4951.5c-0.1-0.1-0.3-0.3-0.4-0.4c0,0,0,0,0,0C-366.2,4951.2-366,4951.4-365.9,4951.5
			C-365.9,4951.5-365.9,4951.5-365.9,4951.5z"/>
		<path fill="#D1D1D1" d="M-332,4944.7c-0.1,0-0.1-0.1-0.2-0.1C-332.1,4944.6-332.1,4944.6-332,4944.7
			C-332,4944.7-332,4944.7-332,4944.7z"/>
		<path fill="#F1F1F1" d="M-323.1,4964.9c4.7-0.4,8.8,1.2,12.6,3.8c5.4,3.8,8.5,9,9.4,15.5c0.2,1.3,0.7,2.7-1.8,2.8
			c2.4-0.2,2,1.2,1.9,2.3c-1.3,10.9-10.1,19.1-20.5,19.8c-0.5,0-1.1,0.2-1.6,0.2c-0.3-0.1-0.5-0.2-0.8-0.3
			c1.6-6.4,0.5-12.9,0.8-19.3c0.8-0.3,1.5-0.6,2.1-1.2c3.1-0.4,6.3-0.9,9.4-1.3c-2.3-0.6-4.6-1-6.9-1.3c-0.8-0.1-1.6-0.5-2.3,0.2
			c-0.4-1.3-1.4-1.6-2.6-1.7c-0.2-0.3-0.5-0.7-0.7-1c0.7-0.2,1.5-0.4,1.3-1.4c-1-5.7,0.6-11.5-1.1-17.2
			C-323.6,4964.6-323.5,4965.6-323.1,4964.9z"/>
		<path fill="#FCFBFB" d="M-324,4964.9c1.7,5.6,0.1,11.5,1.1,17.2c0.2,1-0.6,1.2-1.3,1.4c-3.1-2.9-6.2-5.9-9.2-8.8
			c-0.1,0-0.1,0.1-0.2,0.1c2.6,3.8,5.2,7.6,7.8,11.4c-0.4,2.2,0.7,3.2,2.7,3.6c-0.3,6.4,0.8,12.9-0.8,19.3
			c-8-0.1-13.9-3.8-18.2-10.3c-1.9-2.8-2.9-6-3.3-9.4c-0.2-1.4-0.3-2.5,2-2.4c-2.7-0.1-2-1.7-1.9-3.1
			C-344.1,4973.3-334.1,4964.5-324,4964.9z"/>
		<path fill="#353535" d="M-305.4,5002.6c-0.2-0.2-0.3-0.3-0.5-0.5c0.1,0,0.2-0.1,0.2-0.1C-305.6,5002.2-305.5,5002.4-305.4,5002.6
			C-305.4,5002.6-305.4,5002.6-305.4,5002.6z"/>
		<path fill="#353535" d="M-305.4,5002.6c0.5,0,0.8,0.3,0.8,0.8l0,0C-304.9,5003.1-305.1,5002.9-305.4,5002.6
			C-305.4,5002.6-305.4,5002.6-305.4,5002.6z"/>
		<path fill="#353535" d="M-303.4,5004.2c-0.3-0.1-0.5-0.3-0.8-0.4c0,0,0,0,0,0C-303.9,5003.9-303.7,5004.1-303.4,5004.2
			L-303.4,5004.2z"/>
		<path fill="#353535" d="M-304.6,5003.4c0.1,0.1,0.3,0.3,0.4,0.4c0,0,0,0,0,0C-304.3,5003.7-304.4,5003.5-304.6,5003.4
			C-304.6,5003.4-304.6,5003.4-304.6,5003.4z"/>
		<path fill="#353535" d="M-303.4,5004.2c0.1,0.1,0.3,0.3,0.4,0.4c0,0,0,0,0,0C-303.1,5004.5-303.2,5004.3-303.4,5004.2
			C-303.4,5004.2-303.4,5004.2-303.4,5004.2z"/>
		<path fill="#353535" d="M-302.6,5005c-0.1-0.1-0.3-0.3-0.4-0.4c0,0,0,0,0,0C-302.8,5004.7-302.7,5004.9-302.6,5005
			C-302.6,5005-302.6,5005-302.6,5005z"/>
		<path fill="#D16764" d="M-325.8,4986.1c-2.6-3.8-5.2-7.6-7.8-11.4c0.1,0,0.1-0.1,0.2-0.1c3.1,2.9,6.2,5.9,9.2,8.8
			c0.2,0.3,0.5,0.7,0.7,1C-324.6,4984.5-325.3,4985.3-325.8,4986.1z"/>
		<path fill="#D16764" d="M-320.8,4986.1c0.7-0.7,1.5-0.3,2.3-0.2c2.3,0.3,4.6,0.7,6.9,1.3c-3.1,0.4-6.3,0.9-9.4,1.3
			C-321,4987.7-320.9,4986.9-320.8,4986.1z"/>
		<path fill="#353535" d="M-320.8,4986.1c-0.1,0.8-0.2,1.6-0.2,2.4c-0.5,0.7-1.3,1-2.1,1.2c-2-0.4-3.2-1.4-2.7-3.6
			c0.6-0.9,1.3-1.6,2.4-1.8C-322.2,4984.4-321.2,4984.8-320.8,4986.1z M-321.6,4987c-0.1-1.1-0.7-1.7-1.8-1.8
			c-1.1,0-1.7,0.7-1.7,1.8c0,1,0.6,1.6,1.6,1.6C-322.4,4988.7-321.7,4988.1-321.6,4987z"/>
		<path fill="#F1F1F1" d="M-321.6,4987c-0.1,1.1-0.8,1.7-1.9,1.6c-1,0-1.6-0.7-1.6-1.6c0-1,0.6-1.8,1.7-1.8
			C-322.2,4985.3-321.7,4985.9-321.6,4987z"/>
	</g>
	<path fill="#D1D1D1" d="M-404.3,4934.1c5.1,0,5.1,0,5.1,5.1c0,4.9,0,4.9-5,4.9c-5.1,0-5.1,0-5.1-5
		C-409.3,4934.1-409.3,4934.1-404.3,4934.1z"/>
</g>
</svg>
