<?xml version="1.0" encoding="utf-8"?>
<!-- Generator: Adobe Illustrator 19.1.0, SVG Export Plug-In . SVG Version: 6.00 Build 0)  -->
<svg version="1.1" id="Layer_1" xmlns="http://www.w3.org/2000/svg" xmlns:xlink="http://www.w3.org/1999/xlink" x="0px" y="0px"
	 viewBox="-202 293.5 206.5 206.5" enable-background="new -202 293.5 206.5 206.5" xml:space="preserve">
<g>
	<g>
		<circle fill="#77CBC7" cx="-98.8" cy="396.8" r="103.2"/>
		<path fill="#62BAB3" d="M-98.8,293.5L-98.8,293.5V500l0,0c57,0,103.2-46.2,103.2-103.2C4.5,339.7-41.7,293.5-98.8,293.5z"/>
	</g>
</g>
<g>
	<path fill="#FEFEFE" d="M-68.9,409c0-1.3,0.1-2.3,0.6-3.2c-1.1,0.1-2.2,0.2-3.2,0.5c-0.1,0.1-0.3,0.2-0.6,0.2c0,0,0,0,0,0
		c-0.1,0-0.1,0-0.2,0.1c-0.2,0.1-0.3,0.1-0.5,0c-0.2,0.1-0.5,0.2-0.7,0.3c-1.2,1.6-2.5,3.2-3.8,4.7c-2.7,3-2.5,4,0.6,6.4
		c1.2,1,3.6,1.5,3.5,2.9c-0.1,1.8-2.6,1.3-3.9,2.1c-0.7,0.4-1.3,0.7-1.8,1.3c-0.6,0.6-1,1.3-0.5,2c2.6,3.5,4.5,7.5,7.5,10.7
		c0.9,1,2.1,1.3,2.7-0.4c0.3-1.1,0.3-2.3,0.3-3.5C-68.8,425-68.7,417-68.9,409z"/>
	<path fill="#FEFEFE" d="M-118.8,416.5c-0.2,0-0.4-0.1-0.6-0.3c-0.6-0.7-1.3-0.8-2.1-1.2c-0.2-0.1-0.4-0.2-0.6-0.4
		c-4.3,0-8.6-0.5-12.9-0.4c-2.1,0.1-3.8,0.7-5.7,1.3c-1.5,0.5-3.2,0.7-4.7,1.1c-0.2,0.2-0.4,0.3-0.7,0.5c-0.8,0.6-1.7,1.1-2.6,1.5
		c-0.7,0.3-1.4,0.5-2.1,0.7c0,0,0,0-0.1,0c-0.1,0-0.2,0.1-0.3,0.1c-0.1,0-0.2,0.1-0.3,0.1c-0.1,0.1-0.2,0.1-0.3,0.1
		c-0.4,0.1-0.8,0.3-1.2,0.4c0,0.3-0.1,0.6-0.1,0.9c2.1-0.4,2.7,0.7,2.7,3.8c0,4.2,0.9,8.1,2.5,11.9c2.6,6.1,7,7.5,12.7,4.1
		c1.7-1,3-1.1,4.7,0c6,3.6,10.5,2,13.1-4.5c1.6-4,2.7-8.1,2.9-12.5c0.1-2,0.4-2.8,1.4-2.8c-0.6-0.6-1.2-1.2-1.9-1.7
		C-116.4,418.3-117.6,417.5-118.8,416.5z"/>
	<path fill="#6EB8EA" d="M-179.2,452.7c2.2-4.3,2.8-9.1,4.9-13.4c2.4-4.8,5.7-8.7,9.6-12.1c3.2-2.7,6.2-5.8,10.6-6.8
		c4-0.9,4.5-0.7,4.4,3.5c-0.1,4,0.6,7.9,2.1,11.6c2.5,6.4,7.2,8.5,12.6,4.1c1.7-1.4,2.9-1,4.5,0.2c4.8,3.7,9.7,2.2,12-3.5
		c1.8-4.5,3.2-9.1,3-14c-0.1-2.3,0.9-2.9,2.9-2.3c6.6,1.9,11.4,6.4,15.8,11.4c1.5,1.7,2.9,3.6,4.7,5.7c0.9-1.7,0.5-3.2,0.5-4.6
		c-0.2-6.1,1-11.8,5.2-16.4c1.8-2,1.7-4.5,2.5-6.7c1,0.7,1.1,1.8,1.1,2.9c0,5.1,0.3,10.3-0.2,15.4c-0.3,1.4-1.3,2.1-2.4,2.8
		c-2.5,1.5-3.5,3.7-3,6.5c0.4,2.4,2.9,4.1,5.9,4.5c3.1-0.3,5.2-1.8,5.9-4.3c0.7-2.3-0.4-4.8-2.8-6.6c-0.9-0.7-2-1.2-2.4-2.4
		c-0.6-5.5-0.3-10.9-0.2-16.4c0.1-2.4,1.4-3.9,3.6-4.8c1.8-0.7,3.7-1.1,5.4-2c1.3-0.2,2.4-0.3,0.9,1.4c-1.9,2.1-3.6,4.4-5.5,6.6
		c-1.3,1.4-0.9,2.4,0.5,3.3c1.3,0.8,2.4,1.7,3.7,2.5c0.9,0.6,2.2,0.9,2.1,2.1c-0.1,1.1-1.6,0.8-2.2,1.5c-0.6,0.7-1.6,0.3-2.4,0.6
		c-2.7,0.8-3,1.9-1.5,4.2c1.4,2,2.6,4.2,4,6.2c1,1.5,1.8,3.2,3.7,3.7c1.2,1.1,1,2.5,1,3.9c0.1,1.8,0,3.6,0,5.4
		c0,1.6-0.4,3.3,0.4,4.7c0.9,1.8,2.9,0.8,4.3,1.4c0.7,0.3,1.5,0.4,1.4,1.4c-38,0-76,0-114-0.1C-177.5,453.9-179.4,455.3-179.2,452.7
		z"/>
	<path fill="#1D1D1B" d="M-85.2,360.6c-0.4-7.2,0.1-14.3,3.2-21c3.8-8.2,10-13.4,18.9-15.1c0.4-0.1,0.8-0.1,1-0.6c2.8,0,5.6,0,8.4,0
		c17,1.3,27.1,17.4,27.3,31c0,0.9,0,1.9-0.3,2.8c-0.5,1.4-1.3,1-2.2,0.3c-1.9-2-4.7-2.1-7-3.3c-3.5-0.7-7-0.5-10.6-0.1
		c-5.6,0.6-11.2,0.1-16.4-1.9c-4.7-1.7-6.1-1.8-10.2-10.3c-1.4,2.2-1.7,4.5-2.2,6.7c-0.7,3-1.4,6-3.1,8.7
		C-80.1,360.9-82.3,361.7-85.2,360.6z"/>
	<path fill="#FEFEFE" d="M-34.1,423c-1.3-1-4.1-0.3-4.1-2.3c0.1-1.7,2.6-2.3,4.1-3.3c2.4-1.7,2.6-2.5,0.8-4.9
		c-1.4-1.9-2.8-3.8-4.4-5.8c-1.1-0.6-2.3-1.1-3.5-1.6c-0.7-0.3-1.4-0.6-2.2-0.8c0,0-0.1,0-0.1,0c-0.2,0-0.3,0-0.5-0.1
		c-0.1,0-0.3,0-0.4,0c1.6,1.2,2,2.9,1.9,5c-0.1,7.3-0.1,14.6,0,21.9c0,1.9-0.3,3.9,0.5,5.7c1.6,1.7,2.5,0.2,3.4-0.8
		c1.9-3.8,3.6-7.6,7-10.3C-31.6,424-33.1,423.7-34.1,423z"/>
	<path fill="#90BFE0" d="M-45.2,403.2c3.2,0.2,4,1.9,3.9,5c-0.2,9.7,0,19.4,0,29.1c1.7,4.9,0.8,9.9,0.6,14.9c-0.1,2-2.2,1.2-3.3,1.9
		c-2.1,0-4.3,0-6.4,0c-0.1-0.2-0.2-0.3-0.3-0.5c0-0.2,0-0.4-0.1-0.6c0.1-9.4,0.2-18.7-0.1-28.1c-1.2-3.2-2.7-6.2-4.5-9.1
		c-0.3-0.5-0.7-1-1-1.4c-0.1-0.3-0.1-0.6,0-0.9c0.2-0.2,0.4-0.4,0.7-0.6C-50.3,411.6-47.7,407.5-45.2,403.2z"/>
	<path fill="#EEC99A" d="M-27.1,355c1,4,1.1,3.9,5.1,7c1.4,1.1,2.5,2.6,3.7,3.9c0,1.9,0,3.9,0,5.8c-2.1,2.7-4.4,4.9-8,5.2
		c-1,0.1-1.1,1-1.3,1.6c-2.9,9.5-8.3,16.8-17.3,21.4c-0.2,0.1-0.4,0.5-0.5,0.8c-0.8,2.3-1.6,4.6-2.5,6.9c-1.1,2.6-5,4.9-7.9,4.7
		c-1.2-3.1-0.5-6.3-0.5-9.5c0-0.9,0.5-1.7,1.3-2.1c2.8-1.4,5-3.6,7.6-5.4c3.8-2.6,6.6-6.4,9.2-10.2c4.7-6.9,7.1-14.5,7.7-22.8
		c0.1-1.8-0.1-3.7,2-4.8c0.5,0,1.3,1.9,1.3-0.3C-27.2,356.4-27.1,355.7-27.1,355z"/>
	<path fill="#B8D6F0" d="M-56.3,413.5c0,0.2,0,0.4,0,0.5c0.4,1.7-0.6,3.1-1.4,4.4c-2.2,3.5-2.9,7.2-2.9,11.3
		c0.1,7.6,0.3,15.2-0.1,22.7c-0.1,0.6-0.4,1.1-0.8,1.5c-0.4,0-0.9,0-1.3,0c-0.8-1-2-0.6-3-0.6c-4.1-0.1-4.1-0.1-4.1-4.3
		c0-4,0-7.9,0-11.9c0-10.4,0.1-20.9-0.1-31.3c-0.1-3.4,2.7-1.8,3.9-2.8C-63.8,407.6-60.8,411.3-56.3,413.5z"/>
	<path fill="#DAE5E7" d="M-27.3,454c-1.3,0-2.6,0-3.9,0c0.5-2.5-0.6-3.2-2.9-2.8c-1.9-0.7-2.9-2.3-3.6-4.2c-0.3-2.8-0.4-5.5,0-8.3
		c0.6-2.8,2.6-4,5.2-4.6c5.7-1.4,10.4,0.6,12.2,5.1c0.4,2.2,0.4,4.4,0.1,6.6c-0.7,2-1,4.1-3.4,4.9C-25.9,450.5-26.9,452-27.3,454z"
		/>
	<path fill="#191B1B" d="M-20.9,439.3c-0.9-3.8-3.9-4.4-7.1-4.4c-3.4,0-7.2-0.5-8.9,3.7c-0.4,3-0.8,6,0.2,9c0.9,1.2,1.6,2.6,3,3.3
		c0.8,1.3,0.4,2.1-1,2.5c-3.4-0.7-4.8-2.5-5.3-7c0.4-2.4,0.5-4.7,0-7.1c-0.4-1.5,0.9-2.5,1.1-3.9c1.9-3.6,2.7-8,7.2-9.7
		c0.3-0.4,0.5-0.8,0.8-1.2c0.4-4.7,0.8-9.4-0.3-14c-1.1-1.7-3-2-4.6-2.8c-1.1-0.6-2.3-1-3.3-2.4c2-0.6,3.8-0.4,5.5-0.2
		c2,0.3,3.9,0.8,4.9,2.8c1.8,5.3,0.5,10.8,1.5,16.1c1.1,1.8,3.4,2.2,4.7,3.8c2.5,3,4.2,6.2,4,10.2c0.2,3-0.4,6.1,0.3,9.1
		c0,0.2,0,0.4,0,0.6c-1,2.6-1.3,6-5.4,5.5c-1.1-0.8-1.2-1.7-0.3-2.7c2-0.6,2.2-2.6,3.1-4.1C-20.2,443.9-20.3,441.6-20.9,439.3z"/>
	<path fill="#6EB8EA" d="M-18.8,437.2c-1.4-5-2.8-9.9-8.6-11.7c-0.3-0.1-0.4-0.7-0.6-1.1c-0.4-4.9-0.7-9.9,0.1-14.8
		c0.4,2.1,1.8,3.6,3.1,5.2c2.3,3,4.8,5.9,5.4,9.8c0.1,0.4,0.7,0.7,1.1,1.1c0,3.9,0,7.7,0,11.6C-18.5,437.6-18.6,437.5-18.8,437.2z"
		/>
	<path fill="#D4E6EF" d="M-38.9,435.4c-0.1,1.3-0.3,2.6-0.4,3.9c0.4,2.3,0.3,4.7,0,7c0.4,3,1.4,5.6,4.6,6.6c0.7,0.5,2.3-0.8,2.3,1.1
		c-3.9,0-7.7,0-11.6,0c2.1-0.6,2.7-1.9,2.6-4.1c-0.2-4.2,0-8.5,0.1-12.7C-39.9,437.4-39.7,436-38.9,435.4z"/>
	<path fill="#DDE5E8" d="M-23.4,452.9c3.2-0.4,3.6-3.4,5.2-5.3c0,2.1,0,4.3,0,6.4c-2.1,0-4.3,0-6.4,0C-25,452.8-24,453.1-23.4,452.9
		z"/>
	<path fill="#5A8EB5" d="M-23.4,452.9c-0.2,0.6-1.2,0.3-1.2,1.1c-0.9,0-1.7,0-2.6,0c-1.1-3.6-0.7-4.1,3.3-3.7
		C-24.1,451.3-24.3,452.2-23.4,452.9z"/>
	<path fill="#588EBD" d="M-32.4,454c-0.8-0.4-1.6-0.7-2.3-1.1c1.3-0.2,1.1-1.2,1.1-2.1c1.1-0.6,2.3-1.2,3.4,0
		c1.1,1.4,0.1,2.3-0.8,3.2C-31.5,454-32,454-32.4,454z"/>
	<path fill="#79B3E6" d="M-61.4,454c0-0.4,0-0.9,0-1.3c2-0.7,4-0.1,6-0.3c1.7,0,3.5-0.4,4.9,0.9c0,0.2,0,0.4,0,0.6
		C-54.1,454-57.7,454-61.4,454z"/>
	<path fill="#7D7D7F" d="M-18.8,437.2c0.2,0,0.4,0,0.5,0.1c0,3.2,0,6.4,0,9.7C-19.5,443.7-18.6,440.4-18.8,437.2z"/>
	<path fill="#F9D3A3" d="M-28.6,357.5c-1.8,4.2-1.4,8.8-2.4,13.1c-1.7,7.8-5.8,14.1-10.6,20.1c-3.5,4.4-8.2,7.1-12.6,10.2
		c-1.2,0.8-1.5,1.6-1.5,2.8c0,2.8,0,5.6,0,8.4c-0.2,0.2-0.5,0.4-0.9,0.4c-5.4-1.8-8.9-5.3-9.4-11.3c0-1.1-0.8-1.7-1.7-2.1
		c-8.2-4.1-13.1-11-15.9-19.5c-0.6-1.8-1.5-2.8-3.3-3.4c-4.2-1.2-6.5-4.5-6.1-8.3c0.3-3.7,3.3-6.5,7.8-7.3c3.5,0.7,5.5-1.2,6.9-4
		c1.6-3.1,2-6.5,2.8-9.8c0.5-2.2,0.8-4.6,2.8-6.2c1.1,0.4,0.8,1.3,1,2c1.8,7.1,7.2,9.8,13.6,10.8c3.8,0.6,7.6,1,11.5,0.7
		c3.8-0.2,7.7-0.6,11.5,0.2C-32.9,355.4-30,355-28.6,357.5z"/>
	<path fill="#FECE9E" d="M-132.9,437.2c-2.1-1.2-3.1-3.3-4-5.3c-1.7-3.5-4-6.5-6.2-9.7c-1.3-1.9-1.7-3.6-0.5-5.6
		c0.6-1.1,0.8-2.4,1.3-3.6c0.6-1.3,0.3-2.2-1-2.9c-7.4-4.1-12.1-10.3-14.6-18.2c-0.4-1.2-1-2.3-2.5-2.6c-3.6-0.7-5.8-2.9-5.9-6.6
		c-0.2-3.6,1.4-6.4,5.2-7.5c0.3-0.1,0.4-0.7,0.7-1c3.9,2.2,5.5,1.8,8.5-1.9c3.4-4.2,6-8.9,8.3-13.8c0.6-0.8,1.3-0.7,2.1-0.4
		c3.5,3.4,6.8,7.2,10.6,9.3c0.6,0.6,0.6,0.5,0.5,0.2c-0.8-1.3-2.3-3-0.9-4.2c1.2-1,2.3,1,3.3,1.9c3,2.3,6,4.5,9.7,5.7
		c0.8-0.9-1.2-2,0.1-2.7c1-0.5,1.9,0.1,2.7,0.7c2.5,2,5.8,2.8,7.8,5.5c1.1,4.8-0.6,9.2-2.2,13.5c-3.6,10-9.8,18.3-19.1,23.8
		c-1.6,0.9-2.3,2-2.3,3.8c0.2,6.3-0.4,12.6-0.4,18.9C-131.8,435.5-132.3,436.4-132.9,437.2z"/>
	<path fill="#DAE5E7" d="M-141.6,358.7c-0.5,0.1-1-0.6-1.5-0.2c-4,2.9-5.6,2.4-7.2-2.1c-1-2.9-2.2-5.8-3.2-8.7
		c0.5-2.3-0.6-4.3-1.5-6.3c-1.6-3.5-1.4-4.1,2.2-5.2c11.9-3.4,23.9-3.4,36-1.6c2.6,0.4,5.2,0.9,7.8,1.4c3.8,0.8,4,1.3,2.6,4.8
		c-0.9,2.2-2.2,4.3-1.4,6.9c-1.5,3.2-2.4,6.6-3.6,9.9c-0.8,2.2-2.1,2.9-4.4,2.4c-3.4-0.7-6.8-1.7-10.3-1.7c-2.2,0-4.3,0-6.5,0
		C-135.6,358-138.6,359.1-141.6,358.7z"/>
	<path fill="#371E11" d="M-125.8,357.5c3.7,0.1,7.2,0.8,10.7,1.8c1.6,0.5,2.2,0.1,2.7-1.4c1-3.2,2.2-6.2,3.3-9.4
		c0.3-0.8,0.6-1,1.4-0.7c5.3,7.5,7,16,7,25.1c-0.5,3.3-0.7,3.5-3.9,2.8c-1.3-0.2-2.7-0.4-3.7-1.6c-3.4-1.7-6.7-3.7-9.8-5.9
		c0.2,1.6,1.8,2.2,2.1,4.2c-6-1.7-10.8-4.8-15.2-9.1c0,2.7,1.8,4.1,3.2,6.4c-5.7-2.7-9.8-6.6-13.4-11.1c2.8-1.3,5.7-1.4,8.7-1.2
		C-130.5,358-128.2,357.8-125.8,357.5z"/>
	<path fill="#EAC192" d="M-108.4,374.2c1.4,0.2,3,0.2,4.3,0.8c2.4,1.1,3.1,0,3.3-2.1c-0.2,2.8,0.9,5,3.3,6.4c0.7,6.8,0,8-6.7,11.1
		c-1.4,0.6-1.7,1.8-2.1,3c-1.3,3.3-2.6,6.6-5.2,9c-3.2,2.6-6,5.7-9.8,7.7c-1.2,0.6-1.6,2-1.1,3c2.8,5.3-0.1,9.3-2.8,13.2
		c-2.6,3.6-4,8-7.6,10.9c0.1-3.4,0.2-6.9,0.3-10.3c0.1-4.7,0.2-9.4,0.4-14c0-0.7,0.5-1,1.1-1.3c10.9-5.7,17.4-14.9,20.9-26.5
		C-109.1,381.5-108.1,377.9-108.4,374.2z"/>
	<path fill="#26140B" d="M-111.5,402.4c1.7-4,4.4-7.6,5.2-12c0.1-0.6,0.6-0.7,1.1-0.9c6.3-2,7-2.9,7.1-9.4c0-0.5,0.1-0.8,0.6-0.9
		c6.7,4.9,8.5,12.1,4.7,18.5C-96.6,404.2-103.7,406-111.5,402.4z"/>
	<path fill="#361E11" d="M-153.5,347.7c1.1-0.3,1.2,0.5,1.4,1.2c0.9,2.6,2.1,5.2,2.7,7.8c0.7,2.8,2,3.3,4.4,2.2
		c0.6-0.3,1.2-0.3,1.9-0.5c-2.3,6.4-5.8,12-10.8,16.7c-2.8,2.6-4.8,2.1-6.6-1C-160.8,364.7-159.1,355.7-153.5,347.7z"/>
	<path fill="#323234" d="M-73.1,405.1c-1.1,1.6-2.9,2.1-4.6,2.6c-2.8,0.7-3.7,2.4-3.6,5.1c0.1,5.3,0,10.7,0,16
		c-0.3,0.4-0.8,0.6-1.3,0.6c-0.5,0-1-0.2-1.3-0.6c0-6.4,0-12.9-0.1-19.3c1.2-3.3,3.7-4.5,7.1-4.4C-75.7,405.2-74.4,405.2-73.1,405.1
		z"/>
	<path fill="#E0D7C4" d="M-65.8,401.2c1.1,5.5,4.8,8.7,9.6,10.9c0.4,0.4,0.4,0.8,0,1.2c0,0,0,0.1,0,0.1c-4.5-0.5-9.4-5.7-9.7-10.3
		C-65.9,402.5-65.9,401.9-65.8,401.2z"/>
	<path fill="#3D7B99" d="M-84,428.9c0.4,0.1,0.9,0.1,1.3,0.2c1.1,1.2,1,2.7,0.9,4.1c-2.7,2.4-2.7,2.4-0.3,6c0.3,1.2,0.3,2.4-0.6,3.3
		c-3.6-0.2-6.2-2.2-6.8-5.4C-90.2,433.6-88.4,430.9-84,428.9z"/>
	<path fill="#0B617F" d="M-82.7,442.5c0-1.3,0-2.6,0-3.9c1.3-1.6,1.7-3.3,0.6-5.2c-0.9-1.3-0.6-2.9-0.6-4.3c0.4-0.1,0.9-0.1,1.3-0.2
		c6.8,2.2,6.8,9.3,3,12.3C-79.6,442.2-81,442.7-82.7,442.5z"/>
	<path fill="#F6F9FB" d="M-133.1,452.7c-1.8,0-2.4-1-2.3-2.5c0.1-1.6,1.1-2.7,2.7-2.5c1.6,0.1,2.5,1.2,2.3,2.9
		C-130.5,452.2-131.5,453-133.1,452.7z"/>
	<path fill="#F4FBFB" d="M-130.3,443.7c-0.2,1.4-0.9,2.6-2.4,2.5c-1.4-0.2-2.6-1.3-2.6-2.8c0-1.4,1.2-2.1,2.7-2.2
		C-130.9,441.1-130.6,442.3-130.3,443.7z"/>
	<path fill="#0B0300" d="M-35,354.3c-3.8-0.1-7.7-0.2-11.5-0.2C-42.7,353.3-38.8,352.9-35,354.3z"/>
	<path fill="#6EB8EA" d="M-30.6,425.6c-0.4,0-0.8,0-1.2,0c-1.7-2.4-4.8-2.3-7.1-3.6c-1.4-0.8-1.1-1.2-0.3-2c1.5-1.4,3.2-2.4,5-3.4
		c1.6-0.9,2.2-1.8,0.6-3.4c-2.1-2-3.2-4.8-5.4-6.7c-1.2-1-0.9-1.9,0.7-2c1.5,0,3.2-0.5,4.7,0.4c-1.5,0.1-2.9,0.1-4.5,0.2
		c2.2,2.3,5.8,1.9,7.7,4.5C-30,414.9-29.8,420.3-30.6,425.6z"/>
	<path fill="#D8CCB4" d="M-56.3,413.3c0-0.4,0-0.8,0-1.2c0.2,0,0.4,0,0.6,0c3.8-1.5,7.4-3,7.9-7.8c0.2-1.4,1.3-2.6,2.3-3.7
		c0.1,0.9,0.1,1.7,0.2,2.6C-45.9,408.1-50.9,413.3-56.3,413.3z"/>
	<path fill="#010302" d="M-27.8,409.6c0,4.9-0.1,9.9-0.1,14.8c-1.2-1.5-0.5-3.3-0.6-4.9c-0.2-3.9-0.2-7.9-0.2-11.8
		C-28.4,408.3-28.1,408.9-27.8,409.6z"/>
	<path fill="#448CC9" d="M-55.6,453.3c-1.9-0.1-3.9,0.5-5.8-0.6c0-9.1-0.2-18.1,0-27.2c0.1-4.4,3.4-7.7,5.1-11.5
		c0.6,0,1.1,0.1,1.3,0.7c0.9,11.7,0.2,23.5,0.4,35.3C-54.6,451.2-54.7,452.4-55.6,453.3z"/>
	<path fill="#307EBF" d="M-55.6,453.3c0-11.9,0-23.7,0-35.6c0-1-0.4-2.2,0.6-3c1.6,3,3.1,6,4.7,9c0.2,9.9,0.4,19.7-0.1,29.6
		c0,0,0,0,0,0C-52.1,453.4-53.9,453.3-55.6,453.3z"/>
	<path fill="#79B3E6" d="M-50.4,453.4c0-9.9,0.1-19.7,0.1-29.6c0.5,0.5,0.5,1.1,0.5,1.8c0,8.6,0,17.2,0,25.7
		C-49.8,452.1-49.7,452.8-50.4,453.4z"/>
	<path fill="#010200" d="M-36.7,447.5c-1.5-3-1.2-6-0.2-9C-36.8,441.6-36.8,444.5-36.7,447.5z"/>
	<path fill="#010206" d="M-20.9,439.3c1.2,2.3,1.1,4.7,0,7C-20.9,443.9-20.9,441.6-20.9,439.3z"/>
	<path fill="#DAE5E3" d="M-23,432.7c-4.2-0.6-7.9-0.5-11.9,0c1.2-2.7,2.9-4.3,5.7-4.4C-26.4,428.2-24.6,429.8-23,432.7z"/>
	<path fill="#000201" d="M-30.6,425.6c0-5.3,0-10.7,0.1-16c1.6,3.7,0.4,7.5,0.7,11.2C-29.8,422.4-29.1,424.2-30.6,425.6z"/>
	<path fill="#010301" d="M-39.4,446.3c-0.3-2.3-0.3-4.7,0-7C-38.5,441.6-38.6,443.9-39.4,446.3z"/>
	<path fill="#351709" d="M-66.8,383.9c7.4,5.8,14.7,6.1,22-0.5c-0.9,2.8-4.4,5.1-8.2,5.6C-58.5,389.7-63.3,388.4-66.8,383.9z"/>
	<path fill="#281609" d="M-67.6,361.6c1,0.1,1.6,0.6,1.6,1.6c0,0.8-0.5,1.4-1.4,1.4c-1,0.1-1.7-0.4-1.8-1.4
		C-69.2,362.2-68.4,361.8-67.6,361.6z"/>
	<path fill="#2B1207" d="M-41.8,363.1c-0.2,1-0.6,1.5-1.5,1.5c-1,0-1.5-0.6-1.5-1.7c0-0.9,0.6-1.3,1.4-1.3
		C-42.3,361.6-41.8,362.2-41.8,363.1z"/>
	<path fill="#39190C" d="M-142.3,395.9c6.7,5.6,13.5,5.4,20.2,0C-126.9,402.6-137.7,402.6-142.3,395.9z"/>
	<path fill="#361C0F" d="M-141.6,377.1c-0.2,0.8-0.6,1.4-1.5,1.4c-0.8,0-1.4-0.6-1.4-1.4c0-1,0.6-1.6,1.6-1.5
		C-142,375.6-141.7,376.3-141.6,377.1z"/>
	<path fill="#32160D" d="M-119.3,376.9c0,0.9-0.5,1.5-1.3,1.6c-1,0.2-1.6-0.6-1.6-1.4c0-0.7,0.5-1.5,1.4-1.4
		C-120.1,375.6-119.5,376.1-119.3,376.9z"/>
	<path fill="#408AAD" d="M-127.7,348.4c-0.3,2,1.1,5-3.1,4.6c-1.9-0.2-3.1-0.4-2.7-2.6c0.3-1.8-0.8-2.2-2.3-2
		c-2.7,0.4-2.2-1.5-2.2-3.1c-0.1-1.7,0-3,2.3-2.7c1.5,0.2,2.6-0.2,2.3-2c-0.5-2.8,1.4-2.4,3.2-2.5c2.1-0.2,2.9,0.6,2.7,2.7
		c-0.1,0.7-0.2,1.5,0.7,2c1.1,0.7,2.9,0.9,2.8,2.6C-124.3,347.4-126.2,347.7-127.7,348.4z"/>
	<path fill="#54879F" d="M-127.7,348.4c0.1-0.1,0.1-0.2,0.2-0.3c2.9-1.6,3.5-3.4,0.5-5.5c4-0.2,4.2,0.1,3.8,3.9
		C-123.6,349.9-126.2,347.7-127.7,348.4z"/>
	<path fill="#140701" d="M-125.8,357.5c-2.4,0.8-4.7,0.9-7-0.1C-130.5,357.5-128.2,357.5-125.8,357.5z"/>
	<path fill="#99CDD6" d="M-82,433.4c2.6,2.4,2.5,3.2-0.6,5.2c-1.4-0.6-2.8-1.4-2.4-3.2C-84.8,433.8-83.5,433.4-82,433.4z"/>
</g>
</svg>
