<?xml version="1.0" encoding="utf-8"?>
<!-- Generator: Adobe Illustrator 21.1.0, SVG Export Plug-In . SVG Version: 6.00 Build 0)  -->
<svg version="1.1" id="Layer_1" xmlns="http://www.w3.org/2000/svg" xmlns:xlink="http://www.w3.org/1999/xlink" x="0px" y="0px"
	 viewBox="678 -443.5 206.5 207.9" enable-background="new 678 -443.5 206.5 207.9" xml:space="preserve">
<g>
	<circle fill="#FF8E82" cx="781.2" cy="-340.2" r="103.2"/>
	<path fill="#FF8E82" d="M781.2-443.5L781.2-443.5V-237l0,0c57,0,103.2-46.2,103.2-103.2C884.5-397.3,838.3-443.5,781.2-443.5z"/>
</g>
<g>
	<path fill="#DBDCDE" d="M780.7-236.7c-0.4,0.5-1,0.4-1.5,0.4c-4.6-0.3-9.1-0.7-13.7-1.3c-7.2-1-14.1-3-20.9-5.4
		c-1.7-0.6-3.2-1.4-4.9-2.1c-0.1-0.5,0.2-0.9,0.4-1.4c1.8-4.3,1-7.3-2.5-10.2c-0.2-0.2-0.5-0.4-0.6-0.6c-0.5-0.8-0.3-1.4,0.4-1.9
		c3.8-2.8,7.3-5.9,11.1-8.7c-4.1,2.9-7.8,6.3-11.8,9.2c-0.4,0.3-0.8,0.6-1.3,0.7c-1.7,0-3.3,0.2-5-0.3c-1-0.9-1.3-2.2-1.7-3.4
		c-2.6-8.1-4.1-16.4-3.6-25c0.5-8,2.5-15.5,8-21.7c1.2-1.4,2.5-2.9,4.4-3.4c0.2,0,0.4,0.1,0.5,0.3c0.3,1.2-0.2,2.3-0.6,3.4
		c-0.7,2-1.3,4-2.2,5.9c-0.6,1.3-0.3,2.3,0.9,3.2c5,3.7,9.8,7.6,14.7,11.4c0.3,0.2,0.6,0.5,0.9,0.7c1,0.9,1.2,1.8,0,2.8
		c-2.3,1.9-4.4,4.1-6.7,6.1c-1.4,1.3-1.5,1.5-0.1,2.9c1.3,1.3,2.7,2.6,3.8,4c0.8,1,1.5,0.9,2.5,0.1c2.7-2.3,5.6-4.4,8.4-6.6
		c0.7-0.5,1.3-1.2,2.3-0.8c0.4,1-0.4,1.3-0.9,1.7c-2.7,2.4-5.6,4.5-8.5,6.8c-1.1,0.9-1.1,1.5-0.2,2.5c2.9,3.3,6,6.3,9,9.5
		c6.1,6.6,12.4,13,18.5,19.7c0.1,0.1,0.3,0.3,0.4,0.3c0.3,0.2,0.6,0.4,0.8,0.7C780.8-237,780.8-236.8,780.7-236.7z"/>
	<path fill="#F1F1F1" d="M780.7-236.7c0-0.1,0-0.2,0-0.4c-0.3-0.3-0.2-0.6,0.1-0.9c2.5-2,4.5-4.5,6.6-6.9c2.7-3,5.6-5.8,8.3-8.8
		c4.2-4.7,8.6-9.3,12.9-13.9c2.3-2.4,4.5-5,7-7.3c0.1-0.1,0.2-0.3,0.3-0.4c1.2-1.1,1-1.9-0.1-3c-2.2-2-4.4-3.9-6.5-6
		c-1.4-1.3-1.4-1.8,0-2.9c5.2-4,10.2-8.2,15.5-12.1c1.1-0.8,1.5-1.6,0.9-2.9c-0.8-1.7-1.3-3.6-1.9-5.4c-0.3-0.8-0.9-1.7,0.2-2.4
		c0.9,0.1,1.4,0.9,2,1.5c5.6,6.2,8.1,13.6,9.3,21.7c0.5,3.1,0.7,6.2,1,9.3c0.1,1.1-0.2,1.8-1.2,2.2c-7.7,2.4-10.1,8.6-11.1,15.8
		c-0.6,4-0.1,7.8,0.7,11.7c0.1,0.6,0.3,1.2-0.1,1.8c-7.2,3.5-14.8,5.8-22.6,7.4c-6.4,1.3-12.8,1.9-19.3,2
		C782.1-236.5,781.4-236.6,780.7-236.7z"/>
	<path fill="#DBDCDE" d="M725-252.9c-11.2-7.2-20.7-16.1-28.4-27c2.1-3.5,4.7-6.6,7.4-9.6c7-7.7,14.8-14.5,24.3-19.1
		c0.7-0.3,1.5-1.3,2.3-0.1c-0.1,0.5-0.3,0.9-0.6,1.3c-4.7,6.8-6.5,14.4-6.7,22.6c-0.2,8.3,1.4,16.4,4,24.2c0.3,1,0.8,2.1,0.9,3.2
		C727.4-255.6,726.1-254.3,725-252.9z"/>
	<path fill="#F1F1F1" d="M866-279.9c-1.1,2.3-2.9,4.1-4.4,6c-3.3,4.1-7.2,7.7-10.9,11.4c-0.3,0.3-0.7,0.6-1.1,0.5
		c-0.4-0.7,0.2-1.6-0.5-2.3c-0.9-0.7-0.8-1.7-1-2.7c-1-4.4-3.3-7.5-8-8.3c-1.7-0.3-1.8-1.6-1.9-2.9c-0.2-3.2-0.5-6.5-1.1-9.7
		c-1.2-7-3.3-13.7-7.8-19.4c-0.3-0.4-0.7-0.9-0.7-1.5c0.7-0.9,1.4-0.4,2.1-0.1c7,3,13.4,6.9,19.3,11.5c0.9,0.7,1.9,1.3,2.6,2.3
		c0.3,0.6,0.8,1.1,1.4,1.3c4.6,3.8,8.7,8,11.9,13.1C866-280.4,866-280.1,866-279.9z"/>
	<path fill="#F1F1F1" d="M846.1-258.8c-3.9,2.8-7.9,5.7-12,8.2c-1.2,0.7-2.1,0.7-3.1-0.2c-1.2-1.1-2.5-2.1-3.7-3.2
		c-1.1-0.3-1.2-1.2-1.3-2.2c0-0.7,0-1.4,0-2.2c0.2-4.9,1.4-9.3,5.2-12.7c2.8-2.4,6-3.2,9.6-2.3c1.5,0.4,2.8,1.1,3.6,2.4
		C846.8-267.2,847.1-263.1,846.1-258.8z"/>
	<path fill="#808185" d="M846.1-258.8c-0.1-2.4,0.2-4.8-0.3-7.2c-0.6-3-1.7-5.8-5-6.7c-3.6-1-7-0.3-9.7,2.4
		c-3.3,3.2-4.5,7.4-4.7,11.8c-0.7,3,0.5,5.9,0.9,8.8c0.1,0.8,0.4,1.6,0,2.3c-0.6,1-1.6,1.3-2.7,1.5c-1.8-6.4-2-12.8,0.1-19.2
		c1.7-5.2,4.7-9.1,10.3-10.5c0.6-0.1,1-0.2,1-1c-0.7-7.2-1.3-14.4-4.1-21.2c-1.8-4.5-4.3-8.5-8.1-11.7c-0.2,0-0.4,0-0.5-0.1
		c-3-3.9-7.6-5.2-11.8-7.1c-1.3-0.6-2.6-1.1-4-1.4c-0.7-1.2-1.2-2.3-0.4-3.7c6.9,2.1,13.2,5,18.5,10c1,1,2,1.9,3,2.9
		c5,5.9,7.5,13,8.8,20.5c0.6,3.5,1,7,1.2,10.6c0,1.4,0.5,1.9,2,2.2c4.5,0.8,6.7,4.1,7.8,8.3c0.3,1,0.4,2,0.5,3.1
		C849.5-261.7,848.3-260,846.1-258.8z"/>
	<path fill="#939498" d="M725-252.9c0.4-1.8,1.5-3,2.9-4c0.5-1.1,1.4-1.6,2.6-1.5c1.7-0.3,3.4-0.2,5.1,0c0.6,0,1.1,0.3,1.5,0.7
		c4.2,3.2,5.4,6.5,3.8,10.6c-0.3,0.8-0.6,1.4-1.2,2c-1.4-0.6-2.7-1.3-4.1-1.9c-0.2-0.7,0.3-1.3,0.5-1.9c0.7-1.8,0.1-3.4-1.5-4.2
		c-1.5-0.8-3.5-0.4-4.6,1.1c-0.4,0.5-0.5,1.4-1.5,1.4C727.4-251.4,726.2-252.2,725-252.9z"/>
	<path fill="#D1D2D4" d="M728.7-250.7c1-1.5,1.6-3.3,3.9-3.4c1.7-0.1,3,0.5,3.9,1.9c1,1.5,0.6,2.9-0.2,4.3c-0.2,0.3-0.4,0.6-0.6,0.9
		C733.3-248.2,731-249.4,728.7-250.7z"/>
	<path fill="#F0F1F0" d="M827.3-247.4c-1-3.7-1.6-7.3-0.8-11.1c0.2,1.5-0.4,3.2,0.8,4.5c-0.7,0.6-0.2,0.9,0.3,1.3
		c1.1,0.8,2.1,1.7,3.2,2.5c1,0.7,0.9,1.2-0.2,1.6C829.4-248.2,828.5-247.4,827.3-247.4z"/>
	<path fill="#E5E6E8" d="M761.9-278.3c-2,0.6-3.5,2.1-5,3.4c-2,1.7-4.4,3-6.2,4.9c-0.5,0.6-1.3,0.7-1.9-0.1
		c-1.6-2.1-3.5-3.8-5.3-5.6c-0.9-0.9-0.3-1.5,0.4-2.1c2.5-2.2,4.9-4.5,7.4-6.6c1.1-0.9,0.8-1.4-0.1-2.1c-3.7-2.8-7.3-5.7-11-8.6
		c-1.8-1.4-3.5-2.8-5.4-4.2c-0.9-0.6-0.7-1.3-0.4-2.1c1.2-3.2,2.3-6.5,3.4-9.7c0.2-0.1,0.4-0.3,0.7-0.3c1.1-0.1,1.7-1.4,2.7-1.3
		c1,0,1,1.6,2.3,1.8c-1-0.6-0.7-1.3-0.3-2c0.4-0.6,0.5-1.7,1.7-1.2c0.1,0,0.1,0,0-0.1c-0.4-0.5-0.1-0.8,0.3-1c0.5-0.3,1-0.6,1.5-0.2
		c0.5,0.4,0.9,0.7,1.6,0.8c1.5,0.2,1.7,0.9,0.5,2.3c0.9,0,1.6,0.2,2,1c0,0.2,0,0.3,0,0.5c-0.4,1.9-0.7,3.8-1.6,5.6
		c0.2-1.1,0.7-2,1.8-2.5c0.5-0.2,1-0.1,1.3,0.2c0.3,0.3,0.5,0.8,0.3,1.2c-0.9,1.5,0.1,2.5,1,3.5c0.3,0.3,0.6,0.6,0.9,0.9
		c0.8,1.2,0.7,1.8-0.6,2.6c-0.3,0.2-0.5,0.3-0.5,0.7c0.3,0.5,0.6,0.1,0.9,0c0.4-0.2,0.8-0.7,1.3-0.2c0.4,0.4,0.2,0.9,0.1,1.4
		c-0.3,1.3-1.3,2.6-0.5,4.1c0.1,0.1,0.2,0.3,0.2,0.5c0.1,1.1-0.1,1.7-1.6,1.2c1.6,0.8,1.7,2.3,2.2,3.8c1.2-1.4,2.2-1,3.4,0.1
		c0.9,0.8,1.3,1.9,2,2.8c0.5,0.7,0.8,1.6,0,2.2c-0.9,0.7-1.1-0.6-1.9-0.9c0.5,1.2,0.9,2.3-0.9,3.2c1.7,0.4,3.4-1.7,3.9,0.9
		c0,0.5-0.1,0.9-0.5,1.2C762-278.4,761.9-278.4,761.9-278.3z"/>
	<path fill="#E5E6E8" d="M756.6-292c-2.8-2-2.2-3.2-1.8-4.2c0.4-0.9,0.5-1.7,0.7-2.6c-1,0.1-1.3,1.6-2.5,1c-0.4-0.2-0.5-0.7-0.4-1.1
		c0.3-1.1,1.2-1.2,2.1-1.2c0.1-2-2-2.3-2.5-3.9c-0.3-0.9-1.2-1.7,0.1-2.5c0.3-0.2,0.2-0.5,0-0.8c-0.2-0.3-0.5-0.5-0.9-0.2
		c-0.9,0.5-1.4,1.1-1.3,2.2c0,0.4,0.2,1-0.3,1.3c-0.1,0.1-0.4-0.1-0.5-0.2c-0.3-0.4-0.7-0.9-0.4-1.5c0.1-0.3,0.3-0.6,0.4-0.8
		c0.5-1.1,1.1-2.2,0.9-3.5c-0.1-0.5,0.2-0.9,0.7-1.2c0.2,0.2,0.2,0.5,0.2,0.7c0-0.3,0-0.5-0.2-0.7c-0.5-0.3-0.6-1.2-1.6-0.7
		c-0.5,0.2-1.2-0.3-1.2-0.8c-0.1-1,0.6-0.3,1-0.4c0.3-0.1,0.6-0.3,0.5-0.6c-0.1-0.5-0.5-0.9-0.9-0.6c-0.9,0.6-1.2,0.3-1.6-0.5
		c-0.6-1-1.1,0-1.7,0.1c0.5,0.6,1.8,0.7,1.3,1.5c-0.7,0.9-1.3-0.3-2-0.6c-0.2,0.4-0.4,0.9-0.7,1.2c-0.4,0.6-0.8,1,0.3,1.2
		c0.6,0.2,0.6,0.8,0.3,1.2c-0.5,0.7-0.9,0.1-1.1-0.3c-0.4-0.7-1.8-0.2-1.6-1.7c0.1-0.6-0.6-0.2-1,0.1c-0.8,0.6-1.6,1.5-2.8,0.8
		c0-0.2,0-0.3-0.1-0.5c0-0.6,0.4-0.8,0.8-1c3-1.5,5.9-3.2,8.9-4.8c0.6-0.3,1.1-0.8,1.9-0.4c0.4,0.3,0.5,0.8,0.7,1.2
		c4.7,12.2,9.4,24.3,14,36.4c0.2,0.5,0.5,1,0.7,1.5c3.6,9.7,7.4,19.2,11.1,28.8c1.3,3.4,2.7,6.9,3.9,10.3c0.2,0.6,0.5,1.1,0.5,1.8
		c0,0.2-0.1,0.4-0.3,0.5c-1.2-0.3-1.6-1.5-2.3-2.2c-5.8-6.1-11.6-12.2-17.4-18.4c-3.1-3.2-6-6.6-9.1-9.8c-0.9-0.9-0.6-1.3,0.2-2
		c3.5-2.8,7.2-5.4,10.5-8.5c0,0,0,0,0,0c0.2-0.2,0.3-0.4,0.5-0.5c0.9-0.4,0.1-0.5-0.1-0.6c-0.2-1.6-1-1.3-1.9-0.6
		c-0.5,0.5-1,0.8-1.5,0.2c-0.5-0.6-0.6-1.5,0.3-1.8c0.9-0.3,0.7-0.6,0.2-1c-0.1-0.1-0.1-0.2-0.2-0.3c-0.2-0.6-0.5-1.3,0-1.7
		c0.6-0.4,0.9,0.4,1.3,0.8c0.3,0.3,0.4,0.7,0.9,1.5c0.3-2.3-0.9-3.4-1.9-4.5c-0.3-0.3-0.7-0.5-0.9-0.8c-0.7-1.1-1.2-0.6-1.7,0.2
		c-0.2,0.3-0.2,0.8-0.7,0.7c-0.6,0-0.6-0.6-0.7-1c-0.3-1.4-0.2-3-2.1-3.5c-0.5-0.1-0.5-0.7-0.2-1.1c0.3-0.4,0.6-0.1,0.9,0.2
		C755.6-291,755.1-292.5,756.6-292c-0.1,0.2-0.3-0.3-0.1-2.7c-0.2,0-0.2,0.2-0.3,0.3c-0.6,0.8-0.6,0.9-0.2,1.3
		c0.6,0.6,0.1,1.6,0.6,2.2C757-290.4,757.7-291.4,756.6-292z"/>
	<path fill="#4291C6" d="M780-237.4c0-0.1,0-0.3,0-0.4c-0.7-10.8-0.3-21.6-0.2-32.4c0-0.2,0.1-0.4,0.2-0.6c3.6-4.2,6.5-9.1,9.6-13.7
		c2.7-4.1,5.6-8,8.3-12.1c3-4.6,6.2-9.2,9.3-13.7c0.1-0.2,0.2-0.3,0.3-0.5c0.3-0.3,0.6-1,1.1-0.7c0.6,0.2,0.4,0.8,0.3,1.3
		c-0.1,0.4-0.1,0.7-0.2,1.1c0,0.2-0.1,0.4-0.2,0.5c-1.6,3.8-3.2,7.6-4.6,11.4c-2.4,6.5-5,12.9-7.6,19.3c-0.3,0.7-0.5,1.4-0.4,2.1
		c-0.6,3-2,5.8-3.1,8.7c-3.5,8.9-6.9,17.9-10.4,26.8c-0.4,0.9-0.6,1.9-1.4,2.5c-0.1,0.2-0.2,0.5-0.4,0.7
		C780.5-237.1,780.2-237.3,780-237.4z"/>
	<path fill="#808185" d="M738.6-312.3c-0.3,0.2-0.5,0.4-0.8,0.6c-5.7,3.9-8.9,9.4-10.7,16c-2.8,10.5-1.6,20.9,1.4,31.2
		c0.6,2.1,1.3,4.1,2,6.1c-0.9,0.5-1.7,1-2.6,1.5c-3.6-9.7-5.8-19.7-5.1-30.1c0.5-8,2.6-15.6,7.8-22c2.9-2.7,5.8-5.5,9.2-7.5
		c4.4-2.6,9-4.9,14-6.1c0.7,1,0.6,2-0.1,2.9c-2,1.2-4.4,1.4-6.5,2.5C744.3-315.7,741.3-314.3,738.6-312.3z"/>
	<path fill="#D5D6D8" d="M737.1-257.7c-0.6-0.1-1.1-0.3-1.5-0.7c4.7-3.5,9-7.6,14-10.8c0.1,0.1,0.2,0.3,0.3,0.4
		c-0.9,0.7-1.7,1.5-2.6,2.2c-3.2,2.5-6.4,4.9-9.6,7.4C737.3-258.7,736.7-258.5,737.1-257.7z"/>
	<path fill="#FEFEFE" d="M781.1-237.8c2.9-7.5,5.8-15.1,8.7-22.6c1.9-5.1,3.9-10.2,5.8-15.2c1.5-4.7,3.5-9.2,5.2-13.7
		c2.2-5.8,4.5-11.6,6.7-17.5c0.3-0.7,0.6-1.4,1-2.1l0,0c0.6-2.3,1.4-4.5,2.1-6.7c0.1-0.7,0.5-1.2,1.2-1.5c0.7-0.7,1.1,0,1.6,0.3
		c2.1,1.1,4.1,2.2,6.2,3.2c1.8,0.9,3.8,1.8,4.4,4c0.4,2.8,1.6,5.2,2.6,7.8c0.4,1.2,0.4,1.9-0.8,2.7c-5.6,4.2-11,8.5-16.5,12.8
		c-0.6,0.5-0.7,0.9,0,1.4c2.4,2.1,4.8,4.2,7.1,6.4c1.9,1.8,1.9,1.8-0.1,3.8c-1.3-1.4-2-3.3-3.5-4.7c-0.1-0.1-0.2-0.4-0.3-0.4
		c-2.1-0.6-3.3-2.4-4.8-3.6c-0.6-0.5-1.3-0.8-1.6-1.5c-0.5-1.2-1.5-1.1-2.5-1c-1.1,0.1-1.3,1-1.4,1.9c-0.2,2.4-0.2,4.8,0.2,7.2
		c0,0.2,0,0.6,0.2,0.7c1.9,0.2,1.9,2,2.6,3.2c0.7,1.3,2.5,1.2,3.4,2.3c0.1,0.2,0.4-0.1,0.5-0.3c0.1-0.2,0.1-0.5,0.2-0.7
		c1-1.8,2.9-2.7,4.1-4.3c0.8-1.1,2.1,0.4,3,1.3c-2.4,2.3-4.6,4.9-6.9,7.3c-2.7,2.7-5.3,5.5-7.8,8.5c-2.1,2.6-4.6,4.8-6.8,7.3
		c-4.1,4.5-8.5,8.9-12.6,13.4C781.8-238,781.6-237.3,781.1-237.8z"/>
	<path fill="#EAEAEA" d="M809.6-267.3c4.6,3.2,9,6.8,13.4,10.3c-0.1,0.2-0.3,0.4-0.4,0.6c-4.5-3.4-8.9-6.9-13.4-10.3
		C809.3-266.9,809.4-267.1,809.6-267.3z"/>
	<path fill="#CBF0F0" d="M852.3-294.7c0.6,0.3,1.1,0.6,1.4,1.2C853-293.6,852.5-294,852.3-294.7z"/>
	<path fill="#FEE8B9" d="M815.8-343.7c-1.3,5.6-4.8,9.5-9.4,12.6c-0.7,1.5-2.3,2-3.5,2.8c-1.4,0.9-2.8,1.7-4.3,2.4
		c-2.2,1.1-4,2.4-5.8,4.1c-3,3-6.9,4.1-11.1,4.1c-1.2,0-1.8-0.7-1.8-1.8c-0.2-3.7-0.2-7.4-0.1-11.1c0-1.4,1.1-1.8,2.3-1.9
		c2.8-0.3,5.4-1.1,7.7-2.8c0.9-0.6,1.6-1.3,2.2-2.2c0.9-1.5,0.5-2.5-1.2-2.8c-1.9-0.3-3.8-0.2-5.7,0c-4.8,0.6-5.4,0.1-5.4-4.7
		c0-17,0-34,0-51.1c0-1-0.1-2.1,0.2-3.1c0.2-0.4,0.2-0.7,0.1-1.1c-0.1-0.5-0.1-1,0.3-1.4c0.8-0.5,1.6-0.4,2.4-0.4c0.2,0,0.4,0,0.6,0
		c1,0,2,0.1,3-0.3c4.6-0.7,9.1-2.1,13.6-3.2c2.8-0.7,5.6-1.3,8.5-1.5c3-0.2,4.5,0.6,5.7,3.4c0.6,1.4,1,2.8,1.4,4.2
		c0.8,2.8,1.6,5.7,3,8.3c0.5,0.8,0.7,1.7,0.7,2.7c0,4.2,0.3,8.5-0.5,12.7c-0.3,1.5-0.1,3.1-0.5,4.6c-0.8,1.1-1.4,0.2-2-0.2
		c-2.7-2-5.2-4.2-7.8-6.3c-3-2.5-6.1-4.9-9-7.5c-0.4-0.3-1.3-0.6-0.4-1.4c2.4-0.5,4.4,0.8,6.4,1.8c1.4,0.7,2.7,1.6,4.1,2.5
		c-3-4.1-7.4-5.5-12.2-6.2c-1.9-0.1-3.4-1.1-4.9-2.3c-2.9-2.5-5.9-4.8-8.8-7.2c3.2,2.5,6.3,5.1,9.4,7.7c0.5,0.4,1.5,0.6,1.2,1.6
		c-1,0.7-2.2,0.6-3.3,1c-1.1,0.3-2.1,0.8-2.9,1.5c-0.4,0.3-0.8,0.7-0.5,1.3c0.2,0.5,0.7,0.6,1.2,0.6c1.5-0.1,2.8-0.8,4.2-1.3
		c1.5-0.5,2.9-1.4,4.6-1c4.7,3.6,9.2,7.5,13.8,11.2c2.3,1.9,4.8,3.6,6.9,5.8c0.3,0.7,0.4,1.5,0.6,2.4c0.7-2.7,1.4-5.3,1.9-8
		c0.1-0.7,0.1-1.5,1.1-1.6c3.2,0,4.8,1.6,4.8,4.9c0,0.8,0.1,1.6-0.1,2.4l0,0c-1.3,2.6-1.8,5.3-1.4,8.3c0.2,1.8,0.2,3.6-0.5,5.4
		c-0.9,2.3-2.5,3.3-4.7,3.7c-1.7,0.3-2.2,1.5-2.4,3.1C817.2-347.3,816.9-345.4,815.8-343.7z"/>
	<path fill="#C3986C" d="M821.6-376.9c-0.8,3.6-1.7,7.2-2.6,11.1c-0.9-1.5-1-2.8-1.1-4.1c-0.2-0.4-0.3-0.8,0-1.1
		c0.3-5.7,1.1-11.5,0.8-17.2c-0.1-1.1-0.2-2.2-0.8-3.2c-1.7-2.9-2.3-6.2-3.3-9.3c-1.9-6.4-2.9-6.3-9.2-5.4c-5.7,0.8-11.1,2.9-16.8,4
		c-0.8,0.2-1.6,0.2-2.4,0.3c-1,0.4-2-0.1-3,0.3l-0.2,0l-0.2,0c-0.7-0.5-0.4-1.4-0.7-2c-0.7,0.5-0.3,2.4-2,1.4
		c-0.5-0.6-0.5-1.4-0.5-2.1c-0.1-9.6-0.1-19.3-0.1-28.9c0-0.7,0-1.4,0.3-2c1.1-1.4,2.6-0.8,3.9-0.7c6.9,0.3,13.3,2.7,19.5,5.4
		c1.4,0.6,2.6,1.4,3.7,2.4c0.1,0.1,0.2,0.3,0.3,0.5c0.1,0.9,0.2,1.8,1.5,1.3c0.2,0,0.3,0,0.5,0.1c2.6,2.6,5.3,5.1,7.3,8.2
		c3.1,4.9,4.8,10.2,4.9,16c0,5.7,0,11.4,0.2,17.1c0.1,2.5-0.2,5.1-0.1,7.7C821.9-377.1,821.8-377,821.6-376.9z"/>
	<path fill="#EAD09F" d="M753.4-319.7c0.5-0.9,0.4-1.9,0.4-2.9c0.3-1.7,0.5-3.4,0.8-5.2c0.7-0.2,1.2,0.2,1.7,0.5
		c3,1.9,6.2,3.5,9.3,5.2c0.7,0.4,1.5,0.7,1.9,1.4c1.9,3.2,5.1,4.2,8.4,5c3.7,0.9,7.3,0.6,10.9-0.4c2.4-0.7,4.5-1.9,6.1-3.9
		c0.7-0.9,1.6-1.5,2.6-2c3-1.5,6-3.1,8.8-5c0.6-0.4,1.3-1.1,2.2-0.5c0.4,1.8,0.2,3.8,0.8,5.6c-0.1,1.3,0.2,2.5,0.7,3.7
		c0.3,0.2,0.3,0.4,0.3,0.7c-0.6,1.2-1.7,1.5-2.8,2c-2.2,1-4.6,1.7-6.9,2.5c-0.9,0.3-1.9,0.4-2.8,0.7c-4.3,1-8.6,1.7-13,1.6
		c-0.6,0-1.4-0.1-1.6,0.8c-0.2,1,0.4,1.5,1.2,1.8c1.6,0.7,3.1,1.5,3.7,3.3c0.2,0.8,0.5,1.6,0.5,2.4c0.1,3.7-3.2,6.3-6,5.7
		c-0.6-1.6-1.7-2.3-3.4-1.8c-0.2,0.1-0.5,0.1-0.4,0.4c-0.7,1.2-0.3,2.7-1.2,3.8c-0.9-0.1-0.4-0.7-0.5-1c0,0.4-0.1,1,0.6,1.1
		c0.7,0.1,1-0.4,1.3-1.1c0.7-2,1.8-2.4,3.7-1.2c0.5,1.5,0.3,2.9,0.1,4.4c-0.3,0.9-2,0.4-1.9,1.6c0.1,1,1.6,0.6,1.9,1.5
		c0.5,1.4,0.3,2.9,0.3,4.4c-0.1,4,0.2,8-0.2,12c-0.2,0.8-0.7,1-1.3,0.4c-0.5-0.4-0.8-0.9-1.1-1.5c-8.7-13.1-17.5-26-26.2-39.1
		c-0.5-0.7-1-1.4-1.2-2.3c0.3-1.3,1.2-2.2,1.9-3.2c0.9-0.4,1.4,0.2,2,0.7c5.9,4.6,11.9,9.2,17.9,13.9c0.7,0.6,1.6,0.9,2.2,1.6
		c-7.3-5.6-14.6-11.2-21.8-16.9C753-319.1,753.1-319.4,753.4-319.7z"/>
	<path fill="#D7BF91" d="M806.4-327.4c-2.3,1.3-4.7,2.7-7,4c-0.7,0.4-1.4,0.8-2.1,1.2c-1.8,0.9-3.6,1.8-4.8,3.5
		c-1.9,2.5-4.9,3.2-7.8,3.8c-5.2,1.1-10.1,0.2-14.7-2.3c-0.7-0.4-1.4-0.7-1.7-1.4c-1.2-2.6-3.8-3.4-6-4.6c-2.6-1.4-5.3-2.9-7.8-4.5
		c0-1.1,0-2.2,0-3.3c1.8-0.1,2.8,1.4,4.3,1.9c1.2,0.8,2.5,1.5,3.9,2.1c2.3,1.1,4.5,2.3,6.2,4.5c1.6,2,4,2.9,6.4,3.4
		c2.3,0.4,4.6,1.1,6.9,1c4.6-0.3,8.8-1.5,11.6-5.5c0.3-0.4,0.7-0.7,1.2-0.9c3.9-2,7.8-4.1,11.5-6.5
		C806.4-329.9,806.4-328.6,806.4-327.4z"/>
	<path fill="#BE9B70" d="M815.8-343.7c0.4-2.1,0.9-4.2,1.1-6.3c0.2-1.9,0.8-2.9,2.9-2.5c0.2-0.2,0.3-0.1,0.4,0.1
		c-1.3,2.6-1.8,5.6-3.7,7.9C816.3-344.2,816-344,815.8-343.7z"/>
	<path fill="#DEEBC5" d="M820.2-352.5c-0.1,0-0.3-0.1-0.4-0.1c4.2-1.6,5.9-4.9,5-9.5c-0.6-2.8,0-5.4,1.7-7.8
		c-1.7,3.7-1.1,7.5-1.2,11.3C825.3-355,823.1-352.6,820.2-352.5z"/>
	<path fill="#DEEBC5" d="M821.6-376.9c0-0.1,0.1-0.3,0.1-0.4c4.3,0.2,6.1,3.1,4.8,7.5c0-1,0.1-2.1-0.1-3.1
		C826-374.9,824.9-377.2,821.6-376.9z"/>
	<path fill="#33A6A8" d="M807.9-317.4c0-0.2,0-0.5,0-0.7c1.6-0.7,2.6,0.4,3.8,1c-0.1,0.6-0.8,0.9-0.7,1.5c-0.4,0.6-0.7,1.2-1.6,1
		C808.3-315.2,807.8-316.2,807.9-317.4z"/>
	<path fill="#EAD09F" d="M782.2-318.2c-2.8,0.6-5.4,0-8-0.7c-3-0.8-5.5-2.4-7.2-5.1c-0.5-0.8-1.4-1-2.1-1.4
		c-2.1-1.2-4.4-1.9-6.3-3.5c-0.4-0.4-0.6-1.1-1.3-1.3c-0.5-0.1-1-0.6-0.9-1.1c0.2-0.7,0.9-0.5,1.4-0.5c0.3,0,0.5,0.1,0.8,0.2
		c0.1-0.9,0-1.8,0.1-2.6c-0.1,1,0.3,2.3-1.5,2.4c-0.9,0-1.2-0.3-0.9-1c0.4-1.2,0.2-2-1-2.5c-1.1-0.4-0.9-1.3-0.7-2.2
		c0.1-0.4,0.3-0.9-0.2-1.1c-0.4-0.2-0.7,0.2-0.9,0.5c-0.4,0.5-1,0.7-1.4,1.1c-0.6,0.6-1.2,0.7-1.7,0c-0.5-0.7-0.9-1.4-0.1-2.1
		c0.4-0.4,0.9-0.8,1.5-1.1c0.3-0.1,0.5-0.3,0.5-0.7c0-0.2-0.2-0.3-0.4-0.3c-0.3,0-0.6,0.1-0.8,0.4c-0.1,0.3-0.1,0.6-0.3,0.9
		c-0.3,0.8-1,1.2-1.7,1.1c-0.8,0-0.8-0.9-0.9-1.4c-0.2-0.6-0.2-1.2-0.6-1.7c-0.7-0.9-1-1.8,0.5-2.2c0.2-0.1,0.3-0.2,0.4-0.3
		c0.4-0.5,0.3-1,0-1.4c-0.7-1.2,1.1-3.1-1.1-3.8c-0.2-0.1-0.3-0.2-0.4-0.3c-1.2-1.9-1.2-2.2,0.3-2.9c-1.2-0.3-1.7,1.3-2.8,1
		c-0.9-0.1-1.9-0.1-2.7-0.6c-4.5-0.2-7-3.6-6.2-8.7c0.4-2.6,0.3-5.1-0.8-7.5c-0.4-0.9-0.6-2-0.7-3c-0.3-3.6,1.7-5.5,5.7-5.5
		c0.8,0.5,0.8,1.4,0.9,2.1c0.5,2.5,1.1,5,1.8,7.8c0.5-1.7,0.5-3.2,0.4-4.8c-0.4-5.3-1.1-10.6-1-16c0-1.5,0.3-2.9,0.9-4.3
		c1.3-2.8,2-5.8,2.8-8.8c1.6-5.6,3-6.6,8.9-5.8c3.8,0.5,7.5,1.5,11.1,2.5c4.1,1.2,8.4,1.8,12.6,2.5c0.4,1.1,1.3,1.6,2.3,2.1
		c0,18.9,0,37.9,0,56.8c0,1.7,0.4,2.4,2.2,2.2c2.4-0.2,4.9-0.5,7.3-0.4c1.3,0.1,2.7,0,3.3,1.5c0.6,1.4-0.4,2.5-1.3,3.4
		c-2.7,2.7-6.1,4-9.9,4.3c-1.3,0.1-1.7,0.5-1.7,1.7c0.1,3.4,0.1,6.9,0,10.3C780.3-318.5,780.8-317.9,782.2-318.2z"/>
	<path fill="#A87D50" d="M778.1-401.6c-6.1,0-11.8-2.1-17.6-3.5c-2.9-0.7-5.8-1.3-8.8-1.5c-2.5-0.2-3.6,0.5-4.6,2.7
		c-1.1,2.6-1.7,5.4-2.5,8.1c-0.5,1.6-1,3.2-1.8,4.6c-0.4,0.7-0.4,1.4-0.4,2.1c-0.1,5.7,0.6,11.2,1,16.9c0.2,2.2,0.1,4.4-0.9,7
		c-1.3-4.2-2.2-8.1-2.7-12c-0.2-5.1-0.9-10.3-0.7-15.4c0.1-3,0.1-6,0-9c-0.1-8.4,3.2-15.5,8.9-21.5c0.5-0.5,1-1.1,1.5-1.6
		c2.8-1.9,5.3-4.1,8.4-5.6c7.1-3.6,14.6-5.6,22.6-5.1c0.1,10.3-0.2,20.6,0.1,30.8c0,0.9-0.2,1.8,0.2,2.7c-0.5,0.5-1.2,0.5-1.9,0.6
		c-0.1,0-0.2,0-0.3,0C778.4-401.4,778.2-401.5,778.1-401.6z"/>
	<path fill="#EAD09F" d="M747-349.8c2.1-0.1,2.4,0.2,1.9,2.1c-0.1,0.5-0.2,1,0,1.6c0.8,2,0.6,2.3-1.9,2.8c1.4,1.2,1.8,2.7,1.8,4.3
		c0.9-0.4,2-0.4,1.5-1.8c-0.2-0.8,0.7-0.9,1.2-1c0.6-0.1,1.3,0,1.4,0.8c0.2,0.7-0.1,1.1-0.9,1.4c-1.1,0.4-2.7,0.6-1.5,2.4
		c0.2,0.3,0.7,0.5,0.7,0.4c-0.1-1.3,1.6-0.7,1.8-1.7c0.1-0.8,0.8-1.1,1.6-0.8c0.8,0.3,0.8,1.2,0.5,1.7c-0.8,1.5-0.4,2,1.2,2.2
		c0.9,0.1,0.9,2.1,0.1,3.1c1.7,0.3,2,0,1.7-1.7c-0.1-0.5-0.5-0.9,0.1-1.3c0.2-0.1,0.5-0.1,0.7,0c0.6,0.3,0.2,0.8,0.1,1.3
		c-0.1,1.1-0.4,2.3,0.8,3.5c-1.4,0-2.1-1.4-3.3-0.6c0.6,0.8,2.2,0.9,2,2.4c-1.5-0.5-2.6-1.5-4-2.2c-4.7-3-7.3-7.4-8.6-12.6
		c-0.2-0.2-0.2-0.5-0.1-0.7c0.6-1.2,0.1-3-1-3.8c-0.5-1.3-1.2-2.5-0.2-3.9c1-0.4,1.7-1.4,2.9-1.4c0.7,0,0.9,0.4,1,0.9
		c0.1,0.4-0.3,0.5-0.6,0.5c-2.1-0.4-1.6,0.5-0.8,1.5C747.1-350.5,747.1-350.2,747-349.8c-0.1,0.1-0.1,0.1-0.1,0.1
		C747.1-349.7,746.9-349.6,747-349.8c0.1-0.2,0.3,0,0.1-0.1C747.1-349.9,747-349.7,747-349.8z"/>
	<path fill="#A17F56" d="M744.6-352.1c0.1,1.4,0.2,2.7,0.7,4.1c0.3,1.2,1.2,2.3,0.7,3.7c0,0.2,0,0.4,0,0.7c-2.3-2.5-3.2-5.6-4.3-8.7
		C742.6-352.4,743.7-352.9,744.6-352.1z"/>
	<path fill="#DBDCDE" d="M762.2-279.4c0.4,0.3,0.8-0.9,1-0.1c0.2,0.9-0.7,1-1.4,1.2C762-278.7,762.1-279.1,762.2-279.4z"/>
	<path fill="#297FB7" d="M780.3-271c0,10.5,0,21.1,0,31.6c0,0.5,0.1,1.1-0.3,1.6c-5.2-13.4-10.3-26.7-15.5-40.1
		c-0.1-0.2-0.1-0.5-0.1-0.7c-1.2-3.9-2.7-7.6-4.2-11.3c-2.5-6.3-4.9-12.7-7.3-19c-0.3-0.8-0.8-1.5-0.9-2.4c-0.1-0.3-0.1-0.6,0.2-0.7
		c0.3-0.1,0.5,0,0.6,0.3c0.3,0.4,0.6,0.8,0.8,1.2c7.1,10.8,14.4,21.4,21.6,32.2C776.9-275.9,778.4-273.3,780.3-271z"/>
	<path fill="#397CA7" d="M780.3-271c-1-0.1-1.2-1.1-1.6-1.7c-3.2-4.6-6.3-9.3-9.4-14c-5.6-8.4-11.2-16.8-17.2-25
		c0.7,1.9,1.4,3.9,2.1,5.8c3,7.9,6.1,15.9,9.2,23.8c0.4,1.1,1.4,2.1,1,3.4c-2.2-5.7-4.5-11.4-6.7-17.1c-2.7-7-5.4-14.1-8-21.1
		c1.3,0,1.6,0.8,1.5,1.9c9.4,14,18.8,28.1,28.3,42.1c0.2,0.3,0.5,0.7,0.8,1c0.1,0.1,0.2,0.2,0.3,0.4
		C780.5-271.2,780.4-271.1,780.3-271L780.3-271z"/>
	<path fill="#5D9397" d="M753.4-319.7c0,0.4,0,0.8,0,1.1c0.1,0.3-0.1,0.5-0.4,0.5c-1.4-0.8-2.5,0.5-3.8,0.3c-3,1.6-5.9,3.2-8.9,4.7
		c-0.5,0.3-1,0.7-1.7,0.7c2-2.6,5-3.7,7.7-5C748.6-318.3,750.8-319.6,753.4-319.7z"/>
	<path fill="#32A7A8" d="M749.2-317.8c0.8-0.6,1.7-0.9,2.6-1.2c0.8-0.3,1.1,0,1.2,0.8c0.1,0.1,0.2,0.1,0.1,0.2c0,0.1,0,0.1-0.1,0.1
		c-0.4,1.2-1.1,2.1-1.9,3c-0.5-0.6-0.7-1.5-1.5-1.9C749.3-317,749.3-317.4,749.2-317.8z"/>
	<path fill="#E5E6E8" d="M757.1-296.2c-0.2,1.4-0.2,2.3-0.2,3.2c0,0.9,0.3,1.4,1.1,1.6c0.5,0.1,0.6,0.4,0.8,0.7
		c0.1,0.4,0.7,0.8,0.2,1.1c-0.7,0.5-0.7-0.3-0.9-0.7c-0.1-0.1-0.2-0.2-0.4-0.3c-0.7,0.1-0.7,1.3-1.4,1c-0.7-0.3-0.4-1.2-0.3-1.8
		c0.1-0.8-0.6-1.4-0.7-2C755.3-294.4,756.2-295,757.1-296.2z"/>
	<path fill="#E5E6E8" d="M749.4-314.9c-1.1-0.3-1.5-0.6-1.6-1.3c0-0.1,0.4-0.3,0.6-0.2C749.4-316.3,748.8-315.6,749.4-314.9z"/>
	<path fill="#E5E6E8" d="M762.2-281.9c0,0.3-0.1,0.5-0.4,0.5c-0.4,0-0.6-0.1-0.5-0.5c0-0.3,0.2-0.4,0.5-0.4
		C761.9-282.3,762.1-282.2,762.2-281.9z"/>
	<path fill="#E5E6E8" d="M750.7-311.4c0.5,0.7,0.5,1.2,0.2,1.8C750.8-310.2,750.8-310.7,750.7-311.4z"/>
	<path fill="#508FB3" d="M780.3-271c0-0.1,0-0.3,0-0.4c0.9-2.2,2.5-4.1,3.8-6c5.9-8.9,12-17.6,17.8-26.5c2.4-3.7,4.9-7.3,7.5-10.9
		c0.6,0,1-0.6,1.5-0.8c-0.5,2.4-1.5,4.5-2.6,6.7c-0.2-0.8,0.2-1.4,0.4-2.7c-1,1.4-1.7,2.3-2.4,3.3c-6.5,9.6-13.1,19.3-19.6,29
		c-1.6,2.4-3.1,4.8-4.7,7.1C781.6-271.6,781.2-271,780.3-271z"/>
	<path fill="#508FB3" d="M808.4-309c-1.7,5.4-4,10.5-6,15.8c-2.3,5.9-4.6,11.7-6.9,17.6c-0.4-1.7,0.7-3.1,1.3-4.5
		c3.3-8.5,6.7-17,10-25.5C807.3-306.7,807.2-308.1,808.4-309z"/>
	<path fill="#FEFEFE" d="M821-309.2c0.4,0.7,0.3,1.4,0.3,2c-0.1,1.4,0.2,2.4,1.7,2.7c1.5,0.4,1.4,1.9,1.4,2.9
		c-0.1,0.9-0.1,2.3-1.4,2.7c-0.7,0.2-1.3,0.5-1.6,1.4c-0.3,0.9-1.1,1.2-1.9,1.1c-1.5-0.2-2.4,0.6-3.2,1.7c-0.2,0.2-0.4,0.5-0.5,0.8
		c-0.7,1.5-2.8,0.2-3.2,1.6c-0.4,1.4-0.9,2.2-2.3,2.4c-0.8,0.1-1,0.8-1,1.5c0,1-0.7,1-1.4,0.9c-0.9-0.1-0.5-0.7-0.5-1.3
		c0-2.6-0.1-5.2-0.1-7.7c0-1.4,0.1-2.7,0.2-4.1c0-0.2,0.1-0.5,0.1-0.5c1.7-0.2,2.2-2.4,3.1-2.7c2.9-0.8,2.2-2.8,2.1-4.6
		c-0.1-1.5,0.4-2.9,0.8-4.2c0.4-1.3,2-0.5,3.1-0.6c1-0.1,1,0.6,1.1,1.3c0,0.6,0.2,1.2,0.3,1.8c0.1,0.7-0.2,1.5,0.7,1.9
		C819.9-308,820.3-308.8,821-309.2z"/>
	<path fill="#FEFEFE" d="M816.1-274.7c-0.5,0-0.9-0.4-1.3-0.7c-1.3-0.9-2.2-0.5-2.4,1c-0.1,0.9-0.4,1.6-1.4,1.5
		c-1.2-0.1-1.6,0.6-1.6,1.7c0,0.5,0.1,1.2-0.5,1.4c-0.7,0.2-1.2-0.3-1.7-0.9c-0.4-0.6-0.7-1.4-1.7-0.7c-0.5,0.3-0.7-0.2-0.9-0.6
		c-0.3-0.9-0.6-1.7-0.9-2.6c-0.2-0.4-0.3-0.9-0.6-1.1c-1.5-1.1-1.8-1.6-1.8-3.5c0-2.1-0.2-4.2,0.3-6.2c0.3-1,0.8-1.4,1.7-1.2
		c1,0.2,2.4-0.9,2.9,1c0.1,0.6,0.4,1.4,1,1.4c1.7-0.1,1.9,1,2.3,2.2c0.2,0.6,0.6,1,1.2,0.7c1.2-0.5,1.5,0.2,2.1,1.1
		C814-278.2,815.8-276.9,816.1-274.7L816.1-274.7z"/>
	<path fill="#C2996C" d="M797.3-389.1c5.5,0.5,10.3,2.3,13.3,7.4c-3.7-1.8-7-4.6-11.4-4.8c-0.5-0.3-1,0.5-1.5,0
		c-2.2-0.1-4,1.1-5.9,1.7c-0.9,0.3-1.8,0.6-2.8,0.9c-0.9,0.2-1.8-0.1-2.2-0.9c-0.4-0.9,0.3-1.5,0.9-2c1.9-1.6,4.3-1.9,6.7-2.3
		C795.3-389.4,796.3-389.2,797.3-389.1z"/>
	<path fill="#F8E2B4" d="M797.7-386.5c0.5-0.2,1-0.5,1.5,0c0.1,0.8,0.8,1.1,1.3,1.5c6,4.5,11.4,9.6,17.4,14c0,0.4,0,0.8,0,1.1
		c-2.6-1.5-4.7-3.7-7-5.5c-4.2-3.3-8.3-6.8-12.4-10.2C798.2-385.8,797.9-386.2,797.7-386.5z"/>
	<path fill="#F8E2B3" d="M797.3-389.1c-1,0-2,0-3,0c-3.3-2.7-6.7-5.3-10-8c-0.1-0.1-0.2-0.2-0.3-0.3c-0.4-0.7-2.2-0.9-1.4-1.8
		c0.5-0.7,1.5,0.7,2.2,1.2c3.1,2.5,6.2,5,9.2,7.6C794.9-389.4,796.2-389.7,797.3-389.1z"/>
	<path fill="#A87D50" d="M778.5-401.6c0.6-0.6,1.5-0.2,2.2-0.4c1-0.4,0.7-1.3,0.8-2c0-0.5,0.2-0.8,0.7-0.8c0.6,0,0.7,0.4,0.7,0.8
		c0,0.8,0,1.6,0,2.4c-0.9,0-1.7,0.1-2.6,0.1C779.7-401.1,779.1-401,778.5-401.6z"/>
	<path fill="#F0DAB2" d="M778.5-401.6c0.6,0,1.2,0,1.9,0.1c0,0.5,0,0.9,0,1.4C778.3-399.8,778.3-399.8,778.5-401.6L778.5-401.6z"/>
	<path fill="#D5BD93" d="M778.5-401.6c-0.2,1.6,0.8,1.6,1.9,1.5c0.2,0.1,0.3,0.3,0,0.4c-1.3,0.1-2.6,0.1-2.2-1.9
		C778.2-401.6,778.3-401.6,778.5-401.6z"/>
	<path fill="#CFAD89" d="M783.3-401.6c0.9-0.6,2-0.2,3-0.3C785.3-401.3,784.3-401.7,783.3-401.6z"/>
	<path fill="#CFC4AD" d="M807.2-427.4c0.8,0.1,1.4,0.6,1.8,1.2c-0.5,0.4-1,0.9-1.6,0.4C807.1-426.2,806.7-426.8,807.2-427.4z"/>
	<path fill="#FEE8B9" d="M809.5-314.8c0.1,0.6-0.1,1.1-0.4,1.5c-9.4,13.8-18.7,27.7-28.1,41.5c-0.1,0.2-0.4,0.3-0.6,0.4
		c0-0.1-0.1-0.2-0.1-0.4c0-5.8,0.1-11.5,0.1-17.3c0.1-0.3,0.3-0.6,0.5-0.8c0.4-0.4,1-0.6,1.4-0.9c0.7-0.7,0.8-1.6,0.8-2.5
		c0-0.5-0.3-0.8-0.8-0.8c-0.4,0-0.6,0.3-0.7,0.7c-0.1,0.7-0.1,1.4-0.8,1.8c-0.2,0.1-0.3,0-0.5-0.1c0-1.6,0-3.2,0-4.8
		c-0.1-0.1-0.1-0.2-0.1-0.2c0-0.1,0.1-0.1,0.1-0.1c3.9-0.7,5.3-2.1,5.5-5.6c0.1-1,0.7-1.7,1.4-2.4c3-2.6,6.3-4.9,9.2-7.6
		c0.5-0.5,1.3-0.6,1.9-1.1c2.5-1,5.2-1.6,7.6-2.9c0.6-0.3,1.2-0.8,1.8-1.1C808.4-316.6,808.7-315.6,809.5-314.8z"/>
	<path fill="#FEE8B9" d="M785.5-304.5c-0.7-1.7-2-2.6-3.7-3c-1.7-0.3-1.5-1.5-1.5-2.6c0-1.4,1.2-1,1.9-1c4.6,0.2,9.1-0.8,13.6-1.5
		c0.3,0.7,0.3,0.7,0,1c-2.9,2.6-6.1,4.8-9,7.3C786.4-304,785.9-303.9,785.5-304.5z"/>
	<path fill="#E4CB9A" d="M753.1-317.8c0-0.1-0.1-0.2-0.1-0.4c0.1-0.1,0.3-0.2,0.4-0.4c2,0.6,3.3,2.2,4.9,3.4
		c3.7,2.7,7.3,5.5,10.8,8.4c2.3,1.9,5.1,3.3,6.7,6.1c-1.1-0.8-2.3-1.5-3.4-2.3c-6.3-4.9-12.6-9.8-18.9-14.8
		C753.5-317.8,753.3-317.8,753.1-317.8z"/>
	<path fill="#F8E2B3" d="M785.5-304.5c1.6,0.3,2.1-1.2,3.1-1.9c2.5-1.7,4.8-3.7,7.2-5.6c0.2-0.2,0.4-0.3,0.1-0.6
		c0.8-0.6,1.8-0.4,2.6-0.7c-3.7,3.1-7.4,6.3-11.2,9.4c-0.6,0.5-0.9,1.1-1.3,1.7C785.7-303.1,785.6-303.8,785.5-304.5z"/>
	<path fill="#EAD09F" d="M775.5-294.2c0.1-1.4-0.4-3,1.1-4.1c0.8-1,1.9-0.5,2.9-0.5c0.7,0,0.6,0.7,0.6,1.1c0,0.5,0,1.1-0.7,1
		c-1.6-0.2-2.4,0.4-2.3,2.1C777.2-293.5,776.6-293.4,775.5-294.2z"/>
	<path fill="#D8C196" d="M775.5-294.2c1,0.7,1.5,0.4,1.5-0.8c-0.1-1.3,0.4-2,1.8-1.8c0.7,0.1,1.2-0.2,1.1-1c0-0.8-0.6-0.8-1.2-0.8
		c-0.7,0-1.5,0-2.1,0.4c0.7-1.5,2.1-0.7,3-0.6c1.2,0.1,0.5,1.4,0.7,2.1c0,0.1,0,0.2,0,0.3c-1.5,0-3.3-0.3-3,2.2
		c0.1,0.6-0.5,0.8-1,0.8c-0.6,0-1.3,0-1.5-0.8c-0.1-0.4,0-0.9,0-1.5C775.4-295.3,774.9-294.5,775.5-294.2z"/>
	<path fill="#D5BF94" d="M781.1-289.4c-0.2,0.1-0.5,0.3-0.7,0.4c-0.8-0.2-2,0.6-2.2-1c-0.2-1.9,1.1-1.5,2.2-1.6c0.1,0,0.2,0,0.4,0
		c0.2-0.2,0.3-0.1,0.4,0.1c0,0.4-0.4,0.6-0.7,0.7c-0.4,0.1-1,0-1.1,0.4c-0.1,0.7,0.7,0.4,1.1,0.6
		C780.7-289.8,780.9-289.6,781.1-289.4z"/>
	<path fill="#A77D50" d="M764.8-389.1c2.4,0.1,4.8,0.4,6.9,1.6c1,0.6,2.5,1.3,1.9,2.7c-0.6,1.4-2,1.1-3.2,0.6
		c-0.8-0.3-1.7-0.5-2.4-0.9c-5-2.6-9.6-1.5-14.1,1.2c-1.3,0.8-2.6,1.7-3.9,2.5c-0.1-3,6.5-7.3,12.6-7.8
		C763.4-389.3,764.1-389.7,764.8-389.1z"/>
	<path fill="#E5CB9A" d="M764.8-389.1c-0.7,0-1.5,0-2.2,0c4.5-3.5,8.9-7,13.4-10.5c0.1,0.1,0.2,0.3,0.4,0.4c-0.3,0.7-1,1.1-1.6,1.6
		c-3,2.4-6,4.8-9,7.2C765.4-390.1,764.9-389.7,764.8-389.1z"/>
	<path fill="#A87D50" d="M778.5-409.3c0.6,0.1,1.4-0.2,1.4,0.9c0,1-0.7,1-1.4,1c-1.3-0.1-1.6,0.6-1.5,1.7c0,0.7,0,1.3-1,1.2
		c-0.8-0.1-0.9-0.7-0.9-1.4C775.2-408.3,776.3-409.4,778.5-409.3z"/>
	<path fill="#EAD09F" d="M746-344.4c-0.5-1.2-0.8-2.4-0.7-3.7c0.9,0.6,1.3,1.6,1.8,2.5C747.4-345,746.5-344.7,746-344.4z"/>
	<path fill="#EAD09F" d="M753.8-336.9c-0.7,1.1-0.9,2.2-0.7,3.6C751.8-335.2,752-335.9,753.8-336.9z"/>
	<path fill="#EAD09F" d="M756-333.2c-0.6,0.3-0.4,1.5-1.5,1.1c-0.2-0.1-0.6-0.4-0.4-0.7C754.5-333.5,755.1-333.8,756-333.2z"/>
	<path fill="#EAD09F" d="M747.1-350c0,0.5,0.1,1-0.5,1.2C746.2-349.4,746.7-349.6,747.1-350z"/>
	<path fill="#FEE8B9" d="M781.1-289.4c-0.2,0-0.5,0-0.7,0c-0.5-0.6-0.5-1.2,0-1.8c0.2-0.1,0.5-0.3,0.7-0.4c0.3-0.6,0.2-1.2,0.2-1.8
		c0-0.7,0.2-1,0.9-1c0.7,0,1,0.3,1.1,1c0.1,1.2,0.1,2.3-0.7,3.3C782-289.9,781.5-289.7,781.1-289.4z"/>
	<path fill="#EBD8AF" d="M782.5-290.2c0.3-0.9,0.5-1.7,0.4-2.6c-0.1-0.6,0.2-1.3-0.8-1.3c-0.8,0-0.7,0.7-0.7,1.2
		c0,0.5,0.1,1-0.4,1.3c0,0-0.2,0-0.2,0s-0.2,0-0.2,0c0.3-0.5,0.4-1.1,0.4-1.7c-0.1-0.8,0.2-1.2,1.1-1.2c0.8,0,1.4,0.3,1.4,1.2
		C783.6-292.2,783.7-290.9,782.5-290.2z"/>
	<path fill="#EEDAB2" d="M780.3-291.2c0,0.6,0,1.2,0,1.8c-0.7-0.1-1.7,0.5-1.8-0.8C778.4-291.7,779.6-291.1,780.3-291.2z"/>
</g>
</svg>
