<?xml version="1.0" encoding="utf-8"?>
<!-- Generator: Adobe Illustrator 21.1.0, SVG Export Plug-In . SVG Version: 6.00 Build 0)  -->
<svg version="1.1" id="Layer_1" xmlns="http://www.w3.org/2000/svg" xmlns:xlink="http://www.w3.org/1999/xlink" x="0px" y="0px"
	 viewBox="-470 4834.5 206.5 206.5" enable-background="new -470 4834.5 206.5 206.5" xml:space="preserve">
<g>
	<circle fill="#77CBC7" cx="-366.7" cy="4937.7" r="103.2"/>
	<path fill="#62BAB3" d="M-366.7,4834.5L-366.7,4834.5V5041l0,0c57,0,103.2-46.2,103.2-103.2
		C-263.5,4880.7-309.7,4834.5-366.7,4834.5z"/>
</g>
<g>
	<path fill="#81725B" d="M-299.3,4927.9c0.2,13.9,0.8,27.9,0.5,41.8c-0.2,8.5-4.7,13.1-14.1,13.1c-36-0.3-71.9-0.2-107.9-0.1
		c-8.9,0-14-3.5-13.8-12.9c0.2-13.9,0.4-27.9,0.5-41.8c0.9-0.6,1.9-0.7,2.9-0.4c10.6,4.5,21.5,8.2,32.9,10.4c1,0.4,1.8,1,2.3,1.9
		c2.8,12.3,7.7,23,21.5,26.3c13.9,3.3,26.5-3.2,31.8-16.6c1.2-3,1.8-6.3,4-9c11.4-6.3,24.9-6.6,36.2-12.9
		C-301.3,4927.3-300.3,4927.4-299.3,4927.9z"/>
	<path fill="#F2EDCD" d="M-397.7,4938.7c2.8-16.6,12.6-26.8,27.2-28.2c15.2-1.5,26.7,7.6,32.8,26c1.2,1.4,1.1,2.9,0.1,4.3
		c-3.4,18.3-12.5,28-27.5,29.1c-14.3,1-26.2-6.3-30.8-19.5C-397.1,4946.8-397.1,4942.7-397.7,4938.7z"/>
	<path fill="#43413E" d="M-337.6,4940.9c0-1.4-0.1-2.9-0.1-4.3c12.5-2.7,24.1-9.6,37.5-8.7C-311,4937-324.5,4938.2-337.6,4940.9z"/>
	<path fill="#44413E" d="M-432.9,4927.9c12.3,0.2,24,1.9,33.4,10.9C-411.7,4938.5-422.9,4935.2-432.9,4927.9z"/>
	<g>
		<path fill="#5C5040" d="M-298.8,4909.4c-0.2-8.6-4.1-13.2-13.7-12.6c-10.5,0.6-21.1,0.1-31.7,0.1c0,0,0,0,0,0c0,0,0,0,0,0
			c-3.2,0-6.3,0-9.5,0c0,0,0,0,0,0c-6.4,0-12.9-0.2-19.3,0.2c-4.9,0.2-7.5-1.5-7.2-6.6c-2.1,3.5-3.5,8-9.2,6.4c0,0,0,0,0,0
			c0,0,0,0,0,0c-5.5,0.1-10.9,0.1-16.4,0.2c-30.5,0-30.5,0-28.4,31c0,0,0.6,0,0.6,0l0.6,0c11.1,3.8,22.7,6.1,33.4,10.9
			c0.6,0,1.2-0.1,1.7-0.1c3.2-1.9,3.3-5.5,4.7-8.4c4.8-10.2,12.9-16.3,23.8-16.9c10.6-0.6,18.8,5,24.6,14c2.1,3.4,3.3,7.4,6.8,9.9
			c13.4,0.2,25.2-6.1,37.7-9.4c0,0,0.9,0,0.9,0C-299.1,4921.7-298.7,4915.5-298.8,4909.4z"/>
		<path fill="#40403E" d="M-379.6,4890.1c6.9-4.3,14.5-1.9,21.7-1.7c3.6,0.1,4.4,2.6,4.5,5.5c0.3,0,0.5,0,0.8,0.1
			c3.2-0.1,6,0.9,8.5,2.8c-0.8-17.7-0.8-17.8-15.9-17.7c-29,0.2-28.1-3.3-29.2,17.6C-385.3,4895.7-384.7,4889.3-379.6,4890.1z"/>
		<path fill="#40403E" d="M-380.1,4890.4c0.1-0.1,0.3-0.2,0.4-0.3c-5-0.8-5.7,5.6-9.6,6.6c0,0,0,0,0,0
			C-383.6,4898.4-382.1,4893.9-380.1,4890.4z"/>
		<path fill="#40403E" d="M-353.5,4893.9c0,1-0.1,2-0.2,2.9c3.2,0,6.3,0,9.5,0c0,0,0,0,0,0c-2.5-1.9-5.3-2.9-8.5-2.8
			C-352.9,4893.9-353.2,4893.9-353.5,4893.9z"/>
	</g>
	<path fill="#D62529" d="M-368.2,4918.9c5.5-0.4,6.8,2.7,6.3,6.9c-0.9,6.7,1.6,9.6,8.5,8.6c4.1-0.6,7.1,0.6,7.2,5.8
		c0,4.9-2.4,6.8-6.7,6.4c-6.3-0.6-9.9,1.1-8.9,8.3c0.6,4.2-0.8,7.3-5.8,7.3c-4.9,0.1-6.5-2.9-6-7.1c0.9-7-2.2-9.2-8.8-8.6
		c-4.2,0.4-6.9-1.3-6.9-6.3c0-5.1,2.8-6.5,7-6c6.7,0.8,9.5-1.6,8.7-8.5C-374.1,4921.9-373.2,4918.4-368.2,4918.9z"/>
</g>
</svg>
