<?xml version="1.0" encoding="utf-8"?>
<!-- Generator: Adobe Illustrator 21.1.0, SVG Export Plug-In . SVG Version: 6.00 Build 0)  -->
<svg version="1.1" id="Layer_1" xmlns="http://www.w3.org/2000/svg" xmlns:xlink="http://www.w3.org/1999/xlink" x="0px" y="0px"
	 viewBox="-470 4834.5 206.5 206.5" enable-background="new -470 4834.5 206.5 206.5" xml:space="preserve">
<g>
	<circle fill="#77CBC7" cx="-366.7" cy="4937.7" r="103.2"/>
	<path fill="#62BAB3" d="M-366.7,4834.5L-366.7,4834.5V5041l0,0c57,0,103.2-46.2,103.2-103.2
		C-263.5,4880.7-309.7,4834.5-366.7,4834.5z"/>
</g>
<path fill="#687F9F" d="M-427.3,5010.7c0.7-17,4.2-21.5,20.4-26.2c2.9-0.8,6-1.5,8.4-3c7.6-4.9,14.2-5.4,20.7,2.1
	c3.1,3.6,6.8,4.3,8-2.1c0.4-2.2,1.1-4.8,4-5.1c2.8-0.3,4.4,1.5,4.8,4c1.7,9.2,6.7,5.6,10,2c5.2-5.7,10-6.1,16.3-2
	c3.3,2.1,7.4,3,11.2,4.2c16.3,4.9,19.7,9.2,20.4,26.2c-2.9,0.4-5.9,1.2-8.8,1.2c-35.9,0.1-71.8,0.1-107.7,0
	C-422.2,5012-425,5012.3-427.3,5010.7z"/>
<path fill="#764C24" d="M-331.3,4916.5c-2.2,1.4-1.7,5.1-5.4,6c0-7,0.2-13.8,0-20.6c-0.5-12.9-8.9-18.2-20-12.1
	c-5.9,3.3-10.8,3.2-16.8-0.1c-11.3-6.1-19.4-0.9-19.9,12.1c-0.1,3.3,0,6.7,0,10c0,3.3,0,6.6,0,10.3c-3.9,0.1-3.3-4.3-5.5-5.6
	c-2.2-9.1-3.8-18.2-2.5-27.6c0.2-1.6,0.3-3.3,0.7-4.9c4.1-15.1,21.7-23.2,44-20.2c18.1,2.4,27.8,12.5,28.2,28.9
	C-328.4,4900.9-329.2,4908.8-331.3,4916.5z"/>
<path fill="#F9C995" d="M-383.1,4966.7c0.6-2.9-1.5-9.1,5.3-4.5c8.8,5.9,17.3,5.4,26.1-0.3c6.4-4.1,4,1.9,4.7,4.4
	C-359,4974.1-371,4974.2-383.1,4966.7z"/>
<path fill="#FEFCF9" d="M-346.9,4967.8c0.9,1.1,2.3,2.9,3.2,5.5c0.5,1.6,0.7,3,0.7,4.1c-2.4,2.3-4.6,4.7-7.2,6.8
	c-4.1,3.2-8.7,8.2-10.8-1.8c-0.4-1.8-1.5-3.8-3.9-4c-2.5-0.2-3.8,1.5-4.2,3.4c-0.9,4.3-2.1,6.1-3.6,6.5c-0.5,0.1-1.9,0.6-8.2-4.7
	c-2.7-2.2-4.8-4.3-6.2-5.7c-0.1-0.9-0.2-2.6,0.6-4.6c0.6-1.5,1.4-2.5,2-3.1c0.1-0.1,0.3-0.3,0.4-0.5c0.1-0.1,0.2-0.3,0.2-0.3
	c0.2-0.4,1.8-1.5,2.1-1.6C-379,4966.6-355.5,4967.4-346.9,4967.8z"/>
<path fill="#FBCFA3" d="M-383.1,4968.7c-3.5-11.8-7.4-23.4-15.4-33.3c-4.3-5.3-4.2-12.4-0.4-18.7c3.9-1.6,2.6-4.7,2.3-7.7
	c-1.8-20.8,7.1-28.2,26.5-22.1c4.2,1.3,7.7,0.7,11.6-0.6c15.9-5.3,26,2.7,25.6,19.6c-0.1,3.5-3.7,7.9,1.7,10.6
	c3.7,6.3,4,13.4-0.3,18.6c-8.2,9.9-12.1,21.3-15.5,33.2c-1,0.6-2.5,1.3-4.2,2c-6.2,2.5-11.6,2.6-13.5,2.6c-4.5-0.1-7.8-1-13.2-2.6
	C-380.2,4969.8-381.9,4969.2-383.1,4968.7z"/>
<g>
	<path fill="#D8F0FC" d="M-351.3,4995c0-1.1,0.4-1.5,1.6-1.5c3.7,0,7.4,0,11.1,0c2.3,0,4.7,0,7,0c0.1,0,0.3,0,0.4,0
		c0.8,0.1,1.2,0.5,1.2,1.3c0,3.7,0,7.3,0,11c0,0.9-0.4,1.3-1.3,1.3c-3.1,0-6.2,0-9.3,0c-3,0-6.1,0-9.1,0c-1.1,0-1.5-0.4-1.5-1.4"/>
	<path fill="#FEFEFE" d="M-348.8,5004.5c-0.4,0-1,0.2-1.3-0.1c-0.3-0.3-0.1-0.8-0.1-1.3c0-2.2,0-4.4,0-6.6c0-0.4,0.1-0.6,0.6-0.6
		c2.5,0,5,0,7.5,0c0.4,0,0.5,0.1,0.5,0.5c0,2.5,0,5,0,7.5c0,0.4-0.1,0.6-0.5,0.5c-0.3,0-0.5,0-0.8,0c0,0-0.1,0-0.1-0.1
		c-0.2-0.7-0.8-1-1.4-1.2c-0.3-0.1-0.5-0.1-0.7,0.1c0,0-0.1,0-0.1,0c-0.5-0.1-1,0.1-1.4-0.1c-0.3-0.1-0.5-0.2-0.7,0
		c-0.2,0.1-0.3,0.1-0.5,0.2c-0.4,0.1-0.7,0.3-0.8,0.8C-348.7,5004.3-348.7,5004.4-348.8,5004.5z"/>
	<path fill="#687F9F" d="M-348.8,5004.5c0-0.8,0.2-1,1-1.2c0.1,0,0.3-0.1,0.4-0.1c0.4-0.2,0.7-0.3,1,0.1c0.1,0.2,0.3,0.2,0.4-0.1
		c0-0.1,0.1-0.2,0.2-0.2c0.1,0,0.2,0.1,0.2,0.2c0.1,0.4,0.3,0.3,0.5,0.1c0.2-0.3,0.5-0.3,0.8-0.1c0.2,0.1,0.3,0.1,0.5,0.2
		c0.8,0.2,0.9,0.4,1,1.2c-0.1,0-0.3,0.1-0.4,0.1c-1.7,0-3.4,0-5,0C-348.6,5004.5-348.7,5004.5-348.8,5004.5z"/>
	<path fill="#231F20" d="M-340.7,5005.8c-2.8,0-5.6,0-8.4,0c-0.1,0-0.2,0-0.3,0c-0.1,0-0.2,0-0.2-0.1c0-0.1,0.1-0.1,0.2-0.1
		c0.1,0,0.2,0,0.3,0c5.7,0,11.3,0,17,0c0.2,0,0.5-0.1,0.5,0.1c0,0.3-0.3,0.1-0.5,0.1C-335,5005.8-337.9,5005.8-340.7,5005.8z"/>
	<path fill="#F59696" d="M-340.7,4995c-0.6,0-1.3,0-1.9,0c-0.2,0-0.5,0-0.5-0.3c0-0.3,0.2-0.3,0.4-0.3c1.3,0,2.6,0,3.9,0
		c0.2,0,0.4,0,0.4,0.3c0,0.3-0.2,0.3-0.5,0.3C-339.4,4995-340.1,4995-340.7,4995z"/>
	<path fill="#2E2B2D" d="M-336.3,5000.7c-1.4,0-2.7,0-4.1,0c-0.1,0-0.2,0-0.3,0c0,0-0.1-0.1-0.1-0.1c0,0,0.1-0.1,0.1-0.1
		c0.1,0,0.2,0,0.3,0c2.8,0,5.5,0,8.3,0c0.1,0,0.2,0,0.3,0c0.1,0,0.1,0.1,0.1,0.1c0,0.1-0.1,0.1-0.1,0.1c-0.1,0-0.2,0-0.3,0
		C-333.5,5000.7-334.9,5000.7-336.3,5000.7z"/>
	<path fill="#383739" d="M-336.3,4996.6c1.4,0,2.8,0,4.2,0c0.1,0,0.4-0.1,0.4,0.1c0,0.2-0.2,0.1-0.4,0.1c-2.8,0-5.6,0-8.4,0
		c-0.1,0-0.3,0.1-0.3-0.1s0.2-0.1,0.3-0.1C-339.1,4996.6-337.7,4996.6-336.3,4996.6z"/>
	<path fill="#231F20" d="M-336.3,5002.2c-1.4,0-2.8,0-4.2,0c-0.1,0-0.4,0.1-0.4-0.1c0-0.2,0.2-0.1,0.4-0.1c2.8,0,5.6,0,8.4,0
		c0.1,0,0.3-0.1,0.4,0.1c0,0.2-0.2,0.2-0.4,0.2C-333.5,5002.2-334.9,5002.2-336.3,5002.2z"/>
	<path fill="#2D2B2D" d="M-336.3,5003.4c1.4,0,2.8,0,4.2,0c0.1,0,0.3-0.1,0.3,0.1c0,0.2-0.2,0.2-0.4,0.2c-2.8,0-5.6,0-8.4,0
		c-0.1,0-0.4,0.1-0.4-0.1c0-0.2,0.3-0.1,0.4-0.1C-339,5003.4-337.7,5003.4-336.3,5003.4z"/>
	<path fill="#2E2B2D" d="M-336.3,4999.2c-1.4,0-2.8,0-4.2,0c-0.1,0-0.3,0.1-0.3-0.1c0-0.2,0.2-0.1,0.3-0.1c2.8,0,5.6,0,8.4,0
		c0.1,0,0.4-0.1,0.4,0.2c0,0.2-0.2,0.1-0.4,0.1C-333.5,4999.2-334.9,4999.2-336.3,4999.2z"/>
	<path fill="#FBCFA3" d="M-346.8,5002.4c-0.2-0.6-0.3-1.1-0.7-1.6c-0.2-0.2-0.2-0.6,0-0.9c0.2-0.1,0.1-0.2,0.1-0.4
		c-0.1-1,0.3-1.3,1.2-1c0.2,0.1,0.4,0,0.5,0c0.7-0.2,1.2,0.1,1.2,0.9c0,0.2-0.2,0.4,0.1,0.5c0.2,0.3,0.2,0.6,0,0.9
		c-0.4,0.5-0.6,1-0.7,1.6c-0.1,0-0.1-0.1-0.2,0c-0.4,0.2-0.8,0.3-1.2,0C-346.6,5002.3-346.7,5002.4-346.8,5002.4z"/>
	<path fill="#764C24" d="M-344.4,5000c-0.1,0.1-0.1,0.2-0.3,0.3c0-0.3,0-0.6,0-1c0-0.6-0.4-0.8-0.9-0.6c-0.3,0.2-0.5,0.1-0.8,0
		c-0.5-0.3-0.9,0-0.9,0.6c0,0.2,0,0.3,0,0.5c0,0.2,0,0.3,0,0.5c-0.2,0-0.2-0.2-0.3-0.3c-0.1-0.4-0.2-0.9-0.1-1.3c0-0.1,0-0.2,0-0.2
		c0.2-0.7,1-1.1,2.1-0.9c0.8,0.1,1.3,0.6,1.3,1.4C-344.2,4999.2-344.3,4999.6-344.4,5000z"/>
	<path fill="#F9C995" d="M-346.8,5002.4c0-0.1-0.1-0.4,0.2-0.2c0.4,0.3,0.8,0.3,1.2,0c0.3-0.2,0.2,0.1,0.2,0.2
		C-345.6,5002.8-346.2,5002.8-346.8,5002.4z"/>
</g>
</svg>
