<?xml version="1.0" encoding="utf-8"?>
<!-- Generator: Adobe Illustrator 19.1.0, SVG Export Plug-In . SVG Version: 6.00 Build 0)  -->
<svg version="1.1" id="Layer_1" xmlns="http://www.w3.org/2000/svg" xmlns:xlink="http://www.w3.org/1999/xlink" x="0px" y="0px"
	 viewBox="-202 293.5 206.5 206.5" enable-background="new -202 293.5 206.5 206.5" xml:space="preserve">
<g>
	<g>
		<circle fill="#77CBC7" cx="-98.8" cy="396.8" r="103.2"/>
		<path fill="#62BAB3" d="M-98.8,293.5L-98.8,293.5V500l0,0c57,0,103.2-46.2,103.2-103.2C4.5,339.7-41.7,293.5-98.8,293.5z"/>
	</g>
</g>
<g>
	<path fill="#333333" d="M-114.6,448c-9.2,0.1-18.4,0.1-27.6,0.2c-1.6,0-1.5-0.7-1.3-1.8c0.6-2.7,1.2-5.5,1.7-8.2
		c0.2-5.9,1.5-11.4,6.5-15.3c1.4-1.1,2.6-2,0.4-3.6c-1.3-0.9-0.9-2,0.3-2.9c1.1-0.8,2.4-1.3,3.6-1.8c1.8-0.7,2-1.8,1.1-3.4
		c-1.2-2-2.6-3.9-3.6-6.1c-0.4-1-1.2-2,0.3-2.8c0.8-0.2,1.6,0.1,2.4,0.4c4.7,2.3,9.4,4.6,13.8,7.6c0.8,0.6,1.7,1.1,2.1,2.1
		c-0.5,2.9-2.7,5-4.1,7.5c-2.5,4.3-2.5,4.3,1.7,6.6c3.1,1.7,3.2,2.6,0.3,4.6c-0.5,0.4-1,0.8-1.5,1.1c-1.8,1-1.8,2.2-0.8,3.8
		c1.9,2.9,3.1,6.1,4.6,9.2C-114.3,446.2-113.7,447.1-114.6,448z"/>
	<path fill="#278086" d="M-27,412.1c3.1,2.4,6.9,2.9,10.5,3.7c3.9,0.9,7,2.7,8.6,6.5c1.1,3.7,1.6,7.4,1.6,11.3
		c0,1.2-0.3,1.8-1.7,1.8c-11.8,0-23.6,0-35.4,0c-1,0-1.6-0.2-1.5-1.4c0-5.3,0-10.7,0-16c0-0.7,0.3-1,1-0.9c1.7,0.1,2.3,1.8,3.7,2.5
		c0.9,0.4,1-0.4,1.3-0.9c2.2-2.7,3.8-5.9,6.4-8.4c0.2-0.1,0.5-0.1,0.7,0c1.4,0.6,2.2,2.8,4.3,1.7C-27.3,411.8-27.1,411.9-27,412.1z"
		/>
	<path fill="#333333" d="M-188.7,434.8c0.8-3.8,1.6-7.5,2.3-11.3c0-6,2.8-10.4,7.9-13.3c2.7-1.6,5.4-3.3,8.2-4.7c2.1-1,4-2.2,6.1-3
		c1-0.4,2-1.1,3-0.1c0.4,1-0.1,1.8-0.5,2.6c-0.5,1-1.2,2-1.8,3c-1,1.7-3.1,3.2-2.8,5.1c0.3,2,3,2,4.5,3c2.1,1.4,2.1,2.3,0.2,3.9
		c-3.8,3.2-3.9,3.2-1.6,7.8c1.1,2.3,2.2,4.5,3.2,6.9c1,2.3,0.7,2.7-1.7,2.7c-8.2,0-16.4,0-24.7,0
		C-188.6,437.4-189.4,436.8-188.7,434.8z"/>
	<path fill="#333333" d="M-63.7,435.9c0.8,3.4,1.5,6.9,2.3,10.3c0.3,1.2,0.2,2-1.4,2c-9.3-0.1-18.6-0.1-27.8-0.2
		c-0.6-1.2,0.1-2.1,0.6-3c1.5-3,2.9-6,4.5-9c1-1.8,0.7-3-1.1-4c-1.4-0.8-3.6-1.4-3.4-3.4c0.2-1.7,2.4-2,3.8-2.7
		c3.3-1.5,3.3-1.5,1.5-4.6c-1.3-2.2-2.5-4.4-4-6.4c-0.5-0.7-1.2-1.4-0.7-2.4c1.9-0.6,3.1,1,4.7,1.5c2.1,0.7,4,1.8,5.9,3
		c3.3,2,6.9,3.6,9.8,6.2C-65.4,426.5-63.2,430.6-63.7,435.9z"/>
	<path fill="#288086" d="M-63.7,435.9c-0.2-0.9-0.5-1.9-0.7-2.8c-1.2-6-4.9-10-10.2-12.8c-1.6-0.8-3.1-1.8-4.6-2.8
		c0.5-1.7,2-1.8,3.4-2.2c3.5-1,7.1-1.7,10.5-3.3c2.1-0.5,3.9-1.9,6.1-2.1c1.2,0.2,1.8,1.2,2.3,2.1c1,1.6,2,3.2,3.1,4.8
		c2.1,3.2,2.1,3.2,4.9,0.5c0.9-0.4,1.7-2.1,2.8-0.2c0.2,5.1,0,10.1,0.1,15.2c0,0.7,0,1.5-0.5,2.1c-0.4,1.4-1.5,1-2.4,1
		c-4,0-7.9,0-11.9,0C-61.8,435.4-62.8,435.1-63.7,435.9z"/>
	<path fill="#5F5E5A" d="M-188.7,434.8c0.2,1-0.2,2.3,1.6,2.3c8.9,0,17.9,0,27.2,0c-2.1-4.4-3.9-8.5-5.9-12.5
		c-0.8-1.7-0.7-2.6,1-3.5c1.5-0.8,2.8-1.9,4.7-3.2c-2.1-1.1-3.7-2.2-5.6-2.7c-2.8-0.9-2.5-2-1.1-4c2-2.9,4.3-5.6,5.4-9
		c0.3-1.6,1.4-2,2.7-2c1.8,0,1.9,1.6,2.3,2.8c0.9,5,1.2,10.1,2.2,15.2c0.6,5.1,1.3,10.3,1.7,15.5c0,0.6,0,1.3,0,1.9
		c0,2.1-1.7,1.8-3,2.1c-10.5,0-20.9-0.1-31.4,0C-189.1,437.5-190,437-188.7,434.8z"/>
	<path fill="#1B1B1B" d="M-89.6,412.6c2.9,3.2,4.6,7.1,6.9,10.6c0.7,1.1,0.5,1.8-0.7,2.3c-1.7,0.7-3.5,1.6-5.2,2.3
		c-1.3,0.6-1.5,1.2-0.2,2c0.2,0.1,0.3,0.2,0.5,0.3c4.9,3.4,4.9,3.4,2.2,8.7c-1.5,3.1-3.1,6.2-4.6,9.2c-2.3,0.2-4.5,0.3-6.8-0.1
		c-0.2-0.4-0.5-0.8-0.5-1.3c-0.1-0.8-0.1-1.5,0-2.3c0.7-5.9,1.2-11.8,2.1-17.7c0.6-4.3,1.1-8.6,1.8-12.8c0.1-0.3,0.2-0.7,0.3-1
		c0.4-0.8,0.3-2.1,1.6-2.1C-91,410.8-90,411.3-89.6,412.6z"/>
	<path fill="#1A1A1A" d="M-114.6,448c-1.5-4.5-3.6-8.6-6-12.6c-1-1.5-0.9-2.3,0.7-3.1c0.9-0.4,1.6-1.2,2.4-1.7
		c2.6-1.9,2.6-1.9-0.4-3.5c-1.6-0.8-4-0.9-4.4-2.6c-0.4-1.5,1.5-2.9,2.4-4.4c1.5-2.5,3.2-5,4.8-7.5c0.8-1.6,1.9-2,3.5-1.1
		c1.2,2.6,1.1,5.4,1.7,8.1c-0.1,2.5,0.5,4.8,1,7.2c1,5.7,1.2,11.4,2.1,17.1c0.2,0.9,0.2,1.9,0.1,2.8c-0.1,0.5-0.3,0.9-0.6,1.2
		C-109.8,448.4-112.2,448.3-114.6,448z"/>
	<path fill="#605F5B" d="M-133.1,402.8c-0.7,2.1,1.2,3.2,1.9,4.7c1,2.1,3.5,4,3.1,6.1c-0.4,2.1-3.6,2.3-5.6,3.2
		c-2.2,1.1-1.3,1.8,0,2.4c2.1,1.1,2.5,2.1,0.1,3.4c-5.5,3.1-6.2,8.8-7.6,14.1c-0.1,0.5,0,1.1-0.5,1.5c-0.1-0.2-0.2-0.4-0.2-0.5
		c-0.5-0.5-1.5-0.5-1.5-1.4c-0.1-0.4-0.1-0.8,0-1.2c0-0.3,0.1-0.5,0.2-0.8c0.3-1.2,0.1-2.4,0.2-3.7c0.3-3.3,0.8-6.6,1.1-9.9
		c1.1-5.5,1.3-11.1,2.2-16.7c0.1-0.4,0.2-0.7,0.3-1c0.4-1.2,0.3-2.9,2.1-2.9C-135.6,400.2-133.6,400.5-133.1,402.8z"/>
	<path fill="#FCFCFC" d="M-46.8,416.5c-0.7,0.5-1.3,1-2,1.5c-1.3-2.3-0.5-3.4,2.6-3.7c2.2-2.2,3.9-4.7,5.7-7.1
		c0.8-1.1,1.6-2.2,3.2-2.1c2.3,1.2,4.3,2.7,5.1,5.4c-2.1,2.9-4.2,5.8-6.3,8.7c-0.6,0.7-0.9,1.8-2.2,1.1c-1.1-1.1-2.2-2.1-3.3-3.2
		c-0.4-0.9-1-0.8-1.6-0.2C-46.1,417.3-46.4,416.6-46.8,416.5z"/>
	<path fill="#35A5D7" d="M-107.4,448c0-0.4,0-0.7,0-1.1c0.6-0.7-0.5-2,1-2.3c1.2,1.2,2.4,2.2,4.4,2.1c1.9-0.1,2.8-0.6,2.1-2.6
		c-0.2-0.5-0.2-1.1-0.2-1.6c0-2.6-0.9-5.1-1.2-7.6c0-2.1-0.5-4.2-0.9-6.3c-0.1-0.7-0.1-1.4,0.1-2c1.3-2.1,0.7-3.8-1.2-5.3
		c0-0.9,0.5-1.2,1.3-1.4c2.1,0.5,3.3,1.8,3.7,3.9c-1.5,3.5-0.8,7-0.3,10.6c0.4,3.2,1.4,6.3,1,9.6c0,1,0.3,1.9,0.3,2.9
		c0,0.4,0,0.7,0,1.1C-100.8,448.4-104.1,448.1-107.4,448z"/>
	<path fill="#F1FEFE" d="M-46.8,416.5c0.4,0.2,0.9,0.3,1.3,0.5c0,5.2,0,10.5,0,15.7c0,0.6,0.8,2.1-1,1.8
		C-46.6,428.4-46.7,422.4-46.8,416.5z"/>
	<path fill="#C59E9B" d="M-142.9,435.8c-0.1,0.8,0.5,1.2,0.9,1.8c-4.5,0-9-0.1-13.5-0.1c1-0.5,2.6-0.3,2.3-2.1
		c0.3-0.5,0.7-0.9,1.3-0.4c2.2,2.4,4.9,1.1,7.5,1.1C-143.9,436.1-143.4,435.6-142.9,435.8z"/>
	<path fill="#404040" d="M-128.8,419.3c1.9-1.2,3.7-2.8,6-3.2C-124.3,418.1-126.7,418.4-128.8,419.3z"/>
	<path fill="#434343" d="M-118.5,413.8c-0.4,1.1-1.2,1.4-2.2,1.1C-120,414.5-119.2,414.2-118.5,413.8z"/>
	<path fill="#80604B" d="M-32.2,410.4c-1.4-1.9-3.3-3.4-5.1-5c-0.7-0.3-1.2-0.8-1.3-1.6c-0.2-1-0.1-2,0-3c0-0.3,0.1-0.6,0.2-0.8
		c0.2-0.4,0.5-0.6,1-0.6c0.8,0.5,0.8,1.4,1,2.2c0.1,0.4,0.2,1.2,0.5,1.2c2.6-0.6,1.9,1.5,2.4,2.7c1,2.4,3.4,3.1,5.5,4.1
		c0.4,0.2,1.1,0,1.1-0.4c0.1-2,2.1-3.9,0.4-6.1c-0.8-1-1.3-2.2-1.8-3.4c-1.1-3.1-0.7-4.1,2.1-5.8c2.1-1.3,2.5-3,1.2-4.6
		c-0.6-1.2,0.2-2.3,0.4-3.4c0.4-1.7,0.4-3.2-1.2-4.3c-0.4-0.7-0.8-1.4-1-2.2c0.2-1.3,0.5-2.6-1.5-2.6c-0.2-0.1-0.5-0.2-0.7-0.4
		c-1-1.6-2.3-3-3.7-4.3c-2-2-4-3.9-5.6-6.3c-1.5-2.4-3.4-2.6-5.8-1.2c-2.1,1.3-3.2,3.4-4.3,5.4c-1.4,2.5-2.2,5.4-4.5,7.3
		c-0.3,0.2-0.7,0.4-1.1,0.5c-2.4,0.4-4.7,0-7.1,0.4c-0.4,0.2-0.9,0.4-1.2,0.9c-0.7,1.7-0.4,3.4-0.1,5.1c0,0.7,0.1,1.5-0.8,1.7
		c-0.7,0.1-1-0.5-1.5-1c-0.6-0.6-0.7-1.6-1.8-2c-1.1,1.4,0,3.1-0.5,4.6c-0.7,0.7-1.1,1.9-2.4,1.9c-0.4-0.2-0.6-0.5-0.8-1
		c-0.6-2.8-0.3-5.5,1.1-8.1c1.3-2.3,2-4.8,2-7.5c0-2,0.7-3.9,1.4-5.8c0.9-1.2,0.9-2.6,1-4c1.8-4.6,4.7-8.2,10-8.9
		c1.7-0.2,2.6-1.6,3.7-2.5c0.6,0.2,0.4,1.5,1.2,1.2c3.2-1.1,6.6-0.1,9.8-1.2c1.2,0.7,2.7,0.4,3.9,1.2c3,1.6,5.5,3.7,7.4,6.4
		c2.2,4.6,3.6,9.6,5.2,14.5c0.5,1.4-0.5,2.8,0.2,4.2c0.1,0.2,0.2,0.5,0.2,0.7c0.1,0.8,0.7,1.3,1.2,1.9c2.8,4.6,1.7,9.2-0.4,13.7
		c-0.1,0.2-0.3,0.5-0.5,0.7c-0.6,0.7-1.4,1.1-2,1.8c-0.7,0.7-2,1-1.3,2.5c0.2,0.7,0.4,1.4,0.7,2c2.7,4.6,2.3,7.5-1.8,11.1
		c-0.2,0-0.4,0.1-0.6,0.1c-1.9,0.9-2.8-1-4.2-1.6C-32,410.6-32.1,410.5-32.2,410.4z"/>
	<path fill="#217D74" d="M-31.8,410.7c1.6,0,2.7,1.3,4.2,1.6C-30,414.3-30.7,411.9-31.8,410.7z"/>
	<path fill="#D7F1F1" d="M-40.7,420.2c0.9,0,1.5-0.7,2.2-1.1C-38.9,420.1-38.8,422-40.7,420.2z"/>
	<path fill="#7F6049" d="M-64.9,412.6c-1.3-1.2-2.5-2.6-3-4.4c-0.8-2.5-0.3-4.6,1.7-6.3c2-1.7,2.1-3.5,0.5-5.6c-1.6-2.1-3-4.3-3.2-7
		c0.4-0.7,0.8-1.5,1.8-1.7c1.1-0.2,1.4,0.7,1.9,1.3c0.7,0.8,1.4,1.5,2.5,1.4c2-0.1,3.1,1,4.1,2.5c1.6,2.4,3.8,4.3,5.6,6.5
		c0.4,1.7,0.5,3.5,0.1,5.2c-0.2,0.7-0.7,1.2-1.1,1.8c-1.7,1.4-2.8,3.4-5,4.1C-61.1,411.1-62.8,412.5-64.9,412.6z"/>
	<path fill="#FCFCFC" d="M-59.1,410.4c1.2-1.7,2.9-2.9,4.4-4.3c0.8-0.7,1.8-1.1,2.6-0.1c2.1,2.6,4.3,5.1,6,8
		c0.2,0.4,0.2,0.9,0.1,1.3c-2.5-0.7-3,0.6-2.7,2.7c-0.2,0.3-0.4,0.6-0.6,0.9c-2.4,2.5-2.4,2.5-4.3-0.4
		C-55.5,415.8-57.3,413.1-59.1,410.4z"/>
	<path fill="#EBEBEA" d="M-157.1,402.9c0.4-1.7-0.7-3.3,0.1-5c0.2-0.2,0.5-0.2,0.7-0.1c3,2.7,5.3,5.9,7.8,9c0.5,0.6,0.8,1.2,0.7,2
		c-0.5,2.1-2.5,3-3.5,4.7c-1.9,1.1-2.4,3.1-3.6,4.7C-156.1,413.1-156.6,408-157.1,402.9z"/>
	<path fill="#FCFAFA" d="M-154.9,418.2c-0.1-2.5,0.8-4.3,3.4-5c1.4,0,1.7,1,2.2,2c0.3,5.9-0.9,11.6-2.1,17.4
		c-0.4,0.7-0.7,1.4-1.7,1.3C-153.8,428.6-154.4,423.4-154.9,418.2z"/>
	<path fill="#FAD8CF" d="M-153.2,433.8c0.3-0.4,0.7-0.7,1-1.1c0.7,0.8,0.7,1.5-0.1,2.1c-0.3,0.2-0.6,0.4-0.9,0.5
		C-153.2,434.9-153.2,434.3-153.2,433.8z"/>
	<path fill="#FBFCFB" d="M-93.4,410.4c0,1.1,0,2.2,0,3.3c-0.3,4.4-0.9,8.7-1.7,13c-2.2,0-3.1-1.5-3.7-3.3c-1.1-1.1-2.1-2.2-3.2-3.3
		c-2.1,0.2-2.2,2.4-3.6,3.4c-1.5,1.1-1.9,3.5-4.3,3.4c-0.7-2.3-0.9-4.7-1-7.2c0.6-0.3,1.1,0.1,1.3,0.6c1.4,2.7,2.5,1.5,3.7-0.1
		c0.6-0.8,1.4-1.4,2.3-1.8c0.5-0.2,1-0.2,1.5-0.2c1.5-0.5,2.4-1.5,2.6-3.1c1-2.4,2.7-4.3,4.8-5.8C-93.7,409.1-92.8,408.9-93.4,410.4
		z"/>
	<path fill="#99B8C5" d="M-98.7,423.4c1.2,1.1,2.4,2.2,3.7,3.3c-0.7,6-1.5,12-2.2,18c-0.3,0.3-0.6,0.3-0.9,0
		c-0.8-5.2-1.5-10.3-2.3-15.4C-100.8,427-99.8,425.2-98.7,423.4z"/>
	<path fill="#8BA3BD" d="M-98.1,444.7c0.3,0,0.6,0,0.9,0c-0.1,0.7-0.1,1.4-0.2,2.2C-97.6,446.1-97.9,445.4-98.1,444.7z"/>
	<path fill="#FCFCFB" d="M-103.2,418.6c-1.6,1.7-3.3,3.4-5,5.3c-0.8-1.6-1.4-3.1-2.6-4.2c-0.6-2.7-1-5.3-1.1-8.1
		c0-0.9,0.1-1.9,0.1-2.8c0.3-0.3,0.7-0.4,1.1-0.3c1.2,0.4,1.8,1.4,2.6,2.3c1.2,1.7,2.5,3.2,3.8,4.8
		C-103.7,416.4-102.8,417.2-103.2,418.6z"/>
	<path fill="#9BB8C3" d="M-109.8,426.8c1.3-1.3,2.6-2.6,3.9-3.8c0.7,0.4,0.8,1.3,1.4,1.8c0.2,0.2,0.3,0.5,0.4,0.7
		c1.3,2.8,0.1,5.5-0.7,8.2c-0.9,2.9-0.7,5.9-1.5,8.8c-0.2,0.8-0.1,1.9-1.5,1.8C-108.4,438.4-109.1,432.6-109.8,426.8z"/>
	<path fill="#85BECF" d="M-107.7,444.2c1.5-2.9,0.9-6.2,1.7-9.3c0.2-0.6,0-1.3,0.6-1.7c1,0.9,0.9,2.2,0.7,3.3
		c-0.7,2.7,0,5.7-1.8,8.1c-0.3,0.7-0.6,1.5-1,2.2C-107.5,446-107.6,445.1-107.7,444.2z"/>
	<path fill="#EBEBE9" d="M-139.1,397.9c1.3,2-0.7,4.1,0.1,6.2c-0.5,5.6-1.2,11.2-2.2,16.8c-1-0.7-0.9-1.7-0.9-2.7
		c0.1-2-0.6-3.5-2.6-4.3c-0.8-1.8-2.4-3.2-3.1-5.1c0.7-3.2,3.3-5.2,5.2-7.6C-141.6,400-141.2,398-139.1,397.9z"/>
	<path fill="#FCFAF9" d="M-144.6,413.7c2.2-0.4,3.1,0.7,3.3,2.7c0.1,1.5,0.1,3,0.1,4.5c-0.4,3.4-0.8,6.8-1.2,10.2
		c-0.7,1.1,0.3,2.5-0.6,3.7l0.1,0.2c-0.8,0.1-1-0.5-1.2-1.1c-0.3-1.3,0.1-2.7-0.7-3.9c-0.8-4.8-1.9-9.5-2-14.4
		C-146.3,414.7-145.9,413.6-144.6,413.7z"/>
	<path fill="#C04145" d="M-143.5,433.9c0,0.5,0.1,0.9,0.6,1.2c0,0.3,0,0.6,0,0.8c-1.1,1.1-7.8,1.9-8.9,1c-0.7-0.5-0.3-1.4-0.5-2
		c0-0.7,0.1-1.4,0.1-2.1c0.7-5,1.5-10,2.2-14.9c0.1-1,0.1-2-0.2-2.9c0.2-0.2,0.5-0.3,0.8-0.2c1.8,1.4,1.5,3.4,1.1,5.2
		c-1,4.1-1.4,8.3-1.6,12.6c-0.2,3.1,0.8,3.9,3.8,3.2c0.7-0.2,1.1-0.5,1.4-1.1c0.1-0.2,0.3-0.4,0.5-0.6
		C-144,433.6-143.7,433.6-143.5,433.9z"/>
	<path fill="#EDD5D2" d="M-143,434.8c0.2-1.2-0.3-2.6,0.6-3.7C-142.4,432.4-142.1,433.7-143,434.8z"/>
	<path fill="#755A49" d="M-163.7,350.1c2.6-1.7,4.9-3.9,8.1-4.7c6.1-1.6,12-1.1,17.7,1.3c2.7,1.1,5.2,2.9,8.1,3.5
		c0.6,0.3,1.3,0.5,1.7,1c1.7,2.3,2.6,5,2.8,7.8c0.5,5-0.4,9.7-2.2,14.3c-0.3,0.6-0.7,1-1.3,1.3c-1-0.1-1.2-0.8-1.3-1.6
		c0-0.9-0.1-1.7-0.4-2.5c-0.1-1.5-0.5-3-1.1-4.4c-2-4.8-4.2-6.3-9.4-5.9c-3.4,0.3-6.9,0.3-10.2,1.2c-2.4,0.6-4.9,0.6-7.3-0.2
		c-2.2-0.7-3.4,0.1-4.3,2c-0.7,1.4-1.2,2.8-1.7,4.3c-0.5,1.9-1,3.9-1,5.9c-0.1,0.9,0,1.8-1,2.3c-1.4-0.4-1.3-1.8-1.9-2.7
		c-0.2-0.4-0.2-0.9-0.3-1.3c-0.1-0.4-0.1-0.9,0-1.3c0.2-5.1-0.5-10.2,1.4-15.1c0.5-1.3,1-2.7,1.9-3.8
		C-165.1,350.7-164.3,350.5-163.7,350.1z"/>
	<path fill="#EED6C8" d="M-46,415.3c-2.1-2.8-4.2-5.6-6.1-8.5c-0.7-1-1.5-1.1-2.5-0.8c0.4-0.4,0.7-0.7,1.1-1.1
		c1.8-1.7,2.7-0.1,3.6,1c1,1.4,1.8,2.9,2.9,4.2c0.9,1.2,1.7,1.4,2.8,0.1c1.3-1.6,2.8-3,3.5-5.1c0.5-1.3,1.4-2.4,3.1-1.4
		c0.2,0.5,0.4,1.1,0.6,1.6c-2.9,1-3.4,4.2-5.5,6C-44,412.6-44.5,414.4-46,415.3z"/>
	<path fill="#2EA6DB" d="M-106.5,444.7c0-3.8,1.4-7.5,1.1-11.4c0.5-2.7,1.8-5.3,0.5-8.1c-0.2-0.5,0.1-0.7,0.5-0.8
		c1.2,0.2,2.2,0.7,2.8,1.8c0,0.7,0,1.5,0,2.2c-0.3,0.3-1,0.6-0.9,0.9c0.6,3.5-1.8,6.5-1.6,9.9c-0.6,2.3,0.5,2.9,2.5,2.7
		c0.8-0.1,1.6-0.3,2.1,0.6c0,0.2,0,0.4,0,0.5c0,1.4,1.8,3,0.4,3.9c-1.7,1.1-4,0.6-6,0.3C-106.3,447.1-106.1,445.6-106.5,444.7z"/>
	<path fill="#2BA7DF" d="M-104.8,439.3c0.3-2.3,0-4.7,1.6-6.6c0.7-0.9-0.6-1.4-0.5-2.2c0.1-1.4-0.4-3.3,2.2-2.1
		c0.9,2.1,1.2,4.3,1.1,6.5c-0.6,0.9-0.1,1.9,0,2.9c0.1,0.9,0.2,1.8-0.1,2.7c-0.3,0.8-0.9,1.2-1.7,1.1c-0.9-0.1-0.6-0.9-0.6-1.5
		c0-0.5,0.3-1,0.2-1.5c-0.3,0.7,0,1.7-0.6,2.4C-104.4,440.9-104.2,439.7-104.8,439.3z"/>
	<path fill="#26A7E7" d="M-104.8,439.3c0.8-0.1,0.9,0.8,1.5,1.1c0.6-1.4-0.9-2.9,0.5-4.3c0.6,1,1,1.9,0.6,3.1
		c-0.2,0.6-0.8,1.6,0.2,1.8c1.1,0.2,1-1,1.1-1.8c0.2-1.4-0.5-2.9,0.5-4.2c0.4,2.5,0.7,5.1,1.1,7.6c-0.7-0.5-1.3,0.2-1.9,0.3
		C-104.2,443.3-105.3,442.2-104.8,439.3z"/>
	<path fill="#2BA7DF" d="M-101.6,426.2c-1.1-0.2-2.1-0.6-2.7-1.6c0.1-0.8-0.6-1.2-0.8-1.8c0.3-0.8,0.7-1.7,1.8-1.5
		C-100.2,422-99.6,423.7-101.6,426.2z"/>
	<path fill="#55ADD2" d="M-103.2,421.3c-0.7,0.4-1.2,0.9-1.6,1.6c0.1,0.8,0,1.5-0.5,2.1c-0.8-0.5-0.5-1.3-0.6-2
		c1.4-0.9,1.7-3.2,4-2.9C-102.4,420.5-102.8,420.9-103.2,421.3z"/>
	<path fill="#605243" d="M-105.3,355.4c2.3,0,4.7,0,7,0c0.8,0.4,1.7,0.7,2.7,0.7c0.9,0.4,1.8,0.8,2.8,1.2c3.7,0.1,6.2,2.2,8.1,5.1
		c1.3,1.9,2,4.1,2.2,6.3c0.5,4.7,0.8,9.4-0.2,14c-0.2,1.3,0.1,2.8-1.2,3.7c-1.5,0.4-1.4-1-2-1.7c-1.4-3.3-2.6-6.6-3.8-9.9
		c-0.5-1.5-1.3-2.4-2.9-2.1c-0.4-0.1-0.7-0.2-1-0.4c-0.6-0.4-1.3-0.6-2-0.9c-0.2-0.1-0.4-0.3-0.6-0.4c-2-1.5-4.3-1.7-6.7-1.8
		c-2.3-0.2-4.5-1-6.9-0.7c-2.5,0.4-4,1.7-4.6,3.9c-1,3.7-3.1,6.9-4.5,10.5c-0.8,1.1,0.2,2.9-1.6,3.6c-0.4-0.1-0.6-0.5-0.8-0.9
		c-0.3-1,0-2.1-0.4-3.1c-0.1-0.3-0.2-0.5-0.2-0.8c-0.1-0.7-0.1-1.3,0-2c-0.4-3.2,0.1-6.3,0.7-9.4c1-5.1,3.7-9.3,8.4-11.9
		c0.9-0.5,1.7-0.9,2.3-1.9c0.2-0.3,0.3-0.5,0.6-0.7C-108.5,355.2-107,354.5-105.3,355.4z"/>
	<path fill="#F3DDC9" d="M-137.4,391c-0.4,0.7-0.8,1.6-1.1,2.7c-0.5,1.7-0.6,3.2-0.6,4.3c-2.6,3.8-6.1,6.9-8.2,11
		c-0.3,0.2-0.7,0.2-1-0.1c-1.4-3.1-3.9-5.3-6-7.9c-0.8-1-1.7-1.9-2.2-3.1c-1.2-0.8-0.8-2-0.7-3.1c0.9-0.7,1.2,0.1,1.6,0.6
		c1.6,3.5,4.2,6.2,6.6,9.1c0.4,0.5,1.1,1.3,1.8,0.5c2.4-2.7,5.1-5.1,6.3-8.5c0-0.2,0.1-0.5,0.2-0.7c0.3-0.6,0.8-1.2,0.7-1.9
		c0.2-0.6,0.5-1.4,1-2.1c1.7-2.6,4.3-3.5,5.4-3.9C-134.8,388.9-136.1,390-137.4,391z"/>
	<path fill="#F3D3C0" d="M-53.9,399c-2.6-1.6-4.2-4-6-6.4c-0.7-0.9-1-1.7-2.7-1.4c-2.6,0.6-3.4-2.1-4.7-3.7
		c-0.3-1.6-0.9-3.1-0.5-4.8c0.2-0.7,0.5-1.5,1.2-1.6c1-0.2,1,0.8,1.3,1.4c0.6,0.9,1,2,1.7,2.7c0.6,0.5,0.2-0.5,0.4-0.8
		c-0.3-1.3-0.4-2.6,0.1-3.9c2.3,0.8,2.3,2.8,2.4,4.6c0,0.9,0,1.8-0.4,2.4c3.7,2.4,7.5,4.7,11.6,0.6c0.4-0.5,0.9-0.9,1.6-1.1
		c0.4-0.1,0.8,0,1.5,0.4c-0.2-0.9-1-1-1.2-1.6c-0.5-1.4-0.2-2.6,1.3-3c1.6-0.4,2.3,0.7,2.5,2.1c0.8,5.1,8,6.5,12.1,3.6
		c0.9-0.6,0.4-1.5,0.7-2.2c0.3-0.7,0.3-1.5,0.5-2.3c0.3-1.1,1.1-1.3,2-0.8c0.2,0.2,0.4,0.4,0.5,0.6c0.2,0.4-0.2,0.9,0.1,1.2
		c0.4-0.7,0.4-1.5,0.5-2.2c0.2-0.8,0.4-1.5,1.3-1.8c2.6-0.3,2.3,1.7,2.4,3.2c0.1,1.7-0.8,3.3-1.4,4.9c-0.4,1.7-1.6,2.7-3.2,2.8
		c-1.7,0.1-2.5,1-3.5,2.2c-1.7,2.1-3.2,4.4-5.8,5.4c-0.2,0.2-0.4,0.4-0.5,0.5c-1.4,0.8-2.5,2.2-4,2.9c-2.6,1.7-5.3,1.2-7.9,0
		c-0.8-0.4-1.6-1-2.2-1.6C-52.8,400.7-53.1,399.6-53.9,399z"/>
	<path fill="#F4D3C0" d="M-53.1,376.7c1.9-2.2,2.9-5,4.2-7.5c1.3-2.3,2.7-4.5,5.1-5.8c2.4-1.3,4.7-1,5.9,1.2c1.7,3,4.1,5.2,6.6,7.4
		c1.2,1.1,2.4,2.2,2.6,4c0.2,0.8-0.3,0.8-0.8,1c-0.7,0.3-0.6-1.1-1.3-0.4c-1,0.9-2.4,0.7-3.6,0.8c-1.2,0.1-2.4-0.4-3.5,0
		c-4.3,1.7-8.7,0.9-13.1,1.1C-52,378.3-53.5,378.8-53.1,376.7z"/>
	<path fill="#806049" d="M-37.3,399.6c2.2-2.6,4.8-4.8,6.6-7.8c0.2-0.4,0.5-0.9,1-0.6c2.3,1,3.5-0.7,4.9-1.9c0.5-0.4,1-0.7,1.5-1.2
		c0.4,1.2-0.4,2.3,0,3.5c0.3,1-0.5,2.1-1.5,2.7c-3.9,2.1-4.1,2.9-1.9,6.7c0.6,1,1.2,2,1.8,3c0.6,1,0.9,2.1-0.3,2.8
		c-0.9,0.5-0.3,0.9-0.1,1.5c0.4,1.1-0.6,1.6-1.3,2.1c-0.8,0.6-1.3,0.3-2.1-0.2c-1.9-1.2-4.1-1.9-5.3-4c-0.5-0.9-1.5-1.8,0.3-3.1
		C-36.9,404.2-37.3,403.7-37.3,399.6z"/>
	<path fill="#F3D3BF" d="M-53.9,399c0.9,0.3,1.7,0.9,2.4,1.6c-0.3,1.3,1,1.4,1.5,2c2.9,1.9,5.7,2,8.6-0.2c1.4-0.3,1.9-2.1,3.6-1.8
		c0,1.1,0,2.2,0,3.3c-0.9,0-2,0.1-2.1,0.9c-0.5,2.9-2.9,4.5-4.3,6.7c-1.1,1.7-2.1,1.2-2.9,0.1c-1.2-1.6-2.6-3-3.3-4.9
		c-0.5-1.3-1.5-2.3-3.1-1.7C-53.7,403-53.3,401-53.9,399z"/>
	<path fill="#ECD4BF" d="M-50.5,377.8c6.5,0.6,12.9-1.5,19.3-1.4c0.3-1-0.9-1-0.9-1.6c0-0.3,0.3-0.7,0.5-0.9
		c0.8-0.4,0.5,0.6,0.6,0.6c1.2-0.1,0.3,3.2,2.4,1.4c0.1,0,0.3,0.1,0.4,0.1c0.6,0.6,0.7,1.3,0.3,2.1c-0.2,0.2-0.5,0.4-0.8,0.5
		c-0.3,0.1-0.6,0.1-0.9,0.1c-2.7-0.5-5.4-0.2-8.2-0.3c-1.8,0-3.5,0.5-5.3,1c-2.5-0.1-5,0.8-7.3-0.8
		C-50.5,378.5-50.6,378.2-50.5,377.8z"/>
	<path fill="#5A756B" d="M-61.8,377.5c2.7-0.6,5.4-0.2,8.1-0.3c0.6,0.6,0.3,1-0.1,1.5c-1.5,1-3.2,1-4.9,1.2c-1.2-0.1-2-0.8-2.8-1.6
		C-61.7,378.1-61.8,377.8-61.8,377.5z"/>
	<path fill="#806049" d="M-28.1,378.3c0-0.7,0-1.4-0.1-2.1c2.9-0.1,3.1,1.1,1.7,3.2c-0.1,0-0.2,0-0.3-0.1c-0.3-0.1-0.6-0.3-0.9-0.5
		C-27.9,378.7-28,378.5-28.1,378.3z"/>
	<path fill="#D3B6A5" d="M-37.9,400.6c-1.1,0.7-2,1.8-3.3,2.2c-0.3-0.1-0.4-0.3-0.5-0.5c1.4-0.6,1.8-2.8,3.8-2.2
		C-37.8,400.3-37.8,400.5-37.9,400.6z"/>
	<path fill="#D7CDBC" d="M-62.4,380.6c-0.9,1.2-0.2,2.6-0.6,3.9c-0.7-2-1-4.1,0.1-6.1c0.8-0.2,0.9,0.3,1,0.8c0,0.4,0,0.8-0.3,1.1
		C-62.2,380.4-62.3,380.5-62.4,380.6z"/>
	<path fill="#806049" d="M-25.9,381.1c-0.2,0.7-0.4,1.4-0.6,2.1c-0.9,0.2-1.2-0.5-1.5-1.1c-0.1-0.4-0.1-0.8,0-1.2
		c0.3-0.7,0.3-1.7,1.5-1.5c0,0,0,0,0,0C-26,379.9-25.4,380.3-25.9,381.1z"/>
	<path fill="#788D84" d="M-54.3,378.4c0.4-0.3,0.6-0.7,0.6-1.2c0.2-0.2,0.4-0.3,0.6-0.5c0.4,1.5,1.7,0.8,2.6,1.1
		c0.1,0.1,0.1,0.3,0.2,0.4c-0.4,0.7-1.1,0.9-1.8,1.1C-53.1,379.5-54,379.6-54.3,378.4z"/>
	<path fill="#DDCDCE" d="M-22.7,380.6c-0.7-0.4-1-1-1-1.8"/>
	<path fill="#BAB5A8" d="M-62.3,379.5c-0.2-0.4-0.4-0.7-0.5-1.1c0.4-0.3,0.7-0.5,1.1-0.8c0.3,0.1,0.5,0.2,0.8,0.3
		C-61.1,378.7-61.2,379.5-62.3,379.5z"/>
	<path fill="#FAF2EB" d="M-94,408.8c0.4,0,0.7,0,1.1,0c0,0.6,0,1.2-0.5,1.6c0-0.9-0.6-0.8-1.2-0.6C-94.8,409.2-94.8,408.8-94,408.8z
		"/>
	<path fill="#C13F40" d="M-148.3,408.9c0.3,0,0.6,0.1,1,0.1c0.8,1.7,3.3,2.3,2.8,4.7c-0.5,0.6-1,1.2-1.5,1.8
		c-0.1-0.1-0.2-0.1-0.3-0.2c-0.6-0.6-0.6-1.4-0.6-2.2c0-0.6-0.1-1.4-0.9-1.4c-0.9-0.1-1.2,0.7-1.3,1.4c-0.1,0.6,0.1,1.2-0.3,1.8
		c-0.2,0-0.5,0-0.7,0.1c-0.5-0.6-0.9-1.1-1.4-1.7C-151.2,411.1-149.2,410.4-148.3,408.9z"/>
	<path fill="#F0C5A7" d="M-94,408.8c-0.2,0.4-0.4,0.7-0.6,1.1c-1.5,1.7-3.2,3.3-4.3,5.4c-0.7,1.6-1.7,2.9-3.2,3.8
		c-0.4-0.2-0.7-0.3-1.1-0.5c-1.5-2.7-4.1-4.7-5.5-7.5c-0.1-0.1-0.2-0.3-0.2-0.4c0-0.2,0.1-0.2,0.1-0.2c2.3,0.3,3.2,2.4,4.5,3.9
		c1.4,1.6,2.2,1.6,3.5,0c1.7-2.1,3.3-4.4,5-6.5c0.3-0.9,1-1.6,0.5-2.7c-0.3-1.4,0.4-2.4,1.5-3.2c2.6-1.9,4.8-3.9,5.4-7.4
		c0.3-1.5,1.2-3,2.4-4.1c0.2-0.1,0.5-0.2,0.7-0.3c0.3,0,0.5,0.2,0.6,0.4c-0.4,1.3-1.1,2.4-1.3,3.8c-0.5,3.8-2.9,6.5-5.7,8.7
		C-93.8,404.6-93.1,406.9-94,408.8z"/>
	<path fill="#FBF9F0" d="M-102.1,419.1c1.1-1.2,1.8-2.9,3.2-3.8C-98.6,417.6-100.2,418.5-102.1,419.1z"/>
	<path fill="#FCFCFB" d="M-109.7,424.5c0.1-0.3,0.1-0.7,0.5-0.5c0.2,0.1,0.3,0.5,0.3,0.7c0,0.3-0.2,0.6-0.5,0.4
		C-109.6,425.1-109.7,424.7-109.7,424.5z"/>
	<path fill="#EAC8AD" d="M-108.6,410.4c0,0.2,0,0.4,0,0.6c-0.7-0.8-1.4-1.5-2.2-2.3c-0.5-0.9-0.6-1.8-0.5-2.8c0.6-0.4,1-0.1,1.4,0.3
		C-109.6,407.7-108.2,408.8-108.6,410.4z"/>
	<path fill="#30A8E2" d="M-105.3,425c0-0.7-0.2-1.5,0.5-2.1c0.8,0.4,1.7,0.6,0.5,1.6c-0.2,0.2-0.4,0.4-0.6,0.6
		C-105,425.2-105.2,425.1-105.3,425z"/>
	<path fill="#C13F40" d="M-146.1,415.4c0.3,4.9,1.2,9.8,2,14.6c0.6,1.2,0.3,2.5,0.2,3.7l-0.2,0.1c-1.5,0.7-1.9-0.1-2.1-1.4
		c-0.5-4.8-0.8-9.7-1.6-14.5c-0.2-1.2-0.1-2.4,1.5-2.7L-146.1,415.4z"/>
	<path fill="#EDD5D2" d="M-143.9,433.7c-0.1-1.2-0.1-2.5-0.2-3.7c1,1.2,0.5,2.5,0.6,3.8C-143.6,433.8-143.7,433.8-143.9,433.7z"/>
	<path fill="#C7383A" d="M-146.2,415.3c-0.7,0.7-0.9,1.4-0.7,2.4c0.9,5,1.6,10.1,1.5,15.2c0,1,0.8,0.8,1.3,1
		c0.4,1.9-0.3,2.9-2.4,2.7c-1.2-0.1-2.3,0-3.5-0.1c-1.1-0.1-1.8-0.7-1.5-1.8c1.2-3.9,0.7-8.1,1.6-12.1c0.6-2.6,1.6-5.2,0.5-7.9
		c-0.3-0.8-1.2-1.6-0.6-2.4c0.6-0.8,1-2.4,2.5-1.9c1.1,0.4,1.7,1.4,1.4,2.8C-146.3,413.9-146.2,414.6-146.2,415.3z"/>
	<path fill="#FEDAB8" d="M-165.3,367.3c0-1.5,0.7-2.8,1.4-4.1c1.8-3.5,2-3.6,5.8-2.7c2,0.5,4,0.8,5.9,0.2c3.5-1.1,7.1-0.9,10.7-1.3
		c7.1-0.9,11,3,11.7,11.2c0,1.5-0.7,0.6-1.3,0.4c-1.6-1.1-1.9-3.7-4.1-3.9c0.8,0.4,1.9,0.6,1.6,2c-0.3,1.3-1.2,1-2.1,1
		c-2.5,0-5-0.7-7.4,0.7c-1,0.6-2.5,0.1-3.6-0.7c-0.2-0.2-0.4-0.4-0.5-0.6c-0.7-1.6-2-1-3-0.6c-2.4,1-4.7,1.6-7.3,0.6
		c-0.9-0.4-1.9,0-2.6,0.4c-2.1,1.1-3.4-1.1-5.3-1C-165.6,369-165.5,367.9-165.3,367.3z"/>
	<path fill="#FDD8B7" d="M-165.3,367.3c0.3,1.1,0.4,1.2,0.9,0.7c0.7-0.8,1.4-0.1,1.5,0.2c0.4,2.1,1.7,1.2,2.8,0.9
		c0.3-0.1,0.5-0.2,0.8-0.1c4,0.4,7.8-0.3,11.6-1.5c2-0.6,1.1,1.2,1,2.1c-0.2,0.2-0.4,0.4-0.6,0.5c0.2-0.1,0.4-0.3,0.6-0.5
		c2.1,1.3,4.2,0.2,6-0.3c1.9-0.6,3.6,0,5.4,0.1c0.5,0,1.1,0.5,1.3-0.3c0.2-0.8-0.2-1.2-0.9-1.4c-1-0.2-2.1-0.3-3.3-0.4
		c3-1.8,6.8,0.1,7.3,3.5c-0.1,0.1-0.2,0.2-0.3,0.3c-0.5,0.3-1.1,0.3-1.7,0.2c-2.7-0.4-5.3-0.4-8,0c-0.6,0.2-1.3,0.2-2,0.3
		c-1,0.2-2,0.4-3,0.8c-0.2,0.1-0.5,0.2-0.8,0.2c-0.8,0.1-1.6,0.1-2.4,0.2c-0.7,0-1.4-0.1-2-0.4c-0.9-0.7-2-0.8-3-1
		c-2.6-0.5-5.2-0.4-7.7-0.1c-0.9,0.3-1.9,0.6-2.1,1.8c-0.4,1.1,0.8,3.4-2,2.7c-0.2-0.7,0.1-1.5-0.3-2.2
		C-166.2,371.3-166.1,369.2-165.3,367.3z"/>
	<path fill="#FDD8B7" d="M-130.9,370.7c0.4,0.1,0.8,0.5,1.1-0.1c0.6,0.7,0.3,1.5,0.4,2.2c-0.2,0.5-0.2,1-0.3,1.4
		c-0.2,0.9-0.8,1.5-0.8,2.5c-0.1,3.8-3.6,7.3-7.4,7.6c-0.8,0.1-1.7-0.1-2.3,0.5c-1.3,1.1-2.4,0.6-3.3-0.4c-1-1.1-0.6-2.1,0.2-3.1
		c0.8-0.4,1.5,0,2.3,0c0.9,0,1.8,0,2.7,0c1.8,0,3.2-0.7,4-2.3c0.4-0.6,0.5-1.4,0.7-2.1c0.5-2.2,1.1-4.3,2.6-6.1L-130.9,370.7z"/>
	<path fill="#E8D1BC" d="M-164.7,381.7c-0.9-1.1-1.7-2.3-2.6-3.4c-1.8-1.6-1.3-3.5-0.7-5.5c1.1,0.6,0.9,1.7,1.2,2.7
		c0.2,0.3-0.1-0.1,0.2,0.2c0.4,0.4,0.2,1.8,1.5,1.1C-164.1,378.3-163.5,380-164.7,381.7z"/>
	<path fill="#EDD7C0" d="M-128.2,373.3c1.2,2.8-0.2,4.8-2.1,6.7c-0.9-1.3-0.1-2.7-0.2-4c0.5-0.6,0.9-1.2,1.7-1.5
		C-128.6,374.1-128.4,373.7-128.2,373.3z"/>
	<path fill="#B18F73" d="M-165.6,376.7c-0.1,0.3-0.2,0.6-0.3,0.9c-0.1-0.2-0.3-0.3-0.4-0.5c-0.2-0.6-0.3-1.2-0.4-1.7
		c0.6-0.6,0.2-1.4,0.5-2.1c0.2,0.7,0.4,1.5,0.5,2.2C-165.4,375.9-165.4,376.3-165.6,376.7z"/>
	<path fill="#A47F63" d="M-128.8,374.5c-0.2,0.7-0.4,1.3-1.1,1.7c-0.6-0.7-0.3-1.4,0-2.2c0.2-0.4,0.3-0.8,0.5-1.2
		C-129.2,373.3-129.4,374-128.8,374.5z"/>
	<path fill="#FEDAB8" d="M-129.9,374c0,0.7,0,1.5,0,2.2c-0.2,1.3-0.3,2.6-0.5,3.9c0,0,0,0,0,0c-0.2,0.6-0.4,1.2-0.6,1.8
		c-0.1,0.5-0.2,1-0.3,1.5c0,0.3-0.1,0.6-0.1,0.9c-0.1,0.4-0.2,0.9-0.4,1.4c-0.2,0.5-0.4,0.9-0.6,1.2c-0.3,0.3-0.7,0.8-1.2,1.4
		c-0.9,1-1.7,1.7-2,2c-0.6,0.5-1.5,1.3-2.3,2.1c-0.1,0.1-0.4,0.4-0.6,0.7c-0.3,0.4-0.5,0.7-0.6,1c-0.5,0.6-1.1,1.2-1.7,1.7
		c-4.2,3.2-8.5,3.9-13.1,0.9c-0.7-0.7-1.5-1.2-2.2-2c-0.3-0.3-0.6-0.7-0.9-1c-0.7-1.5-2.1-2.2-3.3-3.1c-1.9-1.5-2.4-4-3.9-5.7
		c-0.2-1-0.3-2-0.5-3.1c-0.3-1.7-0.6-3.3-0.9-5c0-0.4-0.1-0.8-0.1-1.2c2.1-0.2,0-2.1,1-2.7c2.4,0.3,2.1,2.3,2.4,3.9
		c0,0.6,0,1.3,0.4,1.9c0.6,1.7,1.9,2.5,3.6,2.7c1,0,2,0,2.9,0c1,0,1.7-0.5,2.4-1.1c1.1-0.7,1.5-1.8,1.9-2.9c0.5-1.1,0.6-2.4,1.7-3.2
		c1.2-0.5,2.3-0.4,3.3,0.4c0.8,1,1,2.2,1.4,3.3c0.3,1.2,1.4,2.1,1.3,3.5c0.8,0.8-1.4,2.5,0.9,3c0.7,0.2,1.2,1.1,1.6-0.4
		c0.2-0.8,1.3-0.5,2.1-0.5c3.9,0.3,7.7-3.5,7.3-7.5C-131.5,374.6-130.1,374.8-129.9,374z"/>
	<path fill="#F5C39E" d="M-85.2,390.5c-1.2,1.9-2.5,3.7-2.8,6c-0.4,3.1-3.3,4.4-5.3,6.1c-0.9,0.7-1.5,1.2-1.1,2.3
		c0.2,1.5-1.3,1.6-2,2.4c-4.6,3-7.7,2.9-11.6-0.2c-1.1-1.7-2.3-3.2-4.1-4.2c-4.9-2.8-6.2-7.6-7-12.7c-0.2-1.3-0.3-2.7-0.3-4
		c0-2-0.2-4.2,2.3-5.1c0.2-0.1,0.2,0,0.2-0.3c-0.5-3,1.6-5.2,2.2-7.9c0.5-2.5,2.2-4.5,5.4-4.4c2.2,0.1,4.3,0.1,6.4,0.7
		c3.4,1,6.6,2.8,10.3,3.1c2.1-1.1,3-0.3,3.7,1.9c1,3.4,2.5,6.8,3.8,10.2C-84.5,386.4-84.8,388.4-85.2,390.5z"/>
	<path fill="#EFC4A4" d="M-92.7,372.3c-3.8,0.9-6.9-1.5-10.3-2.4c-7.7-2-10.9-1.4-12.1,6c-0.2,1-0.5,1.9-1.1,2.7
		c-0.5,0.7-0.7,1.3,0.1,1.9c0.8,0.6,1.5,1.4,0.5,2.2c-1.3,1.1-0.9-1.3-2-1.2c-0.8,1.6-1.3,3.2-1,5.2c0.6,3.1,0.6,6.1,1.6,9.2
		c1.1,3.1,3,4.9,5.4,6.3c1.9,1.1,3.1,2.5,4,4.4c-0.6,0.5-1.2,0.3-1.7,0c-0.6-0.6-1.1-1.2-2.1-1.1c-0.7-1.3-1.6-2.3-2.8-3.2
		c-2.5-1.9-4.2-4.4-4.8-7.6c-0.3-1.3-0.8-2.6-1.2-3.9c0.1-0.4,0.3-0.9,0.3-1.3c0.1-0.9-0.3-1.7-0.2-2.6c0.6-1.4-0.2-2.9,0.5-4.2
		c1.4-3.6,3.4-7,4.4-10.7c0.9-3.1,3.6-4.6,7.3-4.2c1.7,0.2,3.4,0.6,5.1,0.8c2.4,0.8,5.1,0.9,7.1,2.7l0,0c0.7,0.3,1.6,0,2.2,0.5
		C-93.2,372-92.9,372.1-92.7,372.3z"/>
	<path fill="#5A574D" d="M-121.2,380c-0.2,0-0.3,0-0.5-0.1c0,0,0,0,0,0c-0.5-2.5-0.5-5.1,0-7.6l0,0c0.3-2,0.5-4,1-6
		c0.3-1.3,0.7-2.4,1.7-3.2l0,0c1.2-3.6,4.5-4.8,7.5-6.4c0.6-0.3,1.2-0.1,1.7,0.3c-1,2-3.3,2.4-4.8,3.8c-3.6,3.1-5.6,6.9-6,11.5
		C-120.8,374.9-121,377.4-121.2,380z"/>
	<path fill="#DCBEA5" d="M-119,390.2c-0.2,0.5-0.6,0.6-1.1,0.7c-0.8-0.7-1.1-1.8-2.2-2.3c-0.1-2.2-1.5-4.6,1-6.4
		c0,0,0.1-0.1,0.1-0.1c0.7,1-0.1,2.3,0.5,3.4c0,0.3,0.1,0.6,0.1,0.9c0.8,0.9,0.7,2.1,1.1,3.1C-119.3,389.8-119.2,390-119,390.2z"/>
	<path fill="#DABDA4" d="M-82.5,388.6c-1.2,0.1-1.4,1.3-2.1,1.9c0,0-0.1-0.2-0.1-0.2c-1-1.4-0.1-2.6,0.5-3.8
		c0.2-1.3,0.5-2.5,0.7-3.8C-81.4,384.4-82.9,386.7-82.5,388.6z"/>
	<path fill="#6B5642" d="M-95.6,371.3c-2.4-0.9-4.7-1.8-7.1-2.7c1.9-0.2,3.7,0.5,5.4,1C-96.3,369.8-95.6,370.2-95.6,371.3z"/>
	<path fill="#795A42" d="M-84.1,386.5c-0.2,1.3-0.4,2.6-0.5,3.8c-0.2,0.1-0.4,0.2-0.6,0.2c-1-2.1,0.3-4.2,0-6.2
		C-84.9,385-84.5,385.7-84.1,386.5z"/>
	<path fill="#80654B" d="M-119.5,390.2c-1.5-0.9-1.1-2.4-1.1-3.8c1.1-1-0.1-2.8,1.1-3.8c0,1.6,0.1,3.1,0.1,4.7
		C-119.2,388.3-119,389.3-119.5,390.2z"/>
	<path fill="#80654B" d="M-120.7,385.5c-0.6-1-0.5-2.2-0.5-3.4C-120.2,383.1-120.7,384.4-120.7,385.5z"/>
	<path fill="#6B5642" d="M-93.4,371.8c-0.8,0.1-1.6,0-2.2-0.5C-94.7,370.8-94,371-93.4,371.8z"/>
	<path fill="#FADABC" d="M-140.2,396.3c-0.1,3.3-3.1,4.9-4.5,7.4c-0.2,0.4-1.1,0.6-1.2,1c-1,3.3-2.5,2.1-3.8,0.3
		c-2.2-3-5.4-5.3-6.3-9.2c0.1-0.1,0.2-0.1,0.4-0.2c0.4,0,0.8,0.1,1.1,0.4c3.8,3.2,7.8,4.2,12.1,0.9
		C-141.8,396.4-141.1,395.8-140.2,396.3z"/>
	<path fill="#D1B295" d="M-140.2,396.3c-0.3,0.2-0.6,0.4-0.9,0.6c-6,4.2-8.1,4.1-13.8-0.6c0-0.9,0.4-1,1.1-0.5
		c3.6,2.6,7.4,2.5,11.1,0.4c0.6-0.4,1.1-1,1.9-1c0.6-0.1,0.7,0.1,0.6,0.6C-140.2,395.9-140.2,396.1-140.2,396.3z"/>
	<path fill="#E2C8B0" d="M-157,393.6c0.4,0,0.8,0.1,1.1,0.5c0.4,0.5,0.5,1.1,0,1.6c0,0,0,0.1,0,0.1c-0.4-0.4-0.7-0.7-1.1-1.1
		C-157,394.3-157,393.9-157,393.6z"/>
	<path fill="#D5B99F" d="M-140.2,395.8c-0.2-0.2-0.4-0.4-0.6-0.6c0.4-0.7,0.9-1,1.7-1.1C-139.1,394.8-139.5,395.4-140.2,395.8z"/>
	<path fill="#D3AC90" d="M-111.3,405.5c1-1,1.6-0.3,2.2,0.5c0,0.4-0.2,0.6-0.5,0.8c-0.2,0-0.4,0-0.6-0.2c-0.3-0.2-0.7-0.4-1-0.6
		C-111.3,405.9-111.3,405.7-111.3,405.5z"/>
	<path fill="#ECD4BF" d="M-30.3,386.5c0.4,2.8-1.9,3.2-3.7,4c-3.6,1.5-10-0.8-10.5-5c-0.1-1-0.1-2.2-1.5-2.1
		c-1.5,0.1-1.2,1.5-1.3,2.6c0.4,0.8-0.1,1.2-0.5,1.6c-0.4,0.4-0.7,0.7-1.1,1.1c-0.5-0.1-0.8-0.5-0.8-1c0-0.5,0.2-0.9,0.4-1.4
		c0.4-0.8,0.8-1.5,0.8-2.3c0.2-0.8,0.5-1.5,1.1-2.1c0.2-0.2,0.5-0.3,0.8-0.3c1-0.2,2,0,2.8,0.8c0.5,0.6,0.8,1.4,1,2.1
		c0.1,1.1,0.6,2,1.4,2.8c0.6,0.7,1.3,1.3,2.2,1.6c3.2,1,5.7-0.4,8.1-2.4C-30.7,386.3-30.5,386.3-30.3,386.5z"/>
	<path fill="#EFD4C0" d="M-49.3,387.7c0.2,0.3,0.4,0.6,0.5,1c-3.2,3.1-6.4,3.4-10,1.1c-0.5-0.3-1.3-2.8-2.5-0.4
		c-0.2,0.4-0.6-0.5-0.5-0.8c0.1-1.1,0.3-2.1,0.5-3.2c0.2-0.2,0.4-0.2,0.6-0.1c0.4,0.3,0.7,0.6,0.9,1c0.3,0.6,0.7,1.1,1.3,1.6
		c1,0.8,2.1,1.1,3.3,1.1c0.7,0,1.4,0,2.1,0c1.2-0.2,2-1.2,3.1-1.5C-49.7,387.4-49.5,387.5-49.3,387.7z"/>
	<path fill="#CCAD99" d="M-41.7,402.3c0.2,0.2,0.4,0.4,0.5,0.5c-4.1,2.9-5.2,2.9-9.2,0c-0.1-0.5,0-0.8,0.6-0.6
		C-47.1,403.4-44.4,403.7-41.7,402.3z"/>
	<path fill="#E6D2BB" d="M-30.3,386.5c-0.2,0-0.3,0-0.5,0c-0.9-0.8-0.2-1.8-0.3-2.8c0-0.6,0.1-1.1,0.3-1.7c0.5-0.9,1-1.9,2.3-1.8
		c1.2,0.7,0.5,1.9,0.8,2.8c-0.1,0.3-0.2,0.5-0.5,0.7c-0.9-0.2-1.8-0.3-1.6,1.1C-29.7,385.4-29.7,386-30.3,386.5z"/>
	<path fill="#80604B" d="M-28.1,383.8c0.1-0.2,0.1-0.3,0.1-0.5c0.3-0.3,0.1-0.8,0.4-1.1c0.4,0.4,0.7,0.7,1.1,1.1
		c0.1,1.3-0.8,2.2-1.1,3.3c-1.4-0.4-0.7-1.3-0.6-2.1C-28.1,384.1-28.1,383.9-28.1,383.8z"/>
	<path fill="#EFD4C0" d="M-47.7,387.6c0.2-0.5,0.4-1.1,0.5-1.6c1.7,0.3,1.8,1.4,1.5,2.8C-46.6,388.7-46.7,387.4-47.7,387.6z"/>
	<path fill="#D7CDBC" d="M-60.8,385.4c-0.2,0-0.3,0-0.5,0c0.3-1.8-0.9-3.2-1.2-4.8c0,0,0.2-0.2,0.2-0.2c0.6-0.1,1.1,0.2,1.5,0.7
		c0.7,1,0.9,2.1,0.7,3.3C-60.2,384.8-60.4,385.2-60.8,385.4z"/>
	<path fill="#E6D2BB" d="M-28.2,384.3c0.3,0.7-0.4,1.6,0.6,2.1c-0.2,0.4-0.4,0.9-0.9,0.7c-0.4-0.1-0.5-0.5-0.3-0.9
		C-28.6,385.6-28.8,384.8-28.2,384.3z"/>
	<path fill="#D2B39F" d="M-49.8,402.2c-0.2,0.2-0.4,0.4-0.6,0.6c-0.5-0.6-2.2-0.7-1.1-2.2C-50.9,401.2-50.4,401.7-49.8,402.2z"/>
	<path fill="#46807E" d="M-52,378.8c0.5-0.5,1.1-0.4,1.7-0.5c2.5,0.7,5,0.8,7.5,0.5c0.7-0.3,1.3-0.4,1.8,0.3c0,0.8-0.5,1.2-1.1,1.6
		c-0.3,0.1-0.5,0.1-0.8,0.1c-1.6-0.2-3.3-1.4-4.7,0.4c-0.2,0.1-0.5,0.2-0.7,0.1C-49.6,380.5-51.2,380.2-52,378.8z"/>
	<path fill="#488081" d="M-28.7,380.4c-0.5,0.6-1,1.2-1.5,1.9c-0.6-0.1-1-0.5-1.3-1c-0.6-0.9-1-1.8-0.6-2.8c0.9-0.7,1.9-0.5,2.9-0.2
		c0.2,0,0.3,0,0.5,0.1C-28,379-28,379.7-28.7,380.4z"/>
	<path fill="#5F7C77" d="M-29.2,378.3c-0.9,0.1-2-0.3-2.8,0.6c-2,1.2-3.9-0.1-5.9,0.1c-0.3-0.4-0.3-0.8,0-1.2
		C-35,377.7-32,377.2-29.2,378.3z"/>
	<path fill="#6F8987" d="M-37.9,377.8c0,0.3,0,0.5,0,0.8c-0.8,1.4-1.9,1.6-3.3,0.8c-0.4-0.6-1.1-0.4-1.7-0.6
		C-41.3,378.1-39.6,377.8-37.9,377.8z"/>
	<path fill="#BDC6BC" d="M-28.7,380.4c0-0.7,0-1.4,0-2.1c0.2,0,0.4,0,0.6-0.1c0.1,0,0.2,0.1,0.4,0.1c1,0.8,0.5,1.7,0.2,2.6
		c0,0.4,0,0.7-0.1,1.1c-0.1,0.4-0.3,0.7-0.4,1.1C-28.3,382.3-27.7,381.2-28.7,380.4z"/>
	<path fill="#EFD4C0" d="M-52,378.8c1.4,0.6,3.1,0.7,3.9,2.3c0.6,0.7,0.4,1.6,0.2,2.4c-0.2,0.9-0.5,1.8-1.2,2.6
		c-0.2,0.1-0.5,0.2-0.8,0.1c-0.8-0.3-0.6-1.5-1.4-2c0.5,0.8,0.9,2,0,2.1c-2.7,0.3-0.3,1.8-0.8,2.5c-2.4,0.9-4.6,0.7-6.7-0.7
		c-0.9-0.9-1.4-1.9-1.5-3.2c0.1-1.4-0.2-2.7-0.1-4.1c0.1-0.6,0.6-1.1,1.1-1.4c1.6-0.3,3.3-0.6,4.9-0.9
		C-53.6,378.9-52.8,378.8-52,378.8z"/>
	<path fill="#468282" d="M-59.2,379.3c-0.2,0.4-0.4,0.8-0.5,1.2c-0.2,0.3-0.3,0.6-0.6,0.7c-0.3,0.1-0.7-0.1-1-0.2
		c-0.3-0.2-0.6-0.5-0.9-0.7c0-0.3-0.1-0.6-0.1-0.9c0.4-0.5,0.9-1.1,1.3-1.6C-60.4,378.3-59.8,378.8-59.2,379.3z"/>
	<path fill="#80604B" d="M-27.5,381c-0.1-0.9-0.2-1.8-0.2-2.6c0.7-0.1,1.2,0.2,1.3,1C-26.8,379.9-27.2,380.5-27.5,381z"/>
	<path fill="#F3C4A0" d="M-110.3,406.6c0.2,0,0.3,0,0.5,0c2.9,1.2,5.4,3.6,8.9,3.3c0.8,0.1,1.6-0.1,2.1-0.8c1-0.7,1.6-2,3-1.9
		c0.2,0.1,0.5,0.2,0.6,0.4c-1.2,2.5-3,4.7-4.8,6.8c-2.5,2.9-2.6,2.8-5.2,0.1c-1.2-1.3-2.4-2.7-3.5-4.1
		C-109.4,409.2-110.4,408.2-110.3,406.6z"/>
	<path fill="#D0A484" d="M-95,407.7l-0.3,0l-0.3,0c-0.4-0.4-0.9-0.5-1.1-1c0.7-0.5,1.4-1.1,2.2-1.6C-93.2,406.2-94.8,406.8-95,407.7
		z"/>
	<path fill="#C35047" d="M-131.1,370.8c0.4,2.5-1.9,4.2-2,6.5c-0.6-0.2-0.9-0.7-1.1-1.2c-0.2-1.9-1-3.6-1.7-5.4
		c1.1-0.7,2.3-0.4,3.5-0.2C-132,370.7-131.5,370.8-131.1,370.8z"/>
	<path fill="#C53B3A" d="M-146.2,375.2c-0.9-0.8-2-0.7-3.1-0.6c-0.8,0.3-1.2-0.3-1.6-0.7c-0.5-0.6-1-1.2-0.8-2.1
		c0.2-0.2,0.4-0.2,0.7,0c0.7,0,1.4,0,2.1,0.1c0.9,0.3,1.8,0.5,2.7-0.1l0,0c0.5-0.2,0.9,0.1,1.2,0.4c0.3,0.7,0.3,1.3,0,2
		C-145.3,374.6-145.6,375.1-146.2,375.2z"/>
	<path fill="#C8514C" d="M-163,377.2c-0.3-1.5-0.3-3.2-1.7-4.3c0-1.3,0.2-2.4,2-2.2c1-0.2,2-0.4,2.9,0.1c0.2,1.3-1.2,1.7-1.5,2.7
		C-162.3,374.5-160.9,376.6-163,377.2z"/>
	<path fill="#BC6957" d="M-132.4,370.6c-1.1,0.3-2.4-0.3-3.4,0.6c-1.4,1.4-3,1.1-4.7,0.6c-0.5-0.2-0.8-0.6-0.9-1.2
		C-138.4,369.7-135.4,369.9-132.4,370.6z"/>
	<path fill="#BA6856" d="M-159.8,371.2c-0.8-0.8-1.9-0.4-2.9-0.6c3-0.7,6-0.9,9,0c-0.6,0.9-1.6,1-2.5,1.3
		C-157.4,372.1-158.7,372.4-159.8,371.2z"/>
	<path fill="#BD6253" d="M-156,371.2c0.7-0.7,1.5-0.4,2.3-0.5c1,0.1,2.2-0.3,2.6,1.1c-0.2,0-0.4,0-0.6,0
		C-153.2,372.9-154.7,372.5-156,371.2z"/>
	<path fill="#B45447" d="M-144.9,372.4c-0.4-0.2-0.9-0.5-1.3-0.7c0.9-0.6,1.9-0.5,2.9-0.7c0.5,0.2,1.4-0.4,1.7,0.6
		C-142.5,372.8-143.5,373.2-144.9,372.4z"/>
	<path fill="#FEDAB8" d="M-146.7,369.6c-0.3,2.6-1.4,0.2-2.1,0.5C-148.2,369.3-147.4,369.7-146.7,369.6L-146.7,369.6z"/>
	<path fill="#BF4741" d="M-146.2,371.7c-0.9,0.9-1.8,0.8-2.7,0.1C-148,371.8-147.1,371.7-146.2,371.7z"/>
	<path fill="#B75246" d="M-141.8,371.3c-0.5-0.1-1.1-0.2-1.6-0.3c0.7-0.1,1.3-0.2,2-0.3c0.2,0.2,0.4,0.4,0.7,0.6
		C-141,371.5-141.4,371.6-141.8,371.3z"/>
	<path fill="#C06A58" d="M-133.7,379.4c-0.9,1.9-2.4,2.6-4.4,2.7c-0.3-0.3-1-0.1-1.2-0.7c1.3-1.4,3.1-1.9,4.8-2.7
		C-134,378.7-133.8,379-133.7,379.4z"/>
	<path fill="#C36959" d="M-143.4,381.4c-0.7-0.9-1.7-1.7-1.7-3.1c0.1-0.1,0.2-0.2,0.3-0.2c2.1,0.2,2.9,2,4.2,3.2
		c0,0.5-0.3,0.6-0.7,0.8C-142,381.8-142.7,381.6-143.4,381.4z"/>
	<path fill="#B35645" d="M-133.7,379.4c-0.2-0.2-0.4-0.4-0.6-0.6c-0.6-1.1-0.3-2,0.7-2.6c0.2,0.4,0.3,0.8,0.5,1.2
		C-133,378.1-133.2,378.8-133.7,379.4z"/>
	<path fill="#A55643" d="M-141.2,382.1c0.2-0.2,0.4-0.4,0.7-0.6c0.5-0.4,1-0.4,1.4,0.1c0.4,0.2,0.8,0.4,1.1,0.5
		C-139.1,382.1-140.2,382.1-141.2,382.1z"/>
	<path fill="#BC6051" d="M-158.6,382c-1.9-0.2-3.3-1.1-3.9-3.1c-0.3-0.5-0.3-1,0.3-1.3c1.8,0.7,2.9,2.4,4.3,3.6
		C-157.9,381.7-158.3,381.9-158.6,382z"/>
	<path fill="#C56B5B" d="M-146.2,375.2c0-0.7,0.3-1.2,1.1-1.3c1.2,1.5,1.9,2.9,0,4.4c0,0,0,0,0,0
		C-145.9,377.4-146,376.3-146.2,375.2z"/>
	<path fill="#C8675A" d="M-150.5,373.4c0.4,0.4,0.8,0.8,1.2,1.2c-0.1,1.2-0.5,2.2-1.1,3.2c-0.3,0.2-0.6,0.2-0.8-0.1
		C-151.9,376.1-151.7,374.7-150.5,373.4z"/>
	<path fill="#CF6D60" d="M-161.9,377.8c-0.5,0.2-0.5,0.7-0.6,1.2c-0.4-0.5-0.6-1.1-0.4-1.7c1.1-1.3-0.2-3.1,1-4.3
		C-160.6,374.5-160.6,376.1-161.9,377.8z"/>
	<path fill="#C36657" d="M-151.2,377.7c0.2,0,0.5,0,0.7,0.1c-0.4,1.2-0.5,2.6-2.3,2.7c-0.1-0.1-0.2-0.2-0.2-0.3
		C-153,378.9-152.6,377.9-151.2,377.7z"/>
	<path fill="#B76E59" d="M-152.7,380.5c-0.2,1.3-1.1,1.5-2.2,1.6c-0.4-0.2-0.7-0.4-0.6-0.9C-154.8,380.2-153.9,379.7-152.7,380.5
		L-152.7,380.5z"/>
	<path fill="#D9BA9C" d="M-156,395.7c0-0.5,0-1.1,0-1.6c0.7,0.5,1.4,1.1,2.2,1.6c-0.4,0.2-0.7,0.4-1.1,0.5
		C-155.2,396.1-155.6,395.9-156,395.7z"/>
	<path fill="#A95541" d="M-155.5,381.5c0.2,0.2,0.4,0.4,0.6,0.5c-1.3,0.2-2.5,0.2-3.7,0c0.2-0.2,0.4-0.4,0.7-0.6
		C-157.1,380.8-156.3,380.8-155.5,381.5z"/>
	<path fill="#C89F7F" d="M-96.7,406.6c0.7,0,1,0.4,1.1,1c-1.2,0.3-1.7,1.6-2.7,2.2c-0.7,0.4-1.4,0.7-2.1,0.7
		c-3.9,0.7-6.8-1.2-9.3-3.9c0.2-0.2,0.4-0.4,0.6-0.6c0.5,0.2,1.1,0.4,1.6,0.6C-103.9,409.6-100.3,409-96.7,406.6z"/>
	<path fill="#886C53" d="M-119.5,390.2c0-1,0.1-1.9,0.1-2.9c0.6,0.9,0.3,1.9,0.4,2.8C-119.2,390.2-119.4,390.2-119.5,390.2z"/>
	<path fill="#6D8A7F" d="M-30.4,383.7c-0.1,0.9-0.3,1.8-0.4,2.8c-2.3,3.2-5.5,4.1-8.7,2.6c-0.1-0.3-0.1-0.5,0.1-0.7
		c1.3-0.8,2.7-0.4,4.1-0.8c0.7-0.1,1.3-0.4,1.8-0.9c0.2-0.2,0.3-0.3,0.5-0.5c1.1-1,0.4-2.9,2-3.7C-30.4,382.7-30.7,383.4-30.4,383.7
		z"/>
	<path fill="#297E83" d="M-47.7,381c0.1-0.5-0.4-1.4,0.1-1.4c1.6-0.1,3.4-0.9,4.7,0.8c0.1,0.6,0,1.1-0.6,1.4c-1,0.3-2.1-0.4-3.1,0.2
		c-0.2,0.1-0.4,0.1-0.6,0.2C-48,382.2-48.1,381.7-47.7,381z"/>
	<path fill="#748D8B" d="M-41.8,387.7c-0.9-0.8-1.4-1.7-1.5-2.9c0.3-0.3,0-1,0.6-1.2c1.3,0.4,1.4,1.7,1.8,2.7c0,0.3,0,0.5-0.1,0.8
		C-41.1,387.4-41.4,387.6-41.8,387.7z"/>
	<path fill="#557872" d="M-42.8,383.7c-0.2,0.4-0.3,0.7-0.5,1.1c-0.2-0.7-0.4-1.4-0.6-2.1c-0.4-0.6,0.2-0.8,0.5-1.1
		c0.2-0.4,0.3-0.7,0.5-1.1c0,0,0.1,0.1,0.1,0.1C-41.8,381.7-41.8,382.7-42.8,383.7z"/>
	<path fill="#7E988A" d="M-49.4,385.9c0.4-0.7,0.7-1.5,1.1-2.2c0.4,0.1,0.4,0.4,0.6,0.6c0,0.9-0.3,1.7-0.9,2.3
		C-49.1,386.5-49.3,386.3-49.4,385.9z"/>
	<path fill="#68877B" d="M-41.8,387.7c0.2-0.2,0.4-0.5,0.6-0.7c1,0.2,1.9,0.4,1.6,1.8c0,0.1,0,0.2,0,0.3
		C-40.7,389.3-41.2,388.4-41.8,387.7z"/>
	<path fill="#62786D" d="M-47.7,384.3c-0.2-0.2-0.4-0.4-0.6-0.6c0.1-0.9,0.1-1.7,0.2-2.6c0.1,0,0.3,0,0.4,0c0.2,0.4,0.4,0.8,0.6,1.2
		C-47.3,382.9-47.5,383.6-47.7,384.3z"/>
	<path fill="#5E8582" d="M-49.4,385.9c0.2,0.2,0.5,0.5,0.7,0.7c-0.2,0.4-0.4,0.7-0.7,1.1c0,0-0.3,0-0.3,0l-0.2,0.1
		c-0.5-0.3-0.8-0.7-0.8-1.3c0.1-0.4,0.3-0.8,0.8-0.5C-49.7,386-49.5,386-49.4,385.9z"/>
	<path fill="#46807E" d="M-43.4,381.5c-0.2,0.4-0.3,0.7-0.5,1.1c-0.8-0.6-1.8-0.6-2.7-0.6C-45.6,381.2-44.4,381.8-43.4,381.5z"/>
	<path fill="#708D81" d="M-50.2,386.5c0.1,0.4,0.2,0.8,0.4,1.3c-0.7,1-1.5,1.8-2.8,1.9c-0.9-0.2-1.8-0.3-2.6,0.1
		c-1.5,0-2.9-0.3-3.9-1.5c0.1-0.4,0.3-0.6,0.7-0.7c2.1,1.1,4.2,2,6.5,0.6C-51.8,387.1-51.2,386.6-50.2,386.5z"/>
	<path fill="#6C9384" d="M-60.2,381c0.2-0.2,0.3-0.4,0.5-0.5c0,1.5,0,2.9,0,4.4c-0.4,0.5,0.1,1.2-0.5,1.6c-0.2-0.4-0.4-0.8-0.6-1.1
		c0-0.4,0.1-0.8,0.1-1.2C-60.1,383.2-61,382-60.2,381z"/>
	<path fill="#638473" d="M-60.2,386.5c0.1-0.6-0.1-1.2,0.5-1.6c0.4,0.9,0.8,1.7,1.2,2.6c-0.2,0.2-0.4,0.4-0.7,0.7
		C-59.8,387.8-60.1,387.2-60.2,386.5z"/>
	<path fill="#6C7B6B" d="M-55.3,389.7c0.9-0.7,1.7-0.7,2.6-0.1C-53.5,389.7-54.4,389.7-55.3,389.7z"/>
	<path fill="#4E7275" d="M-30.4,383.7c-0.2-0.4-0.4-0.8-0.6-1.1c-0.4-0.5-0.4-1,0-1.5c0.5,0.2,0.6,0.7,0.7,1.2
		C-30.2,382.8-30.3,383.2-30.4,383.7z"/>
	<path fill="#4C7973" d="M-60.2,381c-0.1,1.1,0.3,2.2-0.4,3.2c-0.2-1.1-0.4-2.1-0.7-3.2C-61,380.5-60.6,380.9-60.2,381z"/>
	<path fill="#ECD4BF" d="M-30.9,381.1c0,0.5,0,1,0,1.5c-0.8,1.5-0.4,3.4-1.9,4.5c-1.4,0.2-2.9-0.2-4.3-0.2c-1.1,0-2.1-0.3-2.1-1.6
		c0-1.1,1-1.6,2-1.9c0.9-0.3,1.7,0.3,2.9,0.7c-1-1.3-1.9-2.6,0.6-3.4c-1.8-0.5-3.1-0.9-4,0.9c-0.5,1.1-1.6,1-2.9,0.5
		c0.9,1.7,2,3.4-0.5,4.4c-1-0.7-0.8-2-1.6-2.8c0-1,0-2.1,0-3.1c0.5-0.4,1-0.8,1.6-1.2c1.1-0.3,2.2-0.5,3.3-0.8
		c2-0.4,3.9,0.1,5.9,0.3C-31.6,379.6-31.3,380.4-30.9,381.1z"/>
	<path fill="#F3D1C4" d="M-50.2,386.5c-0.3,0.9-1.1,1.2-1.8,1.6c-1-0.4-1.9-0.8-2.9-1.3c0.9-1.7,2.7-0.3,3.6-1.3
		c0-0.1,0.1-0.2,0-0.3c-0.4-0.8-1.8-1-1.5-2.3c0.1-0.5,0.7-0.8,1.1-0.5c0.9,0.7,1.9,1.4,1.7,2.8c0,0.2,0.1,0.5,0.2,0.8
		C-50,386.1-50.1,386.3-50.2,386.5z"/>
	<path fill="#F0C5A7" d="M-100.4,410.5c0.6-0.4,1.4-0.7,2.1-0.7C-98.9,410.4-99.4,411.2-100.4,410.5z"/>
	<path fill="#FDD8B7" d="M-145.1,378.3c1-1.5-0.3-2.9,0-4.4c-0.1-0.5-0.1-1.1,0.3-1.5c1.2,0,2.1-0.6,3.1-1.1c0.3,0,0.7-0.1,1-0.1
		c1.6,0,3.3,0,4.9,0c3.1,0.6,2.1,3.1,2.3,5c-0.2,0.9-0.5,1.8-0.7,2.6c-1.2,1.7-3.1,2.2-4.9,2.8c-0.5,0-0.9,0-1.4-0.1
		C-142.7,381.2-143.1,378.7-145.1,378.3z"/>
	<path fill="#FDD9B8" d="M-155.5,381.5c-0.8,0-1.7,0-2.5-0.1c-1.8-0.7-3.4-1.6-3.9-3.7c0-1.6,0-3.3,0-4.9c0.3-1.1,1.3-1.4,2.2-1.7
		c1.3,0,2.5,0,3.8-0.1c1.5,0.2,2.9,0.4,4.4,0.6c0.4,0.5,0.7,1.1,1.1,1.6c-0.2,1.4-0.4,2.9-0.7,4.3c-0.7,0.8-1.5,1.6-1.5,2.8
		C-153.7,380.6-154.6,381-155.5,381.5z"/>
	<path fill="#F1D1C1" d="M-41.2,386.5c1-1.2,1.7-2.4-0.2-3.6c-0.6-0.4-1.2-1.3-0.3-2.1c0.8-0.6,1.2-0.2,1.7,0.6
		c0.7,1,1.3,0.6,1.8-0.2c1.2-2,3.7-2.5,5.5-1c0.3,0.2,0.5,0.6,0.5,0.9c0,0.5-0.4,0.8-0.9,0.7c-0.6-0.1-1.2-0.3-1.8,0.3
		c0.4,1.2,2.4,1.6,1.6,3.6c-1-0.5-2-1-3-1.5c-1-0.5-1.5,0.4-2.1,0.8c-0.3,0.2-0.5,0.6-0.2,0.9c0.5,0.7,1.1,0.3,1.7,0.2
		c1.5-0.1,2.8,0.2,4.1,1c0,0-0.1,0-0.1,0c-0.6,0.3-1.3,0.5-1.7,1.1c-1.6,1-3.3,0.3-5,0.6c-0.5-0.6-1.1-1.2-1.6-1.8
		C-41.2,386.9-41.2,386.7-41.2,386.5z"/>
	<path fill="#ECD4BF" d="M-34.6,388.2c0-1.2,0.8-1.2,1.6-1.1C-33.3,387.8-33.8,388.1-34.6,388.2z"/>
</g>
</svg>
