<?xml version="1.0" encoding="utf-8"?>
<!-- Generator: Adobe Illustrator 21.1.0, SVG Export Plug-In . SVG Version: 6.00 Build 0)  -->
<svg version="1.1" id="Layer_1" xmlns="http://www.w3.org/2000/svg" xmlns:xlink="http://www.w3.org/1999/xlink" x="0px" y="0px"
	 viewBox="-470 4834.5 206.5 206.5" enable-background="new -470 4834.5 206.5 206.5" xml:space="preserve">
<g>
	<circle fill="#77CBC7" cx="-366.7" cy="4937.7" r="103.2"/>
	<path fill="#62BAB3" d="M-366.7,4834.5L-366.7,4834.5V5041l0,0c57,0,103.2-46.2,103.2-103.2
		C-263.5,4880.7-309.7,4834.5-366.7,4834.5z"/>
</g>
<g>
	<path fill="#F36B5B" d="M-423.1,5004.6c0.2-8.9,1.5-17.2,10.8-21.7c2.8-1.4,1.5-4.7,2.8-6.7c9,0.4,16.3-4.6,24.3-7.6
		c2,0,3.8,0.8,5.2,2.1c4.4,3.9,8.5,8.1,13.5,0.4c1.4-2.2,5.2-2.1,7-0.1c5.5,6.2,9.9,3.3,14.5-0.9c1.2-1.1,2.8-1.5,4.5-1.5
		c8.2,4.1,17.6,5.9,24.5,12.6c10.5,5,13.8,13.9,13.4,24.8c-38.4,0.1-76.8,0.3-115.1,0.4C-419.8,5006.5-421.8,5006.4-423.1,5004.6z"
		/>
	<path fill="#764C24" d="M-316.1,4981.2c-9.1-1.9-18.1-4.1-25.4-10.4c-2.2-2.1-4.8-3.9-5.6-7.1c-0.9-3-0.3-6-0.3-8.9
		c2.7-9,7.5-17,12.5-24.9c2.7-4.2,4.9-8.3-0.4-12.7c-3.2-2.6-3.2-6.9-3.3-10.8c-0.2-4.6-1-9-2.5-13.2c-1.3-3.5-3.3-5.8-7.2-3
		c-7.3,5-15.5,7.7-23.9,10.1c-5.5,1.6-8,7.1-12,10.6c-11.1,9.8-8.8,18.5-1,28.8c3.2,4.2,5.5,9.5,6.6,14.9c0,3,0.5,6-0.1,8.9
		c-0.5,3.4-2.6,5.5-5.4,7.2c-5.6,5.2-12.7,6.9-19.7,9.3c-4.2,1.4-5-0.6-5.6-3.8c1.2-25.1,2.1-50.3,3.8-75.4
		c2-29.9,21.1-45.5,50.6-42.2c17.5,2,31.3,14.9,33.7,34.7c2.5,19.8,2.8,39.9,3.9,59.9C-316.9,4962.5-316.6,4971.9-316.1,4981.2z"/>
	<path fill="#FEFCF9" d="M-344.7,4963.7c1.7,2.1,4,3.9,3.2,7.2c-2.3,2.2-4.5,4.6-7,6.6c-4,3.1-8.5,8-10.5-1.8
		c-0.4-1.8-1.5-3.6-3.8-3.9c-2.4-0.2-3.7,1.5-4.1,3.3c-2.3,11.1-7.2,5-11.4,1.8c-2.3-1.7-4-4.1-6-6.1c-0.9-3.1,1.5-4.8,2.8-7
		c1.2-0.4-0.5-0.6,0.7-0.5C-368.7,4964.1-356.7,4963.2-344.7,4963.7z"/>
	<path fill="#FBCFA3" d="M-381.3,4954.1c-6.1-7.1-7.1-17.1-14.4-23.7c-3.3-3.1-2.4-8.5-2.1-13c0.1-1.6,1.1-4.3,2.3-3.6
		c8.3,4.9,6.7-3.2,8.6-6.4c3.4-5.9,8.3-10.3,14.8-11.5c9.2-1.6,17.4-4.8,24.1-11.3c3.8-3.7,6.1-2.2,8.3,1.4
		c2.7,4.5,3.5,9.6,4.8,14.6c1.3,5.1-2.2,11.4,6.2,14.9c3.8,1.6,2,10.7-1.2,14.1c-6.9,7.2-8.4,17.2-14.8,24.4
		c-2.7,9.1-10.5,11.5-18.2,11.5C-370.8,4965.6-378.4,4962.9-381.3,4954.1z"/>
	<path fill="#F8C58E" d="M-381.3,4954.1c15.9,12.8,20.4,12.8,36.4,0c0,3.2,0.1,6.4,0.1,9.6c-12.2,5.4-24.5,4.6-36.7,0
		C-381.4,4960.5-381.4,4957.3-381.3,4954.1z"/>
	<g>
		<path fill="#D8F0FC" d="M-337.1,4999.7c-2.7,0-5.4,0-8.1,0c-0.9,0-1.2-0.3-1.2-1.3c0-3.2,0-6.3,0-9.5c0-0.9,0.3-1.2,1.3-1.2
			c5.4,0,10.9,0,16.3,0c0.9,0,1.2,0.3,1.2,1.2c0,3.2,0,6.3,0,9.5c0,0.9-0.4,1.2-1.3,1.2C-331.6,4999.7-334.4,4999.7-337.1,4999.7z"
			/>
		<path fill="#FEFEFE" d="M-344.2,4997.5c-0.3,0.1-0.7,0.1-1,0.1c-0.2,0-0.2-0.2-0.2-0.4c0-0.7,0-1.4,0-2.1c0-1.5,0-3.1,0-4.6
			c0-0.3,0.1-0.5,0.5-0.5c2.2,0,4.4,0,6.7,0c0.3,0,0.4,0.1,0.4,0.4c0,2.2,0,4.4,0,6.7c0,0.3-0.1,0.5-0.5,0.5c-0.2,0-0.5,0-0.7,0
			c0,0-0.1-0.1-0.1-0.1c-0.1-0.4-0.3-0.7-0.6-1c-0.1-0.1-0.1-0.3-0.1-0.5c0-0.9-0.1-1.7-0.1-2.6c0-0.4-0.1-0.8-0.2-1.2
			c-0.3-0.7-1-1-1.9-0.8c-0.6,0.1-1.1,0.7-1.2,1.5c-0.1,1.1-0.1,2.2-0.2,3.3C-343.7,4996.7-344,4997.1-344.2,4997.5z"/>
		<path fill="#FBAF40" d="M-344.2,4997.5c0-0.4,0.1-0.7,0.5-0.9c0.1-0.1,0.1-0.2,0.1-0.3c0.4,0,0.7-0.2,1-0.3c0.1,0,0.2,0,0.2,0.1
			c0.2,0.2,0.4,0.3,0.6,0c0.1-0.1,0.2-0.1,0.3,0c0.2,0.3,0.4,0.1,0.6,0c0.1,0,0.1-0.1,0.2-0.1c0.4,0.2,0.8,0.3,1,0.5
			c0.4,0.2,0.6,0.6,0.6,1.1c-1.6,0-3.3,0-4.9,0C-344.1,4997.6-344.2,4997.6-344.2,4997.5z"/>
		<path fill="#373638" d="M-337.1,4998.7c-2.5,0-4.9,0-7.4,0c-0.1,0-0.2,0-0.3,0c-0.1,0-0.2,0-0.2-0.1c0-0.1,0.1-0.1,0.2-0.1
			c0.1,0,0.1,0,0.2,0c5,0,10.1,0,15.1,0c0.1,0,0.2,0,0.2,0c0.1,0,0.1,0,0.2,0.1c0,0.1-0.1,0.1-0.2,0.1c-0.1,0-0.2,0-0.3,0
			C-332,4998.7-334.6,4998.7-337.1,4998.7z"/>
		<path fill="#404143" d="M-333.1,4994.2c-1.2,0-2.4,0-3.6,0c-0.1,0-0.2,0-0.3,0c-0.1,0-0.1,0-0.1-0.1c0-0.1,0.1-0.1,0.1-0.1
			c0.1,0,0.2,0,0.3,0c2.4,0,4.8,0,7.3,0c0,0,0.1,0,0.1,0c0.1,0,0.3,0,0.3,0.1c0,0.2-0.2,0.1-0.3,0.1
			C-330.6,4994.2-331.9,4994.2-333.1,4994.2z"/>
		<path fill="#F69394" d="M-337,4988.6c0.6,0,1.2,0,1.7,0c0.2,0,0.4,0,0.4,0.2c0,0.2-0.2,0.3-0.3,0.3c-1.2,0-2.4,0-3.6,0
			c-0.2,0-0.3,0-0.3-0.2c0-0.2,0.2-0.3,0.3-0.3C-338.2,4988.6-337.6,4988.6-337,4988.6z"/>
		<path fill="#2D2B2C" d="M-333.1,4996.8c-1.2,0-2.5,0-3.7,0c-0.1,0-0.3,0.1-0.3-0.1c0-0.2,0.2-0.1,0.3-0.1c2.5,0,4.9,0,7.4,0
			c0.1,0,0.3,0,0.3,0.1c0,0.2-0.2,0.1-0.3,0.1C-330.7,4996.8-331.9,4996.8-333.1,4996.8z"/>
		<path fill="#383739" d="M-333.1,4995.5c-1.2,0-2.4,0-3.6,0c-0.1,0-0.2,0-0.2,0c-0.1,0-0.2,0-0.2-0.1c0-0.1,0.1-0.1,0.2-0.1
			c0.1,0,0.1,0,0.2,0c2.4,0,4.8,0,7.2,0c0.1,0,0.1,0,0.2,0c0.1,0,0.2,0,0.2,0.1c0,0.2-0.1,0.1-0.2,0.1c-0.8,0-1.6,0-2.4,0
			C-332.2,4995.5-332.6,4995.5-333.1,4995.5z"/>
		<path fill="#383739" d="M-333.1,4992.9c-1.2,0-2.5,0-3.7,0c-0.1,0-0.3,0.1-0.3-0.1c0-0.2,0.2-0.1,0.3-0.1c2.5,0,5,0,7.4,0
			c0.1,0,0.3-0.1,0.3,0.1c0,0.2-0.2,0.1-0.3,0.1C-330.6,4992.9-331.9,4992.9-333.1,4992.9z"/>
		<path fill="#383739" d="M-333.1,4990.8c-1.2,0-2.4,0-3.6,0c-0.1,0-0.2,0-0.3,0c-0.1,0-0.1,0-0.1-0.1c0-0.1,0.1-0.1,0.1-0.1
			c0.1,0,0.2,0,0.2,0c2.4,0,4.9,0,7.3,0c0.1,0,0.2,0,0.2,0c0.1,0,0.1,0,0.1,0.1c0,0-0.1,0.1-0.1,0.1c-0.1,0-0.2,0-0.3,0
			C-330.7,4990.8-331.9,4990.8-333.1,4990.8z"/>
		<path fill="#764C24" d="M-339.7,4996.5c-0.4-0.1-0.8-0.2-1.1-0.4c-0.1-0.1-0.2-0.2-0.2-0.3c0-0.1,0-0.3,0-0.4
			c0.1-0.4,0.3-0.7,0.5-1.1c0.1-0.2,0.2-0.4,0-0.5c-0.1-0.1-0.1-0.3-0.1-0.5c0-0.2,0-0.4-0.1-0.6c-0.1-0.1-0.1-0.2-0.3-0.1
			c-0.3,0.2-0.7,0.3-1,0.4c-0.2,0.1-0.3,0.3-0.5,0.5c-0.5,0.4-0.4,0.8,0,1.2c0.1,0.2,0.2,0.4,0.3,0.6c0,0.1,0,0.3,0,0.4
			c0,0.1-0.1,0.2-0.2,0.3c-0.2,0.2-0.5,0.3-0.8,0.4c-0.2,0.1-0.2,0-0.2-0.2c0.1-1.1,0.1-2.1,0.2-3.2c0.1-1.3,0.9-1.9,2.2-1.8
			c0.7,0.1,1.3,0.6,1.4,1.5c0.1,0.8,0.1,1.7,0.2,2.6C-339.7,4995.7-339.7,4996.1-339.7,4996.5z"/>
		<path fill="#FEFCF9" d="M-340.9,4995.7c0.1,0.1,0.2,0.2,0.1,0.3c-0.1,0.1-0.2,0.2-0.3,0.3c-0.2,0.1-0.4,0.3-0.4-0.1
			c0-0.1-0.1-0.2-0.2-0.2c-0.1,0-0.2,0.1-0.2,0.1c-0.1,0.5-0.3,0.2-0.5,0.1c-0.1-0.1-0.2-0.2-0.3-0.3c0-0.1,0.1-0.2,0.1-0.3
			c0.1,0,0,0,0,0C-341.9,4995.8-341.4,4995.7-340.9,4995.7z"/>
		<path fill="#FBCFA3" d="M-342.5,4995.3c-0.3-0.3-0.3-0.7-0.6-1c-0.1-0.1-0.1-0.4-0.1-0.6c0-0.1,0-0.2,0.1-0.2
			c0.4,0.2,0.3-0.1,0.4-0.3c0.1-0.3,0.4-0.4,0.6-0.5c0.4-0.1,0.7-0.2,1-0.5c0.2-0.2,0.3-0.1,0.4,0.1c0.1,0.2,0.1,0.4,0.2,0.6
			c0.1,0.2-0.1,0.5,0.3,0.6c0.2,0.1,0.1,0.5-0.1,0.6c-0.3,0.3-0.4,0.7-0.6,1c-0.1,0.4-0.4,0.5-0.8,0.5
			C-342,4995.8-342.3,4995.7-342.5,4995.3z"/>
		<path fill="#F8C58E" d="M-342.5,4995.3c0.7,0.5,0.9,0.5,1.6,0c0,0.1,0,0.3,0,0.4c-0.5,0.2-1,0.2-1.6,0
			C-342.5,4995.6-342.5,4995.5-342.5,4995.3z"/>
	</g>
</g>
</svg>
