<?xml version="1.0" encoding="utf-8"?>
<!-- Generator: Adobe Illustrator 19.1.0, SVG Export Plug-In . SVG Version: 6.00 Build 0)  -->
<svg version="1.1" id="Layer_1" xmlns="http://www.w3.org/2000/svg" xmlns:xlink="http://www.w3.org/1999/xlink" x="0px" y="0px"
	 viewBox="-202 293.5 206.5 206.5" enable-background="new -202 293.5 206.5 206.5" xml:space="preserve">
<g>
	<g>
		<circle fill="#77CBC7" cx="-98.8" cy="396.8" r="103.2"/>
		<path fill="#62BAB3" d="M-98.8,293.5L-98.8,293.5V500l0,0c57,0,103.2-46.2,103.2-103.2C4.5,339.7-41.7,293.5-98.8,293.5z"/>
	</g>
</g>
<g>
	<path fill="#DEDFE0" d="M-90.7,457.2c-19.5,0-39.1,0.1-58.6,0.1c-1.7,0-3.3,0-4.6-1.4c-1.2-1.2-2.9-1.4-3.9,0.2
		c-2.7,4.5-4.8,2.9-6.4-0.7c-2.4,0.6-1.7,4.7-4.5,3.6c-2.4-0.9-1.6-3.5-1.7-5.5c-0.1-4.8-0.1-9.7,0-14.5c0-1.7-0.9-4,1.4-4.9
		c2.9-1.1,2.8,2.1,4.4,3.9c2-4,4.1-7.7,6.7-0.9c0.5,1.3,1.7,1.3,2.8,0.9c1.3-0.4,1.3-1.6,1.4-2.8c0-3.4,0-6.7,0-10.1
		c0-13.2,0-26.4,0-39.6c-0.5-2.3,1.3-3.3,2.8-4.4c15.7-12.3,31.7-24.2,47.4-36.7c3.3-2.6,6.3-2.6,9.6,0
		c15.6,12.4,31.6,24.4,47.4,36.7c1.4,1.1,3.2,2.1,2.8,4.4c0,15.8,0,31.6,0,47.5c0,1.7-0.9,4,1.3,5c2.6,1.1,2.7-1.6,3.8-2.9
		c3.9-4.5,3.9,0.9,5.6,2.4c2.1-0.3,1.4-4.8,4.6-3.4c2.5,1.1,1.4,3.6,1.4,5.5c0.1,5,0.1,10,0,15.1c0,1.7,0.3,3.7-1.7,4.4
		c-2.7,0.9-2.4-2.2-3.9-3.7c-2.2,3.1-4.7,5.5-7.4,0.4c-0.2-0.4-1.9-0.7-2.5-0.3c-6.6,3.9-13.8,1.1-20.6,1.7c-1.8-2.3-1.4-5-1.4-7.5
		c-0.1-8.6-0.1-17.2,0-25.8c0.1-4.5-1.7-6.5-6.3-6.2c-4.5,0.2-9,0.2-13.4,0c-4.3-0.1-6,1.9-6,6.1c0.1,9.9-0.1,19.8,0.1,29.7
		C-90.2,454.7-90.2,456-90.7,457.2z"/>
	<path fill="#A62529" d="M-43.8,385.5c-11.7-10.4-24.6-19.2-36.8-29c-4.9-4-10-7.8-15.1-11.6c-1.4-1-2.5-2.8-4.8-1
		c-17.7,13.9-36,27-53.2,41.6c-5.8,3.4-9.9,3.3-12.2-0.6c-2.8-4.6-0.9-8.1,2.9-11c18.6-14.5,37.2-29.2,55.9-43.6
		c2.9-2.2,5.2-6.8,8.6-6.4c2.9,0.3,5.4,4.2,8.2,6.4c18.4,14.5,36.9,28.9,55.4,43.4c2.1,1.6,4.1,3.2,4.5,6.1c0.4,3-0.4,5.6-3.1,7.3
		C-37.3,389.2-40.6,387.7-43.8,385.5z"/>
	<path fill="#575F7E" d="M-90.7,457.2c-1.2-1.4-1.1-3.1-1.1-4.8c0-10.4,0.1-20.9-0.1-31.3c-0.1-3.5,0.8-5.1,4.7-5
		c6.9,0.2,13.8,0.1,20.7,0c2.6,0,3.6,0.8,3.6,3.5c-0.2,12.5-0.2,25-0.4,37.5C-72.4,457.2-81.6,457.2-90.7,457.2z"/>
	<path fill="#767FBB" d="M-63.1,401.3c-8.9,2.4-18,0.5-27,0.9c-1,0-1.6-0.8-1.8-1.8c-0.1-0.5-0.1-1.1-0.1-1.7
		c-1.5-16.4-1.5-16.4,14.8-16.4c2.6,0,5.3,0.3,7.8-0.1c5.6-0.8,7.3,1.6,6.6,6.8c-0.4,2.6-0.2,5.2-0.2,7.8c-2.9,2.4-6.4,1.4-9.7,1.6
		c-4.5,0.2-9.1-0.1-13.6,0.6c5.3,0.7,10.6,0.5,15.9,0.6C-68,399.7-65.3,399.3-63.1,401.3z"/>
	<path fill="#596180" d="M-134.4,401.3c0-4.1,0-8.1,0-12.2c1.4-1.5,3.2-1.8,5.1-1.9c6-0.2,11.9-0.1,17.9,0c3.9,0.1,5.6,1.7,5.4,5.9
		c-0.4,10.4,1.1,8.7-8.4,8.7C-121.1,401.8-127.8,402.5-134.4,401.3z"/>
	<path fill="#767FBB" d="M-134.4,430.5c0-1.5,0-3.1,0-4.6c2.2-2,4.9-1.2,7.5-1.6c1.6-0.2,2.9-0.9,2.9-2.8c0-1.9-1.2-2.5-2.8-2.8
		c-2.5-0.4-5.3,0.4-7.4-1.7c8.9-2.4,18-0.7,27-0.9c2,0,1.8,2,1.8,3.5c0,5.8,0,11.6,0,17.4c0,1.5,0.1,3.5-1.9,3.4
		c-9-0.4-18.1,1.6-26.9-1c2.1-2.1,4.9-1.3,7.4-1.7c1.6-0.2,2.9-0.9,2.9-2.8c0-1.9-1.2-2.6-2.8-2.8
		C-129.5,431.8-132.3,432.5-134.4,430.5z"/>
	<path fill="#7780BB" d="M-134.4,401.3c7.8,0,15.6-0.2,23.4,0.1c5.3,0.2,4.4-3.1,4.4-6.2c0-3.1,0.9-6.5-4.4-6.2
		c-7.8,0.3-15.6,0.1-23.4,0.1c-1.3-5.4,0.7-7.3,6.2-6.9c6.1,0.4,12.3,0.2,18.5,0.1c3.1-0.1,4.1,1,4.3,4.2
		c0.6,15.9,0.7,16.1-15.4,15.9C-125.4,402.3-130.1,403.6-134.4,401.3z"/>
	<path fill="#5F6685" d="M-63.1,401.3c-8,0-16,0-24,0c-1.6,0-3.7,0.3-3.7-2.2c0-2.5,2-2.2,3.7-2.2c8,0,16,0,24,0
		C-63.1,398.4-63.1,399.9-63.1,401.3z"/>
	<path fill="#5A6181" d="M-134.4,430.5c2.2,0,4.4,0.1,6.7-0.1c3.3-0.2,5.6,0.1,5.6,4.5c0,4.5-2.3,4.7-5.6,4.5
		c-2.2-0.1-4.4-0.1-6.7-0.1C-134.5,436.5-134.4,433.5-134.4,430.5z"/>
	<path fill="#5A6281" d="M-134.4,417c2.2,0,4.4,0.1,6.7,0c3.3-0.2,5.6,0.1,5.6,4.5c0,4.5-2.3,4.7-5.6,4.5c-2.2-0.1-4.4-0.1-6.7-0.1
		C-134.4,422.9-134.4,420-134.4,417z"/>
	<path fill="#FDFDFD" d="M-153.7,446.3c0,1.5-0.1,3.1-2.2,3.1c-2.5,0-2.2-2-2.2-3.6c0-1.7,0.5-3,2.5-2.8
		C-153.5,443.1-153.8,444.8-153.7,446.3z"/>
	<path fill="#FDFDFD" d="M-39.4,445.9c-0.1,1.5,0.2,3.2-1.9,3.4c-2.5,0.3-2.6-1.5-2.6-3.3c0-1.5,0-3.1,2.2-3.1
		C-39.6,442.9-39.4,444.3-39.4,445.9z"/>
	<path fill="#F5F5F5" d="M-33.6,443.1c1.7-0.1,2,0.9,2,2.1c0,1.4,0.6,3.1-1.1,3.9c-1.4,0.6-2.1-0.5-2.1-1.7
		C-34.8,445.8-35.5,444-33.6,443.1z"/>
	<path fill="#F5F5F5" d="M-166,446.3c0.2-1.2-0.4-2.9,1.4-3.1c2.3-0.2,1.8,1.8,1.9,3.1c0.1,1.3,0.1,2.9-1.6,2.9
		C-166.1,449.2-165.9,447.5-166,446.3z"/>
	<path fill="#5B6381" d="M-112.4,430.5c3.2-0.2,5.9-0.5,6,4.2c0.1,4.9-2.6,4.7-6,4.8c-3.4,0-5.6-0.2-5.6-4.6
		C-118,430.3-115.6,430.2-112.4,430.5z"/>
	<path fill="#5D6582" d="M-112.5,417.1c3.5-0.3,5.9-0.3,6,4.3c0.1,5.1-2.8,4.5-6.1,4.7c-3.5,0.1-5.5-0.4-5.5-4.7
		C-118,416.6-115.4,416.7-112.5,417.1z"/>
</g>
</svg>
