<?xml version="1.0" encoding="utf-8"?>
<!-- Generator: Adobe Illustrator 19.1.0, SVG Export Plug-In . SVG Version: 6.00 Build 0)  -->
<svg version="1.1" id="Layer_1" xmlns="http://www.w3.org/2000/svg" xmlns:xlink="http://www.w3.org/1999/xlink" x="0px" y="0px"
	 viewBox="-202 293.5 206.5 206.5" enable-background="new -202 293.5 206.5 206.5" xml:space="preserve">
<g>
	<g>
		<circle fill="#77CBC7" cx="-98.8" cy="396.8" r="103.2"/>
		<path fill="#62BAB3" d="M-98.8,293.5L-98.8,293.5V500l0,0c57,0,103.2-46.2,103.2-103.2C4.5,339.7-41.7,293.5-98.8,293.5z"/>
	</g>
</g>
<g>
	<path fill="#6CB7E5" d="M-74.4,412c3.6,1.2,7.3,2.4,10.9,3.7c0.2,0.4,0.5,0.8,0.9,1.1c3.7,3.6,3.7,4-0.8,6.2
		c-2.7,1.3-5.5,2.5-3.6,6.3c0.3,0.4,0.5,0.9,0.6,1.3c0.2,0.7,0.1,1.5-0.1,2.2c-1.8,2.6-1.7,5.4-1.1,8.4c0.7,3.7,1.5,7.3,2.9,10.8
		c1,2.6,1.9,6.8,3.5,7.2c3.4,0.8,7.4,0.4,10.7-1.8c2.5-0.2,4.7,0.1,3.8,3.5c-8.3,8.4-19,12.5-30.1,15.1c-19.8,4.6-39.4,3.6-58.3-4.9
		c-11-5-20.6-11.7-29-20.4c-1.3-1.4-2-2.9-2.3-4.8c0.5-5,0.9-10,1.4-15c0.5-4.1,2.7-6.9,6.7-8.1c7.7-2.5,15.4-4.8,23.2-7.3
		c0.7,3.8-1.4,7.1-1.8,10.7c-0.7,5.3-1.5,10.5,0,15.8c0.3,1.2,0.1,2.6-0.3,3.8c-0.4,1.3-1.9,1.9-2.2,3.1c-0.6,2.5-1,5.2,1.9,6.7
		c2.5,1.2,4.7,0.7,6.1-1.7c1.5-2.7,0.3-5-1.8-6.8c-1.1-0.9-3.3-0.5-3.6-2.7c-1.7-7.8-1-15.4,0.9-23c0.6-2.4,1.3-4.7,2.9-6.6
		c3.2-1.3,6.3-2.8,9.8-2.9c1.4,1.3,3.3,2.1,3.4,4.3c8.1,14.2,13.2,29.9,20.5,45c3.2-3.8,4.2-8.3,6.1-12.3c5-10.5,8.3-21.8,14.6-31.6
		c0.4-0.7,0.4-1.6,0.5-2.4C-77.5,413.4-76.4,412.2-74.4,412z"/>
	<path fill="#6CB7E5" d="M-46.9,460.9c-1-2-2.5-2-4.1-0.8c-4.9,0.2-5.1,0-3.2-4.2c2.3-5.1,3.5-10.4,4.6-15.8
		c0.6-2.7,0.5-5.4-0.5-8.1c-0.1-0.5-0.1-1-0.1-1.4c0.5-5.5,0.1-6.3-5.9-8.1c-3.1-0.9-4.5-2.6-4.5-5.7c7.1,2.4,14.1,4.8,21.2,7.3
		c3.7,1.3,5.8,3.9,6.3,7.9c0.6,5,1.4,10,2,15C-36.3,451.6-39.8,458.3-46.9,460.9z"/>
	<path fill="#EDC39D" d="M-113.4,402.1c-9.6-7.3-14.5-17.3-17.2-28.7c-0.6-2.7-1.4-5.2-3-7.6c-2.4-3.7-1.2-7.9-0.2-11.8
		c1.9-0.4,3.1,0.5,3.4,2.2c0.6,3,3.1,4.9,4.4,7.4c1,10.4,5.5,12.7,16.1,8.4c3.6-1.5,5.5-4.5,6.4-8.1c0.6-2.7,2.2-3.5,4.6-3.6
		c2.7-0.1,4,1.3,4.6,3.7c2.1,8,6.2,10.6,16.2,9.1c5.6-0.8,5.1-5.2,6.2-8.9c0.4-1.4-0.2-3,0.9-4.2c1.6-1.1,2.6-2.5,3.2-4.5
		c0.4-1.5,1.1-3.1,3.3-2.5c3.8,8.6-2.1,15.7-3.7,23.4c-1.9,9.3-7.1,17-13.8,23.8c-1,1.1-0.9,3-2.6,3.7c-7,4.5-14.5,6-22.6,3.2
		C-110,406.2-112.2,404.8-113.4,402.1z"/>
	<path fill="#44332D" d="M-127.4,364.2c-3.2-2.8-4.3-6.8-6.4-10.2c-0.5-4.7-0.7-9.4-1.6-14c-0.9-4.6,0.8-7.8,3.8-10.9
		c13.5-14,32-16.9,49.1-7.6c1.6,0.9,3.1,1.4,5,1.5c9.3,0.5,14.2,5.5,14.9,14.7c0.4,5.3-0.8,10.3-2,15.4c-2.1,2.3-0.3,7-4.8,7.8
		c-1.1-0.5-2.2-1-2.5-2.3c-2.7-5-5.6-9.9-7.9-15.1c-1.4-3.3-4.2-3.8-7.4-3c-2.9,0.7-5.4,2.2-8.3,2.9c-3.6,0.9-7.2,2.4-10.8-0.3
		c-1-0.7-2.2-0.2-3.3,0.1c-3.7,1.1-7.2,2.9-11.2,3.4c-1.8,0.2-2.8,1.7-3.2,3.3c-0.8,3-2.1,5.8-2.4,8.9
		C-127.1,360.5-124.9,362.8-127.4,364.2z"/>
	<path fill="#EDC39D" d="M-121.5,416.8c-1.2-1.4-1.7-3-1.9-4.8c6.9-0.6,8.4-1.8,10.1-8c4.3,0.7,7.9,3.4,12.4,3.6
		c5.6,0.3,10.4-2,15.4-3.6c3.9,2.2,6.1,6.9,11.1,7.7v0.4c-0.6,1.3-1.2,2.5-1.9,3.8c-6.3,6.9-14.8,7-23,7.1
		C-107.2,423.1-115,422.2-121.5,416.8z"/>
	<path fill="#525252" d="M-60.7,416.8c1.2,2.3,3,3.6,5.7,4c3.3,0.5,6.2,2.2,7.7,5.4c0.8,1.7,1.8,3.9-1.6,4.2c-2-2-3.1-4.8-6.1-5.9
		c-5.2-1.8-9-0.2-13.6,5.8c-2.2,0-2.9-1.2-2.1-3.2c0.8-2.2,2-4.5,4.3-4.9c4.5-0.9,4.7-3.2,2.9-6.6C-62.5,416-61.6,416.4-60.7,416.8z
		"/>
	<path fill="#565656" d="M-133.1,414.9c-3.2,9.8-4.9,19.8-2.7,30.1c-0.7,1.7-1.7,2.2-3.4,1.1c1.3-1.7,1.2-3.7,0.9-5.6
		c-1.3-8.6,0.4-16.8,3-24.9C-134.5,415.3-133.8,415.1-133.1,414.9z"/>
	<path fill="#E1BF9C" d="M-85.1,402.1c-0.1,1-0.1,1.9-0.2,2.9c-3.3,1-6.5,2.3-9.8,2.8c-6.4,1-12.6,0-18.2-3.8
		c-0.1-0.6-0.1-1.3-0.2-1.9C-104,408.4-94.5,408.5-85.1,402.1z"/>
	<path fill="#FEFEFE" d="M-121.5,416.8c4.6-0.8,8.3,2.2,12.5,2.9c11.4,2.1,22.1-0.1,32.7-3.9c-7.4,17-14.8,34-22.1,50.9
		c-0.5,0.1-0.9,0.1-1.4,0.2C-107,450.2-114.2,433.5-121.5,416.8z"/>
	<path fill="#6CB7E5" d="M-68.5,431.5c0.3-0.3,0.6-0.6,1-0.9c0.1-0.3,0.2-0.5,0.3-0.8c3.2-4.5,8.2-3.8,12.7-4.6
		c3,1.1,4.5,3.3,5.3,6.3c2.6,2.8,0.7,5.8,0.3,8.8c-0.7,5.6-2,11.2-4.7,16.2c-2.7,4.9-7.4,4.9-10.1,0.1c-3.8-6.6-4.9-14-5.7-21.4
		C-69.5,433.8-69.5,432.5-68.5,431.5z"/>
	<path fill="#525252" d="M-68.5,431.5c-0.2,8.1,1.5,15.8,4.7,23.1c0.9,2.1,2.1,4.2,4.8,4.2c2.9,0,4.5-1.8,5.3-4.2
		c2.7-7.4,5.6-14.9,3.9-23c0.2-0.6,0.5-0.7,0.9-0.2c2.3,0.8,2,2.7,1.7,4.4c-1.2,7.2-2,14.5-5.7,20.9c-1.4,2.5-0.3,3.1,1.9,3.4
		c-3.9,1.4-8,0.6-12,0.7c-1.2,0-1-0.1-0.8-1.8c0.1-0.8-0.6-1.7-1-2.6c-3.5-6.6-4.4-13.8-5.5-21C-70.6,433.8-70.7,432-68.5,431.5z"/>
	<path fill="#9D9D9D" d="M-48.9,431.3c-0.3,0.1-0.6,0.2-0.9,0.2c-1.1-2-3-3.1-5-4.1c-4.9-1.8-9.1-0.3-12.8,3v0.1
		c-0.3,0-0.7-0.1-1-0.1c0.8-5.8,4.2-8.6,10.2-8.4s9,2.9,9.6,8.5C-48.9,430.8-48.9,431-48.9,431.3z"/>
	<path fill="#404040" d="M-139.2,446c1.1-0.4,2.2-0.7,3.4-1.1c4.9,1,7.4,3.9,6.4,7.8c-1,3.7-3.6,5.3-7.3,4.8
		c-2.4-0.3-4.1-1.9-4.8-4.3C-142.4,450.4-141.7,447.9-139.2,446z"/>
	<path fill="#4B4B4B" d="M-70.4,357.9c0.3,1,0.6,1.9,1,2.9c-1.1,1.4-1,3.1-1.2,4.6c-1.4,7.9-2,8.6-8.1,9.5c-7.9,1.1-13.1-1.2-16-6.5
		c-1.2-2.3-0.1-6.6-4.5-6.4c-4,0.2-2.8,4.2-4.2,6.3c-1.5,2.4-3,4.6-5.9,5.4c-1,0.6-1.8,0.4-2.6-0.5c-0.9-2.2,0.9-3.2,2-4.5
		c1.3-1.5,2.4-3.2,1.4-5.3c-0.9-1.9-2.8-2-4.6-2.1c-2.4-0.1-4.8-0.1-7.2,0.3c-1.8,0.4-3.5,0.3-5.1-0.8c-1.3-1-1.8-2.2-1.2-3.7
		c1-1.8,2.7-2.2,4.5-2.4c1.1-0.1,2.3-0.2,3.4-0.2c13,0.7,25.9,0.7,38.9,0C-76.2,354.4-73.1,355.4-70.4,357.9z"/>
	<path fill="#575757" d="M-111.5,372.8c0.7,0.3,1.4,0.7,2.1,1c-1.5,0.5-3,1.1-4.6,1.4c-9.2,1.5-12.8-1.5-13.4-10.9
		c-0.3-2.1-0.5-4.1-0.8-6.2c0.7-0.6,1.4-0.5,2,0.1c0.7,0.6,1.4,1.3,2.1,1.9c0.4,0.8,1,1.6,1.1,2.6c0.5,5,2.9,7.9,8.3,7.9
		C-113.3,370.5-111.9,371-111.5,372.8z"/>
	<path fill="#EDC39D" d="M-126.2,358.1c-0.7,0-1.3-0.1-2-0.1c0.2-3.6,0.7-7.2,2.3-10.4c1.3-2.6,2.3-6.1,7-4.1
		c1.6,0.7,4.2-1.3,6.4-1.9c3.5-1.1,6.9-2.4,10.6-2.6c0.5,2-2,1.6-1.9,3.2c4.7,0,8.9-1.8,13.1-3.4c8.7-3.3,10.5-2.6,14.2,5.8
		c1.9,4.5,4.8,8.5,6.1,13.3c-9.1-1.2-18.2-1.7-27.2,0.5c-2.6,0.6-5.2-0.4-7.7-0.8C-112.3,356.6-119.3,356.4-126.2,358.1z"/>
	<path fill="#BCDAF4" d="M-67.5,430.5c4-4.5,7.6-5.4,12.8-3C-59.4,426.9-63.5,428.3-67.5,430.5z"/>
	<path fill="#F5F5F5" d="M-135.7,447.2c2.6,0.3,4.1,1.8,4,4.2c-0.1,2.4-1.6,3.8-4.2,3.7c-2.4-0.1-3.6-1.6-3.7-3.8
		C-139.6,448.9-138,447.5-135.7,447.2z"/>
	<path fill="#BBBBBB" d="M-111.5,372.8c-1.3,0-2.6,0-3.9,0c-8.9,0-11.7-4.1-8.7-12.7c4-0.8,8-1.2,12.1-1.1c2.8,0.1,6,0.1,7,3.2
		c1.2,3.4-0.7,6.3-3.2,8.6C-109.2,371.6-110.4,372.1-111.5,372.8z"/>
	<path fill="#BABABA" d="M-83.8,358.9c1.3,0.1,2.6,0.1,3.9,0.2c3.7,0.4,7.2,0.7,6.7,6.1c-0.6,5.9-1.6,7.2-7.3,7.5
		c-4.6,0.2-8.9-0.2-11.6-4.5c-3.1-5-1.4-8.6,4.4-9.2C-86.4,358.9-85.1,359-83.8,358.9C-83.8,359-83.8,359-83.8,358.9z"/>
	<path fill="#FEFEFE" d="M-61.3,445.9c0-0.1,0-0.3,0-0.4c0-1,0.2-2.1-0.2-2.8c-0.5-0.8-1.8-0.3-2.7-0.4c-1.5-0.2-2.5-1.3-2.5-2.7
		c0-1.4,1.1-2.5,2.6-2.6c0.9-0.1,2,0.4,2.6-0.3c0.6-0.7,0.2-1.8,0.2-2.7c0.1-1.4,1.1-2.4,2.6-2.4c1.4,0,2.5,0.9,2.7,2.3
		c0.1,0.9-0.4,2.1,0.3,2.8c0.7,0.6,1.9,0.1,2.8,0.3c1.3,0.2,2.3,1.3,2.3,2.6c0,1.4-0.9,2.4-2.3,2.7c-0.9,0.2-2.1-0.4-2.8,0.3
		c-0.6,0.7-0.1,1.8-0.3,2.8c-0.3,2.3-2.6,3-4.6,1.5C-61.1,446.6-61.4,446.4-61.3,445.9z"/>
</g>
</svg>
