<?xml version="1.0" encoding="utf-8"?>
<!-- Generator: Adobe Illustrator 21.1.0, SVG Export Plug-In . SVG Version: 6.00 Build 0)  -->
<svg version="1.1" id="Layer_1" xmlns="http://www.w3.org/2000/svg" xmlns:xlink="http://www.w3.org/1999/xlink" x="0px" y="0px"
	 viewBox="-470 4834.5 206.5 206.5" enable-background="new -470 4834.5 206.5 206.5" xml:space="preserve">
<g>
	<circle fill="#77CBC7" cx="-366.7" cy="4937.7" r="103.2"/>
	<path fill="#62BAB3" d="M-366.7,4834.5L-366.7,4834.5V5041l0,0c57,0,103.2-46.2,103.2-103.2
		C-263.5,4880.7-309.7,4834.5-366.7,4834.5z"/>
</g>
<g>
	<path fill="#FBAF40" d="M-328.9,4961.4c16.2,5.1,23.5,16.6,24,33c0.1,2.1,0.1,4.4,1.9,6c-13.2,12.5-29.2,19.1-46.7,22.8
		c-1.8,0.4-3.7,0.8-5.5,1.2c-4.2-0.5-8.5-0.8-12.7,0.2c-1.2,0-2.4,0-3.5,0c-4.2-1-8.4-0.7-12.7-0.2c-19.4-3.5-37.5-10-52.2-23.9
		c2.6-4.3,2.9-9.1,3.3-13.9c0.9-10.7,5.9-18.1,16.1-21.9c2.2-0.8,4.3-2.2,6.4-3.3c4.3-4.2,9.4-5.9,15.3-4.5c3.1,1.9,1.5,4.3,0.1,6.1
		c-2.8,3.6-0.6,5.6,1.6,8.2c5,5.9,12.3,7,18.8,9.7c1.7,1.9,2.5,4.6,4.4,6.5c3.6-0.8,3.4-4.6,5.5-6.4c5.6-3.3,12.8-3.1,17.7-8.6
		c3-3.4,6.2-6,2.2-10.7c-1.2-1.4-1.6-3.5,0.7-4.8C-338.3,4955.4-333.3,4957.2-328.9,4961.4z"/>
	<path fill="#4A6866" d="M-384.2,5024.3c4.3-1.8,8.5-1.9,12.7,0.2C-375.7,5024.5-380,5024.4-384.2,5024.3z"/>
	<path fill="#4A6866" d="M-368,5024.5c4.2-2.1,8.4-2,12.7-0.2C-359.5,5024.4-363.7,5024.5-368,5024.5z"/>
	<path fill="#1A1A1A" d="M-407.1,4893.2c0-8.1,0-16.2,1.6-24.2c3.3-16.7,14.3-26.1,31.2-27.7c30.6-2.8,40.3,14,41.7,38.7
		c0.3,4.8,1,9.7-0.4,14.5c-1.2,1.4-2.6,2.4-4.5,2.8c-1.6,0.1-3-0.5-4.2-1.5c-1-1.2-1.8-2.5-2.6-3.9c-3.2-6.2-5.9-12.7-9.1-18.9
		c-2-4-4.7-5.4-9.1-4.4c-3.9,0.9-7.9,1.8-11.9,2.4c-11.7,1.7-18.7,8.7-22.4,19.5c-1.3,1.9-2,4.3-4.4,5.1c-1.6,0.4-3.1,0-4.5-0.7
		C-406.3,4894.4-406.8,4893.9-407.1,4893.2z"/>
	<path fill="#1A1B1A" d="M-406.3,4904.1c5.5,12.6,12.1,24.5,21.5,34.7c3.4,4.1,4.8,8.5,2.5,13.6c-3.5,2.9-6.4,6.9-11.8,5.8
		c-5.5,0.9-10.7,3.4-16.4,3.2c0.7-17.2,1.4-34.5,2.1-51.7C-407.2,4908-409,4905.2-406.3,4904.1z"/>
	<path fill="#1A1B1B" d="M-354.7,4938.8c9.4-9.4,14.7-21.4,21.1-32.8c4,1,0.8,4.8,2.5,6.7c0.7,16.2,1.4,32.4,2.1,48.6
		c-5.7,0.2-10.9-2.3-16.4-3.2c-5.4,1.1-8.3-3-11.8-5.8C-359.5,4947.4-358.1,4942.9-354.7,4938.8z"/>
	<path fill="#3A8574" d="M-406.3,4904.1c-0.7,1.9-1.4,3.7-2.2,5.6c-0.2-5.5-1.5-11.2,1.3-16.5c0.5,0,0.8,0.3,1,0.7
		C-407.5,4897.3-406.4,4900.7-406.3,4904.1z"/>
	<path fill="#406A5B" d="M-331,4912.8c-0.8-2.2-1.7-4.5-2.5-6.7c0.3-1.2,0.7-2.4,1-3.6c0.9-0.6,1.4-0.4,1.7,0.6
		C-330.9,4906.3-331,4909.5-331,4912.8z"/>
	<path fill="#3C8C79" d="M-330.9,4903c-0.6-0.2-1.1-0.4-1.7-0.6c-0.1-2.5-0.1-5-0.2-7.5C-329.9,4897-330.9,4900.2-330.9,4903z"/>
	<path fill="#D7D9DD" d="M-354.9,4953.1c4.6-0.9,6.3,3.6,9.7,5.1c8.9,8.6,8.4,8.1-0.7,17.3c-5.2,5.2-10.9,6.3-17.4,6.9
		c-1.5,0.3-2.2-0.5-2.8-1.6C-366,4970.2-359.4,4962.1-354.9,4953.1z"/>
	<path fill="#D7D9DD" d="M-394.2,4958.2c3.3-1.5,5-6,9.7-5.1c4.5,8.9,11,17,11.3,27.7c-0.6,1.1-1.4,2-2.8,1.6
		c-9.7,1.4-15-5.7-21.5-10.8c-4.8-3.7-5.8-6.6-0.1-10.1C-396.3,4960.7-395.3,4959.4-394.2,4958.2z"/>
	<path fill="#D0D0D1" d="M-376,4982.5c0.5-0.6,1-1.2,1.5-1.7c3.2-0.2,6.4-0.2,9.6,0c0.5,0.6,1,1.1,1.5,1.7
		c-1.3,4.1-3.2,7.9-6.2,11.9C-372.9,4990.8-374.5,4986.7-376,4982.5z"/>
	<path fill="#ECB081" d="M-332.8,4894.9c0,0-0.2-0.4-0.2-0.4c-1-0.8-2.1-2.3-2.9-2.2c-1.6,0.4-1.3,2-1.5,3.4c-1,0-2,0-3,0
		c1-1.9,0.8-4.4-0.6-6c-0.8-2-2.3-3.7-3.4-5.6c-0.2-0.4-0.3-0.8-0.5-1.2c-8.6-20.5-8.5-20.2-30.1-15.5c-12.8,2.8-21.9,8.8-24.2,22.5
		c-0.3,2-1.4,4.3-0.4,5.9c-0.9-0.3-1.7-0.6-2.5-1.1c-0.6-4.3-2.4-2.6-4.1-0.8c-3.4,3.5-1.2,7.5-1,11.4c3.1,14.4,10.5,26.3,21.5,36.1
		c10.7,8.4,21.3,8.5,31.9-0.2c11.4-8.9,16.5-21.6,21.4-34.5c-0.1-1.7,0.6-3.2,0.8-4.8C-332,4899.5-330.4,4896.8-332.8,4894.9z"/>
	<path fill="#DAA079" d="M-364.9,4980.8c-3.2,6.7-6.4,6.7-9.6,0c-2.9-6.2-5.6-12.5-8.7-18.6c-1.6-3-1.9-5.9-1.2-9.1
		c1-4.8,0.3-9.5-0.3-14.3c10.1,7.4,20.1,7.5,30.1,0c-0.5,4.8-1.3,9.5-0.3,14.3c1.9,6.1-2.4,10.4-4.5,15.4
		C-361.2,4972.6-363.1,4976.7-364.9,4980.8z"/>
	<path fill="#BD6D58" d="M-369.8,4932.4c-1.3-0.2-3-0.3-4.4-0.9c-1.8-0.8-4.7-1.3-4.1-4.1c0.5-2.3,3.1-1.7,4.9-1.8
		c1.6-0.1,3.3-0.1,4.9,0.1c2.7,0.3,7.2-1.4,7.1,2.6C-361.7,4931.7-366.3,4932-369.8,4932.4z"/>
</g>
</svg>
