<?xml version="1.0" encoding="utf-8"?>
<!-- Generator: Adobe Illustrator 19.1.0, SVG Export Plug-In . SVG Version: 6.00 Build 0)  -->
<svg version="1.1" id="Layer_1" xmlns="http://www.w3.org/2000/svg" xmlns:xlink="http://www.w3.org/1999/xlink" x="0px" y="0px"
	 viewBox="-202 293.5 206.5 206.5" enable-background="new -202 293.5 206.5 206.5" xml:space="preserve">
<g>
	<g>
		<circle fill="#77CBC7" cx="-98.8" cy="396.8" r="103.2"/>
		<path fill="#62BAB3" d="M-98.8,293.5L-98.8,293.5V500l0,0c57,0,103.2-46.2,103.2-103.2C4.5,339.7-41.7,293.5-98.8,293.5z"/>
	</g>
</g>
<g>
	<path fill="#364A62" d="M-75.9,329.3c30.9,0,30.9,0,30.9,30.9c0,34.2-0.2,68.5,0.1,102.7c0.1,9.2-2.9,12.7-12.4,12.5
		c-28.1-0.5-56.1-0.4-84.2,0c-8.6,0.1-11.3-3.1-11.3-11.5c0.3-41.1,0.2-82.2,0-123.2c-0.1-8.5,3.3-11.8,11.6-11.4
		c6.5,0.4,13,0.1,19.5,0.2c3.6,4.4,0,6.4-2.8,9c-3.6,3.3-8.9,3.3-12.2,6.9c-3.6,3.8-4.2,8.5-4.2,13.4c-0.4,29.1-1.1,58.3,0,87.4
		c0.5,13.8,4.2,17.6,18.1,17.8c16.1,0.3,32.2,0.3,48.3,0c13.6-0.3,17.2-4.3,18-18.1c1.5-28.8,0.2-57.7,0-86.5
		c0-5.2-0.4-10.3-4.5-14.2c-2.8-2.7-7-2.6-9.9-4.8C-74.4,337.6-79.9,335.5-75.9,329.3z"/>
	<path fill="#EBA255" d="M-142,337.2c3.7-2.4,7.9-1.8,12-2c4.1-0.2,7.5-1.1,8.4-5.8c6-1.2,12.1-1.8,16.5-6.9
		c3.5-4.1,8.2-3.9,11.7-0.4c5,4.9,11.1,6.2,17.5,7.2c0.9,5,4.7,5.8,8.9,5.9c3.9,0.1,8-0.3,11.5,2c-4.6,7.5-12.8,4.4-19.2,6.4
		c-4.2,1.3-8.7,0.8-13.1,0.4c-11.3-3.6-22.6,1.2-34,0C-128.5,341.8-137,344.8-142,337.2z"/>
	<path fill="#FDFDFD" d="M-88.5,339.3c11.2,2.1,21.9-3.7,33-2.1c4,2.7,3.9,6.8,3.9,11c0,36-0.2,72,0.1,108c0.1,8.7-3.1,12.5-12,12.4
		c-23.6-0.3-47.3-0.2-71,0c-8.1,0.1-11.8-2.9-11.7-11.5c0.3-36.7,0.1-73.4,0.1-110c0-3.9,0.3-7.6,4-9.9c6.9,0.3,14-0.4,20.7,2.1
		C-110.3,337.8-99.4,337.8-88.5,339.3z"/>
	<path fill="#EBA255" d="M-88.5,339.3c-10.9,0-21.9,0-32.8,0C-110.3,336.2-99.4,336.2-88.5,339.3z"/>
	<path fill="#D5D5D5" d="M-98,394.9c-9.9,0-19.8,0.1-29.8,0c-3.8,0-8.3-0.4-8.3-5.4c0-4.7,4.5-4.6,7.8-4.6c19.8-0.1,39.7-0.1,59.5,0
		c3.4,0,7.7,0.3,7.8,4.8c0.1,5.2-4.7,5.2-8.4,5.2C-78.8,395-88.4,394.9-98,394.9z"/>
	<path fill="#D5D5D5" d="M-97.7,429c-10.2,0-20.5,0.3-30.7-0.2c-3.1-0.1-7.7-0.7-7.3-5.4c0.3-4.1,4.4-3.7,7.3-3.8
		c20.2-0.1,40.4-0.1,60.5,0c3,0,6.9-0.1,7.1,4.1c0.2,4.5-3.8,5.5-7.2,5.6c-9.9,0.3-19.8,0.1-29.7,0.1
		C-97.7,429.3-97.7,429.2-97.7,429z"/>
	<path fill="#D3D3D3" d="M-97.7,411.3c-10.6,0-21.2,0.1-31.8-0.1c-2.7,0-6.1-0.1-6.3-3.8c-0.2-3.8,3.2-4.1,5.9-4.1
		c20.9-0.1,41.8-0.1,62.7-0.1c2.7,0,6.2,0.2,6.2,3.8c0,4.4-3.9,4.2-6.9,4.2C-77.8,411.5-87.7,411.4-97.7,411.3
		C-97.7,411.3-97.7,411.3-97.7,411.3z"/>
	<path fill="#DA163E" d="M-98.5,346c7.7,0.2,14.3,7,14.2,14.7c-0.1,8.5-6.7,14.6-15.4,14.2c-8.3-0.3-13.9-6.4-13.5-14.8
		C-112.8,352.3-106,345.8-98.5,346z"/>
	<path fill="#E8E8E8" d="M-91,360.7c0.6,6-3.6,8.6-7.9,8.5c-4.4-0.1-7.7-2.8-7.8-8.6c-0.1-6.2,3.3-8.2,8-8
		C-94.2,352.8-89.9,354.7-91,360.7z"/>
</g>
</svg>
