<?xml version="1.0" encoding="utf-8"?>
<!-- Generator: Adobe Illustrator 19.1.0, SVG Export Plug-In . SVG Version: 6.00 Build 0)  -->
<svg version="1.1" id="Layer_1" xmlns="http://www.w3.org/2000/svg" xmlns:xlink="http://www.w3.org/1999/xlink" x="0px" y="0px"
	 viewBox="-202 293.5 206.5 206.5" enable-background="new -202 293.5 206.5 206.5" xml:space="preserve">
<g>
	<g>
		<circle fill="#77CBC7" cx="-98.8" cy="396.8" r="103.2"/>
		<path fill="#62BAB3" d="M-98.8,293.5L-98.8,293.5V500l0,0c57,0,103.2-46.2,103.2-103.2C4.5,339.7-41.7,293.5-98.8,293.5z"/>
	</g>
</g>
<g>
	<path fill="#FEFEFE" d="M-100.3,460.4c-18.5,0.1-37,0.1-55.5,0.2c-1.5-0.1-2-1.1-2.5-2.2c-1.6-1.5-1.1-3.5-1.1-5.3
		c0-9.1,0-18.3,0-27.4c0-0.7,0.2-1.3,0.7-1.7c0.5-0.4,1.1-0.7,1.8-0.8c24.3-0.2,48.6-0.5,72.9,0.1c1.4,0.4,2.2,1.4,2.6,2.7
		c0.2,2.8,0.5,5.5-0.2,8.3c-1.9,3-4.9,2.7-7.7,2.6c-7.6-0.3-12.4,3.4-15.3,10.2c-0.2,1.5,0.1,2.9,0.4,4.3
		C-104.5,455.1-99.6,456.5-100.3,460.4z"/>
	<path fill="#FEFEFE" d="M-87.8,329.9c0,5.6,0,11.1,0,16.7c0,1.9,0.1,3.7-1.1,5.3c-1.1,1.3-2.5,2-4,2.6c-18.3,0.6-36.5,0.3-54.8,0.2
		c-0.9,0-1.7-0.2-2.5-0.6c-1.3-0.5-2-1.7-3-2.6c-2-2.9-1.1-6.2-1-9.3c0.1-4.4-1.2-8.9,0.8-13.3c1.9-1.5,4.1-1.5,6.3-1.5
		c17.5,0,35,0,52.5,0C-92,327.4-89.4,327.1-87.8,329.9z"/>
	<path fill="#FEFEFE" d="M-85.9,357.9c1,1,1.9,1.9,2.9,2.9c1.7,4.2,0.4,8.6,0.7,12.9c-0.3,0.6-0.7,1.1-1.2,1.4
		c-1.3,0.6-2.7,0.5-4,0.5c-22.2,0-44.4,0-66.7,0c-1.2,0-2.4,0-3.5-0.4c-0.6-0.3-1.1-0.7-1.4-1.3c0.2-4.4-1.1-8.8,0.7-13.1
		c0.9-0.8,1.3-2.2,2.8-2.2c3.2-1.4,6.5-2.1,9.9-2.1c18.1,0,36.3,0,54.4,0C-89.8,357.6-87.5,356.4-85.9,357.9z"/>
	<path fill="#DCDCDC" d="M-91.1,357.6c-1.4,0.8-2.9,1-4.4,1c-20.1-0.1-40.2-0.1-60.2-0.1c0-0.2,0-0.4,0-0.7c3.4-0.2,3.2-3.6,5-5.3
		c19.7,0,39.3,0.1,59,0.1C-89.9,354.1-90.1,355.8-91.1,357.6z"/>
	<path fill="#A0DCF6" d="M-75.6,396.8c9.6,3,14.1,11.7,20.5,18.3c-1.2,5.6-5.1,8.6-10.1,10.4c-2.4-0.1-4.1-1.6-5.5-3.3
		c-4.6-5.7-10-10.6-15.1-15.9c-1.6-1.7-3.4-3.5-2.9-6.2c0.3-1.1,1-1.9,1.8-2.5c0.9-0.5,1.8-1,2.8-1.4c0.8-0.3,1.5-0.4,2.3-0.1
		C-79.8,396.6-77.6,395.6-75.6,396.8z"/>
	<path fill="#A0DCF6" d="M-40.7,448.1c0,8.2-5.5,14.1-13.4,14.1c-6.5-0.1-12.9-0.5-19.4-0.7c-2.6-4.5-2.1-9.1-0.4-13.8
		c1.5-1.3,3.3-1.6,5.2-1.7c7.5-0.1,15-0.1,22.5,0C-44,446-42.1,446.3-40.7,448.1z"/>
	<path fill="#E3524E" d="M-100.3,460.4c-2.3-2.5-6.1-3.9-6-8.2c0.9-1.9-0.5-4.4,1.4-6.1c6.9-2.5,14.1-0.8,21.1-1
		c9.8,1.9,9.8,1.9,9.7,11.7c0,1.2,0.1,2.4-0.2,3.5c-4.5,1.7-9.4-0.3-13.8,1.6c-3.1-0.1-6.2,0.8-9.2-0.5
		C-98.2,461.1-99.2,460.7-100.3,460.4z"/>
	<path fill="#76BAD5" d="M-40.7,448.1c-10.8,0-21.6,0-32.4-0.1c-0.6-0.2-1-0.6-1.4-1.1c-0.3-0.5-0.4-1.1-0.5-1.7
		c0.2-3.3-0.9-6.7,0.9-9.9c0.5-0.5,1-0.8,1.6-1c5.6-1.8,11.3,0.2,16.9-0.7c4.5-0.2,8.8,0.3,12.3,3.4c3.2,2.8,5,5.9,2.9,10.2
		C-40.4,447.5-40.5,447.8-40.7,448.1z"/>
	<path fill="#E3524E" d="M-40.3,447.2c-1.6-8.6-4.6-11-14.8-11.6c-5.4-1.2-8.2-5.4-10.7-9.8c0-0.5,0.1-0.9,0.5-1.3
		c3.4-3.2,6.8-6.3,10.1-9.5c5.2,5.4,10.5,10.6,15.4,16.2C-35.1,436.6-35.6,441.9-40.3,447.2z"/>
	<path fill="#E24840" d="M-73.5,447.1c0.1,0.3,0.3,0.7,0.4,1c-0.1,4.5-0.2,8.9-0.4,13.4c-0.4,0-0.7,0-1.1,0c-0.7-0.3-0.7-0.6,0-0.9
		c-0.1-3.5,0.6-7.3-0.4-10.5c-1.3-3.9-6.3-0.4-8.8-2.8C-80.4,443.7-77,444.5-73.5,447.1z"/>
	<path fill="#E34C50" d="M-74.5,460.5c0,0.3,0,0.6,0,0.9c-3.5,0.1-6.9,0.1-10.4,0.2c-1,0.4-2.1,0.7-3-0.3
		C-83.5,459.6-79,460.9-74.5,460.5z"/>
	<path fill="#76BAD5" d="M-65.3,424.6c0,0.3-0.1,0.6-0.1,0.8c-0.6,4.8-4,7.1-8.1,8.7c-4.2,0.5-6.3-2.1-8-5.3c-0.2-1-0.8-1.9-1.2-2.8
		c-0.1-0.5-0.3-1-0.4-1.5c-1.3-0.8-2.6-1.4-3.8-2.3c-3.9-2.8-6.5-6.5-7.4-11.2c-0.1-1.1-0.1-2.1,0-3.2c1.3-3.3,1-8,6.5-7.9
		c0.1,2.1,1.8,3.2,3.1,4.5C-78.3,411.2-71.8,417.9-65.3,424.6z"/>
	<path fill="#C33E28" d="M-73.5,447.1c-3.4,0-6.9,0.1-10.3,0.1c-7.2,0-14.4,0-21.6,0c-0.4,0.6-0.7,0.6-0.9-0.1
		c0.9-6.9,6.4-12.1,13.1-12.3c3.4-0.1,6.8-0.1,10.2-0.1c0.5-0.4,1-0.7,1.5-1c2.8-0.7,5.2,0,7.3,2c0.7,3.4-0.5,6.9,0.7,10.3
		C-73.3,446.4-73.3,446.7-73.5,447.1z"/>
	<path fill="#CD682A" d="M-82.7,395.7c0,0.4,0,0.7,0,1.1c-0.4,0.2-0.7,0.4-1.1,0.7c-1.7-1.2-1.5-3-1.5-4.6c-0.1-1.7,0-3.4,0-5.1
		c-0.1-8.9-2.1-10.9-10.8-11c-9.1-0.1-18.1,0-27.2,0c-7.7,0-15.4-0.1-23.1,0c-7.6,0.1-9.7,2.2-9.9,9.8c-0.3,12.1,0.5,24.3-0.4,36.4
		c-0.3,0.6-0.7,1.1-1.1,1.5c-0.2,0.2-0.4,0.3-0.7,0.3c0-16.9,0-33.8,0-50.6c25.2,0.2,50.4,0.7,75.6-0.2
		C-82.9,381.2-82.8,388.4-82.7,395.7z"/>
	<path fill="#BF2B03" d="M-157.8,424.4c0-0.3,0-0.7,0.1-1c0.4-0.5,0.9-0.9,1.5-1.2c2-1.2,4.3-1,6.5-1c9.2,0.1,18.4,0.3,27.6,0.4
		c10.4,0.2,20.8-0.5,31.1-0.5c1.7,0,3.4-0.4,5.1,0.3c0.9,1,1.8,2,2.8,3C-108.1,424.5-132.9,424.5-157.8,424.4z"/>
	<path fill="#E7463E" d="M-106.3,447.1c0.3,0,0.6,0,0.9,0.1c-0.1,1.7,0.3,3.5-0.9,5C-106.6,450.5-106.8,448.8-106.3,447.1z"/>
	<path fill="#DBDBDB" d="M-100.3,345c-1.5-3.9-0.9-7.9-0.4-11.8C-98.6,337-99.2,341-100.3,345z"/>
	<path fill="#DBDBDB" d="M-134.1,333.2c1.3,3.9,1.3,7.9,0.2,11.8C-135.8,341.2-135.3,337.2-134.1,333.2z"/>
	<path fill="#DBDBDB" d="M-106.7,333.2c0,4,0,7.9,0,11.9c-2.3-3.9-1.8-7.9-1.4-11.9C-107.6,333.2-107.2,333.2-106.7,333.2z"/>
	<path fill="#DBDBDB" d="M-113.9,333.2c1.3,4,1.8,8-0.1,13.2C-115.2,341.1-114.6,337.1-113.9,333.2z"/>
	<path fill="#DBDBDB" d="M-120.8,333.2c1.2,3.9,1.2,7.9,0.2,11.9C-122.4,341.2-121.8,337.2-120.8,333.2z"/>
	<path fill="#DCDCDC" d="M-140.7,333.2c1.8,3.7,1.3,7.4,0.6,11.1C-142.3,340.7-141,336.9-140.7,333.2z"/>
	<path fill="#DBDBDB" d="M-94.2,344.3c-1.2-3.7-1.1-7.5,0-11.1C-92.7,336.9-92.7,340.6-94.2,344.3z"/>
	<path fill="#DBDBDB" d="M-126.9,344.3c-1.3-3.7-1.4-7.5-0.3-12.7C-125.4,336.9-125.9,340.6-126.9,344.3z"/>
	<path fill="#DBDBDB" d="M-146.7,333.5c0,3.7,0,7.3,0,11c-0.2,0-0.3,0-0.5,0c0-3.6,0-7.2,0-10.9
		C-147.1,333.6-146.9,333.6-146.7,333.5z"/>
	<path fill="#C33E28" d="M-86,421.5c-0.5,2.4-2.4,2-4.1,2c-22.2,0-44.5,0-66.7-0.1c-1.2-6.4-0.3-12.9-0.5-19.4
		c-0.2-8.2,0.1-16.4-0.1-24.6c-0.1-2.9,0.8-3.9,3.7-3.8c21.9,0.1,43.7,0.1,65.6,0c2.9,0,3.9,0.9,3.8,3.8c-0.2,4.8-0.1,9.6,0,14.4
		c0,1.8-0.3,3.4-1.6,4.7c-0.7,0.5-1.3,1-2,1.5c-3.3,1.8-3.5,5.5-5,8.3c-1.1,0.9-1.1,1.7,0,2.6C-91.7,415.1-88.7,418.2-86,421.5z"/>
	<path fill="#C1392A" d="M-85.9,398.4c2-6.4,0.8-12.9,0.9-19.4c0.1-3.4-2.8-2.9-4.9-2.9c-13.7,0-27.4,0-41.1,0c-6.3,0-12.7,0-19,0
		c-6.9,0-6.9,0-6.9,6.7c0,13.5,0,27,0,40.6c-0.3,0-0.6,0.1-0.9,0.1c0-14.5,0-29.1-0.2-43.6c0-3.6,1.3-4.7,4.8-4.7
		c21.6,0.1,43.1,0.1,64.7,0c3.7,0,4.7,1.4,4.6,4.9c-0.2,5.8,0,11.6,0,17.5C-84.5,397.8-85.2,398.1-85.9,398.4z"/>
	<path fill="#C23F2A" d="M-74,433.2c2.8-2.6,5.7-5.2,8.5-7.8c4.3,2.6,6.6,7.2,10.4,10.3c-5.9-0.1-11.8-0.1-17.6-0.2
		C-73.8,435.1-74.3,434.4-74,433.2z"/>
	<path fill="#C1351B" d="M-74.5,435.8c0.5,0,0.9,0,1.4,0c-0.1,3.4-0.2,6.9-0.4,10.3C-75.5,442.8-74.1,439.2-74.5,435.8z"/>
	<path fill="#C2361C" d="M-92.9,410.9c-1.5,0.6-1.2-0.6-1.2-1.3c0-0.7-0.3-1.8,1.1-1.3C-92.9,409.1-92.9,410-92.9,410.9z"/>
	<path fill="#FEFDFD" d="M-125.2,405c-4.6-1.6-9.4,0.3-14-1.1c-0.9-3.1-1.2-6.2,0.2-9.3l-0.3-0.1l-0.1,0.3c3-1.5,6.3-0.3,9.4-0.7
		c1.5-0.2,3.4,0.9,4.5-1.1c0.4-4.2-0.6-8.6,0.6-12.8c3.4-0.7,6.8-0.8,10.2,0c1.1,3.1,0.6,6.4,0.4,9.5c-0.2,3.7,1.2,4.6,4.7,4.5
		c3.5-0.1,7-0.8,10.4,0.6l-0.1-0.3l-0.3,0c1.3,3.1,1,6.2,0.2,9.3c-4.9,1.4-10.1-0.5-15,1.1c0.1,4.8,0.9,9.6-0.4,14.4l0.2-0.2
		c-3.4,1.1-6.9,1.2-10.3-0.1l0,0.3l0.3,0C-126.2,414.6-125.3,409.8-125.2,405z"/>
	<path fill="#BF2400" d="M-99.2,394.8c-4-0.1-8.1-0.3-12.1-0.1c-2.6,0.1-3.6-0.6-3.4-3.3c0.2-3.7,0.1-7.4,0.1-11.1
		c1.9,2.6,1,5.7,0.9,8.5c-0.1,3.9,1.4,5,5.1,5C-105.5,393.7-102.1,392.6-99.2,394.8z"/>
	<path fill="#C02A08" d="M-125.2,405c0.2,4.8,0.3,9.6,0.5,14.4c-2.6-4.2-0.6-8.9-1.3-13.4c-0.2-0.2-0.4-0.4-0.6-0.6
		c0.3-0.1,0.5-0.1,0.8-0.2C-125.6,405.2-125.4,405.1-125.2,405z"/>
	<path fill="#C1351B" d="M-113.8,405.3c4.2,0,8.5,0,12.7,0c0,0.2,0,0.5,0,0.7c-4.2,0-8.3,0-12.5,0c-0.3-0.1-0.4-0.2-0.4-0.4
		C-113.9,405.4-113.9,405.3-113.8,405.3z"/>
	<path fill="#BF2800" d="M-113.8,405.3c0.1,0.2,0.2,0.5,0.2,0.7c-0.7,4.4,1.2,9.1-1.2,13.4c0.1-4.8,0.3-9.6,0.4-14.4
		C-114.2,405.1-114,405.2-113.8,405.3z"/>
	<path fill="#BE2100" d="M-125,393.6c-4.6,2.3-9.6,0.3-14.4,1.2c4.3-2.4,8.9-0.7,13.4-1.2C-125.7,392.9-125.3,392.9-125,393.6z"/>
	<path fill="#C02B08" d="M-125,393.6c-0.3,0-0.7,0-1,0c0.6-4.4-1.2-9.1,1.1-13.3C-124.9,384.7-125,389.2-125,393.6z"/>
	<path fill="#C1351B" d="M-125.8,405.2c-0.1,0.2-0.1,0.5-0.2,0.8c-3.9,0-7.8,0-11.6,0c0-0.3,0-0.5,0-0.8
		C-133.7,405.2-129.8,405.2-125.8,405.2z"/>
	<path fill="#C1351B" d="M-116.5,378.5c-2.1,0.8-4.4,0.8-6.8,0C-121,378.5-118.8,378.5-116.5,378.5z"/>
	<path fill="#C1351B" d="M-125,419.1c3.4,0,6.9,0,10.3,0.1C-118.1,421-121.5,421.1-125,419.1z"/>
	<path fill="#C02B08" d="M-139.1,394.6c-0.1,3.1-0.1,6.2-0.2,9.3C-141,400.8-141.1,397.7-139.1,394.6z"/>
	<path fill="#C02B08" d="M-99.3,403.9c-0.1-3.1-0.1-6.2-0.2-9.3C-97.5,397.7-97.6,400.8-99.3,403.9z"/>
</g>
</svg>
