<?xml version="1.0" encoding="utf-8"?>
<!-- Generator: Adobe Illustrator 19.1.0, SVG Export Plug-In . SVG Version: 6.00 Build 0)  -->
<svg version="1.1" id="Camada_2" xmlns="http://www.w3.org/2000/svg" xmlns:xlink="http://www.w3.org/1999/xlink" x="0px" y="0px"
	 viewBox="-91 59 427.4 676" enable-background="new -91 59 427.4 676" xml:space="preserve">
<g>
	<path fill="#FFFFFF" d="M122.7,217.1c-99.4,0-179.9,80.5-179.9,179.9s80.5,179.9,179.9,179.9S302.6,496.4,302.6,397
		S222.1,217.1,122.7,217.1z M122.7,565.2c-92.9,0-168.2-75.3-168.2-168.2s75.3-168.2,168.2-168.2S290.9,304.1,290.9,397
		S215.6,565.2,122.7,565.2z"/>
	<circle fill="#FFFFFF" cx="122.7" cy="346.1" r="38.4"/>
	<path fill="#FFFFFF" d="M53.9,485.8c0-38,30.8-68.8,68.8-68.8c38,0,68.8,30.8,68.8,68.8c0.9,2.9,3.7,4.8,6.7,4.8
		c2.9-0.1,5.5-2,6.4-4.8c0-44.9-37-81.9-81.9-81.9c-45.2,0-81.9,36.7-81.9,81.9c1.1,2.6,3.7,4.3,6.5,4.4
		C50.2,490.2,52.8,488.5,53.9,485.8z"/>
</g>
</svg>
