<?xml version="1.0" encoding="utf-8"?>
<!-- Generator: Adobe Illustrator 21.1.0, SVG Export Plug-In . SVG Version: 6.00 Build 0)  -->
<svg version="1.1" id="Layer_1" xmlns="http://www.w3.org/2000/svg" xmlns:xlink="http://www.w3.org/1999/xlink" x="0px" y="0px"
	 viewBox="-1439 3772.5 206.5 206.5" enable-background="new -1439 3772.5 206.5 206.5" xml:space="preserve">
<g>
	<circle fill="#77CBC7" cx="-1335.8" cy="3875.8" r="103.2"/>
	<path fill="#62BAB3" d="M-1335.8,3772.5L-1335.8,3772.5V3979l0,0c57,0,103.2-46.2,103.2-103.2
		C-1232.5,3818.7-1278.7,3772.5-1335.8,3772.5z"/>
</g>
<g>
	<path fill="#FBD069" d="M-1327,3859.9c2.7,2.4,7.5,1.6,8.8,6.1c2.4,3.2,2.1,6.9,1.7,10.6c-0.6,3.1-1.3,6.1-1.2,9.3
		c0,1.2,0,2.4,0,3.6c0,6.6-1.8,13.1-0.2,19.8c0.6,2.4,0.4,5.3-2.2,7.1c-3-0.7-5.9-0.9-9.1-0.5c-6.2,0.7-12.4,0.1-17.2-4.8
		c-3-8.6-0.4-17.4-1.4-26c-1-3.5,1.7-7.1,0-10.6c-0.3-3.3-1.6-6.3-3.4-9c3.3-1.9,6.1-4.5,9.8-5.6c0.3,0.1,0.6,0.1,1,0.2
		c3.9,1.9,7.8,3,11.7-0.3C-1328.1,3859.3-1327.5,3859.4-1327,3859.9z"/>
	<path fill="#2E2321" d="M-1360.4,3800.5c0.9-1.1,1.9-2,1.8-3.7c-0.3-6,3.2-8.3,8.6-9.5c10-2.3,19.3-2.5,27.6,5
		c3,2.7,6.6,4.7,10.8,5.3c2.8,0.4,4.2,4.1,2.7,6.6c-2.5,4.2-2.5,4.2-6.4,5.5c-3.2,2.4-6.8,3.4-10.8,3.2c-7.2-0.4-14.3,1.3-21.5,1.4
		C-1351.1,3808.9-1356.9,3805.8-1360.4,3800.5z"/>
	<path fill="#F0CEBA" d="M-1348.4,3813.9c1.3-0.7,1-2.8,3.5-2.8c9.9,0.2,19.8,0,29.6-1.5c-1.8,2.2-1.5,4.9-1.5,7.5
		c0,7.6-0.1,15.2-0.2,22.8c-8.2,2.9-17,1-25.3,3.4c-2.1,0.6-4.5-1.1-5.1-3.2C-1349.8,3831.5-1353.1,3822.8-1348.4,3813.9z"/>
	<path fill="#282A2C" d="M-1330.5,3968.5c-2.2-0.1-4.4-0.2-6.6-0.3c-6.2-0.9-6.2-0.9-4.9-6.7c2.3-10.7,2.8-21.4,0.6-32.1
		c-0.3-1.6-0.4-3.8-1.4-4.7c-3.5-3.3-2.5-7.5-3-11.4c-0.5-0.7-0.3-1.1,0.4-1.4c2-0.3,3.6,0.7,5.5,1.1c5.1,1.3,10.2,2.3,15.2,0
		c3.3-1.5,3.6,0.3,3.8,2.7c4.1,3.5,3.4,8.1,3.2,12.7c-0.1,2.6,0,5.3,0,7.9c0,1.2,0,2.5,0,3.7c-0.4,4.5-2.1,7.3-7.3,5.7
		c-2.6-2.1-2.2-5.1-2.4-7.9c-0.2-3.1,0.1-6.2-0.8-9.3c-0.4-1.3-0.7-3.2-2.4-3c-0.9,0.1-1.2,1.9-1.4,3c-0.4,2.8-1.4,16.3-2.8,34.3
		c0.4,0.3,1.1,0.8,1.9,1.3c1.8,1.1,2.8,1.3,3.1,2.1C-1329.7,3966.7-1329.7,3967.4-1330.5,3968.5z"/>
	<path fill="#2E2321" d="M-1348.4,3813.9c0.2,7.2-0.2,14.3,1.1,21.4c1.2,6.4,2.3,7.3,8.4,5.6c7.2-2,14.5-2,21.9-1
		c0.7,11.1,0.7,11.1-9.9,15.4c-0.4,0.2-0.9,0.3-1.3,0.4c-4.7,2-8.3,0.3-11.5-3.2c-5.6-2.5-8.6-7.1-10.1-12.9
		c-2.1-5-3.5-10.3-7.3-14.4c-1.3-5.1-2.8-10.1-3.7-15.2c-0.6-3.1-2.2-6.4,0.5-9.4c3.3,2.1,6.5,4.3,9.8,6.3
		C-1347.8,3808.6-1348.8,3811.4-1348.4,3813.9z"/>
	<path fill="#EAC2AF" d="M-1310.8,3879.8c5.8,8.7,6.4,18.4,4.9,28.2c-0.5,3.7-0.7,7.5-1.9,11.2c-0.9,2.9-2,5.2-4.4,7
		c-2.2,0.6-0.1,8.5-5.7,3.3c-0.4-0.5-1.2-1.9-1.3-3.8c0-1.6,0.5-2.8,0.8-3.4c0.2-1.4,0.6-2.7,1.7-3.5c1.2-0.9,2.5-0.7,2.9-1.5
		c0.3-0.7-0.2-1.7-0.9-2.5c0.5-9.3-0.2-18.6,1.5-27.8C-1312.7,3884.5-1313.3,3881.7-1310.8,3879.8z"/>
	<path fill="#6A4432" d="M-1358.4,3927.8c1-0.4,2.3-1.6,2.6,0.5c0.3,2.1,0.2,4.3,0.3,6.5c0,0.7,0.3,1.3,0.5,2
		c0.1-0.7,0.4-1.4,0.4-2.1c0.2-2.6,0.1-5.3,0.6-7.9c0.2-1.3,1.4-2.8,2.8-0.6c-0.7,10.8-1.3,21.5-2,32.3c-0.1,2.1-0.4,4.3-0.5,6.4
		c-0.1,1.4-0.1,3.1-2.2,2.9c-2-0.2-1.6-2-1.7-3.3c0-0.5,0-1,0-1.4C-1357.8,3951.3-1358.1,3939.5-1358.4,3927.8z"/>
	<path fill="#7D5443" d="M-1317.8,3929.8c1.6,0.7,2.4,0.5,2.8,0.2c1-0.7,0.9-2.7,1.9-3.5c0.1-0.1,0.7-0.5,0.9-0.4c0,0,0,0,0,0.1
		c-0.1,12.7-0.3,25.4-0.4,38.1c0,4-1.4,4.7-4.5,2.3c-2.8-6.8-2.4-13.9-2.3-20.9c0-2.1,0.8-4.2,0-6.3c0-1-0.1-2.1-0.1-3.1
		c0.4-0.7,1-1.7,1.4-3.1C-1317.8,3931.8-1317.8,3930.6-1317.8,3929.8z"/>
	<path fill="#C7CEC8" d="M-1319.1,3942.7c1,3.8,1.3,6.8,1.3,9c0.1,4.1-0.5,6,0.9,7.4c1.7,1.6,4,0.2,6.3,2.3c0.9,0.8,1.9,2.3,1.6,3.5
		c-0.5,1.7-3.9,2.8-8.5,2.2c-1.4-0.1-3.2-0.4-5.3-1.1c-1-0.4-1.9-0.8-2.7-1.2c-0.3-0.3-0.5-0.6-0.8-0.9c0.2-0.8,0.4-1.8,0.3-3
		c0-1.9-0.6-3.5-1-4.4c0-0.3,0-0.6,0-0.9c0-3.3,0-6.6,0-10c0-0.9,0-1.7,0-2.6c2,1.7,4.5,2.2,6.2,1.2
		C-1320.2,3944.1-1319.6,3943.6-1319.1,3942.7z"/>
	<path fill="#7B4C38" d="M-1352.9,3891.6c-0.2-0.4-0.2-1.1-0.5-1.1c-4.5-0.8-3.6-2.7-0.9-4.8c2.6-2.3,4.8-4.7,5.1-8.4
		c0.3-1.4-0.6-3.6,2.2-3.2c1.1,0.3,2.4,0.3,1.8,2.2c-0.7,2.2-1.2,4.6-1.8,6.8c0.4,5.9,0,10.5-0.4,13.7c-0.4,3.4-0.9,5-1.7,11.1
		c-0.5,3.7-1,7.8-1,7.8c-0.1,1.1-0.2,2.1-0.3,2.8c0,0.2,0.1,1.2-0.6,2c-0.3,0.3-0.6,0.5-0.8,0.6c-0.8-0.7-1.7-1.4-2.5-2.1
		C-1354.4,3909.8-1355.3,3900.6-1352.9,3891.6z"/>
	<path fill="#875841" d="M-1310.8,3879.8c-0.6,10.3-2,20.7-1.7,31.1c0,0.8,1,3.1-0.1,5.1c-0.9,1.7-2.9,2.4-4.3,2.8
		c0.3-2,0.6-4.8,0.8-8.2c0-0.6,0.6-2.7,0.1-7.1c-0.4-3.6,0.1-7.2-0.3-10.7c-0.7-1.7-1.9-2.8-3.2-4c0-1-0.1-1.9-0.1-2.9
		c2.9-2.5,5.8-5.1,1.4-8.7c0-3.7,0-7.4,0-11.1C-1312.2,3868.7-1310.7,3873.8-1310.8,3879.8z"/>
	<path fill="#75916E" d="M-1346.9,3874c-2.2,0.7-0.2,1.9-0.3,2.9c-1,1.3-2.1,2.5-3.9,1.3c-2.1-0.7-2.5-5.9-6.5-2.2
		c-1.1,1.1-1.2-1-1.1-1.5c0.3-1.1,0.9-2.1,1.4-3.1c2.2-1.8,3.4-4.7,6-6.1C-1345.3,3866-1346.7,3870.3-1346.9,3874z"/>
	<path fill="#E5BFAB" d="M-1357.2,3825.2c7.5,2.2,6.8,8.6,7.3,14.4c-0.8-0.8-1.6-1.8-2.6-2.3
		C-1359.7,3833.6-1360,3832.8-1357.2,3825.2z"/>
	<path fill="#E7C5AC" d="M-1339.8,3852.5c3.9,0.8,7.4,3,11.5,3.2c-2.4,2.3,1,2.7,1.3,4.2c-0.4,0-0.9,0.1-1.3,0.1
		c-4.2,3.9-8.6,2-12.9,0.2l-0.2-0.4C-1339.6,3857.6-1339.9,3855-1339.8,3852.5z"/>
	<path fill="#FBDEC6" d="M-1318.2,3877.1c1.7-0.3,3.9-2.6,4.1,1.7c0.4,6.8,0.6,6.8-5.5,7.1
		C-1319.8,3882.8-1320.2,3879.8-1318.2,3877.1z"/>
	<path fill="#939866" d="M-1321.2,3877.1c0.3,2.1-1.1,3.2-2.8,3.4c-2.2,0.2-2.2-2.1-2.6-3.5c-0.5-1.7,0.5-2.7,2.3-2.7
		C-1322.3,3874.1-1321.1,3874.9-1321.2,3877.1z"/>
	<path fill="#C0A269" d="M-1341.2,3860.1c4.3-0.3,8.6,2.5,12.9-0.2C-1333,3865.3-1334.9,3865.3-1341.2,3860.1z"/>
	<path fill="#A88972" d="M-1339.1,3823.7c-1.3,0-2.2,0-3.1,0c-0.7,0-1.3-0.4-1.5-1.1c-0.3-0.9,0.4-1.3,1-1.5
		c0.9-0.3,1.8-0.3,2.8-0.5c2-0.4,3.9-2,5.9-0.1c0.5,0.5,1,1,0.4,1.8C-1335.1,3824.4-1337.4,3823.5-1339.1,3823.7z"/>
	<path fill="#A88A74" d="M-1322,3820.7c1.3,0.3,3.2-0.4,3.3,1.6c0.1,1.1-1.2,1.2-2.1,1.3c-1.4,0-3.2,0.1-3.5-1.5
		C-1324.7,3820.2-1322.8,3821.1-1322,3820.7z"/>
	<path fill="#7A5B46" d="M-1338.4,3829.4c-0.1,0.2-0.1,1.7-1.7,1.4c-1.1-0.2-1.2-1.2-1.2-2.2c0.1-1.1,0.8-1.6,1.8-1.7
		C-1338.4,3826.9-1337.7,3827.2-1338.4,3829.4z"/>
	<path fill="#8E6C54" d="M-1322.4,3830.7c-0.9,0.2-1.2-0.5-1.5-1.1c-0.4-1,0-2.1,0.9-2.4c0.9-0.4,1.9,0.1,1.9,1.3
		C-1321,3829.5-1321.2,3830.4-1322.4,3830.7z"/>
	<path fill="#99A4A1" d="M-1326.8,3956.5c2.1-0.1,2.9,0.9,2.9,2.9c-0.1,1.9,0,3.7-0.1,5.6
		C-1329.1,3964.1-1329.5,3963.1-1326.8,3956.5z"/>
	<path fill="#ECC4B2" d="M-1327.4,3843.6c2.4,0,4.2-0.3,5.5-0.6c1.2-0.3,1.8-0.5,2.2-0.2c0.6,0.6-0.3,3-2,4.3
		c-0.8,0.6-2.5,0.9-5.8,1.2c-0.9,0.1-1.9,0.1-2.8,0.1c-0.9,0-2.1-0.3-3.1-1c-1.8-1.3-2.4-3.9-1.8-4.3c0.2-0.1,0.3,0,1.8,0.3
		c0.1,0,0.7,0.1,1.3,0.2c0.3,0,0.8,0.1,1.6,0.1C-1329.9,3843.6-1328.8,3843.6-1327.4,3843.6z"/>
	<g>
		<path fill="#E9C1AE" d="M-1351.8,3919.8C-1351.8,3919.8-1351.8,3919.8-1351.8,3919.8c0-0.1-0.1-0.4-0.2-0.6
			c-0.1-0.3-0.2-0.7-0.4-1c-0.1-0.2-0.3-0.4-0.6-0.6c-0.7-0.5-1.5-0.4-1.7-0.4c-0.3,0.1-0.6,0.1-0.9,0.2c-0.2-0.2-0.6-0.5-0.9-1
			c-0.6-0.9-0.8-1.9-0.8-2.2c-0.3-2.1-0.8-9.3-1.1-19.2c0.2-0.5,0.5-0.9,0.6-1.1c0.5-0.8,0.8-1.4,1.1-1.8c0.2-0.3,0.4-0.6,0.4-0.6
			c0.4-0.7,2-4.3,5.5-13.3c0.2-4.5-5.4-3.7-6.5-7c-2.7,0-3.8,13.2-5.8,17.6c-0.8,1.8-1.2,3.5-1.3,5.5c-0.8,11.7,0.7,22.9,6,33.4
			c0.1,0,1.7,0.9,2.4,1.3c0.3-0.2,0.7-0.5,1.2-0.7c0.5-0.3,0.9-0.4,1.1-0.5c0.6-0.2,1.4-0.7,2.5-1.7c1-1.6,1.3-3.3,1.3-5
			C-1350.4,3920.7-1351.1,3920.3-1351.8,3919.8z"/>
		<path fill="#E9C1AE" d="M-1355.7,3898.1c0,0.8,0,1.5,0,2.3L-1355.7,3898.1C-1355.7,3898.1-1355.7,3898.1-1355.7,3898.1z"/>
	</g>
	<path fill="#F9E5D6" d="M-1350.8,3878c0.4-0.2,0.9-0.5,1.5-0.7c0.8-0.3,1.5-0.4,2.1-0.4c0,2.8-1.9,4.8-2.8,7.3
		c-0.3,0.8-0.6,1-0.9,1.3c-1,0.8-2.3,0.7-2.9,0.6c0.6-1.5,1.1-3.1,1.7-4.7C-1351.7,3880.3-1351.2,3879.2-1350.8,3878z"/>
</g>
</svg>
